%TF.GenerationSoftware,KiCad,Pcbnew,10.0.0*%
%TF.CreationDate,2026-04-15T14:16:50-04:00*%
%TF.ProjectId,numberpad,6e756d62-6572-4706-9164-2e6b69636164,rev?*%
%TF.SameCoordinates,Original*%
%TF.FileFunction,AssemblyDrawing,Top*%
%FSLAX46Y46*%
G04 Gerber Fmt 4.6, Leading zero omitted, Abs format (unit mm)*
G04 Created by KiCad (PCBNEW 10.0.0) date 2026-04-15 14:16:50*
%MOMM*%
%LPD*%
G01*
G04 APERTURE LIST*
%ADD10C,0.150000*%
%ADD11C,0.108000*%
%ADD12C,0.100000*%
%ADD13C,0.000000*%
%ADD14C,0.025400*%
%ADD15C,0.127000*%
%ADD16C,0.200000*%
G04 APERTURE END LIST*
D10*
X112978571Y-51414819D02*
X112978571Y-52224342D01*
X112978571Y-52224342D02*
X113026190Y-52319580D01*
X113026190Y-52319580D02*
X113073809Y-52367200D01*
X113073809Y-52367200D02*
X113169047Y-52414819D01*
X113169047Y-52414819D02*
X113359523Y-52414819D01*
X113359523Y-52414819D02*
X113454761Y-52367200D01*
X113454761Y-52367200D02*
X113502380Y-52319580D01*
X113502380Y-52319580D02*
X113549999Y-52224342D01*
X113549999Y-52224342D02*
X113549999Y-51414819D01*
X113978571Y-52367200D02*
X114121428Y-52414819D01*
X114121428Y-52414819D02*
X114359523Y-52414819D01*
X114359523Y-52414819D02*
X114454761Y-52367200D01*
X114454761Y-52367200D02*
X114502380Y-52319580D01*
X114502380Y-52319580D02*
X114549999Y-52224342D01*
X114549999Y-52224342D02*
X114549999Y-52129104D01*
X114549999Y-52129104D02*
X114502380Y-52033866D01*
X114502380Y-52033866D02*
X114454761Y-51986247D01*
X114454761Y-51986247D02*
X114359523Y-51938628D01*
X114359523Y-51938628D02*
X114169047Y-51891009D01*
X114169047Y-51891009D02*
X114073809Y-51843390D01*
X114073809Y-51843390D02*
X114026190Y-51795771D01*
X114026190Y-51795771D02*
X113978571Y-51700533D01*
X113978571Y-51700533D02*
X113978571Y-51605295D01*
X113978571Y-51605295D02*
X114026190Y-51510057D01*
X114026190Y-51510057D02*
X114073809Y-51462438D01*
X114073809Y-51462438D02*
X114169047Y-51414819D01*
X114169047Y-51414819D02*
X114407142Y-51414819D01*
X114407142Y-51414819D02*
X114549999Y-51462438D01*
X115311904Y-51891009D02*
X115454761Y-51938628D01*
X115454761Y-51938628D02*
X115502380Y-51986247D01*
X115502380Y-51986247D02*
X115549999Y-52081485D01*
X115549999Y-52081485D02*
X115549999Y-52224342D01*
X115549999Y-52224342D02*
X115502380Y-52319580D01*
X115502380Y-52319580D02*
X115454761Y-52367200D01*
X115454761Y-52367200D02*
X115359523Y-52414819D01*
X115359523Y-52414819D02*
X114978571Y-52414819D01*
X114978571Y-52414819D02*
X114978571Y-51414819D01*
X114978571Y-51414819D02*
X115311904Y-51414819D01*
X115311904Y-51414819D02*
X115407142Y-51462438D01*
X115407142Y-51462438D02*
X115454761Y-51510057D01*
X115454761Y-51510057D02*
X115502380Y-51605295D01*
X115502380Y-51605295D02*
X115502380Y-51700533D01*
X115502380Y-51700533D02*
X115454761Y-51795771D01*
X115454761Y-51795771D02*
X115407142Y-51843390D01*
X115407142Y-51843390D02*
X115311904Y-51891009D01*
X115311904Y-51891009D02*
X114978571Y-51891009D01*
X115740476Y-52510057D02*
X116502380Y-52510057D01*
X116692857Y-52129104D02*
X117169047Y-52129104D01*
X116597619Y-52414819D02*
X116930952Y-51414819D01*
X116930952Y-51414819D02*
X117264285Y-52414819D01*
X54549819Y-54948333D02*
X55264104Y-54948333D01*
X55264104Y-54948333D02*
X55406961Y-54995952D01*
X55406961Y-54995952D02*
X55502200Y-55091190D01*
X55502200Y-55091190D02*
X55549819Y-55234047D01*
X55549819Y-55234047D02*
X55549819Y-55329285D01*
X54549819Y-54567380D02*
X54549819Y-53900714D01*
X54549819Y-53900714D02*
X55549819Y-54329285D01*
D11*
X77330000Y-58867469D02*
X77090000Y-58524612D01*
X76918571Y-58867469D02*
X76918571Y-58147469D01*
X76918571Y-58147469D02*
X77192857Y-58147469D01*
X77192857Y-58147469D02*
X77261428Y-58181755D01*
X77261428Y-58181755D02*
X77295714Y-58216041D01*
X77295714Y-58216041D02*
X77330000Y-58284612D01*
X77330000Y-58284612D02*
X77330000Y-58387469D01*
X77330000Y-58387469D02*
X77295714Y-58456041D01*
X77295714Y-58456041D02*
X77261428Y-58490326D01*
X77261428Y-58490326D02*
X77192857Y-58524612D01*
X77192857Y-58524612D02*
X76918571Y-58524612D01*
X78015714Y-58867469D02*
X77604285Y-58867469D01*
X77810000Y-58867469D02*
X77810000Y-58147469D01*
X77810000Y-58147469D02*
X77741428Y-58250326D01*
X77741428Y-58250326D02*
X77672857Y-58318898D01*
X77672857Y-58318898D02*
X77604285Y-58353184D01*
D10*
X65458095Y-60744819D02*
X65458095Y-61554342D01*
X65458095Y-61554342D02*
X65505714Y-61649580D01*
X65505714Y-61649580D02*
X65553333Y-61697200D01*
X65553333Y-61697200D02*
X65648571Y-61744819D01*
X65648571Y-61744819D02*
X65839047Y-61744819D01*
X65839047Y-61744819D02*
X65934285Y-61697200D01*
X65934285Y-61697200D02*
X65981904Y-61649580D01*
X65981904Y-61649580D02*
X66029523Y-61554342D01*
X66029523Y-61554342D02*
X66029523Y-60744819D01*
X66410476Y-60744819D02*
X67029523Y-60744819D01*
X67029523Y-60744819D02*
X66696190Y-61125771D01*
X66696190Y-61125771D02*
X66839047Y-61125771D01*
X66839047Y-61125771D02*
X66934285Y-61173390D01*
X66934285Y-61173390D02*
X66981904Y-61221009D01*
X66981904Y-61221009D02*
X67029523Y-61316247D01*
X67029523Y-61316247D02*
X67029523Y-61554342D01*
X67029523Y-61554342D02*
X66981904Y-61649580D01*
X66981904Y-61649580D02*
X66934285Y-61697200D01*
X66934285Y-61697200D02*
X66839047Y-61744819D01*
X66839047Y-61744819D02*
X66553333Y-61744819D01*
X66553333Y-61744819D02*
X66458095Y-61697200D01*
X66458095Y-61697200D02*
X66410476Y-61649580D01*
X109364762Y-57954819D02*
X109936190Y-57954819D01*
X109650476Y-58954819D02*
X109650476Y-57954819D01*
X110269524Y-58431009D02*
X110602857Y-58431009D01*
X110745714Y-58954819D02*
X110269524Y-58954819D01*
X110269524Y-58954819D02*
X110269524Y-57954819D01*
X110269524Y-57954819D02*
X110745714Y-57954819D01*
X111174286Y-58954819D02*
X111174286Y-57954819D01*
X111174286Y-57954819D02*
X111507619Y-58669104D01*
X111507619Y-58669104D02*
X111840952Y-57954819D01*
X111840952Y-57954819D02*
X111840952Y-58954819D01*
X112174286Y-57954819D02*
X112745714Y-57954819D01*
X112460000Y-58954819D02*
X112460000Y-57954819D01*
X113507619Y-57954819D02*
X113317143Y-57954819D01*
X113317143Y-57954819D02*
X113221905Y-58002438D01*
X113221905Y-58002438D02*
X113174286Y-58050057D01*
X113174286Y-58050057D02*
X113079048Y-58192914D01*
X113079048Y-58192914D02*
X113031429Y-58383390D01*
X113031429Y-58383390D02*
X113031429Y-58764342D01*
X113031429Y-58764342D02*
X113079048Y-58859580D01*
X113079048Y-58859580D02*
X113126667Y-58907200D01*
X113126667Y-58907200D02*
X113221905Y-58954819D01*
X113221905Y-58954819D02*
X113412381Y-58954819D01*
X113412381Y-58954819D02*
X113507619Y-58907200D01*
X113507619Y-58907200D02*
X113555238Y-58859580D01*
X113555238Y-58859580D02*
X113602857Y-58764342D01*
X113602857Y-58764342D02*
X113602857Y-58526247D01*
X113602857Y-58526247D02*
X113555238Y-58431009D01*
X113555238Y-58431009D02*
X113507619Y-58383390D01*
X113507619Y-58383390D02*
X113412381Y-58335771D01*
X113412381Y-58335771D02*
X113221905Y-58335771D01*
X113221905Y-58335771D02*
X113126667Y-58383390D01*
X113126667Y-58383390D02*
X113079048Y-58431009D01*
X113079048Y-58431009D02*
X113031429Y-58526247D01*
X114221905Y-57954819D02*
X114317143Y-57954819D01*
X114317143Y-57954819D02*
X114412381Y-58002438D01*
X114412381Y-58002438D02*
X114460000Y-58050057D01*
X114460000Y-58050057D02*
X114507619Y-58145295D01*
X114507619Y-58145295D02*
X114555238Y-58335771D01*
X114555238Y-58335771D02*
X114555238Y-58573866D01*
X114555238Y-58573866D02*
X114507619Y-58764342D01*
X114507619Y-58764342D02*
X114460000Y-58859580D01*
X114460000Y-58859580D02*
X114412381Y-58907200D01*
X114412381Y-58907200D02*
X114317143Y-58954819D01*
X114317143Y-58954819D02*
X114221905Y-58954819D01*
X114221905Y-58954819D02*
X114126667Y-58907200D01*
X114126667Y-58907200D02*
X114079048Y-58859580D01*
X114079048Y-58859580D02*
X114031429Y-58764342D01*
X114031429Y-58764342D02*
X113983810Y-58573866D01*
X113983810Y-58573866D02*
X113983810Y-58335771D01*
X113983810Y-58335771D02*
X114031429Y-58145295D01*
X114031429Y-58145295D02*
X114079048Y-58050057D01*
X114079048Y-58050057D02*
X114126667Y-58002438D01*
X114126667Y-58002438D02*
X114221905Y-57954819D01*
X115174286Y-57954819D02*
X115269524Y-57954819D01*
X115269524Y-57954819D02*
X115364762Y-58002438D01*
X115364762Y-58002438D02*
X115412381Y-58050057D01*
X115412381Y-58050057D02*
X115460000Y-58145295D01*
X115460000Y-58145295D02*
X115507619Y-58335771D01*
X115507619Y-58335771D02*
X115507619Y-58573866D01*
X115507619Y-58573866D02*
X115460000Y-58764342D01*
X115460000Y-58764342D02*
X115412381Y-58859580D01*
X115412381Y-58859580D02*
X115364762Y-58907200D01*
X115364762Y-58907200D02*
X115269524Y-58954819D01*
X115269524Y-58954819D02*
X115174286Y-58954819D01*
X115174286Y-58954819D02*
X115079048Y-58907200D01*
X115079048Y-58907200D02*
X115031429Y-58859580D01*
X115031429Y-58859580D02*
X114983810Y-58764342D01*
X114983810Y-58764342D02*
X114936191Y-58573866D01*
X114936191Y-58573866D02*
X114936191Y-58335771D01*
X114936191Y-58335771D02*
X114983810Y-58145295D01*
X114983810Y-58145295D02*
X115031429Y-58050057D01*
X115031429Y-58050057D02*
X115079048Y-58002438D01*
X115079048Y-58002438D02*
X115174286Y-57954819D01*
X116126667Y-57954819D02*
X116221905Y-57954819D01*
X116221905Y-57954819D02*
X116317143Y-58002438D01*
X116317143Y-58002438D02*
X116364762Y-58050057D01*
X116364762Y-58050057D02*
X116412381Y-58145295D01*
X116412381Y-58145295D02*
X116460000Y-58335771D01*
X116460000Y-58335771D02*
X116460000Y-58573866D01*
X116460000Y-58573866D02*
X116412381Y-58764342D01*
X116412381Y-58764342D02*
X116364762Y-58859580D01*
X116364762Y-58859580D02*
X116317143Y-58907200D01*
X116317143Y-58907200D02*
X116221905Y-58954819D01*
X116221905Y-58954819D02*
X116126667Y-58954819D01*
X116126667Y-58954819D02*
X116031429Y-58907200D01*
X116031429Y-58907200D02*
X115983810Y-58859580D01*
X115983810Y-58859580D02*
X115936191Y-58764342D01*
X115936191Y-58764342D02*
X115888572Y-58573866D01*
X115888572Y-58573866D02*
X115888572Y-58335771D01*
X115888572Y-58335771D02*
X115936191Y-58145295D01*
X115936191Y-58145295D02*
X115983810Y-58050057D01*
X115983810Y-58050057D02*
X116031429Y-58002438D01*
X116031429Y-58002438D02*
X116126667Y-57954819D01*
X67931667Y-146157200D02*
X68074524Y-146204819D01*
X68074524Y-146204819D02*
X68312619Y-146204819D01*
X68312619Y-146204819D02*
X68407857Y-146157200D01*
X68407857Y-146157200D02*
X68455476Y-146109580D01*
X68455476Y-146109580D02*
X68503095Y-146014342D01*
X68503095Y-146014342D02*
X68503095Y-145919104D01*
X68503095Y-145919104D02*
X68455476Y-145823866D01*
X68455476Y-145823866D02*
X68407857Y-145776247D01*
X68407857Y-145776247D02*
X68312619Y-145728628D01*
X68312619Y-145728628D02*
X68122143Y-145681009D01*
X68122143Y-145681009D02*
X68026905Y-145633390D01*
X68026905Y-145633390D02*
X67979286Y-145585771D01*
X67979286Y-145585771D02*
X67931667Y-145490533D01*
X67931667Y-145490533D02*
X67931667Y-145395295D01*
X67931667Y-145395295D02*
X67979286Y-145300057D01*
X67979286Y-145300057D02*
X68026905Y-145252438D01*
X68026905Y-145252438D02*
X68122143Y-145204819D01*
X68122143Y-145204819D02*
X68360238Y-145204819D01*
X68360238Y-145204819D02*
X68503095Y-145252438D01*
X68836429Y-145204819D02*
X69074524Y-146204819D01*
X69074524Y-146204819D02*
X69265000Y-145490533D01*
X69265000Y-145490533D02*
X69455476Y-146204819D01*
X69455476Y-146204819D02*
X69693572Y-145204819D01*
X70265000Y-145204819D02*
X70360238Y-145204819D01*
X70360238Y-145204819D02*
X70455476Y-145252438D01*
X70455476Y-145252438D02*
X70503095Y-145300057D01*
X70503095Y-145300057D02*
X70550714Y-145395295D01*
X70550714Y-145395295D02*
X70598333Y-145585771D01*
X70598333Y-145585771D02*
X70598333Y-145823866D01*
X70598333Y-145823866D02*
X70550714Y-146014342D01*
X70550714Y-146014342D02*
X70503095Y-146109580D01*
X70503095Y-146109580D02*
X70455476Y-146157200D01*
X70455476Y-146157200D02*
X70360238Y-146204819D01*
X70360238Y-146204819D02*
X70265000Y-146204819D01*
X70265000Y-146204819D02*
X70169762Y-146157200D01*
X70169762Y-146157200D02*
X70122143Y-146109580D01*
X70122143Y-146109580D02*
X70074524Y-146014342D01*
X70074524Y-146014342D02*
X70026905Y-145823866D01*
X70026905Y-145823866D02*
X70026905Y-145585771D01*
X70026905Y-145585771D02*
X70074524Y-145395295D01*
X70074524Y-145395295D02*
X70122143Y-145300057D01*
X70122143Y-145300057D02*
X70169762Y-145252438D01*
X70169762Y-145252438D02*
X70265000Y-145204819D01*
D11*
X77390000Y-64137469D02*
X77150000Y-63794612D01*
X76978571Y-64137469D02*
X76978571Y-63417469D01*
X76978571Y-63417469D02*
X77252857Y-63417469D01*
X77252857Y-63417469D02*
X77321428Y-63451755D01*
X77321428Y-63451755D02*
X77355714Y-63486041D01*
X77355714Y-63486041D02*
X77390000Y-63554612D01*
X77390000Y-63554612D02*
X77390000Y-63657469D01*
X77390000Y-63657469D02*
X77355714Y-63726041D01*
X77355714Y-63726041D02*
X77321428Y-63760326D01*
X77321428Y-63760326D02*
X77252857Y-63794612D01*
X77252857Y-63794612D02*
X76978571Y-63794612D01*
X77664285Y-63486041D02*
X77698571Y-63451755D01*
X77698571Y-63451755D02*
X77767143Y-63417469D01*
X77767143Y-63417469D02*
X77938571Y-63417469D01*
X77938571Y-63417469D02*
X78007143Y-63451755D01*
X78007143Y-63451755D02*
X78041428Y-63486041D01*
X78041428Y-63486041D02*
X78075714Y-63554612D01*
X78075714Y-63554612D02*
X78075714Y-63623184D01*
X78075714Y-63623184D02*
X78041428Y-63726041D01*
X78041428Y-63726041D02*
X77630000Y-64137469D01*
X77630000Y-64137469D02*
X78075714Y-64137469D01*
D10*
X129496666Y-42674819D02*
X129496666Y-43389104D01*
X129496666Y-43389104D02*
X129449047Y-43531961D01*
X129449047Y-43531961D02*
X129353809Y-43627200D01*
X129353809Y-43627200D02*
X129210952Y-43674819D01*
X129210952Y-43674819D02*
X129115714Y-43674819D01*
X129925238Y-42770057D02*
X129972857Y-42722438D01*
X129972857Y-42722438D02*
X130068095Y-42674819D01*
X130068095Y-42674819D02*
X130306190Y-42674819D01*
X130306190Y-42674819D02*
X130401428Y-42722438D01*
X130401428Y-42722438D02*
X130449047Y-42770057D01*
X130449047Y-42770057D02*
X130496666Y-42865295D01*
X130496666Y-42865295D02*
X130496666Y-42960533D01*
X130496666Y-42960533D02*
X130449047Y-43103390D01*
X130449047Y-43103390D02*
X129877619Y-43674819D01*
X129877619Y-43674819D02*
X130496666Y-43674819D01*
X68313809Y-53198628D02*
X68313809Y-53674819D01*
X67980476Y-52674819D02*
X68313809Y-53198628D01*
X68313809Y-53198628D02*
X68647142Y-52674819D01*
X69504285Y-53674819D02*
X68932857Y-53674819D01*
X69218571Y-53674819D02*
X69218571Y-52674819D01*
X69218571Y-52674819D02*
X69123333Y-52817676D01*
X69123333Y-52817676D02*
X69028095Y-52912914D01*
X69028095Y-52912914D02*
X68932857Y-52960533D01*
X109830476Y-105207200D02*
X109973333Y-105254819D01*
X109973333Y-105254819D02*
X110211428Y-105254819D01*
X110211428Y-105254819D02*
X110306666Y-105207200D01*
X110306666Y-105207200D02*
X110354285Y-105159580D01*
X110354285Y-105159580D02*
X110401904Y-105064342D01*
X110401904Y-105064342D02*
X110401904Y-104969104D01*
X110401904Y-104969104D02*
X110354285Y-104873866D01*
X110354285Y-104873866D02*
X110306666Y-104826247D01*
X110306666Y-104826247D02*
X110211428Y-104778628D01*
X110211428Y-104778628D02*
X110020952Y-104731009D01*
X110020952Y-104731009D02*
X109925714Y-104683390D01*
X109925714Y-104683390D02*
X109878095Y-104635771D01*
X109878095Y-104635771D02*
X109830476Y-104540533D01*
X109830476Y-104540533D02*
X109830476Y-104445295D01*
X109830476Y-104445295D02*
X109878095Y-104350057D01*
X109878095Y-104350057D02*
X109925714Y-104302438D01*
X109925714Y-104302438D02*
X110020952Y-104254819D01*
X110020952Y-104254819D02*
X110259047Y-104254819D01*
X110259047Y-104254819D02*
X110401904Y-104302438D01*
X110735238Y-104254819D02*
X110973333Y-105254819D01*
X110973333Y-105254819D02*
X111163809Y-104540533D01*
X111163809Y-104540533D02*
X111354285Y-105254819D01*
X111354285Y-105254819D02*
X111592381Y-104254819D01*
X112497142Y-105254819D02*
X111925714Y-105254819D01*
X112211428Y-105254819D02*
X112211428Y-104254819D01*
X112211428Y-104254819D02*
X112116190Y-104397676D01*
X112116190Y-104397676D02*
X112020952Y-104492914D01*
X112020952Y-104492914D02*
X111925714Y-104540533D01*
X112878095Y-104350057D02*
X112925714Y-104302438D01*
X112925714Y-104302438D02*
X113020952Y-104254819D01*
X113020952Y-104254819D02*
X113259047Y-104254819D01*
X113259047Y-104254819D02*
X113354285Y-104302438D01*
X113354285Y-104302438D02*
X113401904Y-104350057D01*
X113401904Y-104350057D02*
X113449523Y-104445295D01*
X113449523Y-104445295D02*
X113449523Y-104540533D01*
X113449523Y-104540533D02*
X113401904Y-104683390D01*
X113401904Y-104683390D02*
X112830476Y-105254819D01*
X112830476Y-105254819D02*
X113449523Y-105254819D01*
%TO.C,J5*%
D12*
X106455000Y-56000000D02*
X106455000Y-42000000D01*
X120075000Y-56000000D02*
X106455000Y-56000000D01*
X120075000Y-56000000D02*
X120955000Y-55120000D01*
X120955000Y-42000000D02*
X106455000Y-42000000D01*
X120955000Y-55120000D02*
X120955000Y-42000000D01*
%TO.C,SW13*%
X52480000Y-77300000D02*
X56380000Y-77300001D01*
X52480000Y-82300000D02*
X52480000Y-77300000D01*
X56380000Y-82299999D02*
X52480000Y-82300000D01*
X60180000Y-77300001D02*
X64080000Y-77300000D01*
X64080000Y-77300000D02*
X64080000Y-82300000D01*
X64080000Y-82300000D02*
X60180000Y-82299999D01*
X55080000Y-73500000D02*
X60080000Y-73500000D01*
X60080000Y-75750000D01*
X55080000Y-75750000D01*
X55080000Y-73500000D01*
X50780000Y-72300000D02*
X65780000Y-72300000D01*
X65780000Y-87300000D01*
X50780000Y-87300000D01*
X50780000Y-72300000D01*
X56380000Y-77300001D02*
G75*
G02*
X60180000Y-77300001I1900000J-2499998D01*
G01*
X60180000Y-82299999D02*
G75*
G02*
X56380000Y-82299999I-1900000J2499998D01*
G01*
X61155000Y-79800000D02*
G75*
G02*
X55405000Y-79800000I-2875000J0D01*
G01*
X55405000Y-79800000D02*
G75*
G02*
X61155000Y-79800000I2875000J0D01*
G01*
D13*
G36*
X58780000Y-79160000D02*
G01*
X60230000Y-79160000D01*
X60230000Y-80440000D01*
X58780000Y-80440000D01*
X58780000Y-81800000D01*
X57680000Y-81800000D01*
X57680000Y-80440000D01*
X56230000Y-80440000D01*
X56230000Y-79160000D01*
X57680000Y-79160000D01*
X57680000Y-77800000D01*
X58780000Y-77800000D01*
X58780000Y-79160000D01*
G37*
%TO.C,J7*%
D12*
X50955000Y-52600000D02*
X51590000Y-51965000D01*
X50955000Y-62125000D02*
X50955000Y-52600000D01*
X51590000Y-51965000D02*
X53495000Y-51965000D01*
X53495000Y-51965000D02*
X53495000Y-62125000D01*
X53495000Y-62125000D02*
X50955000Y-62125000D01*
%TO.C,SW14*%
X72420000Y-77300000D02*
X76320000Y-77300001D01*
X72420000Y-82300000D02*
X72420000Y-77300000D01*
X76320000Y-82299999D02*
X72420000Y-82300000D01*
X80120000Y-77300001D02*
X84020000Y-77300000D01*
X84020000Y-77300000D02*
X84020000Y-82300000D01*
X84020000Y-82300000D02*
X80120000Y-82299999D01*
X75020000Y-73500000D02*
X80020000Y-73500000D01*
X80020000Y-75750000D01*
X75020000Y-75750000D01*
X75020000Y-73500000D01*
X70720000Y-72300000D02*
X85720000Y-72300000D01*
X85720000Y-87300000D01*
X70720000Y-87300000D01*
X70720000Y-72300000D01*
X76320000Y-77300001D02*
G75*
G02*
X80120000Y-77300001I1900000J-2499998D01*
G01*
X80120000Y-82299999D02*
G75*
G02*
X76320000Y-82299999I-1900000J2499998D01*
G01*
X81095000Y-79800000D02*
G75*
G02*
X75345000Y-79800000I-2875000J0D01*
G01*
X75345000Y-79800000D02*
G75*
G02*
X81095000Y-79800000I2875000J0D01*
G01*
D13*
G36*
X78720000Y-79160000D02*
G01*
X80170000Y-79160000D01*
X80170000Y-80440000D01*
X78720000Y-80440000D01*
X78720000Y-81800000D01*
X77620000Y-81800000D01*
X77620000Y-80440000D01*
X76170000Y-80440000D01*
X76170000Y-79160000D01*
X77620000Y-79160000D01*
X77620000Y-77800000D01*
X78720000Y-77800000D01*
X78720000Y-79160000D01*
G37*
%TO.C,3V3*%
D12*
X124490000Y-55940000D02*
X129570000Y-55940000D01*
X124490000Y-57845000D02*
X124490000Y-55940000D01*
X125125000Y-58480000D02*
X124490000Y-57845000D01*
X129570000Y-55940000D02*
X129570000Y-58480000D01*
X129570000Y-58480000D02*
X125125000Y-58480000D01*
%TO.C,R1*%
X73640000Y-58540000D02*
X75650000Y-58540000D01*
X81260000Y-58540000D02*
X79250000Y-58540000D01*
X75650000Y-57740000D02*
X79250000Y-57740000D01*
X79250000Y-59340000D01*
X75650000Y-59340000D01*
X75650000Y-57740000D01*
%TO.C,C1*%
X75340000Y-51890000D02*
X79940000Y-51890000D01*
X79940000Y-53890000D01*
X75340000Y-53890000D01*
X75340000Y-51890000D01*
%TO.C,SW15*%
X92200000Y-77300000D02*
X96100000Y-77300001D01*
X92200000Y-82300000D02*
X92200000Y-77300000D01*
X96100000Y-82299999D02*
X92200000Y-82300000D01*
X99900000Y-77300001D02*
X103800000Y-77300000D01*
X103800000Y-77300000D02*
X103800000Y-82300000D01*
X103800000Y-82300000D02*
X99900000Y-82299999D01*
X94800000Y-73500000D02*
X99800000Y-73500000D01*
X99800000Y-75750000D01*
X94800000Y-75750000D01*
X94800000Y-73500000D01*
X90500000Y-72300000D02*
X105500000Y-72300000D01*
X105500000Y-87300000D01*
X90500000Y-87300000D01*
X90500000Y-72300000D01*
X96100000Y-77300001D02*
G75*
G02*
X99900000Y-77300001I1900000J-2499998D01*
G01*
X99900000Y-82299999D02*
G75*
G02*
X96100000Y-82299999I-1900000J2499998D01*
G01*
X100875000Y-79800000D02*
G75*
G02*
X95125000Y-79800000I-2875000J0D01*
G01*
X95125000Y-79800000D02*
G75*
G02*
X100875000Y-79800000I2875000J0D01*
G01*
D13*
G36*
X98500000Y-79160000D02*
G01*
X99950000Y-79160000D01*
X99950000Y-80440000D01*
X98500000Y-80440000D01*
X98500000Y-81800000D01*
X97400000Y-81800000D01*
X97400000Y-80440000D01*
X95950000Y-80440000D01*
X95950000Y-79160000D01*
X97400000Y-79160000D01*
X97400000Y-77800000D01*
X98500000Y-77800000D01*
X98500000Y-79160000D01*
G37*
%TO.C,SW2*%
D12*
X52480000Y-133510000D02*
X56380000Y-133510001D01*
X52480000Y-138510000D02*
X52480000Y-133510000D01*
X56380000Y-138509999D02*
X52480000Y-138510000D01*
X60180000Y-133510001D02*
X64080000Y-133510000D01*
X64080000Y-133510000D02*
X64080000Y-138510000D01*
X64080000Y-138510000D02*
X60180000Y-138509999D01*
X55080000Y-129710000D02*
X60080000Y-129710000D01*
X60080000Y-131960000D01*
X55080000Y-131960000D01*
X55080000Y-129710000D01*
X50780000Y-128510000D02*
X65780000Y-128510000D01*
X65780000Y-143510000D01*
X50780000Y-143510000D01*
X50780000Y-128510000D01*
X56380000Y-133510001D02*
G75*
G02*
X60180000Y-133510001I1900000J-2499998D01*
G01*
X60180000Y-138509999D02*
G75*
G02*
X56380000Y-138509999I-1900000J2499998D01*
G01*
X61155000Y-136010000D02*
G75*
G02*
X55405000Y-136010000I-2875000J0D01*
G01*
X55405000Y-136010000D02*
G75*
G02*
X61155000Y-136010000I2875000J0D01*
G01*
D13*
G36*
X58780000Y-135370000D02*
G01*
X60230000Y-135370000D01*
X60230000Y-136650000D01*
X58780000Y-136650000D01*
X58780000Y-138010000D01*
X57680000Y-138010000D01*
X57680000Y-136650000D01*
X56230000Y-136650000D01*
X56230000Y-135370000D01*
X57680000Y-135370000D01*
X57680000Y-134010000D01*
X58780000Y-134010000D01*
X58780000Y-135370000D01*
G37*
%TO.C,U3*%
D14*
D13*
X63172000Y-58242000D02*
X63171999Y-58242000D01*
X63171999Y-58242000D01*
X63171999Y-58242000D01*
X63171999Y-58242000D01*
X63171999Y-58242000D01*
X63171999Y-58242000D01*
X63171999Y-58242000D01*
X63171999Y-58241999D01*
X63171999Y-58241999D01*
X63171999Y-58241999D01*
X63171999Y-58241999D01*
X63171999Y-58241999D01*
X63172000Y-58241999D01*
X63172000Y-58241999D01*
X63172000Y-58241999D01*
X63172000Y-58241999D01*
X63172000Y-58241999D01*
X63172000Y-58241999D01*
X63172000Y-58241999D01*
X63172000Y-58241999D01*
X63172000Y-58241999D01*
X63172000Y-58241999D01*
X63172000Y-58241999D01*
X63172000Y-58241999D01*
X63172001Y-58241999D01*
X63172001Y-58241999D01*
X63172001Y-58241999D01*
X63172001Y-58241999D01*
X63172001Y-58241999D01*
X63172001Y-58241999D01*
X63172001Y-58242000D01*
X63172001Y-58242000D01*
X63172001Y-58242000D01*
X63172001Y-58242000D01*
X63172001Y-58242000D01*
X63172001Y-58242000D01*
X63172001Y-58242000D01*
X63172000Y-58242000D01*
X63172000Y-58242000D02*
X63172001Y-58242000D01*
X63172001Y-58242000D01*
X63172001Y-58242000D01*
X63172001Y-58242000D01*
X63172001Y-58242000D01*
X63172001Y-58242000D01*
X63172001Y-58242001D01*
X63172001Y-58242001D01*
X63172001Y-58242001D01*
X63172001Y-58242001D01*
X63172001Y-58242001D01*
X63172001Y-58242001D01*
X63172001Y-58242001D01*
X63172000Y-58242001D01*
X63172000Y-58242001D01*
X63172000Y-58242001D01*
X63172000Y-58242001D01*
X63172000Y-58242001D01*
X63172000Y-58242001D01*
X63172000Y-58242001D01*
X63172000Y-58242001D01*
X63172000Y-58242001D01*
X63172000Y-58242001D01*
X63172000Y-58242001D01*
X63172000Y-58242001D01*
X63171999Y-58242001D01*
X63171999Y-58242001D01*
X63171999Y-58242001D01*
X63171999Y-58242001D01*
X63171999Y-58242001D01*
X63171999Y-58242001D01*
X63171999Y-58242000D01*
X63171999Y-58242000D01*
X63171999Y-58242000D01*
X63171999Y-58242000D01*
X63171999Y-58242000D01*
X63171999Y-58242000D01*
X63172000Y-58242000D01*
D14*
X63172000Y-58242000D02*
X63172000Y-64338000D01*
D13*
X63172000Y-59137600D02*
X63171999Y-59137600D01*
X63171999Y-59137600D01*
X63171999Y-59137600D01*
X63171999Y-59137600D01*
X63171999Y-59137600D01*
X63171999Y-59137600D01*
X63171999Y-59137600D01*
X63171999Y-59137599D01*
X63171999Y-59137599D01*
X63171999Y-59137599D01*
X63171999Y-59137599D01*
X63171999Y-59137599D01*
X63172000Y-59137599D01*
X63172000Y-59137599D01*
X63172000Y-59137599D01*
X63172000Y-59137599D01*
X63172000Y-59137599D01*
X63172000Y-59137599D01*
X63172000Y-59137599D01*
X63172000Y-59137599D01*
X63172000Y-59137599D01*
X63172000Y-59137599D01*
X63172000Y-59137599D01*
X63172000Y-59137599D01*
X63172001Y-59137599D01*
X63172001Y-59137599D01*
X63172001Y-59137599D01*
X63172001Y-59137599D01*
X63172001Y-59137599D01*
X63172001Y-59137599D01*
X63172001Y-59137600D01*
X63172001Y-59137600D01*
X63172001Y-59137600D01*
X63172001Y-59137600D01*
X63172001Y-59137600D01*
X63172001Y-59137600D01*
X63172001Y-59137600D01*
X63172000Y-59137600D01*
X63172000Y-59137600D02*
X63172001Y-59137600D01*
X63172001Y-59137600D01*
X63172001Y-59137600D01*
X63172001Y-59137600D01*
X63172001Y-59137600D01*
X63172001Y-59137600D01*
X63172001Y-59137601D01*
X63172001Y-59137601D01*
X63172001Y-59137601D01*
X63172001Y-59137601D01*
X63172001Y-59137601D01*
X63172001Y-59137601D01*
X63172001Y-59137601D01*
X63172000Y-59137601D01*
X63172000Y-59137601D01*
X63172000Y-59137601D01*
X63172000Y-59137601D01*
X63172000Y-59137601D01*
X63172000Y-59137601D01*
X63172000Y-59137601D01*
X63172000Y-59137601D01*
X63172000Y-59137601D01*
X63172000Y-59137601D01*
X63172000Y-59137601D01*
X63172000Y-59137601D01*
X63171999Y-59137601D01*
X63171999Y-59137601D01*
X63171999Y-59137601D01*
X63171999Y-59137601D01*
X63171999Y-59137601D01*
X63171999Y-59137601D01*
X63171999Y-59137600D01*
X63171999Y-59137600D01*
X63171999Y-59137600D01*
X63171999Y-59137600D01*
X63171999Y-59137600D01*
X63171999Y-59137600D01*
X63172000Y-59137600D01*
D14*
X63172000Y-59137600D02*
X63172000Y-59442400D01*
X63172000Y-59442400D02*
X63172000Y-59137600D01*
D13*
X63172000Y-59442400D02*
X63171999Y-59442400D01*
X63171999Y-59442400D01*
X63171999Y-59442400D01*
X63171999Y-59442400D01*
X63171999Y-59442400D01*
X63171999Y-59442400D01*
X63171999Y-59442400D01*
X63171999Y-59442399D01*
X63171999Y-59442399D01*
X63171999Y-59442399D01*
X63171999Y-59442399D01*
X63171999Y-59442399D01*
X63172000Y-59442399D01*
X63172000Y-59442399D01*
X63172000Y-59442399D01*
X63172000Y-59442399D01*
X63172000Y-59442399D01*
X63172000Y-59442399D01*
X63172000Y-59442399D01*
X63172000Y-59442399D01*
X63172000Y-59442399D01*
X63172000Y-59442399D01*
X63172000Y-59442399D01*
X63172000Y-59442399D01*
X63172001Y-59442399D01*
X63172001Y-59442399D01*
X63172001Y-59442399D01*
X63172001Y-59442399D01*
X63172001Y-59442399D01*
X63172001Y-59442399D01*
X63172001Y-59442400D01*
X63172001Y-59442400D01*
X63172001Y-59442400D01*
X63172001Y-59442400D01*
X63172001Y-59442400D01*
X63172001Y-59442400D01*
X63172001Y-59442400D01*
X63172000Y-59442400D01*
X63172000Y-59442400D02*
X63172001Y-59442400D01*
X63172001Y-59442400D01*
X63172001Y-59442400D01*
X63172001Y-59442400D01*
X63172001Y-59442400D01*
X63172001Y-59442400D01*
X63172001Y-59442401D01*
X63172001Y-59442401D01*
X63172001Y-59442401D01*
X63172001Y-59442401D01*
X63172001Y-59442401D01*
X63172001Y-59442401D01*
X63172001Y-59442401D01*
X63172000Y-59442401D01*
X63172000Y-59442401D01*
X63172000Y-59442401D01*
X63172000Y-59442401D01*
X63172000Y-59442401D01*
X63172000Y-59442401D01*
X63172000Y-59442401D01*
X63172000Y-59442401D01*
X63172000Y-59442401D01*
X63172000Y-59442401D01*
X63172000Y-59442401D01*
X63172000Y-59442401D01*
X63171999Y-59442401D01*
X63171999Y-59442401D01*
X63171999Y-59442401D01*
X63171999Y-59442401D01*
X63171999Y-59442401D01*
X63171999Y-59442401D01*
X63171999Y-59442400D01*
X63171999Y-59442400D01*
X63171999Y-59442400D01*
X63171999Y-59442400D01*
X63171999Y-59442400D01*
X63171999Y-59442400D01*
X63172000Y-59442400D01*
D14*
X63172000Y-59512000D02*
X64442000Y-58242000D01*
D13*
X63172000Y-59637600D02*
X63171999Y-59637600D01*
X63171999Y-59637600D01*
X63171999Y-59637600D01*
X63171999Y-59637600D01*
X63171999Y-59637600D01*
X63171999Y-59637600D01*
X63171999Y-59637600D01*
X63171999Y-59637599D01*
X63171999Y-59637599D01*
X63171999Y-59637599D01*
X63171999Y-59637599D01*
X63171999Y-59637599D01*
X63172000Y-59637599D01*
X63172000Y-59637599D01*
X63172000Y-59637599D01*
X63172000Y-59637599D01*
X63172000Y-59637599D01*
X63172000Y-59637599D01*
X63172000Y-59637599D01*
X63172000Y-59637599D01*
X63172000Y-59637599D01*
X63172000Y-59637599D01*
X63172000Y-59637599D01*
X63172000Y-59637599D01*
X63172001Y-59637599D01*
X63172001Y-59637599D01*
X63172001Y-59637599D01*
X63172001Y-59637599D01*
X63172001Y-59637599D01*
X63172001Y-59637599D01*
X63172001Y-59637600D01*
X63172001Y-59637600D01*
X63172001Y-59637600D01*
X63172001Y-59637600D01*
X63172001Y-59637600D01*
X63172001Y-59637600D01*
X63172001Y-59637600D01*
X63172000Y-59637600D01*
X63172000Y-59637600D02*
X63172001Y-59637600D01*
X63172001Y-59637600D01*
X63172001Y-59637600D01*
X63172001Y-59637600D01*
X63172001Y-59637600D01*
X63172001Y-59637600D01*
X63172001Y-59637601D01*
X63172001Y-59637601D01*
X63172001Y-59637601D01*
X63172001Y-59637601D01*
X63172001Y-59637601D01*
X63172001Y-59637601D01*
X63172001Y-59637601D01*
X63172000Y-59637601D01*
X63172000Y-59637601D01*
X63172000Y-59637601D01*
X63172000Y-59637601D01*
X63172000Y-59637601D01*
X63172000Y-59637601D01*
X63172000Y-59637601D01*
X63172000Y-59637601D01*
X63172000Y-59637601D01*
X63172000Y-59637601D01*
X63172000Y-59637601D01*
X63172000Y-59637601D01*
X63171999Y-59637601D01*
X63171999Y-59637601D01*
X63171999Y-59637601D01*
X63171999Y-59637601D01*
X63171999Y-59637601D01*
X63171999Y-59637601D01*
X63171999Y-59637600D01*
X63171999Y-59637600D01*
X63171999Y-59637600D01*
X63171999Y-59637600D01*
X63171999Y-59637600D01*
X63171999Y-59637600D01*
X63172000Y-59637600D01*
D14*
X63172000Y-59637600D02*
X63172000Y-59942400D01*
X63172000Y-59942400D02*
X63172000Y-59637600D01*
D13*
X63172000Y-59942400D02*
X63171999Y-59942400D01*
X63171999Y-59942400D01*
X63171999Y-59942400D01*
X63171999Y-59942400D01*
X63171999Y-59942400D01*
X63171999Y-59942400D01*
X63171999Y-59942400D01*
X63171999Y-59942399D01*
X63171999Y-59942399D01*
X63171999Y-59942399D01*
X63171999Y-59942399D01*
X63171999Y-59942399D01*
X63172000Y-59942399D01*
X63172000Y-59942399D01*
X63172000Y-59942399D01*
X63172000Y-59942399D01*
X63172000Y-59942399D01*
X63172000Y-59942399D01*
X63172000Y-59942399D01*
X63172000Y-59942399D01*
X63172000Y-59942399D01*
X63172000Y-59942399D01*
X63172000Y-59942399D01*
X63172000Y-59942399D01*
X63172001Y-59942399D01*
X63172001Y-59942399D01*
X63172001Y-59942399D01*
X63172001Y-59942399D01*
X63172001Y-59942399D01*
X63172001Y-59942399D01*
X63172001Y-59942400D01*
X63172001Y-59942400D01*
X63172001Y-59942400D01*
X63172001Y-59942400D01*
X63172001Y-59942400D01*
X63172001Y-59942400D01*
X63172001Y-59942400D01*
X63172000Y-59942400D01*
X63172000Y-59942400D02*
X63172001Y-59942400D01*
X63172001Y-59942400D01*
X63172001Y-59942400D01*
X63172001Y-59942400D01*
X63172001Y-59942400D01*
X63172001Y-59942400D01*
X63172001Y-59942401D01*
X63172001Y-59942401D01*
X63172001Y-59942401D01*
X63172001Y-59942401D01*
X63172001Y-59942401D01*
X63172001Y-59942401D01*
X63172001Y-59942401D01*
X63172000Y-59942401D01*
X63172000Y-59942401D01*
X63172000Y-59942401D01*
X63172000Y-59942401D01*
X63172000Y-59942401D01*
X63172000Y-59942401D01*
X63172000Y-59942401D01*
X63172000Y-59942401D01*
X63172000Y-59942401D01*
X63172000Y-59942401D01*
X63172000Y-59942401D01*
X63172000Y-59942401D01*
X63171999Y-59942401D01*
X63171999Y-59942401D01*
X63171999Y-59942401D01*
X63171999Y-59942401D01*
X63171999Y-59942401D01*
X63171999Y-59942401D01*
X63171999Y-59942400D01*
X63171999Y-59942400D01*
X63171999Y-59942400D01*
X63171999Y-59942400D01*
X63171999Y-59942400D01*
X63171999Y-59942400D01*
X63172000Y-59942400D01*
D14*
D13*
X63172000Y-60137600D02*
X63171999Y-60137600D01*
X63171999Y-60137600D01*
X63171999Y-60137600D01*
X63171999Y-60137600D01*
X63171999Y-60137600D01*
X63171999Y-60137600D01*
X63171999Y-60137600D01*
X63171999Y-60137599D01*
X63171999Y-60137599D01*
X63171999Y-60137599D01*
X63171999Y-60137599D01*
X63171999Y-60137599D01*
X63172000Y-60137599D01*
X63172000Y-60137599D01*
X63172000Y-60137599D01*
X63172000Y-60137599D01*
X63172000Y-60137599D01*
X63172000Y-60137599D01*
X63172000Y-60137599D01*
X63172000Y-60137599D01*
X63172000Y-60137599D01*
X63172000Y-60137599D01*
X63172000Y-60137599D01*
X63172000Y-60137599D01*
X63172001Y-60137599D01*
X63172001Y-60137599D01*
X63172001Y-60137599D01*
X63172001Y-60137599D01*
X63172001Y-60137599D01*
X63172001Y-60137599D01*
X63172001Y-60137600D01*
X63172001Y-60137600D01*
X63172001Y-60137600D01*
X63172001Y-60137600D01*
X63172001Y-60137600D01*
X63172001Y-60137600D01*
X63172001Y-60137600D01*
X63172000Y-60137600D01*
X63172000Y-60137600D02*
X63172001Y-60137600D01*
X63172001Y-60137600D01*
X63172001Y-60137600D01*
X63172001Y-60137600D01*
X63172001Y-60137600D01*
X63172001Y-60137600D01*
X63172001Y-60137601D01*
X63172001Y-60137601D01*
X63172001Y-60137601D01*
X63172001Y-60137601D01*
X63172001Y-60137601D01*
X63172001Y-60137601D01*
X63172001Y-60137601D01*
X63172000Y-60137601D01*
X63172000Y-60137601D01*
X63172000Y-60137601D01*
X63172000Y-60137601D01*
X63172000Y-60137601D01*
X63172000Y-60137601D01*
X63172000Y-60137601D01*
X63172000Y-60137601D01*
X63172000Y-60137601D01*
X63172000Y-60137601D01*
X63172000Y-60137601D01*
X63172000Y-60137601D01*
X63171999Y-60137601D01*
X63171999Y-60137601D01*
X63171999Y-60137601D01*
X63171999Y-60137601D01*
X63171999Y-60137601D01*
X63171999Y-60137601D01*
X63171999Y-60137600D01*
X63171999Y-60137600D01*
X63171999Y-60137600D01*
X63171999Y-60137600D01*
X63171999Y-60137600D01*
X63171999Y-60137600D01*
X63172000Y-60137600D01*
D14*
X63172000Y-60137600D02*
X63172000Y-60442400D01*
X63172000Y-60442400D02*
X63172000Y-60137600D01*
D13*
X63172000Y-60442400D02*
X63171999Y-60442400D01*
X63171999Y-60442400D01*
X63171999Y-60442400D01*
X63171999Y-60442400D01*
X63171999Y-60442400D01*
X63171999Y-60442400D01*
X63171999Y-60442400D01*
X63171999Y-60442399D01*
X63171999Y-60442399D01*
X63171999Y-60442399D01*
X63171999Y-60442399D01*
X63171999Y-60442399D01*
X63172000Y-60442399D01*
X63172000Y-60442399D01*
X63172000Y-60442399D01*
X63172000Y-60442399D01*
X63172000Y-60442399D01*
X63172000Y-60442399D01*
X63172000Y-60442399D01*
X63172000Y-60442399D01*
X63172000Y-60442399D01*
X63172000Y-60442399D01*
X63172000Y-60442399D01*
X63172000Y-60442399D01*
X63172001Y-60442399D01*
X63172001Y-60442399D01*
X63172001Y-60442399D01*
X63172001Y-60442399D01*
X63172001Y-60442399D01*
X63172001Y-60442399D01*
X63172001Y-60442400D01*
X63172001Y-60442400D01*
X63172001Y-60442400D01*
X63172001Y-60442400D01*
X63172001Y-60442400D01*
X63172001Y-60442400D01*
X63172001Y-60442400D01*
X63172000Y-60442400D01*
X63172000Y-60442400D02*
X63172001Y-60442400D01*
X63172001Y-60442400D01*
X63172001Y-60442400D01*
X63172001Y-60442400D01*
X63172001Y-60442400D01*
X63172001Y-60442400D01*
X63172001Y-60442401D01*
X63172001Y-60442401D01*
X63172001Y-60442401D01*
X63172001Y-60442401D01*
X63172001Y-60442401D01*
X63172001Y-60442401D01*
X63172001Y-60442401D01*
X63172000Y-60442401D01*
X63172000Y-60442401D01*
X63172000Y-60442401D01*
X63172000Y-60442401D01*
X63172000Y-60442401D01*
X63172000Y-60442401D01*
X63172000Y-60442401D01*
X63172000Y-60442401D01*
X63172000Y-60442401D01*
X63172000Y-60442401D01*
X63172000Y-60442401D01*
X63172000Y-60442401D01*
X63171999Y-60442401D01*
X63171999Y-60442401D01*
X63171999Y-60442401D01*
X63171999Y-60442401D01*
X63171999Y-60442401D01*
X63171999Y-60442401D01*
X63171999Y-60442400D01*
X63171999Y-60442400D01*
X63171999Y-60442400D01*
X63171999Y-60442400D01*
X63171999Y-60442400D01*
X63171999Y-60442400D01*
X63172000Y-60442400D01*
D14*
D13*
X63172000Y-60637600D02*
X63171999Y-60637600D01*
X63171999Y-60637600D01*
X63171999Y-60637600D01*
X63171999Y-60637600D01*
X63171999Y-60637600D01*
X63171999Y-60637600D01*
X63171999Y-60637600D01*
X63171999Y-60637599D01*
X63171999Y-60637599D01*
X63171999Y-60637599D01*
X63171999Y-60637599D01*
X63171999Y-60637599D01*
X63172000Y-60637599D01*
X63172000Y-60637599D01*
X63172000Y-60637599D01*
X63172000Y-60637599D01*
X63172000Y-60637599D01*
X63172000Y-60637599D01*
X63172000Y-60637599D01*
X63172000Y-60637599D01*
X63172000Y-60637599D01*
X63172000Y-60637599D01*
X63172000Y-60637599D01*
X63172000Y-60637599D01*
X63172001Y-60637599D01*
X63172001Y-60637599D01*
X63172001Y-60637599D01*
X63172001Y-60637599D01*
X63172001Y-60637599D01*
X63172001Y-60637599D01*
X63172001Y-60637600D01*
X63172001Y-60637600D01*
X63172001Y-60637600D01*
X63172001Y-60637600D01*
X63172001Y-60637600D01*
X63172001Y-60637600D01*
X63172001Y-60637600D01*
X63172000Y-60637600D01*
X63172000Y-60637600D02*
X63172001Y-60637600D01*
X63172001Y-60637600D01*
X63172001Y-60637600D01*
X63172001Y-60637600D01*
X63172001Y-60637600D01*
X63172001Y-60637600D01*
X63172001Y-60637601D01*
X63172001Y-60637601D01*
X63172001Y-60637601D01*
X63172001Y-60637601D01*
X63172001Y-60637601D01*
X63172001Y-60637601D01*
X63172001Y-60637601D01*
X63172000Y-60637601D01*
X63172000Y-60637601D01*
X63172000Y-60637601D01*
X63172000Y-60637601D01*
X63172000Y-60637601D01*
X63172000Y-60637601D01*
X63172000Y-60637601D01*
X63172000Y-60637601D01*
X63172000Y-60637601D01*
X63172000Y-60637601D01*
X63172000Y-60637601D01*
X63172000Y-60637601D01*
X63171999Y-60637601D01*
X63171999Y-60637601D01*
X63171999Y-60637601D01*
X63171999Y-60637601D01*
X63171999Y-60637601D01*
X63171999Y-60637601D01*
X63171999Y-60637600D01*
X63171999Y-60637600D01*
X63171999Y-60637600D01*
X63171999Y-60637600D01*
X63171999Y-60637600D01*
X63171999Y-60637600D01*
X63172000Y-60637600D01*
D14*
X63172000Y-60637600D02*
X63172000Y-60942400D01*
X63172000Y-60942400D02*
X63172000Y-60637600D01*
D13*
X63172000Y-60942400D02*
X63171999Y-60942400D01*
X63171999Y-60942400D01*
X63171999Y-60942400D01*
X63171999Y-60942400D01*
X63171999Y-60942400D01*
X63171999Y-60942400D01*
X63171999Y-60942400D01*
X63171999Y-60942399D01*
X63171999Y-60942399D01*
X63171999Y-60942399D01*
X63171999Y-60942399D01*
X63171999Y-60942399D01*
X63172000Y-60942399D01*
X63172000Y-60942399D01*
X63172000Y-60942399D01*
X63172000Y-60942399D01*
X63172000Y-60942399D01*
X63172000Y-60942399D01*
X63172000Y-60942399D01*
X63172000Y-60942399D01*
X63172000Y-60942399D01*
X63172000Y-60942399D01*
X63172000Y-60942399D01*
X63172000Y-60942399D01*
X63172001Y-60942399D01*
X63172001Y-60942399D01*
X63172001Y-60942399D01*
X63172001Y-60942399D01*
X63172001Y-60942399D01*
X63172001Y-60942399D01*
X63172001Y-60942400D01*
X63172001Y-60942400D01*
X63172001Y-60942400D01*
X63172001Y-60942400D01*
X63172001Y-60942400D01*
X63172001Y-60942400D01*
X63172001Y-60942400D01*
X63172000Y-60942400D01*
X63172000Y-60942400D02*
X63172001Y-60942400D01*
X63172001Y-60942400D01*
X63172001Y-60942400D01*
X63172001Y-60942400D01*
X63172001Y-60942400D01*
X63172001Y-60942400D01*
X63172001Y-60942401D01*
X63172001Y-60942401D01*
X63172001Y-60942401D01*
X63172001Y-60942401D01*
X63172001Y-60942401D01*
X63172001Y-60942401D01*
X63172001Y-60942401D01*
X63172000Y-60942401D01*
X63172000Y-60942401D01*
X63172000Y-60942401D01*
X63172000Y-60942401D01*
X63172000Y-60942401D01*
X63172000Y-60942401D01*
X63172000Y-60942401D01*
X63172000Y-60942401D01*
X63172000Y-60942401D01*
X63172000Y-60942401D01*
X63172000Y-60942401D01*
X63172000Y-60942401D01*
X63171999Y-60942401D01*
X63171999Y-60942401D01*
X63171999Y-60942401D01*
X63171999Y-60942401D01*
X63171999Y-60942401D01*
X63171999Y-60942401D01*
X63171999Y-60942400D01*
X63171999Y-60942400D01*
X63171999Y-60942400D01*
X63171999Y-60942400D01*
X63171999Y-60942400D01*
X63171999Y-60942400D01*
X63172000Y-60942400D01*
D14*
D13*
X63172000Y-61137600D02*
X63171999Y-61137600D01*
X63171999Y-61137600D01*
X63171999Y-61137600D01*
X63171999Y-61137600D01*
X63171999Y-61137600D01*
X63171999Y-61137600D01*
X63171999Y-61137600D01*
X63171999Y-61137599D01*
X63171999Y-61137599D01*
X63171999Y-61137599D01*
X63171999Y-61137599D01*
X63171999Y-61137599D01*
X63172000Y-61137599D01*
X63172000Y-61137599D01*
X63172000Y-61137599D01*
X63172000Y-61137599D01*
X63172000Y-61137599D01*
X63172000Y-61137599D01*
X63172000Y-61137599D01*
X63172000Y-61137599D01*
X63172000Y-61137599D01*
X63172000Y-61137599D01*
X63172000Y-61137599D01*
X63172000Y-61137599D01*
X63172001Y-61137599D01*
X63172001Y-61137599D01*
X63172001Y-61137599D01*
X63172001Y-61137599D01*
X63172001Y-61137599D01*
X63172001Y-61137599D01*
X63172001Y-61137600D01*
X63172001Y-61137600D01*
X63172001Y-61137600D01*
X63172001Y-61137600D01*
X63172001Y-61137600D01*
X63172001Y-61137600D01*
X63172001Y-61137600D01*
X63172000Y-61137600D01*
X63172000Y-61137600D02*
X63172001Y-61137600D01*
X63172001Y-61137600D01*
X63172001Y-61137600D01*
X63172001Y-61137600D01*
X63172001Y-61137600D01*
X63172001Y-61137600D01*
X63172001Y-61137601D01*
X63172001Y-61137601D01*
X63172001Y-61137601D01*
X63172001Y-61137601D01*
X63172001Y-61137601D01*
X63172001Y-61137601D01*
X63172001Y-61137601D01*
X63172000Y-61137601D01*
X63172000Y-61137601D01*
X63172000Y-61137601D01*
X63172000Y-61137601D01*
X63172000Y-61137601D01*
X63172000Y-61137601D01*
X63172000Y-61137601D01*
X63172000Y-61137601D01*
X63172000Y-61137601D01*
X63172000Y-61137601D01*
X63172000Y-61137601D01*
X63172000Y-61137601D01*
X63171999Y-61137601D01*
X63171999Y-61137601D01*
X63171999Y-61137601D01*
X63171999Y-61137601D01*
X63171999Y-61137601D01*
X63171999Y-61137601D01*
X63171999Y-61137600D01*
X63171999Y-61137600D01*
X63171999Y-61137600D01*
X63171999Y-61137600D01*
X63171999Y-61137600D01*
X63171999Y-61137600D01*
X63172000Y-61137600D01*
D14*
X63172000Y-61137600D02*
X63172000Y-61442400D01*
X63172000Y-61442400D02*
X63172000Y-61137600D01*
D13*
X63172000Y-61442400D02*
X63171999Y-61442400D01*
X63171999Y-61442400D01*
X63171999Y-61442400D01*
X63171999Y-61442400D01*
X63171999Y-61442400D01*
X63171999Y-61442400D01*
X63171999Y-61442400D01*
X63171999Y-61442399D01*
X63171999Y-61442399D01*
X63171999Y-61442399D01*
X63171999Y-61442399D01*
X63171999Y-61442399D01*
X63172000Y-61442399D01*
X63172000Y-61442399D01*
X63172000Y-61442399D01*
X63172000Y-61442399D01*
X63172000Y-61442399D01*
X63172000Y-61442399D01*
X63172000Y-61442399D01*
X63172000Y-61442399D01*
X63172000Y-61442399D01*
X63172000Y-61442399D01*
X63172000Y-61442399D01*
X63172000Y-61442399D01*
X63172001Y-61442399D01*
X63172001Y-61442399D01*
X63172001Y-61442399D01*
X63172001Y-61442399D01*
X63172001Y-61442399D01*
X63172001Y-61442399D01*
X63172001Y-61442400D01*
X63172001Y-61442400D01*
X63172001Y-61442400D01*
X63172001Y-61442400D01*
X63172001Y-61442400D01*
X63172001Y-61442400D01*
X63172001Y-61442400D01*
X63172000Y-61442400D01*
X63172000Y-61442400D02*
X63172001Y-61442400D01*
X63172001Y-61442400D01*
X63172001Y-61442400D01*
X63172001Y-61442400D01*
X63172001Y-61442400D01*
X63172001Y-61442400D01*
X63172001Y-61442401D01*
X63172001Y-61442401D01*
X63172001Y-61442401D01*
X63172001Y-61442401D01*
X63172001Y-61442401D01*
X63172001Y-61442401D01*
X63172001Y-61442401D01*
X63172000Y-61442401D01*
X63172000Y-61442401D01*
X63172000Y-61442401D01*
X63172000Y-61442401D01*
X63172000Y-61442401D01*
X63172000Y-61442401D01*
X63172000Y-61442401D01*
X63172000Y-61442401D01*
X63172000Y-61442401D01*
X63172000Y-61442401D01*
X63172000Y-61442401D01*
X63172000Y-61442401D01*
X63171999Y-61442401D01*
X63171999Y-61442401D01*
X63171999Y-61442401D01*
X63171999Y-61442401D01*
X63171999Y-61442401D01*
X63171999Y-61442401D01*
X63171999Y-61442400D01*
X63171999Y-61442400D01*
X63171999Y-61442400D01*
X63171999Y-61442400D01*
X63171999Y-61442400D01*
X63171999Y-61442400D01*
X63172000Y-61442400D01*
D14*
D13*
X63172000Y-61637600D02*
X63171999Y-61637600D01*
X63171999Y-61637600D01*
X63171999Y-61637600D01*
X63171999Y-61637600D01*
X63171999Y-61637600D01*
X63171999Y-61637600D01*
X63171999Y-61637600D01*
X63171999Y-61637599D01*
X63171999Y-61637599D01*
X63171999Y-61637599D01*
X63171999Y-61637599D01*
X63171999Y-61637599D01*
X63172000Y-61637599D01*
X63172000Y-61637599D01*
X63172000Y-61637599D01*
X63172000Y-61637599D01*
X63172000Y-61637599D01*
X63172000Y-61637599D01*
X63172000Y-61637599D01*
X63172000Y-61637599D01*
X63172000Y-61637599D01*
X63172000Y-61637599D01*
X63172000Y-61637599D01*
X63172000Y-61637599D01*
X63172001Y-61637599D01*
X63172001Y-61637599D01*
X63172001Y-61637599D01*
X63172001Y-61637599D01*
X63172001Y-61637599D01*
X63172001Y-61637599D01*
X63172001Y-61637600D01*
X63172001Y-61637600D01*
X63172001Y-61637600D01*
X63172001Y-61637600D01*
X63172001Y-61637600D01*
X63172001Y-61637600D01*
X63172001Y-61637600D01*
X63172000Y-61637600D01*
X63172000Y-61637600D02*
X63172001Y-61637600D01*
X63172001Y-61637600D01*
X63172001Y-61637600D01*
X63172001Y-61637600D01*
X63172001Y-61637600D01*
X63172001Y-61637600D01*
X63172001Y-61637601D01*
X63172001Y-61637601D01*
X63172001Y-61637601D01*
X63172001Y-61637601D01*
X63172001Y-61637601D01*
X63172001Y-61637601D01*
X63172001Y-61637601D01*
X63172000Y-61637601D01*
X63172000Y-61637601D01*
X63172000Y-61637601D01*
X63172000Y-61637601D01*
X63172000Y-61637601D01*
X63172000Y-61637601D01*
X63172000Y-61637601D01*
X63172000Y-61637601D01*
X63172000Y-61637601D01*
X63172000Y-61637601D01*
X63172000Y-61637601D01*
X63172000Y-61637601D01*
X63171999Y-61637601D01*
X63171999Y-61637601D01*
X63171999Y-61637601D01*
X63171999Y-61637601D01*
X63171999Y-61637601D01*
X63171999Y-61637601D01*
X63171999Y-61637600D01*
X63171999Y-61637600D01*
X63171999Y-61637600D01*
X63171999Y-61637600D01*
X63171999Y-61637600D01*
X63171999Y-61637600D01*
X63172000Y-61637600D01*
D14*
X63172000Y-61637600D02*
X63172000Y-61942400D01*
X63172000Y-61942400D02*
X63172000Y-61637600D01*
D13*
X63172000Y-61942400D02*
X63171999Y-61942400D01*
X63171999Y-61942400D01*
X63171999Y-61942400D01*
X63171999Y-61942400D01*
X63171999Y-61942400D01*
X63171999Y-61942400D01*
X63171999Y-61942400D01*
X63171999Y-61942399D01*
X63171999Y-61942399D01*
X63171999Y-61942399D01*
X63171999Y-61942399D01*
X63171999Y-61942399D01*
X63172000Y-61942399D01*
X63172000Y-61942399D01*
X63172000Y-61942399D01*
X63172000Y-61942399D01*
X63172000Y-61942399D01*
X63172000Y-61942399D01*
X63172000Y-61942399D01*
X63172000Y-61942399D01*
X63172000Y-61942399D01*
X63172000Y-61942399D01*
X63172000Y-61942399D01*
X63172000Y-61942399D01*
X63172001Y-61942399D01*
X63172001Y-61942399D01*
X63172001Y-61942399D01*
X63172001Y-61942399D01*
X63172001Y-61942399D01*
X63172001Y-61942399D01*
X63172001Y-61942400D01*
X63172001Y-61942400D01*
X63172001Y-61942400D01*
X63172001Y-61942400D01*
X63172001Y-61942400D01*
X63172001Y-61942400D01*
X63172001Y-61942400D01*
X63172000Y-61942400D01*
X63172000Y-61942400D02*
X63172001Y-61942400D01*
X63172001Y-61942400D01*
X63172001Y-61942400D01*
X63172001Y-61942400D01*
X63172001Y-61942400D01*
X63172001Y-61942400D01*
X63172001Y-61942401D01*
X63172001Y-61942401D01*
X63172001Y-61942401D01*
X63172001Y-61942401D01*
X63172001Y-61942401D01*
X63172001Y-61942401D01*
X63172001Y-61942401D01*
X63172000Y-61942401D01*
X63172000Y-61942401D01*
X63172000Y-61942401D01*
X63172000Y-61942401D01*
X63172000Y-61942401D01*
X63172000Y-61942401D01*
X63172000Y-61942401D01*
X63172000Y-61942401D01*
X63172000Y-61942401D01*
X63172000Y-61942401D01*
X63172000Y-61942401D01*
X63172000Y-61942401D01*
X63171999Y-61942401D01*
X63171999Y-61942401D01*
X63171999Y-61942401D01*
X63171999Y-61942401D01*
X63171999Y-61942401D01*
X63171999Y-61942401D01*
X63171999Y-61942400D01*
X63171999Y-61942400D01*
X63171999Y-61942400D01*
X63171999Y-61942400D01*
X63171999Y-61942400D01*
X63171999Y-61942400D01*
X63172000Y-61942400D01*
D14*
D13*
X63172000Y-62137600D02*
X63171999Y-62137600D01*
X63171999Y-62137600D01*
X63171999Y-62137600D01*
X63171999Y-62137600D01*
X63171999Y-62137600D01*
X63171999Y-62137600D01*
X63171999Y-62137600D01*
X63171999Y-62137599D01*
X63171999Y-62137599D01*
X63171999Y-62137599D01*
X63171999Y-62137599D01*
X63171999Y-62137599D01*
X63172000Y-62137599D01*
X63172000Y-62137599D01*
X63172000Y-62137599D01*
X63172000Y-62137599D01*
X63172000Y-62137599D01*
X63172000Y-62137599D01*
X63172000Y-62137599D01*
X63172000Y-62137599D01*
X63172000Y-62137599D01*
X63172000Y-62137599D01*
X63172000Y-62137599D01*
X63172000Y-62137599D01*
X63172001Y-62137599D01*
X63172001Y-62137599D01*
X63172001Y-62137599D01*
X63172001Y-62137599D01*
X63172001Y-62137599D01*
X63172001Y-62137599D01*
X63172001Y-62137600D01*
X63172001Y-62137600D01*
X63172001Y-62137600D01*
X63172001Y-62137600D01*
X63172001Y-62137600D01*
X63172001Y-62137600D01*
X63172001Y-62137600D01*
X63172000Y-62137600D01*
X63172000Y-62137600D02*
X63172001Y-62137600D01*
X63172001Y-62137600D01*
X63172001Y-62137600D01*
X63172001Y-62137600D01*
X63172001Y-62137600D01*
X63172001Y-62137600D01*
X63172001Y-62137601D01*
X63172001Y-62137601D01*
X63172001Y-62137601D01*
X63172001Y-62137601D01*
X63172001Y-62137601D01*
X63172001Y-62137601D01*
X63172001Y-62137601D01*
X63172000Y-62137601D01*
X63172000Y-62137601D01*
X63172000Y-62137601D01*
X63172000Y-62137601D01*
X63172000Y-62137601D01*
X63172000Y-62137601D01*
X63172000Y-62137601D01*
X63172000Y-62137601D01*
X63172000Y-62137601D01*
X63172000Y-62137601D01*
X63172000Y-62137601D01*
X63172000Y-62137601D01*
X63171999Y-62137601D01*
X63171999Y-62137601D01*
X63171999Y-62137601D01*
X63171999Y-62137601D01*
X63171999Y-62137601D01*
X63171999Y-62137601D01*
X63171999Y-62137600D01*
X63171999Y-62137600D01*
X63171999Y-62137600D01*
X63171999Y-62137600D01*
X63171999Y-62137600D01*
X63171999Y-62137600D01*
X63172000Y-62137600D01*
D14*
X63172000Y-62137600D02*
X63172000Y-62442400D01*
X63172000Y-62442400D02*
X63172000Y-62137600D01*
D13*
X63172000Y-62442400D02*
X63171999Y-62442400D01*
X63171999Y-62442400D01*
X63171999Y-62442400D01*
X63171999Y-62442400D01*
X63171999Y-62442400D01*
X63171999Y-62442400D01*
X63171999Y-62442400D01*
X63171999Y-62442399D01*
X63171999Y-62442399D01*
X63171999Y-62442399D01*
X63171999Y-62442399D01*
X63171999Y-62442399D01*
X63172000Y-62442399D01*
X63172000Y-62442399D01*
X63172000Y-62442399D01*
X63172000Y-62442399D01*
X63172000Y-62442399D01*
X63172000Y-62442399D01*
X63172000Y-62442399D01*
X63172000Y-62442399D01*
X63172000Y-62442399D01*
X63172000Y-62442399D01*
X63172000Y-62442399D01*
X63172000Y-62442399D01*
X63172001Y-62442399D01*
X63172001Y-62442399D01*
X63172001Y-62442399D01*
X63172001Y-62442399D01*
X63172001Y-62442399D01*
X63172001Y-62442399D01*
X63172001Y-62442400D01*
X63172001Y-62442400D01*
X63172001Y-62442400D01*
X63172001Y-62442400D01*
X63172001Y-62442400D01*
X63172001Y-62442400D01*
X63172001Y-62442400D01*
X63172000Y-62442400D01*
X63172000Y-62442400D02*
X63172001Y-62442400D01*
X63172001Y-62442400D01*
X63172001Y-62442400D01*
X63172001Y-62442400D01*
X63172001Y-62442400D01*
X63172001Y-62442400D01*
X63172001Y-62442401D01*
X63172001Y-62442401D01*
X63172001Y-62442401D01*
X63172001Y-62442401D01*
X63172001Y-62442401D01*
X63172001Y-62442401D01*
X63172001Y-62442401D01*
X63172000Y-62442401D01*
X63172000Y-62442401D01*
X63172000Y-62442401D01*
X63172000Y-62442401D01*
X63172000Y-62442401D01*
X63172000Y-62442401D01*
X63172000Y-62442401D01*
X63172000Y-62442401D01*
X63172000Y-62442401D01*
X63172000Y-62442401D01*
X63172000Y-62442401D01*
X63172000Y-62442401D01*
X63171999Y-62442401D01*
X63171999Y-62442401D01*
X63171999Y-62442401D01*
X63171999Y-62442401D01*
X63171999Y-62442401D01*
X63171999Y-62442401D01*
X63171999Y-62442400D01*
X63171999Y-62442400D01*
X63171999Y-62442400D01*
X63171999Y-62442400D01*
X63171999Y-62442400D01*
X63171999Y-62442400D01*
X63172000Y-62442400D01*
D14*
D13*
X63172000Y-62637600D02*
X63171999Y-62637600D01*
X63171999Y-62637600D01*
X63171999Y-62637600D01*
X63171999Y-62637600D01*
X63171999Y-62637600D01*
X63171999Y-62637600D01*
X63171999Y-62637600D01*
X63171999Y-62637599D01*
X63171999Y-62637599D01*
X63171999Y-62637599D01*
X63171999Y-62637599D01*
X63171999Y-62637599D01*
X63172000Y-62637599D01*
X63172000Y-62637599D01*
X63172000Y-62637599D01*
X63172000Y-62637599D01*
X63172000Y-62637599D01*
X63172000Y-62637599D01*
X63172000Y-62637599D01*
X63172000Y-62637599D01*
X63172000Y-62637599D01*
X63172000Y-62637599D01*
X63172000Y-62637599D01*
X63172000Y-62637599D01*
X63172001Y-62637599D01*
X63172001Y-62637599D01*
X63172001Y-62637599D01*
X63172001Y-62637599D01*
X63172001Y-62637599D01*
X63172001Y-62637599D01*
X63172001Y-62637600D01*
X63172001Y-62637600D01*
X63172001Y-62637600D01*
X63172001Y-62637600D01*
X63172001Y-62637600D01*
X63172001Y-62637600D01*
X63172001Y-62637600D01*
X63172000Y-62637600D01*
X63172000Y-62637600D02*
X63172001Y-62637600D01*
X63172001Y-62637600D01*
X63172001Y-62637600D01*
X63172001Y-62637600D01*
X63172001Y-62637600D01*
X63172001Y-62637600D01*
X63172001Y-62637601D01*
X63172001Y-62637601D01*
X63172001Y-62637601D01*
X63172001Y-62637601D01*
X63172001Y-62637601D01*
X63172001Y-62637601D01*
X63172001Y-62637601D01*
X63172000Y-62637601D01*
X63172000Y-62637601D01*
X63172000Y-62637601D01*
X63172000Y-62637601D01*
X63172000Y-62637601D01*
X63172000Y-62637601D01*
X63172000Y-62637601D01*
X63172000Y-62637601D01*
X63172000Y-62637601D01*
X63172000Y-62637601D01*
X63172000Y-62637601D01*
X63172000Y-62637601D01*
X63171999Y-62637601D01*
X63171999Y-62637601D01*
X63171999Y-62637601D01*
X63171999Y-62637601D01*
X63171999Y-62637601D01*
X63171999Y-62637601D01*
X63171999Y-62637600D01*
X63171999Y-62637600D01*
X63171999Y-62637600D01*
X63171999Y-62637600D01*
X63171999Y-62637600D01*
X63171999Y-62637600D01*
X63172000Y-62637600D01*
D14*
X63172000Y-62637600D02*
X63172000Y-62942400D01*
X63172000Y-62942400D02*
X63172000Y-62637600D01*
D13*
X63172000Y-62942400D02*
X63171999Y-62942400D01*
X63171999Y-62942400D01*
X63171999Y-62942400D01*
X63171999Y-62942400D01*
X63171999Y-62942400D01*
X63171999Y-62942400D01*
X63171999Y-62942400D01*
X63171999Y-62942399D01*
X63171999Y-62942399D01*
X63171999Y-62942399D01*
X63171999Y-62942399D01*
X63171999Y-62942399D01*
X63172000Y-62942399D01*
X63172000Y-62942399D01*
X63172000Y-62942399D01*
X63172000Y-62942399D01*
X63172000Y-62942399D01*
X63172000Y-62942399D01*
X63172000Y-62942399D01*
X63172000Y-62942399D01*
X63172000Y-62942399D01*
X63172000Y-62942399D01*
X63172000Y-62942399D01*
X63172000Y-62942399D01*
X63172001Y-62942399D01*
X63172001Y-62942399D01*
X63172001Y-62942399D01*
X63172001Y-62942399D01*
X63172001Y-62942399D01*
X63172001Y-62942399D01*
X63172001Y-62942400D01*
X63172001Y-62942400D01*
X63172001Y-62942400D01*
X63172001Y-62942400D01*
X63172001Y-62942400D01*
X63172001Y-62942400D01*
X63172001Y-62942400D01*
X63172000Y-62942400D01*
X63172000Y-62942400D02*
X63172001Y-62942400D01*
X63172001Y-62942400D01*
X63172001Y-62942400D01*
X63172001Y-62942400D01*
X63172001Y-62942400D01*
X63172001Y-62942400D01*
X63172001Y-62942401D01*
X63172001Y-62942401D01*
X63172001Y-62942401D01*
X63172001Y-62942401D01*
X63172001Y-62942401D01*
X63172001Y-62942401D01*
X63172001Y-62942401D01*
X63172000Y-62942401D01*
X63172000Y-62942401D01*
X63172000Y-62942401D01*
X63172000Y-62942401D01*
X63172000Y-62942401D01*
X63172000Y-62942401D01*
X63172000Y-62942401D01*
X63172000Y-62942401D01*
X63172000Y-62942401D01*
X63172000Y-62942401D01*
X63172000Y-62942401D01*
X63172000Y-62942401D01*
X63171999Y-62942401D01*
X63171999Y-62942401D01*
X63171999Y-62942401D01*
X63171999Y-62942401D01*
X63171999Y-62942401D01*
X63171999Y-62942401D01*
X63171999Y-62942400D01*
X63171999Y-62942400D01*
X63171999Y-62942400D01*
X63171999Y-62942400D01*
X63171999Y-62942400D01*
X63171999Y-62942400D01*
X63172000Y-62942400D01*
D14*
D13*
X63172000Y-63137600D02*
X63171999Y-63137600D01*
X63171999Y-63137600D01*
X63171999Y-63137600D01*
X63171999Y-63137600D01*
X63171999Y-63137600D01*
X63171999Y-63137600D01*
X63171999Y-63137600D01*
X63171999Y-63137599D01*
X63171999Y-63137599D01*
X63171999Y-63137599D01*
X63171999Y-63137599D01*
X63171999Y-63137599D01*
X63172000Y-63137599D01*
X63172000Y-63137599D01*
X63172000Y-63137599D01*
X63172000Y-63137599D01*
X63172000Y-63137599D01*
X63172000Y-63137599D01*
X63172000Y-63137599D01*
X63172000Y-63137599D01*
X63172000Y-63137599D01*
X63172000Y-63137599D01*
X63172000Y-63137599D01*
X63172000Y-63137599D01*
X63172001Y-63137599D01*
X63172001Y-63137599D01*
X63172001Y-63137599D01*
X63172001Y-63137599D01*
X63172001Y-63137599D01*
X63172001Y-63137599D01*
X63172001Y-63137600D01*
X63172001Y-63137600D01*
X63172001Y-63137600D01*
X63172001Y-63137600D01*
X63172001Y-63137600D01*
X63172001Y-63137600D01*
X63172001Y-63137600D01*
X63172000Y-63137600D01*
X63172000Y-63137600D02*
X63172001Y-63137600D01*
X63172001Y-63137600D01*
X63172001Y-63137600D01*
X63172001Y-63137600D01*
X63172001Y-63137600D01*
X63172001Y-63137600D01*
X63172001Y-63137601D01*
X63172001Y-63137601D01*
X63172001Y-63137601D01*
X63172001Y-63137601D01*
X63172001Y-63137601D01*
X63172001Y-63137601D01*
X63172001Y-63137601D01*
X63172000Y-63137601D01*
X63172000Y-63137601D01*
X63172000Y-63137601D01*
X63172000Y-63137601D01*
X63172000Y-63137601D01*
X63172000Y-63137601D01*
X63172000Y-63137601D01*
X63172000Y-63137601D01*
X63172000Y-63137601D01*
X63172000Y-63137601D01*
X63172000Y-63137601D01*
X63172000Y-63137601D01*
X63171999Y-63137601D01*
X63171999Y-63137601D01*
X63171999Y-63137601D01*
X63171999Y-63137601D01*
X63171999Y-63137601D01*
X63171999Y-63137601D01*
X63171999Y-63137600D01*
X63171999Y-63137600D01*
X63171999Y-63137600D01*
X63171999Y-63137600D01*
X63171999Y-63137600D01*
X63171999Y-63137600D01*
X63172000Y-63137600D01*
D14*
X63172000Y-63137600D02*
X63172000Y-63442400D01*
X63172000Y-63442400D02*
X63172000Y-63137600D01*
D13*
X63172000Y-63442400D02*
X63171999Y-63442400D01*
X63171999Y-63442400D01*
X63171999Y-63442400D01*
X63171999Y-63442400D01*
X63171999Y-63442400D01*
X63171999Y-63442400D01*
X63171999Y-63442400D01*
X63171999Y-63442399D01*
X63171999Y-63442399D01*
X63171999Y-63442399D01*
X63171999Y-63442399D01*
X63171999Y-63442399D01*
X63172000Y-63442399D01*
X63172000Y-63442399D01*
X63172000Y-63442399D01*
X63172000Y-63442399D01*
X63172000Y-63442399D01*
X63172000Y-63442399D01*
X63172000Y-63442399D01*
X63172000Y-63442399D01*
X63172000Y-63442399D01*
X63172000Y-63442399D01*
X63172000Y-63442399D01*
X63172000Y-63442399D01*
X63172001Y-63442399D01*
X63172001Y-63442399D01*
X63172001Y-63442399D01*
X63172001Y-63442399D01*
X63172001Y-63442399D01*
X63172001Y-63442399D01*
X63172001Y-63442400D01*
X63172001Y-63442400D01*
X63172001Y-63442400D01*
X63172001Y-63442400D01*
X63172001Y-63442400D01*
X63172001Y-63442400D01*
X63172001Y-63442400D01*
X63172000Y-63442400D01*
X63172000Y-63442400D02*
X63172001Y-63442400D01*
X63172001Y-63442400D01*
X63172001Y-63442400D01*
X63172001Y-63442400D01*
X63172001Y-63442400D01*
X63172001Y-63442400D01*
X63172001Y-63442401D01*
X63172001Y-63442401D01*
X63172001Y-63442401D01*
X63172001Y-63442401D01*
X63172001Y-63442401D01*
X63172001Y-63442401D01*
X63172001Y-63442401D01*
X63172000Y-63442401D01*
X63172000Y-63442401D01*
X63172000Y-63442401D01*
X63172000Y-63442401D01*
X63172000Y-63442401D01*
X63172000Y-63442401D01*
X63172000Y-63442401D01*
X63172000Y-63442401D01*
X63172000Y-63442401D01*
X63172000Y-63442401D01*
X63172000Y-63442401D01*
X63172000Y-63442401D01*
X63171999Y-63442401D01*
X63171999Y-63442401D01*
X63171999Y-63442401D01*
X63171999Y-63442401D01*
X63171999Y-63442401D01*
X63171999Y-63442401D01*
X63171999Y-63442400D01*
X63171999Y-63442400D01*
X63171999Y-63442400D01*
X63171999Y-63442400D01*
X63171999Y-63442400D01*
X63171999Y-63442400D01*
X63172000Y-63442400D01*
D14*
D13*
X63172000Y-64338000D02*
X63171999Y-64338000D01*
X63171999Y-64338000D01*
X63171999Y-64338000D01*
X63171999Y-64338000D01*
X63171999Y-64338000D01*
X63171999Y-64338000D01*
X63171999Y-64338000D01*
X63171999Y-64337999D01*
X63171999Y-64337999D01*
X63171999Y-64337999D01*
X63171999Y-64337999D01*
X63171999Y-64337999D01*
X63172000Y-64337999D01*
X63172000Y-64337999D01*
X63172000Y-64337999D01*
X63172000Y-64337999D01*
X63172000Y-64337999D01*
X63172000Y-64337999D01*
X63172000Y-64337999D01*
X63172000Y-64337999D01*
X63172000Y-64337999D01*
X63172000Y-64337999D01*
X63172000Y-64337999D01*
X63172000Y-64337999D01*
X63172001Y-64337999D01*
X63172001Y-64337999D01*
X63172001Y-64337999D01*
X63172001Y-64337999D01*
X63172001Y-64337999D01*
X63172001Y-64337999D01*
X63172001Y-64338000D01*
X63172001Y-64338000D01*
X63172001Y-64338000D01*
X63172001Y-64338000D01*
X63172001Y-64338000D01*
X63172001Y-64338000D01*
X63172001Y-64338000D01*
X63172000Y-64338000D01*
X63172000Y-64338000D02*
X63172001Y-64338000D01*
X63172001Y-64338000D01*
X63172001Y-64338000D01*
X63172001Y-64338000D01*
X63172001Y-64338000D01*
X63172001Y-64338000D01*
X63172001Y-64338001D01*
X63172001Y-64338001D01*
X63172001Y-64338001D01*
X63172001Y-64338001D01*
X63172001Y-64338001D01*
X63172001Y-64338001D01*
X63172001Y-64338001D01*
X63172000Y-64338001D01*
X63172000Y-64338001D01*
X63172000Y-64338001D01*
X63172000Y-64338001D01*
X63172000Y-64338001D01*
X63172000Y-64338001D01*
X63172000Y-64338001D01*
X63172000Y-64338001D01*
X63172000Y-64338001D01*
X63172000Y-64338001D01*
X63172000Y-64338001D01*
X63172000Y-64338001D01*
X63171999Y-64338001D01*
X63171999Y-64338001D01*
X63171999Y-64338001D01*
X63171999Y-64338001D01*
X63171999Y-64338001D01*
X63171999Y-64338001D01*
X63171999Y-64338000D01*
X63171999Y-64338000D01*
X63171999Y-64338000D01*
X63171999Y-64338000D01*
X63171999Y-64338000D01*
X63171999Y-64338000D01*
X63172000Y-64338000D01*
D14*
X63172000Y-64338000D02*
X69268000Y-64338000D01*
D13*
X64067600Y-58242000D02*
X64067599Y-58242000D01*
X64067599Y-58242000D01*
X64067599Y-58242000D01*
X64067599Y-58242000D01*
X64067599Y-58242000D01*
X64067599Y-58242000D01*
X64067599Y-58242000D01*
X64067599Y-58241999D01*
X64067599Y-58241999D01*
X64067599Y-58241999D01*
X64067599Y-58241999D01*
X64067599Y-58241999D01*
X64067600Y-58241999D01*
X64067600Y-58241999D01*
X64067600Y-58241999D01*
X64067600Y-58241999D01*
X64067600Y-58241999D01*
X64067600Y-58241999D01*
X64067600Y-58241999D01*
X64067600Y-58241999D01*
X64067600Y-58241999D01*
X64067600Y-58241999D01*
X64067600Y-58241999D01*
X64067600Y-58241999D01*
X64067601Y-58241999D01*
X64067601Y-58241999D01*
X64067601Y-58241999D01*
X64067601Y-58241999D01*
X64067601Y-58241999D01*
X64067601Y-58241999D01*
X64067601Y-58242000D01*
X64067601Y-58242000D01*
X64067601Y-58242000D01*
X64067601Y-58242000D01*
X64067601Y-58242000D01*
X64067601Y-58242000D01*
X64067601Y-58242000D01*
X64067600Y-58242000D01*
X64067600Y-58242000D02*
X64067601Y-58242000D01*
X64067601Y-58242000D01*
X64067601Y-58242000D01*
X64067601Y-58242000D01*
X64067601Y-58242000D01*
X64067601Y-58242000D01*
X64067601Y-58242001D01*
X64067601Y-58242001D01*
X64067601Y-58242001D01*
X64067601Y-58242001D01*
X64067601Y-58242001D01*
X64067601Y-58242001D01*
X64067601Y-58242001D01*
X64067600Y-58242001D01*
X64067600Y-58242001D01*
X64067600Y-58242001D01*
X64067600Y-58242001D01*
X64067600Y-58242001D01*
X64067600Y-58242001D01*
X64067600Y-58242001D01*
X64067600Y-58242001D01*
X64067600Y-58242001D01*
X64067600Y-58242001D01*
X64067600Y-58242001D01*
X64067600Y-58242001D01*
X64067599Y-58242001D01*
X64067599Y-58242001D01*
X64067599Y-58242001D01*
X64067599Y-58242001D01*
X64067599Y-58242001D01*
X64067599Y-58242001D01*
X64067599Y-58242000D01*
X64067599Y-58242000D01*
X64067599Y-58242000D01*
X64067599Y-58242000D01*
X64067599Y-58242000D01*
X64067599Y-58242000D01*
X64067600Y-58242000D01*
D14*
X64067600Y-58242000D02*
X64372400Y-58242000D01*
D13*
X64067600Y-64338000D02*
X64067599Y-64338000D01*
X64067599Y-64338000D01*
X64067599Y-64338000D01*
X64067599Y-64338000D01*
X64067599Y-64338000D01*
X64067599Y-64338000D01*
X64067599Y-64338000D01*
X64067599Y-64337999D01*
X64067599Y-64337999D01*
X64067599Y-64337999D01*
X64067599Y-64337999D01*
X64067599Y-64337999D01*
X64067600Y-64337999D01*
X64067600Y-64337999D01*
X64067600Y-64337999D01*
X64067600Y-64337999D01*
X64067600Y-64337999D01*
X64067600Y-64337999D01*
X64067600Y-64337999D01*
X64067600Y-64337999D01*
X64067600Y-64337999D01*
X64067600Y-64337999D01*
X64067600Y-64337999D01*
X64067600Y-64337999D01*
X64067601Y-64337999D01*
X64067601Y-64337999D01*
X64067601Y-64337999D01*
X64067601Y-64337999D01*
X64067601Y-64337999D01*
X64067601Y-64337999D01*
X64067601Y-64338000D01*
X64067601Y-64338000D01*
X64067601Y-64338000D01*
X64067601Y-64338000D01*
X64067601Y-64338000D01*
X64067601Y-64338000D01*
X64067601Y-64338000D01*
X64067600Y-64338000D01*
X64067600Y-64338000D02*
X64067601Y-64338000D01*
X64067601Y-64338000D01*
X64067601Y-64338000D01*
X64067601Y-64338000D01*
X64067601Y-64338000D01*
X64067601Y-64338000D01*
X64067601Y-64338001D01*
X64067601Y-64338001D01*
X64067601Y-64338001D01*
X64067601Y-64338001D01*
X64067601Y-64338001D01*
X64067601Y-64338001D01*
X64067601Y-64338001D01*
X64067600Y-64338001D01*
X64067600Y-64338001D01*
X64067600Y-64338001D01*
X64067600Y-64338001D01*
X64067600Y-64338001D01*
X64067600Y-64338001D01*
X64067600Y-64338001D01*
X64067600Y-64338001D01*
X64067600Y-64338001D01*
X64067600Y-64338001D01*
X64067600Y-64338001D01*
X64067600Y-64338001D01*
X64067599Y-64338001D01*
X64067599Y-64338001D01*
X64067599Y-64338001D01*
X64067599Y-64338001D01*
X64067599Y-64338001D01*
X64067599Y-64338001D01*
X64067599Y-64338000D01*
X64067599Y-64338000D01*
X64067599Y-64338000D01*
X64067599Y-64338000D01*
X64067599Y-64338000D01*
X64067599Y-64338000D01*
X64067600Y-64338000D01*
D14*
X64067600Y-64338000D02*
X64372400Y-64338000D01*
X64372400Y-58242000D02*
X64067600Y-58242000D01*
D13*
X64372400Y-58242000D02*
X64372399Y-58242000D01*
X64372399Y-58242000D01*
X64372399Y-58242000D01*
X64372399Y-58242000D01*
X64372399Y-58242000D01*
X64372399Y-58242000D01*
X64372399Y-58242000D01*
X64372399Y-58241999D01*
X64372399Y-58241999D01*
X64372399Y-58241999D01*
X64372399Y-58241999D01*
X64372399Y-58241999D01*
X64372400Y-58241999D01*
X64372400Y-58241999D01*
X64372400Y-58241999D01*
X64372400Y-58241999D01*
X64372400Y-58241999D01*
X64372400Y-58241999D01*
X64372400Y-58241999D01*
X64372400Y-58241999D01*
X64372400Y-58241999D01*
X64372400Y-58241999D01*
X64372400Y-58241999D01*
X64372400Y-58241999D01*
X64372401Y-58241999D01*
X64372401Y-58241999D01*
X64372401Y-58241999D01*
X64372401Y-58241999D01*
X64372401Y-58241999D01*
X64372401Y-58241999D01*
X64372401Y-58242000D01*
X64372401Y-58242000D01*
X64372401Y-58242000D01*
X64372401Y-58242000D01*
X64372401Y-58242000D01*
X64372401Y-58242000D01*
X64372401Y-58242000D01*
X64372400Y-58242000D01*
X64372400Y-58242000D02*
X64372401Y-58242000D01*
X64372401Y-58242000D01*
X64372401Y-58242000D01*
X64372401Y-58242000D01*
X64372401Y-58242000D01*
X64372401Y-58242000D01*
X64372401Y-58242001D01*
X64372401Y-58242001D01*
X64372401Y-58242001D01*
X64372401Y-58242001D01*
X64372401Y-58242001D01*
X64372401Y-58242001D01*
X64372401Y-58242001D01*
X64372400Y-58242001D01*
X64372400Y-58242001D01*
X64372400Y-58242001D01*
X64372400Y-58242001D01*
X64372400Y-58242001D01*
X64372400Y-58242001D01*
X64372400Y-58242001D01*
X64372400Y-58242001D01*
X64372400Y-58242001D01*
X64372400Y-58242001D01*
X64372400Y-58242001D01*
X64372400Y-58242001D01*
X64372399Y-58242001D01*
X64372399Y-58242001D01*
X64372399Y-58242001D01*
X64372399Y-58242001D01*
X64372399Y-58242001D01*
X64372399Y-58242001D01*
X64372399Y-58242000D01*
X64372399Y-58242000D01*
X64372399Y-58242000D01*
X64372399Y-58242000D01*
X64372399Y-58242000D01*
X64372399Y-58242000D01*
X64372400Y-58242000D01*
D14*
X64372400Y-64338000D02*
X64067600Y-64338000D01*
D13*
X64372400Y-64338000D02*
X64372399Y-64338000D01*
X64372399Y-64338000D01*
X64372399Y-64338000D01*
X64372399Y-64338000D01*
X64372399Y-64338000D01*
X64372399Y-64338000D01*
X64372399Y-64338000D01*
X64372399Y-64337999D01*
X64372399Y-64337999D01*
X64372399Y-64337999D01*
X64372399Y-64337999D01*
X64372399Y-64337999D01*
X64372400Y-64337999D01*
X64372400Y-64337999D01*
X64372400Y-64337999D01*
X64372400Y-64337999D01*
X64372400Y-64337999D01*
X64372400Y-64337999D01*
X64372400Y-64337999D01*
X64372400Y-64337999D01*
X64372400Y-64337999D01*
X64372400Y-64337999D01*
X64372400Y-64337999D01*
X64372400Y-64337999D01*
X64372401Y-64337999D01*
X64372401Y-64337999D01*
X64372401Y-64337999D01*
X64372401Y-64337999D01*
X64372401Y-64337999D01*
X64372401Y-64337999D01*
X64372401Y-64338000D01*
X64372401Y-64338000D01*
X64372401Y-64338000D01*
X64372401Y-64338000D01*
X64372401Y-64338000D01*
X64372401Y-64338000D01*
X64372401Y-64338000D01*
X64372400Y-64338000D01*
X64372400Y-64338000D02*
X64372401Y-64338000D01*
X64372401Y-64338000D01*
X64372401Y-64338000D01*
X64372401Y-64338000D01*
X64372401Y-64338000D01*
X64372401Y-64338000D01*
X64372401Y-64338001D01*
X64372401Y-64338001D01*
X64372401Y-64338001D01*
X64372401Y-64338001D01*
X64372401Y-64338001D01*
X64372401Y-64338001D01*
X64372401Y-64338001D01*
X64372400Y-64338001D01*
X64372400Y-64338001D01*
X64372400Y-64338001D01*
X64372400Y-64338001D01*
X64372400Y-64338001D01*
X64372400Y-64338001D01*
X64372400Y-64338001D01*
X64372400Y-64338001D01*
X64372400Y-64338001D01*
X64372400Y-64338001D01*
X64372400Y-64338001D01*
X64372400Y-64338001D01*
X64372399Y-64338001D01*
X64372399Y-64338001D01*
X64372399Y-64338001D01*
X64372399Y-64338001D01*
X64372399Y-64338001D01*
X64372399Y-64338001D01*
X64372399Y-64338000D01*
X64372399Y-64338000D01*
X64372399Y-64338000D01*
X64372399Y-64338000D01*
X64372399Y-64338000D01*
X64372399Y-64338000D01*
X64372400Y-64338000D01*
D14*
D13*
X64567600Y-58242000D02*
X64567599Y-58242000D01*
X64567599Y-58242000D01*
X64567599Y-58242000D01*
X64567599Y-58242000D01*
X64567599Y-58242000D01*
X64567599Y-58242000D01*
X64567599Y-58242000D01*
X64567599Y-58241999D01*
X64567599Y-58241999D01*
X64567599Y-58241999D01*
X64567599Y-58241999D01*
X64567599Y-58241999D01*
X64567600Y-58241999D01*
X64567600Y-58241999D01*
X64567600Y-58241999D01*
X64567600Y-58241999D01*
X64567600Y-58241999D01*
X64567600Y-58241999D01*
X64567600Y-58241999D01*
X64567600Y-58241999D01*
X64567600Y-58241999D01*
X64567600Y-58241999D01*
X64567600Y-58241999D01*
X64567600Y-58241999D01*
X64567601Y-58241999D01*
X64567601Y-58241999D01*
X64567601Y-58241999D01*
X64567601Y-58241999D01*
X64567601Y-58241999D01*
X64567601Y-58241999D01*
X64567601Y-58242000D01*
X64567601Y-58242000D01*
X64567601Y-58242000D01*
X64567601Y-58242000D01*
X64567601Y-58242000D01*
X64567601Y-58242000D01*
X64567601Y-58242000D01*
X64567600Y-58242000D01*
X64567600Y-58242000D02*
X64567601Y-58242000D01*
X64567601Y-58242000D01*
X64567601Y-58242000D01*
X64567601Y-58242000D01*
X64567601Y-58242000D01*
X64567601Y-58242000D01*
X64567601Y-58242001D01*
X64567601Y-58242001D01*
X64567601Y-58242001D01*
X64567601Y-58242001D01*
X64567601Y-58242001D01*
X64567601Y-58242001D01*
X64567601Y-58242001D01*
X64567600Y-58242001D01*
X64567600Y-58242001D01*
X64567600Y-58242001D01*
X64567600Y-58242001D01*
X64567600Y-58242001D01*
X64567600Y-58242001D01*
X64567600Y-58242001D01*
X64567600Y-58242001D01*
X64567600Y-58242001D01*
X64567600Y-58242001D01*
X64567600Y-58242001D01*
X64567600Y-58242001D01*
X64567599Y-58242001D01*
X64567599Y-58242001D01*
X64567599Y-58242001D01*
X64567599Y-58242001D01*
X64567599Y-58242001D01*
X64567599Y-58242001D01*
X64567599Y-58242000D01*
X64567599Y-58242000D01*
X64567599Y-58242000D01*
X64567599Y-58242000D01*
X64567599Y-58242000D01*
X64567599Y-58242000D01*
X64567600Y-58242000D01*
D14*
X64567600Y-58242000D02*
X64872400Y-58242000D01*
D13*
X64567600Y-64338000D02*
X64567599Y-64338000D01*
X64567599Y-64338000D01*
X64567599Y-64338000D01*
X64567599Y-64338000D01*
X64567599Y-64338000D01*
X64567599Y-64338000D01*
X64567599Y-64338000D01*
X64567599Y-64337999D01*
X64567599Y-64337999D01*
X64567599Y-64337999D01*
X64567599Y-64337999D01*
X64567599Y-64337999D01*
X64567600Y-64337999D01*
X64567600Y-64337999D01*
X64567600Y-64337999D01*
X64567600Y-64337999D01*
X64567600Y-64337999D01*
X64567600Y-64337999D01*
X64567600Y-64337999D01*
X64567600Y-64337999D01*
X64567600Y-64337999D01*
X64567600Y-64337999D01*
X64567600Y-64337999D01*
X64567600Y-64337999D01*
X64567601Y-64337999D01*
X64567601Y-64337999D01*
X64567601Y-64337999D01*
X64567601Y-64337999D01*
X64567601Y-64337999D01*
X64567601Y-64337999D01*
X64567601Y-64338000D01*
X64567601Y-64338000D01*
X64567601Y-64338000D01*
X64567601Y-64338000D01*
X64567601Y-64338000D01*
X64567601Y-64338000D01*
X64567601Y-64338000D01*
X64567600Y-64338000D01*
X64567600Y-64338000D02*
X64567601Y-64338000D01*
X64567601Y-64338000D01*
X64567601Y-64338000D01*
X64567601Y-64338000D01*
X64567601Y-64338000D01*
X64567601Y-64338000D01*
X64567601Y-64338001D01*
X64567601Y-64338001D01*
X64567601Y-64338001D01*
X64567601Y-64338001D01*
X64567601Y-64338001D01*
X64567601Y-64338001D01*
X64567601Y-64338001D01*
X64567600Y-64338001D01*
X64567600Y-64338001D01*
X64567600Y-64338001D01*
X64567600Y-64338001D01*
X64567600Y-64338001D01*
X64567600Y-64338001D01*
X64567600Y-64338001D01*
X64567600Y-64338001D01*
X64567600Y-64338001D01*
X64567600Y-64338001D01*
X64567600Y-64338001D01*
X64567600Y-64338001D01*
X64567599Y-64338001D01*
X64567599Y-64338001D01*
X64567599Y-64338001D01*
X64567599Y-64338001D01*
X64567599Y-64338001D01*
X64567599Y-64338001D01*
X64567599Y-64338000D01*
X64567599Y-64338000D01*
X64567599Y-64338000D01*
X64567599Y-64338000D01*
X64567599Y-64338000D01*
X64567599Y-64338000D01*
X64567600Y-64338000D01*
D14*
X64567600Y-64338000D02*
X64872400Y-64338000D01*
X64872400Y-58242000D02*
X64567600Y-58242000D01*
D13*
X64872400Y-58242000D02*
X64872399Y-58242000D01*
X64872399Y-58242000D01*
X64872399Y-58242000D01*
X64872399Y-58242000D01*
X64872399Y-58242000D01*
X64872399Y-58242000D01*
X64872399Y-58242000D01*
X64872399Y-58241999D01*
X64872399Y-58241999D01*
X64872399Y-58241999D01*
X64872399Y-58241999D01*
X64872399Y-58241999D01*
X64872400Y-58241999D01*
X64872400Y-58241999D01*
X64872400Y-58241999D01*
X64872400Y-58241999D01*
X64872400Y-58241999D01*
X64872400Y-58241999D01*
X64872400Y-58241999D01*
X64872400Y-58241999D01*
X64872400Y-58241999D01*
X64872400Y-58241999D01*
X64872400Y-58241999D01*
X64872400Y-58241999D01*
X64872401Y-58241999D01*
X64872401Y-58241999D01*
X64872401Y-58241999D01*
X64872401Y-58241999D01*
X64872401Y-58241999D01*
X64872401Y-58241999D01*
X64872401Y-58242000D01*
X64872401Y-58242000D01*
X64872401Y-58242000D01*
X64872401Y-58242000D01*
X64872401Y-58242000D01*
X64872401Y-58242000D01*
X64872401Y-58242000D01*
X64872400Y-58242000D01*
X64872400Y-58242000D02*
X64872401Y-58242000D01*
X64872401Y-58242000D01*
X64872401Y-58242000D01*
X64872401Y-58242000D01*
X64872401Y-58242000D01*
X64872401Y-58242000D01*
X64872401Y-58242001D01*
X64872401Y-58242001D01*
X64872401Y-58242001D01*
X64872401Y-58242001D01*
X64872401Y-58242001D01*
X64872401Y-58242001D01*
X64872401Y-58242001D01*
X64872400Y-58242001D01*
X64872400Y-58242001D01*
X64872400Y-58242001D01*
X64872400Y-58242001D01*
X64872400Y-58242001D01*
X64872400Y-58242001D01*
X64872400Y-58242001D01*
X64872400Y-58242001D01*
X64872400Y-58242001D01*
X64872400Y-58242001D01*
X64872400Y-58242001D01*
X64872400Y-58242001D01*
X64872399Y-58242001D01*
X64872399Y-58242001D01*
X64872399Y-58242001D01*
X64872399Y-58242001D01*
X64872399Y-58242001D01*
X64872399Y-58242001D01*
X64872399Y-58242000D01*
X64872399Y-58242000D01*
X64872399Y-58242000D01*
X64872399Y-58242000D01*
X64872399Y-58242000D01*
X64872399Y-58242000D01*
X64872400Y-58242000D01*
D14*
X64872400Y-64338000D02*
X64567600Y-64338000D01*
D13*
X64872400Y-64338000D02*
X64872399Y-64338000D01*
X64872399Y-64338000D01*
X64872399Y-64338000D01*
X64872399Y-64338000D01*
X64872399Y-64338000D01*
X64872399Y-64338000D01*
X64872399Y-64338000D01*
X64872399Y-64337999D01*
X64872399Y-64337999D01*
X64872399Y-64337999D01*
X64872399Y-64337999D01*
X64872399Y-64337999D01*
X64872400Y-64337999D01*
X64872400Y-64337999D01*
X64872400Y-64337999D01*
X64872400Y-64337999D01*
X64872400Y-64337999D01*
X64872400Y-64337999D01*
X64872400Y-64337999D01*
X64872400Y-64337999D01*
X64872400Y-64337999D01*
X64872400Y-64337999D01*
X64872400Y-64337999D01*
X64872400Y-64337999D01*
X64872401Y-64337999D01*
X64872401Y-64337999D01*
X64872401Y-64337999D01*
X64872401Y-64337999D01*
X64872401Y-64337999D01*
X64872401Y-64337999D01*
X64872401Y-64338000D01*
X64872401Y-64338000D01*
X64872401Y-64338000D01*
X64872401Y-64338000D01*
X64872401Y-64338000D01*
X64872401Y-64338000D01*
X64872401Y-64338000D01*
X64872400Y-64338000D01*
X64872400Y-64338000D02*
X64872401Y-64338000D01*
X64872401Y-64338000D01*
X64872401Y-64338000D01*
X64872401Y-64338000D01*
X64872401Y-64338000D01*
X64872401Y-64338000D01*
X64872401Y-64338001D01*
X64872401Y-64338001D01*
X64872401Y-64338001D01*
X64872401Y-64338001D01*
X64872401Y-64338001D01*
X64872401Y-64338001D01*
X64872401Y-64338001D01*
X64872400Y-64338001D01*
X64872400Y-64338001D01*
X64872400Y-64338001D01*
X64872400Y-64338001D01*
X64872400Y-64338001D01*
X64872400Y-64338001D01*
X64872400Y-64338001D01*
X64872400Y-64338001D01*
X64872400Y-64338001D01*
X64872400Y-64338001D01*
X64872400Y-64338001D01*
X64872400Y-64338001D01*
X64872399Y-64338001D01*
X64872399Y-64338001D01*
X64872399Y-64338001D01*
X64872399Y-64338001D01*
X64872399Y-64338001D01*
X64872399Y-64338001D01*
X64872399Y-64338000D01*
X64872399Y-64338000D01*
X64872399Y-64338000D01*
X64872399Y-64338000D01*
X64872399Y-64338000D01*
X64872399Y-64338000D01*
X64872400Y-64338000D01*
D14*
D13*
X65067600Y-58242000D02*
X65067599Y-58242000D01*
X65067599Y-58242000D01*
X65067599Y-58242000D01*
X65067599Y-58242000D01*
X65067599Y-58242000D01*
X65067599Y-58242000D01*
X65067599Y-58242000D01*
X65067599Y-58241999D01*
X65067599Y-58241999D01*
X65067599Y-58241999D01*
X65067599Y-58241999D01*
X65067599Y-58241999D01*
X65067600Y-58241999D01*
X65067600Y-58241999D01*
X65067600Y-58241999D01*
X65067600Y-58241999D01*
X65067600Y-58241999D01*
X65067600Y-58241999D01*
X65067600Y-58241999D01*
X65067600Y-58241999D01*
X65067600Y-58241999D01*
X65067600Y-58241999D01*
X65067600Y-58241999D01*
X65067600Y-58241999D01*
X65067601Y-58241999D01*
X65067601Y-58241999D01*
X65067601Y-58241999D01*
X65067601Y-58241999D01*
X65067601Y-58241999D01*
X65067601Y-58241999D01*
X65067601Y-58242000D01*
X65067601Y-58242000D01*
X65067601Y-58242000D01*
X65067601Y-58242000D01*
X65067601Y-58242000D01*
X65067601Y-58242000D01*
X65067601Y-58242000D01*
X65067600Y-58242000D01*
X65067600Y-58242000D02*
X65067601Y-58242000D01*
X65067601Y-58242000D01*
X65067601Y-58242000D01*
X65067601Y-58242000D01*
X65067601Y-58242000D01*
X65067601Y-58242000D01*
X65067601Y-58242001D01*
X65067601Y-58242001D01*
X65067601Y-58242001D01*
X65067601Y-58242001D01*
X65067601Y-58242001D01*
X65067601Y-58242001D01*
X65067601Y-58242001D01*
X65067600Y-58242001D01*
X65067600Y-58242001D01*
X65067600Y-58242001D01*
X65067600Y-58242001D01*
X65067600Y-58242001D01*
X65067600Y-58242001D01*
X65067600Y-58242001D01*
X65067600Y-58242001D01*
X65067600Y-58242001D01*
X65067600Y-58242001D01*
X65067600Y-58242001D01*
X65067600Y-58242001D01*
X65067599Y-58242001D01*
X65067599Y-58242001D01*
X65067599Y-58242001D01*
X65067599Y-58242001D01*
X65067599Y-58242001D01*
X65067599Y-58242001D01*
X65067599Y-58242000D01*
X65067599Y-58242000D01*
X65067599Y-58242000D01*
X65067599Y-58242000D01*
X65067599Y-58242000D01*
X65067599Y-58242000D01*
X65067600Y-58242000D01*
D14*
X65067600Y-58242000D02*
X65372400Y-58242000D01*
D13*
X65067600Y-64338000D02*
X65067599Y-64338000D01*
X65067599Y-64338000D01*
X65067599Y-64338000D01*
X65067599Y-64338000D01*
X65067599Y-64338000D01*
X65067599Y-64338000D01*
X65067599Y-64338000D01*
X65067599Y-64337999D01*
X65067599Y-64337999D01*
X65067599Y-64337999D01*
X65067599Y-64337999D01*
X65067599Y-64337999D01*
X65067600Y-64337999D01*
X65067600Y-64337999D01*
X65067600Y-64337999D01*
X65067600Y-64337999D01*
X65067600Y-64337999D01*
X65067600Y-64337999D01*
X65067600Y-64337999D01*
X65067600Y-64337999D01*
X65067600Y-64337999D01*
X65067600Y-64337999D01*
X65067600Y-64337999D01*
X65067600Y-64337999D01*
X65067601Y-64337999D01*
X65067601Y-64337999D01*
X65067601Y-64337999D01*
X65067601Y-64337999D01*
X65067601Y-64337999D01*
X65067601Y-64337999D01*
X65067601Y-64338000D01*
X65067601Y-64338000D01*
X65067601Y-64338000D01*
X65067601Y-64338000D01*
X65067601Y-64338000D01*
X65067601Y-64338000D01*
X65067601Y-64338000D01*
X65067600Y-64338000D01*
X65067600Y-64338000D02*
X65067601Y-64338000D01*
X65067601Y-64338000D01*
X65067601Y-64338000D01*
X65067601Y-64338000D01*
X65067601Y-64338000D01*
X65067601Y-64338000D01*
X65067601Y-64338001D01*
X65067601Y-64338001D01*
X65067601Y-64338001D01*
X65067601Y-64338001D01*
X65067601Y-64338001D01*
X65067601Y-64338001D01*
X65067601Y-64338001D01*
X65067600Y-64338001D01*
X65067600Y-64338001D01*
X65067600Y-64338001D01*
X65067600Y-64338001D01*
X65067600Y-64338001D01*
X65067600Y-64338001D01*
X65067600Y-64338001D01*
X65067600Y-64338001D01*
X65067600Y-64338001D01*
X65067600Y-64338001D01*
X65067600Y-64338001D01*
X65067600Y-64338001D01*
X65067599Y-64338001D01*
X65067599Y-64338001D01*
X65067599Y-64338001D01*
X65067599Y-64338001D01*
X65067599Y-64338001D01*
X65067599Y-64338001D01*
X65067599Y-64338000D01*
X65067599Y-64338000D01*
X65067599Y-64338000D01*
X65067599Y-64338000D01*
X65067599Y-64338000D01*
X65067599Y-64338000D01*
X65067600Y-64338000D01*
D14*
X65067600Y-64338000D02*
X65372400Y-64338000D01*
X65372400Y-58242000D02*
X65067600Y-58242000D01*
D13*
X65372400Y-58242000D02*
X65372399Y-58242000D01*
X65372399Y-58242000D01*
X65372399Y-58242000D01*
X65372399Y-58242000D01*
X65372399Y-58242000D01*
X65372399Y-58242000D01*
X65372399Y-58242000D01*
X65372399Y-58241999D01*
X65372399Y-58241999D01*
X65372399Y-58241999D01*
X65372399Y-58241999D01*
X65372399Y-58241999D01*
X65372400Y-58241999D01*
X65372400Y-58241999D01*
X65372400Y-58241999D01*
X65372400Y-58241999D01*
X65372400Y-58241999D01*
X65372400Y-58241999D01*
X65372400Y-58241999D01*
X65372400Y-58241999D01*
X65372400Y-58241999D01*
X65372400Y-58241999D01*
X65372400Y-58241999D01*
X65372400Y-58241999D01*
X65372401Y-58241999D01*
X65372401Y-58241999D01*
X65372401Y-58241999D01*
X65372401Y-58241999D01*
X65372401Y-58241999D01*
X65372401Y-58241999D01*
X65372401Y-58242000D01*
X65372401Y-58242000D01*
X65372401Y-58242000D01*
X65372401Y-58242000D01*
X65372401Y-58242000D01*
X65372401Y-58242000D01*
X65372401Y-58242000D01*
X65372400Y-58242000D01*
X65372400Y-58242000D02*
X65372401Y-58242000D01*
X65372401Y-58242000D01*
X65372401Y-58242000D01*
X65372401Y-58242000D01*
X65372401Y-58242000D01*
X65372401Y-58242000D01*
X65372401Y-58242001D01*
X65372401Y-58242001D01*
X65372401Y-58242001D01*
X65372401Y-58242001D01*
X65372401Y-58242001D01*
X65372401Y-58242001D01*
X65372401Y-58242001D01*
X65372400Y-58242001D01*
X65372400Y-58242001D01*
X65372400Y-58242001D01*
X65372400Y-58242001D01*
X65372400Y-58242001D01*
X65372400Y-58242001D01*
X65372400Y-58242001D01*
X65372400Y-58242001D01*
X65372400Y-58242001D01*
X65372400Y-58242001D01*
X65372400Y-58242001D01*
X65372400Y-58242001D01*
X65372399Y-58242001D01*
X65372399Y-58242001D01*
X65372399Y-58242001D01*
X65372399Y-58242001D01*
X65372399Y-58242001D01*
X65372399Y-58242001D01*
X65372399Y-58242000D01*
X65372399Y-58242000D01*
X65372399Y-58242000D01*
X65372399Y-58242000D01*
X65372399Y-58242000D01*
X65372399Y-58242000D01*
X65372400Y-58242000D01*
D14*
X65372400Y-64338000D02*
X65067600Y-64338000D01*
D13*
X65372400Y-64338000D02*
X65372399Y-64338000D01*
X65372399Y-64338000D01*
X65372399Y-64338000D01*
X65372399Y-64338000D01*
X65372399Y-64338000D01*
X65372399Y-64338000D01*
X65372399Y-64338000D01*
X65372399Y-64337999D01*
X65372399Y-64337999D01*
X65372399Y-64337999D01*
X65372399Y-64337999D01*
X65372399Y-64337999D01*
X65372400Y-64337999D01*
X65372400Y-64337999D01*
X65372400Y-64337999D01*
X65372400Y-64337999D01*
X65372400Y-64337999D01*
X65372400Y-64337999D01*
X65372400Y-64337999D01*
X65372400Y-64337999D01*
X65372400Y-64337999D01*
X65372400Y-64337999D01*
X65372400Y-64337999D01*
X65372400Y-64337999D01*
X65372401Y-64337999D01*
X65372401Y-64337999D01*
X65372401Y-64337999D01*
X65372401Y-64337999D01*
X65372401Y-64337999D01*
X65372401Y-64337999D01*
X65372401Y-64338000D01*
X65372401Y-64338000D01*
X65372401Y-64338000D01*
X65372401Y-64338000D01*
X65372401Y-64338000D01*
X65372401Y-64338000D01*
X65372401Y-64338000D01*
X65372400Y-64338000D01*
X65372400Y-64338000D02*
X65372401Y-64338000D01*
X65372401Y-64338000D01*
X65372401Y-64338000D01*
X65372401Y-64338000D01*
X65372401Y-64338000D01*
X65372401Y-64338000D01*
X65372401Y-64338001D01*
X65372401Y-64338001D01*
X65372401Y-64338001D01*
X65372401Y-64338001D01*
X65372401Y-64338001D01*
X65372401Y-64338001D01*
X65372401Y-64338001D01*
X65372400Y-64338001D01*
X65372400Y-64338001D01*
X65372400Y-64338001D01*
X65372400Y-64338001D01*
X65372400Y-64338001D01*
X65372400Y-64338001D01*
X65372400Y-64338001D01*
X65372400Y-64338001D01*
X65372400Y-64338001D01*
X65372400Y-64338001D01*
X65372400Y-64338001D01*
X65372400Y-64338001D01*
X65372399Y-64338001D01*
X65372399Y-64338001D01*
X65372399Y-64338001D01*
X65372399Y-64338001D01*
X65372399Y-64338001D01*
X65372399Y-64338001D01*
X65372399Y-64338000D01*
X65372399Y-64338000D01*
X65372399Y-64338000D01*
X65372399Y-64338000D01*
X65372399Y-64338000D01*
X65372399Y-64338000D01*
X65372400Y-64338000D01*
D14*
D13*
X65567600Y-58242000D02*
X65567599Y-58242000D01*
X65567599Y-58242000D01*
X65567599Y-58242000D01*
X65567599Y-58242000D01*
X65567599Y-58242000D01*
X65567599Y-58242000D01*
X65567599Y-58242000D01*
X65567599Y-58241999D01*
X65567599Y-58241999D01*
X65567599Y-58241999D01*
X65567599Y-58241999D01*
X65567599Y-58241999D01*
X65567600Y-58241999D01*
X65567600Y-58241999D01*
X65567600Y-58241999D01*
X65567600Y-58241999D01*
X65567600Y-58241999D01*
X65567600Y-58241999D01*
X65567600Y-58241999D01*
X65567600Y-58241999D01*
X65567600Y-58241999D01*
X65567600Y-58241999D01*
X65567600Y-58241999D01*
X65567600Y-58241999D01*
X65567601Y-58241999D01*
X65567601Y-58241999D01*
X65567601Y-58241999D01*
X65567601Y-58241999D01*
X65567601Y-58241999D01*
X65567601Y-58241999D01*
X65567601Y-58242000D01*
X65567601Y-58242000D01*
X65567601Y-58242000D01*
X65567601Y-58242000D01*
X65567601Y-58242000D01*
X65567601Y-58242000D01*
X65567601Y-58242000D01*
X65567600Y-58242000D01*
X65567600Y-58242000D02*
X65567601Y-58242000D01*
X65567601Y-58242000D01*
X65567601Y-58242000D01*
X65567601Y-58242000D01*
X65567601Y-58242000D01*
X65567601Y-58242000D01*
X65567601Y-58242001D01*
X65567601Y-58242001D01*
X65567601Y-58242001D01*
X65567601Y-58242001D01*
X65567601Y-58242001D01*
X65567601Y-58242001D01*
X65567601Y-58242001D01*
X65567600Y-58242001D01*
X65567600Y-58242001D01*
X65567600Y-58242001D01*
X65567600Y-58242001D01*
X65567600Y-58242001D01*
X65567600Y-58242001D01*
X65567600Y-58242001D01*
X65567600Y-58242001D01*
X65567600Y-58242001D01*
X65567600Y-58242001D01*
X65567600Y-58242001D01*
X65567600Y-58242001D01*
X65567599Y-58242001D01*
X65567599Y-58242001D01*
X65567599Y-58242001D01*
X65567599Y-58242001D01*
X65567599Y-58242001D01*
X65567599Y-58242001D01*
X65567599Y-58242000D01*
X65567599Y-58242000D01*
X65567599Y-58242000D01*
X65567599Y-58242000D01*
X65567599Y-58242000D01*
X65567599Y-58242000D01*
X65567600Y-58242000D01*
D14*
X65567600Y-58242000D02*
X65872400Y-58242000D01*
D13*
X65567600Y-64338000D02*
X65567599Y-64338000D01*
X65567599Y-64338000D01*
X65567599Y-64338000D01*
X65567599Y-64338000D01*
X65567599Y-64338000D01*
X65567599Y-64338000D01*
X65567599Y-64338000D01*
X65567599Y-64337999D01*
X65567599Y-64337999D01*
X65567599Y-64337999D01*
X65567599Y-64337999D01*
X65567599Y-64337999D01*
X65567600Y-64337999D01*
X65567600Y-64337999D01*
X65567600Y-64337999D01*
X65567600Y-64337999D01*
X65567600Y-64337999D01*
X65567600Y-64337999D01*
X65567600Y-64337999D01*
X65567600Y-64337999D01*
X65567600Y-64337999D01*
X65567600Y-64337999D01*
X65567600Y-64337999D01*
X65567600Y-64337999D01*
X65567601Y-64337999D01*
X65567601Y-64337999D01*
X65567601Y-64337999D01*
X65567601Y-64337999D01*
X65567601Y-64337999D01*
X65567601Y-64337999D01*
X65567601Y-64338000D01*
X65567601Y-64338000D01*
X65567601Y-64338000D01*
X65567601Y-64338000D01*
X65567601Y-64338000D01*
X65567601Y-64338000D01*
X65567601Y-64338000D01*
X65567600Y-64338000D01*
X65567600Y-64338000D02*
X65567601Y-64338000D01*
X65567601Y-64338000D01*
X65567601Y-64338000D01*
X65567601Y-64338000D01*
X65567601Y-64338000D01*
X65567601Y-64338000D01*
X65567601Y-64338001D01*
X65567601Y-64338001D01*
X65567601Y-64338001D01*
X65567601Y-64338001D01*
X65567601Y-64338001D01*
X65567601Y-64338001D01*
X65567601Y-64338001D01*
X65567600Y-64338001D01*
X65567600Y-64338001D01*
X65567600Y-64338001D01*
X65567600Y-64338001D01*
X65567600Y-64338001D01*
X65567600Y-64338001D01*
X65567600Y-64338001D01*
X65567600Y-64338001D01*
X65567600Y-64338001D01*
X65567600Y-64338001D01*
X65567600Y-64338001D01*
X65567600Y-64338001D01*
X65567599Y-64338001D01*
X65567599Y-64338001D01*
X65567599Y-64338001D01*
X65567599Y-64338001D01*
X65567599Y-64338001D01*
X65567599Y-64338001D01*
X65567599Y-64338000D01*
X65567599Y-64338000D01*
X65567599Y-64338000D01*
X65567599Y-64338000D01*
X65567599Y-64338000D01*
X65567599Y-64338000D01*
X65567600Y-64338000D01*
D14*
X65567600Y-64338000D02*
X65872400Y-64338000D01*
X65872400Y-58242000D02*
X65567600Y-58242000D01*
D13*
X65872400Y-58242000D02*
X65872399Y-58242000D01*
X65872399Y-58242000D01*
X65872399Y-58242000D01*
X65872399Y-58242000D01*
X65872399Y-58242000D01*
X65872399Y-58242000D01*
X65872399Y-58242000D01*
X65872399Y-58241999D01*
X65872399Y-58241999D01*
X65872399Y-58241999D01*
X65872399Y-58241999D01*
X65872399Y-58241999D01*
X65872400Y-58241999D01*
X65872400Y-58241999D01*
X65872400Y-58241999D01*
X65872400Y-58241999D01*
X65872400Y-58241999D01*
X65872400Y-58241999D01*
X65872400Y-58241999D01*
X65872400Y-58241999D01*
X65872400Y-58241999D01*
X65872400Y-58241999D01*
X65872400Y-58241999D01*
X65872400Y-58241999D01*
X65872401Y-58241999D01*
X65872401Y-58241999D01*
X65872401Y-58241999D01*
X65872401Y-58241999D01*
X65872401Y-58241999D01*
X65872401Y-58241999D01*
X65872401Y-58242000D01*
X65872401Y-58242000D01*
X65872401Y-58242000D01*
X65872401Y-58242000D01*
X65872401Y-58242000D01*
X65872401Y-58242000D01*
X65872401Y-58242000D01*
X65872400Y-58242000D01*
X65872400Y-58242000D02*
X65872401Y-58242000D01*
X65872401Y-58242000D01*
X65872401Y-58242000D01*
X65872401Y-58242000D01*
X65872401Y-58242000D01*
X65872401Y-58242000D01*
X65872401Y-58242001D01*
X65872401Y-58242001D01*
X65872401Y-58242001D01*
X65872401Y-58242001D01*
X65872401Y-58242001D01*
X65872401Y-58242001D01*
X65872401Y-58242001D01*
X65872400Y-58242001D01*
X65872400Y-58242001D01*
X65872400Y-58242001D01*
X65872400Y-58242001D01*
X65872400Y-58242001D01*
X65872400Y-58242001D01*
X65872400Y-58242001D01*
X65872400Y-58242001D01*
X65872400Y-58242001D01*
X65872400Y-58242001D01*
X65872400Y-58242001D01*
X65872400Y-58242001D01*
X65872399Y-58242001D01*
X65872399Y-58242001D01*
X65872399Y-58242001D01*
X65872399Y-58242001D01*
X65872399Y-58242001D01*
X65872399Y-58242001D01*
X65872399Y-58242000D01*
X65872399Y-58242000D01*
X65872399Y-58242000D01*
X65872399Y-58242000D01*
X65872399Y-58242000D01*
X65872399Y-58242000D01*
X65872400Y-58242000D01*
D14*
X65872400Y-64338000D02*
X65567600Y-64338000D01*
D13*
X65872400Y-64338000D02*
X65872399Y-64338000D01*
X65872399Y-64338000D01*
X65872399Y-64338000D01*
X65872399Y-64338000D01*
X65872399Y-64338000D01*
X65872399Y-64338000D01*
X65872399Y-64338000D01*
X65872399Y-64337999D01*
X65872399Y-64337999D01*
X65872399Y-64337999D01*
X65872399Y-64337999D01*
X65872399Y-64337999D01*
X65872400Y-64337999D01*
X65872400Y-64337999D01*
X65872400Y-64337999D01*
X65872400Y-64337999D01*
X65872400Y-64337999D01*
X65872400Y-64337999D01*
X65872400Y-64337999D01*
X65872400Y-64337999D01*
X65872400Y-64337999D01*
X65872400Y-64337999D01*
X65872400Y-64337999D01*
X65872400Y-64337999D01*
X65872401Y-64337999D01*
X65872401Y-64337999D01*
X65872401Y-64337999D01*
X65872401Y-64337999D01*
X65872401Y-64337999D01*
X65872401Y-64337999D01*
X65872401Y-64338000D01*
X65872401Y-64338000D01*
X65872401Y-64338000D01*
X65872401Y-64338000D01*
X65872401Y-64338000D01*
X65872401Y-64338000D01*
X65872401Y-64338000D01*
X65872400Y-64338000D01*
X65872400Y-64338000D02*
X65872401Y-64338000D01*
X65872401Y-64338000D01*
X65872401Y-64338000D01*
X65872401Y-64338000D01*
X65872401Y-64338000D01*
X65872401Y-64338000D01*
X65872401Y-64338001D01*
X65872401Y-64338001D01*
X65872401Y-64338001D01*
X65872401Y-64338001D01*
X65872401Y-64338001D01*
X65872401Y-64338001D01*
X65872401Y-64338001D01*
X65872400Y-64338001D01*
X65872400Y-64338001D01*
X65872400Y-64338001D01*
X65872400Y-64338001D01*
X65872400Y-64338001D01*
X65872400Y-64338001D01*
X65872400Y-64338001D01*
X65872400Y-64338001D01*
X65872400Y-64338001D01*
X65872400Y-64338001D01*
X65872400Y-64338001D01*
X65872400Y-64338001D01*
X65872399Y-64338001D01*
X65872399Y-64338001D01*
X65872399Y-64338001D01*
X65872399Y-64338001D01*
X65872399Y-64338001D01*
X65872399Y-64338001D01*
X65872399Y-64338000D01*
X65872399Y-64338000D01*
X65872399Y-64338000D01*
X65872399Y-64338000D01*
X65872399Y-64338000D01*
X65872399Y-64338000D01*
X65872400Y-64338000D01*
D14*
D13*
X66067600Y-58242000D02*
X66067599Y-58242000D01*
X66067599Y-58242000D01*
X66067599Y-58242000D01*
X66067599Y-58242000D01*
X66067599Y-58242000D01*
X66067599Y-58242000D01*
X66067599Y-58242000D01*
X66067599Y-58241999D01*
X66067599Y-58241999D01*
X66067599Y-58241999D01*
X66067599Y-58241999D01*
X66067599Y-58241999D01*
X66067600Y-58241999D01*
X66067600Y-58241999D01*
X66067600Y-58241999D01*
X66067600Y-58241999D01*
X66067600Y-58241999D01*
X66067600Y-58241999D01*
X66067600Y-58241999D01*
X66067600Y-58241999D01*
X66067600Y-58241999D01*
X66067600Y-58241999D01*
X66067600Y-58241999D01*
X66067600Y-58241999D01*
X66067601Y-58241999D01*
X66067601Y-58241999D01*
X66067601Y-58241999D01*
X66067601Y-58241999D01*
X66067601Y-58241999D01*
X66067601Y-58241999D01*
X66067601Y-58242000D01*
X66067601Y-58242000D01*
X66067601Y-58242000D01*
X66067601Y-58242000D01*
X66067601Y-58242000D01*
X66067601Y-58242000D01*
X66067601Y-58242000D01*
X66067600Y-58242000D01*
X66067600Y-58242000D02*
X66067601Y-58242000D01*
X66067601Y-58242000D01*
X66067601Y-58242000D01*
X66067601Y-58242000D01*
X66067601Y-58242000D01*
X66067601Y-58242000D01*
X66067601Y-58242001D01*
X66067601Y-58242001D01*
X66067601Y-58242001D01*
X66067601Y-58242001D01*
X66067601Y-58242001D01*
X66067601Y-58242001D01*
X66067601Y-58242001D01*
X66067600Y-58242001D01*
X66067600Y-58242001D01*
X66067600Y-58242001D01*
X66067600Y-58242001D01*
X66067600Y-58242001D01*
X66067600Y-58242001D01*
X66067600Y-58242001D01*
X66067600Y-58242001D01*
X66067600Y-58242001D01*
X66067600Y-58242001D01*
X66067600Y-58242001D01*
X66067600Y-58242001D01*
X66067599Y-58242001D01*
X66067599Y-58242001D01*
X66067599Y-58242001D01*
X66067599Y-58242001D01*
X66067599Y-58242001D01*
X66067599Y-58242001D01*
X66067599Y-58242000D01*
X66067599Y-58242000D01*
X66067599Y-58242000D01*
X66067599Y-58242000D01*
X66067599Y-58242000D01*
X66067599Y-58242000D01*
X66067600Y-58242000D01*
D14*
X66067600Y-58242000D02*
X66372400Y-58242000D01*
D13*
X66067600Y-64338000D02*
X66067599Y-64338000D01*
X66067599Y-64338000D01*
X66067599Y-64338000D01*
X66067599Y-64338000D01*
X66067599Y-64338000D01*
X66067599Y-64338000D01*
X66067599Y-64338000D01*
X66067599Y-64337999D01*
X66067599Y-64337999D01*
X66067599Y-64337999D01*
X66067599Y-64337999D01*
X66067599Y-64337999D01*
X66067600Y-64337999D01*
X66067600Y-64337999D01*
X66067600Y-64337999D01*
X66067600Y-64337999D01*
X66067600Y-64337999D01*
X66067600Y-64337999D01*
X66067600Y-64337999D01*
X66067600Y-64337999D01*
X66067600Y-64337999D01*
X66067600Y-64337999D01*
X66067600Y-64337999D01*
X66067600Y-64337999D01*
X66067601Y-64337999D01*
X66067601Y-64337999D01*
X66067601Y-64337999D01*
X66067601Y-64337999D01*
X66067601Y-64337999D01*
X66067601Y-64337999D01*
X66067601Y-64338000D01*
X66067601Y-64338000D01*
X66067601Y-64338000D01*
X66067601Y-64338000D01*
X66067601Y-64338000D01*
X66067601Y-64338000D01*
X66067601Y-64338000D01*
X66067600Y-64338000D01*
X66067600Y-64338000D02*
X66067601Y-64338000D01*
X66067601Y-64338000D01*
X66067601Y-64338000D01*
X66067601Y-64338000D01*
X66067601Y-64338000D01*
X66067601Y-64338000D01*
X66067601Y-64338001D01*
X66067601Y-64338001D01*
X66067601Y-64338001D01*
X66067601Y-64338001D01*
X66067601Y-64338001D01*
X66067601Y-64338001D01*
X66067601Y-64338001D01*
X66067600Y-64338001D01*
X66067600Y-64338001D01*
X66067600Y-64338001D01*
X66067600Y-64338001D01*
X66067600Y-64338001D01*
X66067600Y-64338001D01*
X66067600Y-64338001D01*
X66067600Y-64338001D01*
X66067600Y-64338001D01*
X66067600Y-64338001D01*
X66067600Y-64338001D01*
X66067600Y-64338001D01*
X66067599Y-64338001D01*
X66067599Y-64338001D01*
X66067599Y-64338001D01*
X66067599Y-64338001D01*
X66067599Y-64338001D01*
X66067599Y-64338001D01*
X66067599Y-64338000D01*
X66067599Y-64338000D01*
X66067599Y-64338000D01*
X66067599Y-64338000D01*
X66067599Y-64338000D01*
X66067599Y-64338000D01*
X66067600Y-64338000D01*
D14*
X66067600Y-64338000D02*
X66372400Y-64338000D01*
X66372400Y-58242000D02*
X66067600Y-58242000D01*
D13*
X66372400Y-58242000D02*
X66372399Y-58242000D01*
X66372399Y-58242000D01*
X66372399Y-58242000D01*
X66372399Y-58242000D01*
X66372399Y-58242000D01*
X66372399Y-58242000D01*
X66372399Y-58242000D01*
X66372399Y-58241999D01*
X66372399Y-58241999D01*
X66372399Y-58241999D01*
X66372399Y-58241999D01*
X66372399Y-58241999D01*
X66372400Y-58241999D01*
X66372400Y-58241999D01*
X66372400Y-58241999D01*
X66372400Y-58241999D01*
X66372400Y-58241999D01*
X66372400Y-58241999D01*
X66372400Y-58241999D01*
X66372400Y-58241999D01*
X66372400Y-58241999D01*
X66372400Y-58241999D01*
X66372400Y-58241999D01*
X66372400Y-58241999D01*
X66372401Y-58241999D01*
X66372401Y-58241999D01*
X66372401Y-58241999D01*
X66372401Y-58241999D01*
X66372401Y-58241999D01*
X66372401Y-58241999D01*
X66372401Y-58242000D01*
X66372401Y-58242000D01*
X66372401Y-58242000D01*
X66372401Y-58242000D01*
X66372401Y-58242000D01*
X66372401Y-58242000D01*
X66372401Y-58242000D01*
X66372400Y-58242000D01*
X66372400Y-58242000D02*
X66372401Y-58242000D01*
X66372401Y-58242000D01*
X66372401Y-58242000D01*
X66372401Y-58242000D01*
X66372401Y-58242000D01*
X66372401Y-58242000D01*
X66372401Y-58242001D01*
X66372401Y-58242001D01*
X66372401Y-58242001D01*
X66372401Y-58242001D01*
X66372401Y-58242001D01*
X66372401Y-58242001D01*
X66372401Y-58242001D01*
X66372400Y-58242001D01*
X66372400Y-58242001D01*
X66372400Y-58242001D01*
X66372400Y-58242001D01*
X66372400Y-58242001D01*
X66372400Y-58242001D01*
X66372400Y-58242001D01*
X66372400Y-58242001D01*
X66372400Y-58242001D01*
X66372400Y-58242001D01*
X66372400Y-58242001D01*
X66372400Y-58242001D01*
X66372399Y-58242001D01*
X66372399Y-58242001D01*
X66372399Y-58242001D01*
X66372399Y-58242001D01*
X66372399Y-58242001D01*
X66372399Y-58242001D01*
X66372399Y-58242000D01*
X66372399Y-58242000D01*
X66372399Y-58242000D01*
X66372399Y-58242000D01*
X66372399Y-58242000D01*
X66372399Y-58242000D01*
X66372400Y-58242000D01*
D14*
X66372400Y-64338000D02*
X66067600Y-64338000D01*
D13*
X66372400Y-64338000D02*
X66372399Y-64338000D01*
X66372399Y-64338000D01*
X66372399Y-64338000D01*
X66372399Y-64338000D01*
X66372399Y-64338000D01*
X66372399Y-64338000D01*
X66372399Y-64338000D01*
X66372399Y-64337999D01*
X66372399Y-64337999D01*
X66372399Y-64337999D01*
X66372399Y-64337999D01*
X66372399Y-64337999D01*
X66372400Y-64337999D01*
X66372400Y-64337999D01*
X66372400Y-64337999D01*
X66372400Y-64337999D01*
X66372400Y-64337999D01*
X66372400Y-64337999D01*
X66372400Y-64337999D01*
X66372400Y-64337999D01*
X66372400Y-64337999D01*
X66372400Y-64337999D01*
X66372400Y-64337999D01*
X66372400Y-64337999D01*
X66372401Y-64337999D01*
X66372401Y-64337999D01*
X66372401Y-64337999D01*
X66372401Y-64337999D01*
X66372401Y-64337999D01*
X66372401Y-64337999D01*
X66372401Y-64338000D01*
X66372401Y-64338000D01*
X66372401Y-64338000D01*
X66372401Y-64338000D01*
X66372401Y-64338000D01*
X66372401Y-64338000D01*
X66372401Y-64338000D01*
X66372400Y-64338000D01*
X66372400Y-64338000D02*
X66372401Y-64338000D01*
X66372401Y-64338000D01*
X66372401Y-64338000D01*
X66372401Y-64338000D01*
X66372401Y-64338000D01*
X66372401Y-64338000D01*
X66372401Y-64338001D01*
X66372401Y-64338001D01*
X66372401Y-64338001D01*
X66372401Y-64338001D01*
X66372401Y-64338001D01*
X66372401Y-64338001D01*
X66372401Y-64338001D01*
X66372400Y-64338001D01*
X66372400Y-64338001D01*
X66372400Y-64338001D01*
X66372400Y-64338001D01*
X66372400Y-64338001D01*
X66372400Y-64338001D01*
X66372400Y-64338001D01*
X66372400Y-64338001D01*
X66372400Y-64338001D01*
X66372400Y-64338001D01*
X66372400Y-64338001D01*
X66372400Y-64338001D01*
X66372399Y-64338001D01*
X66372399Y-64338001D01*
X66372399Y-64338001D01*
X66372399Y-64338001D01*
X66372399Y-64338001D01*
X66372399Y-64338001D01*
X66372399Y-64338000D01*
X66372399Y-64338000D01*
X66372399Y-64338000D01*
X66372399Y-64338000D01*
X66372399Y-64338000D01*
X66372399Y-64338000D01*
X66372400Y-64338000D01*
D14*
D13*
X66567600Y-58242000D02*
X66567599Y-58242000D01*
X66567599Y-58242000D01*
X66567599Y-58242000D01*
X66567599Y-58242000D01*
X66567599Y-58242000D01*
X66567599Y-58242000D01*
X66567599Y-58242000D01*
X66567599Y-58241999D01*
X66567599Y-58241999D01*
X66567599Y-58241999D01*
X66567599Y-58241999D01*
X66567599Y-58241999D01*
X66567600Y-58241999D01*
X66567600Y-58241999D01*
X66567600Y-58241999D01*
X66567600Y-58241999D01*
X66567600Y-58241999D01*
X66567600Y-58241999D01*
X66567600Y-58241999D01*
X66567600Y-58241999D01*
X66567600Y-58241999D01*
X66567600Y-58241999D01*
X66567600Y-58241999D01*
X66567600Y-58241999D01*
X66567601Y-58241999D01*
X66567601Y-58241999D01*
X66567601Y-58241999D01*
X66567601Y-58241999D01*
X66567601Y-58241999D01*
X66567601Y-58241999D01*
X66567601Y-58242000D01*
X66567601Y-58242000D01*
X66567601Y-58242000D01*
X66567601Y-58242000D01*
X66567601Y-58242000D01*
X66567601Y-58242000D01*
X66567601Y-58242000D01*
X66567600Y-58242000D01*
X66567600Y-58242000D02*
X66567601Y-58242000D01*
X66567601Y-58242000D01*
X66567601Y-58242000D01*
X66567601Y-58242000D01*
X66567601Y-58242000D01*
X66567601Y-58242000D01*
X66567601Y-58242001D01*
X66567601Y-58242001D01*
X66567601Y-58242001D01*
X66567601Y-58242001D01*
X66567601Y-58242001D01*
X66567601Y-58242001D01*
X66567601Y-58242001D01*
X66567600Y-58242001D01*
X66567600Y-58242001D01*
X66567600Y-58242001D01*
X66567600Y-58242001D01*
X66567600Y-58242001D01*
X66567600Y-58242001D01*
X66567600Y-58242001D01*
X66567600Y-58242001D01*
X66567600Y-58242001D01*
X66567600Y-58242001D01*
X66567600Y-58242001D01*
X66567600Y-58242001D01*
X66567599Y-58242001D01*
X66567599Y-58242001D01*
X66567599Y-58242001D01*
X66567599Y-58242001D01*
X66567599Y-58242001D01*
X66567599Y-58242001D01*
X66567599Y-58242000D01*
X66567599Y-58242000D01*
X66567599Y-58242000D01*
X66567599Y-58242000D01*
X66567599Y-58242000D01*
X66567599Y-58242000D01*
X66567600Y-58242000D01*
D14*
X66567600Y-58242000D02*
X66872400Y-58242000D01*
D13*
X66567600Y-64338000D02*
X66567599Y-64338000D01*
X66567599Y-64338000D01*
X66567599Y-64338000D01*
X66567599Y-64338000D01*
X66567599Y-64338000D01*
X66567599Y-64338000D01*
X66567599Y-64338000D01*
X66567599Y-64337999D01*
X66567599Y-64337999D01*
X66567599Y-64337999D01*
X66567599Y-64337999D01*
X66567599Y-64337999D01*
X66567600Y-64337999D01*
X66567600Y-64337999D01*
X66567600Y-64337999D01*
X66567600Y-64337999D01*
X66567600Y-64337999D01*
X66567600Y-64337999D01*
X66567600Y-64337999D01*
X66567600Y-64337999D01*
X66567600Y-64337999D01*
X66567600Y-64337999D01*
X66567600Y-64337999D01*
X66567600Y-64337999D01*
X66567601Y-64337999D01*
X66567601Y-64337999D01*
X66567601Y-64337999D01*
X66567601Y-64337999D01*
X66567601Y-64337999D01*
X66567601Y-64337999D01*
X66567601Y-64338000D01*
X66567601Y-64338000D01*
X66567601Y-64338000D01*
X66567601Y-64338000D01*
X66567601Y-64338000D01*
X66567601Y-64338000D01*
X66567601Y-64338000D01*
X66567600Y-64338000D01*
X66567600Y-64338000D02*
X66567601Y-64338000D01*
X66567601Y-64338000D01*
X66567601Y-64338000D01*
X66567601Y-64338000D01*
X66567601Y-64338000D01*
X66567601Y-64338000D01*
X66567601Y-64338001D01*
X66567601Y-64338001D01*
X66567601Y-64338001D01*
X66567601Y-64338001D01*
X66567601Y-64338001D01*
X66567601Y-64338001D01*
X66567601Y-64338001D01*
X66567600Y-64338001D01*
X66567600Y-64338001D01*
X66567600Y-64338001D01*
X66567600Y-64338001D01*
X66567600Y-64338001D01*
X66567600Y-64338001D01*
X66567600Y-64338001D01*
X66567600Y-64338001D01*
X66567600Y-64338001D01*
X66567600Y-64338001D01*
X66567600Y-64338001D01*
X66567600Y-64338001D01*
X66567599Y-64338001D01*
X66567599Y-64338001D01*
X66567599Y-64338001D01*
X66567599Y-64338001D01*
X66567599Y-64338001D01*
X66567599Y-64338001D01*
X66567599Y-64338000D01*
X66567599Y-64338000D01*
X66567599Y-64338000D01*
X66567599Y-64338000D01*
X66567599Y-64338000D01*
X66567599Y-64338000D01*
X66567600Y-64338000D01*
D14*
X66567600Y-64338000D02*
X66872400Y-64338000D01*
X66872400Y-58242000D02*
X66567600Y-58242000D01*
D13*
X66872400Y-58242000D02*
X66872399Y-58242000D01*
X66872399Y-58242000D01*
X66872399Y-58242000D01*
X66872399Y-58242000D01*
X66872399Y-58242000D01*
X66872399Y-58242000D01*
X66872399Y-58242000D01*
X66872399Y-58241999D01*
X66872399Y-58241999D01*
X66872399Y-58241999D01*
X66872399Y-58241999D01*
X66872399Y-58241999D01*
X66872400Y-58241999D01*
X66872400Y-58241999D01*
X66872400Y-58241999D01*
X66872400Y-58241999D01*
X66872400Y-58241999D01*
X66872400Y-58241999D01*
X66872400Y-58241999D01*
X66872400Y-58241999D01*
X66872400Y-58241999D01*
X66872400Y-58241999D01*
X66872400Y-58241999D01*
X66872400Y-58241999D01*
X66872401Y-58241999D01*
X66872401Y-58241999D01*
X66872401Y-58241999D01*
X66872401Y-58241999D01*
X66872401Y-58241999D01*
X66872401Y-58241999D01*
X66872401Y-58242000D01*
X66872401Y-58242000D01*
X66872401Y-58242000D01*
X66872401Y-58242000D01*
X66872401Y-58242000D01*
X66872401Y-58242000D01*
X66872401Y-58242000D01*
X66872400Y-58242000D01*
X66872400Y-58242000D02*
X66872401Y-58242000D01*
X66872401Y-58242000D01*
X66872401Y-58242000D01*
X66872401Y-58242000D01*
X66872401Y-58242000D01*
X66872401Y-58242000D01*
X66872401Y-58242001D01*
X66872401Y-58242001D01*
X66872401Y-58242001D01*
X66872401Y-58242001D01*
X66872401Y-58242001D01*
X66872401Y-58242001D01*
X66872401Y-58242001D01*
X66872400Y-58242001D01*
X66872400Y-58242001D01*
X66872400Y-58242001D01*
X66872400Y-58242001D01*
X66872400Y-58242001D01*
X66872400Y-58242001D01*
X66872400Y-58242001D01*
X66872400Y-58242001D01*
X66872400Y-58242001D01*
X66872400Y-58242001D01*
X66872400Y-58242001D01*
X66872400Y-58242001D01*
X66872399Y-58242001D01*
X66872399Y-58242001D01*
X66872399Y-58242001D01*
X66872399Y-58242001D01*
X66872399Y-58242001D01*
X66872399Y-58242001D01*
X66872399Y-58242000D01*
X66872399Y-58242000D01*
X66872399Y-58242000D01*
X66872399Y-58242000D01*
X66872399Y-58242000D01*
X66872399Y-58242000D01*
X66872400Y-58242000D01*
D14*
X66872400Y-64338000D02*
X66567600Y-64338000D01*
D13*
X66872400Y-64338000D02*
X66872399Y-64338000D01*
X66872399Y-64338000D01*
X66872399Y-64338000D01*
X66872399Y-64338000D01*
X66872399Y-64338000D01*
X66872399Y-64338000D01*
X66872399Y-64338000D01*
X66872399Y-64337999D01*
X66872399Y-64337999D01*
X66872399Y-64337999D01*
X66872399Y-64337999D01*
X66872399Y-64337999D01*
X66872400Y-64337999D01*
X66872400Y-64337999D01*
X66872400Y-64337999D01*
X66872400Y-64337999D01*
X66872400Y-64337999D01*
X66872400Y-64337999D01*
X66872400Y-64337999D01*
X66872400Y-64337999D01*
X66872400Y-64337999D01*
X66872400Y-64337999D01*
X66872400Y-64337999D01*
X66872400Y-64337999D01*
X66872401Y-64337999D01*
X66872401Y-64337999D01*
X66872401Y-64337999D01*
X66872401Y-64337999D01*
X66872401Y-64337999D01*
X66872401Y-64337999D01*
X66872401Y-64338000D01*
X66872401Y-64338000D01*
X66872401Y-64338000D01*
X66872401Y-64338000D01*
X66872401Y-64338000D01*
X66872401Y-64338000D01*
X66872401Y-64338000D01*
X66872400Y-64338000D01*
X66872400Y-64338000D02*
X66872401Y-64338000D01*
X66872401Y-64338000D01*
X66872401Y-64338000D01*
X66872401Y-64338000D01*
X66872401Y-64338000D01*
X66872401Y-64338000D01*
X66872401Y-64338001D01*
X66872401Y-64338001D01*
X66872401Y-64338001D01*
X66872401Y-64338001D01*
X66872401Y-64338001D01*
X66872401Y-64338001D01*
X66872401Y-64338001D01*
X66872400Y-64338001D01*
X66872400Y-64338001D01*
X66872400Y-64338001D01*
X66872400Y-64338001D01*
X66872400Y-64338001D01*
X66872400Y-64338001D01*
X66872400Y-64338001D01*
X66872400Y-64338001D01*
X66872400Y-64338001D01*
X66872400Y-64338001D01*
X66872400Y-64338001D01*
X66872400Y-64338001D01*
X66872399Y-64338001D01*
X66872399Y-64338001D01*
X66872399Y-64338001D01*
X66872399Y-64338001D01*
X66872399Y-64338001D01*
X66872399Y-64338001D01*
X66872399Y-64338000D01*
X66872399Y-64338000D01*
X66872399Y-64338000D01*
X66872399Y-64338000D01*
X66872399Y-64338000D01*
X66872399Y-64338000D01*
X66872400Y-64338000D01*
D14*
D13*
X67067600Y-58242000D02*
X67067599Y-58242000D01*
X67067599Y-58242000D01*
X67067599Y-58242000D01*
X67067599Y-58242000D01*
X67067599Y-58242000D01*
X67067599Y-58242000D01*
X67067599Y-58242000D01*
X67067599Y-58241999D01*
X67067599Y-58241999D01*
X67067599Y-58241999D01*
X67067599Y-58241999D01*
X67067599Y-58241999D01*
X67067600Y-58241999D01*
X67067600Y-58241999D01*
X67067600Y-58241999D01*
X67067600Y-58241999D01*
X67067600Y-58241999D01*
X67067600Y-58241999D01*
X67067600Y-58241999D01*
X67067600Y-58241999D01*
X67067600Y-58241999D01*
X67067600Y-58241999D01*
X67067600Y-58241999D01*
X67067600Y-58241999D01*
X67067601Y-58241999D01*
X67067601Y-58241999D01*
X67067601Y-58241999D01*
X67067601Y-58241999D01*
X67067601Y-58241999D01*
X67067601Y-58241999D01*
X67067601Y-58242000D01*
X67067601Y-58242000D01*
X67067601Y-58242000D01*
X67067601Y-58242000D01*
X67067601Y-58242000D01*
X67067601Y-58242000D01*
X67067601Y-58242000D01*
X67067600Y-58242000D01*
X67067600Y-58242000D02*
X67067601Y-58242000D01*
X67067601Y-58242000D01*
X67067601Y-58242000D01*
X67067601Y-58242000D01*
X67067601Y-58242000D01*
X67067601Y-58242000D01*
X67067601Y-58242001D01*
X67067601Y-58242001D01*
X67067601Y-58242001D01*
X67067601Y-58242001D01*
X67067601Y-58242001D01*
X67067601Y-58242001D01*
X67067601Y-58242001D01*
X67067600Y-58242001D01*
X67067600Y-58242001D01*
X67067600Y-58242001D01*
X67067600Y-58242001D01*
X67067600Y-58242001D01*
X67067600Y-58242001D01*
X67067600Y-58242001D01*
X67067600Y-58242001D01*
X67067600Y-58242001D01*
X67067600Y-58242001D01*
X67067600Y-58242001D01*
X67067600Y-58242001D01*
X67067599Y-58242001D01*
X67067599Y-58242001D01*
X67067599Y-58242001D01*
X67067599Y-58242001D01*
X67067599Y-58242001D01*
X67067599Y-58242001D01*
X67067599Y-58242000D01*
X67067599Y-58242000D01*
X67067599Y-58242000D01*
X67067599Y-58242000D01*
X67067599Y-58242000D01*
X67067599Y-58242000D01*
X67067600Y-58242000D01*
D14*
X67067600Y-58242000D02*
X67372400Y-58242000D01*
D13*
X67067600Y-64338000D02*
X67067599Y-64338000D01*
X67067599Y-64338000D01*
X67067599Y-64338000D01*
X67067599Y-64338000D01*
X67067599Y-64338000D01*
X67067599Y-64338000D01*
X67067599Y-64338000D01*
X67067599Y-64337999D01*
X67067599Y-64337999D01*
X67067599Y-64337999D01*
X67067599Y-64337999D01*
X67067599Y-64337999D01*
X67067600Y-64337999D01*
X67067600Y-64337999D01*
X67067600Y-64337999D01*
X67067600Y-64337999D01*
X67067600Y-64337999D01*
X67067600Y-64337999D01*
X67067600Y-64337999D01*
X67067600Y-64337999D01*
X67067600Y-64337999D01*
X67067600Y-64337999D01*
X67067600Y-64337999D01*
X67067600Y-64337999D01*
X67067601Y-64337999D01*
X67067601Y-64337999D01*
X67067601Y-64337999D01*
X67067601Y-64337999D01*
X67067601Y-64337999D01*
X67067601Y-64337999D01*
X67067601Y-64338000D01*
X67067601Y-64338000D01*
X67067601Y-64338000D01*
X67067601Y-64338000D01*
X67067601Y-64338000D01*
X67067601Y-64338000D01*
X67067601Y-64338000D01*
X67067600Y-64338000D01*
X67067600Y-64338000D02*
X67067601Y-64338000D01*
X67067601Y-64338000D01*
X67067601Y-64338000D01*
X67067601Y-64338000D01*
X67067601Y-64338000D01*
X67067601Y-64338000D01*
X67067601Y-64338001D01*
X67067601Y-64338001D01*
X67067601Y-64338001D01*
X67067601Y-64338001D01*
X67067601Y-64338001D01*
X67067601Y-64338001D01*
X67067601Y-64338001D01*
X67067600Y-64338001D01*
X67067600Y-64338001D01*
X67067600Y-64338001D01*
X67067600Y-64338001D01*
X67067600Y-64338001D01*
X67067600Y-64338001D01*
X67067600Y-64338001D01*
X67067600Y-64338001D01*
X67067600Y-64338001D01*
X67067600Y-64338001D01*
X67067600Y-64338001D01*
X67067600Y-64338001D01*
X67067599Y-64338001D01*
X67067599Y-64338001D01*
X67067599Y-64338001D01*
X67067599Y-64338001D01*
X67067599Y-64338001D01*
X67067599Y-64338001D01*
X67067599Y-64338000D01*
X67067599Y-64338000D01*
X67067599Y-64338000D01*
X67067599Y-64338000D01*
X67067599Y-64338000D01*
X67067599Y-64338000D01*
X67067600Y-64338000D01*
D14*
X67067600Y-64338000D02*
X67372400Y-64338000D01*
X67372400Y-58242000D02*
X67067600Y-58242000D01*
D13*
X67372400Y-58242000D02*
X67372399Y-58242000D01*
X67372399Y-58242000D01*
X67372399Y-58242000D01*
X67372399Y-58242000D01*
X67372399Y-58242000D01*
X67372399Y-58242000D01*
X67372399Y-58242000D01*
X67372399Y-58241999D01*
X67372399Y-58241999D01*
X67372399Y-58241999D01*
X67372399Y-58241999D01*
X67372399Y-58241999D01*
X67372400Y-58241999D01*
X67372400Y-58241999D01*
X67372400Y-58241999D01*
X67372400Y-58241999D01*
X67372400Y-58241999D01*
X67372400Y-58241999D01*
X67372400Y-58241999D01*
X67372400Y-58241999D01*
X67372400Y-58241999D01*
X67372400Y-58241999D01*
X67372400Y-58241999D01*
X67372400Y-58241999D01*
X67372401Y-58241999D01*
X67372401Y-58241999D01*
X67372401Y-58241999D01*
X67372401Y-58241999D01*
X67372401Y-58241999D01*
X67372401Y-58241999D01*
X67372401Y-58242000D01*
X67372401Y-58242000D01*
X67372401Y-58242000D01*
X67372401Y-58242000D01*
X67372401Y-58242000D01*
X67372401Y-58242000D01*
X67372401Y-58242000D01*
X67372400Y-58242000D01*
X67372400Y-58242000D02*
X67372401Y-58242000D01*
X67372401Y-58242000D01*
X67372401Y-58242000D01*
X67372401Y-58242000D01*
X67372401Y-58242000D01*
X67372401Y-58242000D01*
X67372401Y-58242001D01*
X67372401Y-58242001D01*
X67372401Y-58242001D01*
X67372401Y-58242001D01*
X67372401Y-58242001D01*
X67372401Y-58242001D01*
X67372401Y-58242001D01*
X67372400Y-58242001D01*
X67372400Y-58242001D01*
X67372400Y-58242001D01*
X67372400Y-58242001D01*
X67372400Y-58242001D01*
X67372400Y-58242001D01*
X67372400Y-58242001D01*
X67372400Y-58242001D01*
X67372400Y-58242001D01*
X67372400Y-58242001D01*
X67372400Y-58242001D01*
X67372400Y-58242001D01*
X67372399Y-58242001D01*
X67372399Y-58242001D01*
X67372399Y-58242001D01*
X67372399Y-58242001D01*
X67372399Y-58242001D01*
X67372399Y-58242001D01*
X67372399Y-58242000D01*
X67372399Y-58242000D01*
X67372399Y-58242000D01*
X67372399Y-58242000D01*
X67372399Y-58242000D01*
X67372399Y-58242000D01*
X67372400Y-58242000D01*
D14*
X67372400Y-64338000D02*
X67067600Y-64338000D01*
D13*
X67372400Y-64338000D02*
X67372399Y-64338000D01*
X67372399Y-64338000D01*
X67372399Y-64338000D01*
X67372399Y-64338000D01*
X67372399Y-64338000D01*
X67372399Y-64338000D01*
X67372399Y-64338000D01*
X67372399Y-64337999D01*
X67372399Y-64337999D01*
X67372399Y-64337999D01*
X67372399Y-64337999D01*
X67372399Y-64337999D01*
X67372400Y-64337999D01*
X67372400Y-64337999D01*
X67372400Y-64337999D01*
X67372400Y-64337999D01*
X67372400Y-64337999D01*
X67372400Y-64337999D01*
X67372400Y-64337999D01*
X67372400Y-64337999D01*
X67372400Y-64337999D01*
X67372400Y-64337999D01*
X67372400Y-64337999D01*
X67372400Y-64337999D01*
X67372401Y-64337999D01*
X67372401Y-64337999D01*
X67372401Y-64337999D01*
X67372401Y-64337999D01*
X67372401Y-64337999D01*
X67372401Y-64337999D01*
X67372401Y-64338000D01*
X67372401Y-64338000D01*
X67372401Y-64338000D01*
X67372401Y-64338000D01*
X67372401Y-64338000D01*
X67372401Y-64338000D01*
X67372401Y-64338000D01*
X67372400Y-64338000D01*
X67372400Y-64338000D02*
X67372401Y-64338000D01*
X67372401Y-64338000D01*
X67372401Y-64338000D01*
X67372401Y-64338000D01*
X67372401Y-64338000D01*
X67372401Y-64338000D01*
X67372401Y-64338001D01*
X67372401Y-64338001D01*
X67372401Y-64338001D01*
X67372401Y-64338001D01*
X67372401Y-64338001D01*
X67372401Y-64338001D01*
X67372401Y-64338001D01*
X67372400Y-64338001D01*
X67372400Y-64338001D01*
X67372400Y-64338001D01*
X67372400Y-64338001D01*
X67372400Y-64338001D01*
X67372400Y-64338001D01*
X67372400Y-64338001D01*
X67372400Y-64338001D01*
X67372400Y-64338001D01*
X67372400Y-64338001D01*
X67372400Y-64338001D01*
X67372400Y-64338001D01*
X67372399Y-64338001D01*
X67372399Y-64338001D01*
X67372399Y-64338001D01*
X67372399Y-64338001D01*
X67372399Y-64338001D01*
X67372399Y-64338001D01*
X67372399Y-64338000D01*
X67372399Y-64338000D01*
X67372399Y-64338000D01*
X67372399Y-64338000D01*
X67372399Y-64338000D01*
X67372399Y-64338000D01*
X67372400Y-64338000D01*
D14*
D13*
X67567600Y-58242000D02*
X67567599Y-58242000D01*
X67567599Y-58242000D01*
X67567599Y-58242000D01*
X67567599Y-58242000D01*
X67567599Y-58242000D01*
X67567599Y-58242000D01*
X67567599Y-58242000D01*
X67567599Y-58241999D01*
X67567599Y-58241999D01*
X67567599Y-58241999D01*
X67567599Y-58241999D01*
X67567599Y-58241999D01*
X67567600Y-58241999D01*
X67567600Y-58241999D01*
X67567600Y-58241999D01*
X67567600Y-58241999D01*
X67567600Y-58241999D01*
X67567600Y-58241999D01*
X67567600Y-58241999D01*
X67567600Y-58241999D01*
X67567600Y-58241999D01*
X67567600Y-58241999D01*
X67567600Y-58241999D01*
X67567600Y-58241999D01*
X67567601Y-58241999D01*
X67567601Y-58241999D01*
X67567601Y-58241999D01*
X67567601Y-58241999D01*
X67567601Y-58241999D01*
X67567601Y-58241999D01*
X67567601Y-58242000D01*
X67567601Y-58242000D01*
X67567601Y-58242000D01*
X67567601Y-58242000D01*
X67567601Y-58242000D01*
X67567601Y-58242000D01*
X67567601Y-58242000D01*
X67567600Y-58242000D01*
X67567600Y-58242000D02*
X67567601Y-58242000D01*
X67567601Y-58242000D01*
X67567601Y-58242000D01*
X67567601Y-58242000D01*
X67567601Y-58242000D01*
X67567601Y-58242000D01*
X67567601Y-58242001D01*
X67567601Y-58242001D01*
X67567601Y-58242001D01*
X67567601Y-58242001D01*
X67567601Y-58242001D01*
X67567601Y-58242001D01*
X67567601Y-58242001D01*
X67567600Y-58242001D01*
X67567600Y-58242001D01*
X67567600Y-58242001D01*
X67567600Y-58242001D01*
X67567600Y-58242001D01*
X67567600Y-58242001D01*
X67567600Y-58242001D01*
X67567600Y-58242001D01*
X67567600Y-58242001D01*
X67567600Y-58242001D01*
X67567600Y-58242001D01*
X67567600Y-58242001D01*
X67567599Y-58242001D01*
X67567599Y-58242001D01*
X67567599Y-58242001D01*
X67567599Y-58242001D01*
X67567599Y-58242001D01*
X67567599Y-58242001D01*
X67567599Y-58242000D01*
X67567599Y-58242000D01*
X67567599Y-58242000D01*
X67567599Y-58242000D01*
X67567599Y-58242000D01*
X67567599Y-58242000D01*
X67567600Y-58242000D01*
D14*
X67567600Y-58242000D02*
X67872400Y-58242000D01*
D13*
X67567600Y-64338000D02*
X67567599Y-64338000D01*
X67567599Y-64338000D01*
X67567599Y-64338000D01*
X67567599Y-64338000D01*
X67567599Y-64338000D01*
X67567599Y-64338000D01*
X67567599Y-64338000D01*
X67567599Y-64337999D01*
X67567599Y-64337999D01*
X67567599Y-64337999D01*
X67567599Y-64337999D01*
X67567599Y-64337999D01*
X67567600Y-64337999D01*
X67567600Y-64337999D01*
X67567600Y-64337999D01*
X67567600Y-64337999D01*
X67567600Y-64337999D01*
X67567600Y-64337999D01*
X67567600Y-64337999D01*
X67567600Y-64337999D01*
X67567600Y-64337999D01*
X67567600Y-64337999D01*
X67567600Y-64337999D01*
X67567600Y-64337999D01*
X67567601Y-64337999D01*
X67567601Y-64337999D01*
X67567601Y-64337999D01*
X67567601Y-64337999D01*
X67567601Y-64337999D01*
X67567601Y-64337999D01*
X67567601Y-64338000D01*
X67567601Y-64338000D01*
X67567601Y-64338000D01*
X67567601Y-64338000D01*
X67567601Y-64338000D01*
X67567601Y-64338000D01*
X67567601Y-64338000D01*
X67567600Y-64338000D01*
X67567600Y-64338000D02*
X67567601Y-64338000D01*
X67567601Y-64338000D01*
X67567601Y-64338000D01*
X67567601Y-64338000D01*
X67567601Y-64338000D01*
X67567601Y-64338000D01*
X67567601Y-64338001D01*
X67567601Y-64338001D01*
X67567601Y-64338001D01*
X67567601Y-64338001D01*
X67567601Y-64338001D01*
X67567601Y-64338001D01*
X67567601Y-64338001D01*
X67567600Y-64338001D01*
X67567600Y-64338001D01*
X67567600Y-64338001D01*
X67567600Y-64338001D01*
X67567600Y-64338001D01*
X67567600Y-64338001D01*
X67567600Y-64338001D01*
X67567600Y-64338001D01*
X67567600Y-64338001D01*
X67567600Y-64338001D01*
X67567600Y-64338001D01*
X67567600Y-64338001D01*
X67567599Y-64338001D01*
X67567599Y-64338001D01*
X67567599Y-64338001D01*
X67567599Y-64338001D01*
X67567599Y-64338001D01*
X67567599Y-64338001D01*
X67567599Y-64338000D01*
X67567599Y-64338000D01*
X67567599Y-64338000D01*
X67567599Y-64338000D01*
X67567599Y-64338000D01*
X67567599Y-64338000D01*
X67567600Y-64338000D01*
D14*
X67567600Y-64338000D02*
X67872400Y-64338000D01*
X67872400Y-58242000D02*
X67567600Y-58242000D01*
D13*
X67872400Y-58242000D02*
X67872399Y-58242000D01*
X67872399Y-58242000D01*
X67872399Y-58242000D01*
X67872399Y-58242000D01*
X67872399Y-58242000D01*
X67872399Y-58242000D01*
X67872399Y-58242000D01*
X67872399Y-58241999D01*
X67872399Y-58241999D01*
X67872399Y-58241999D01*
X67872399Y-58241999D01*
X67872399Y-58241999D01*
X67872400Y-58241999D01*
X67872400Y-58241999D01*
X67872400Y-58241999D01*
X67872400Y-58241999D01*
X67872400Y-58241999D01*
X67872400Y-58241999D01*
X67872400Y-58241999D01*
X67872400Y-58241999D01*
X67872400Y-58241999D01*
X67872400Y-58241999D01*
X67872400Y-58241999D01*
X67872400Y-58241999D01*
X67872401Y-58241999D01*
X67872401Y-58241999D01*
X67872401Y-58241999D01*
X67872401Y-58241999D01*
X67872401Y-58241999D01*
X67872401Y-58241999D01*
X67872401Y-58242000D01*
X67872401Y-58242000D01*
X67872401Y-58242000D01*
X67872401Y-58242000D01*
X67872401Y-58242000D01*
X67872401Y-58242000D01*
X67872401Y-58242000D01*
X67872400Y-58242000D01*
X67872400Y-58242000D02*
X67872401Y-58242000D01*
X67872401Y-58242000D01*
X67872401Y-58242000D01*
X67872401Y-58242000D01*
X67872401Y-58242000D01*
X67872401Y-58242000D01*
X67872401Y-58242001D01*
X67872401Y-58242001D01*
X67872401Y-58242001D01*
X67872401Y-58242001D01*
X67872401Y-58242001D01*
X67872401Y-58242001D01*
X67872401Y-58242001D01*
X67872400Y-58242001D01*
X67872400Y-58242001D01*
X67872400Y-58242001D01*
X67872400Y-58242001D01*
X67872400Y-58242001D01*
X67872400Y-58242001D01*
X67872400Y-58242001D01*
X67872400Y-58242001D01*
X67872400Y-58242001D01*
X67872400Y-58242001D01*
X67872400Y-58242001D01*
X67872400Y-58242001D01*
X67872399Y-58242001D01*
X67872399Y-58242001D01*
X67872399Y-58242001D01*
X67872399Y-58242001D01*
X67872399Y-58242001D01*
X67872399Y-58242001D01*
X67872399Y-58242000D01*
X67872399Y-58242000D01*
X67872399Y-58242000D01*
X67872399Y-58242000D01*
X67872399Y-58242000D01*
X67872399Y-58242000D01*
X67872400Y-58242000D01*
D14*
X67872400Y-64338000D02*
X67567600Y-64338000D01*
D13*
X67872400Y-64338000D02*
X67872399Y-64338000D01*
X67872399Y-64338000D01*
X67872399Y-64338000D01*
X67872399Y-64338000D01*
X67872399Y-64338000D01*
X67872399Y-64338000D01*
X67872399Y-64338000D01*
X67872399Y-64337999D01*
X67872399Y-64337999D01*
X67872399Y-64337999D01*
X67872399Y-64337999D01*
X67872399Y-64337999D01*
X67872400Y-64337999D01*
X67872400Y-64337999D01*
X67872400Y-64337999D01*
X67872400Y-64337999D01*
X67872400Y-64337999D01*
X67872400Y-64337999D01*
X67872400Y-64337999D01*
X67872400Y-64337999D01*
X67872400Y-64337999D01*
X67872400Y-64337999D01*
X67872400Y-64337999D01*
X67872400Y-64337999D01*
X67872401Y-64337999D01*
X67872401Y-64337999D01*
X67872401Y-64337999D01*
X67872401Y-64337999D01*
X67872401Y-64337999D01*
X67872401Y-64337999D01*
X67872401Y-64338000D01*
X67872401Y-64338000D01*
X67872401Y-64338000D01*
X67872401Y-64338000D01*
X67872401Y-64338000D01*
X67872401Y-64338000D01*
X67872401Y-64338000D01*
X67872400Y-64338000D01*
X67872400Y-64338000D02*
X67872401Y-64338000D01*
X67872401Y-64338000D01*
X67872401Y-64338000D01*
X67872401Y-64338000D01*
X67872401Y-64338000D01*
X67872401Y-64338000D01*
X67872401Y-64338001D01*
X67872401Y-64338001D01*
X67872401Y-64338001D01*
X67872401Y-64338001D01*
X67872401Y-64338001D01*
X67872401Y-64338001D01*
X67872401Y-64338001D01*
X67872400Y-64338001D01*
X67872400Y-64338001D01*
X67872400Y-64338001D01*
X67872400Y-64338001D01*
X67872400Y-64338001D01*
X67872400Y-64338001D01*
X67872400Y-64338001D01*
X67872400Y-64338001D01*
X67872400Y-64338001D01*
X67872400Y-64338001D01*
X67872400Y-64338001D01*
X67872400Y-64338001D01*
X67872399Y-64338001D01*
X67872399Y-64338001D01*
X67872399Y-64338001D01*
X67872399Y-64338001D01*
X67872399Y-64338001D01*
X67872399Y-64338001D01*
X67872399Y-64338000D01*
X67872399Y-64338000D01*
X67872399Y-64338000D01*
X67872399Y-64338000D01*
X67872399Y-64338000D01*
X67872399Y-64338000D01*
X67872400Y-64338000D01*
D14*
D13*
X68067600Y-58242000D02*
X68067599Y-58242000D01*
X68067599Y-58242000D01*
X68067599Y-58242000D01*
X68067599Y-58242000D01*
X68067599Y-58242000D01*
X68067599Y-58242000D01*
X68067599Y-58242000D01*
X68067599Y-58241999D01*
X68067599Y-58241999D01*
X68067599Y-58241999D01*
X68067599Y-58241999D01*
X68067599Y-58241999D01*
X68067600Y-58241999D01*
X68067600Y-58241999D01*
X68067600Y-58241999D01*
X68067600Y-58241999D01*
X68067600Y-58241999D01*
X68067600Y-58241999D01*
X68067600Y-58241999D01*
X68067600Y-58241999D01*
X68067600Y-58241999D01*
X68067600Y-58241999D01*
X68067600Y-58241999D01*
X68067600Y-58241999D01*
X68067601Y-58241999D01*
X68067601Y-58241999D01*
X68067601Y-58241999D01*
X68067601Y-58241999D01*
X68067601Y-58241999D01*
X68067601Y-58241999D01*
X68067601Y-58242000D01*
X68067601Y-58242000D01*
X68067601Y-58242000D01*
X68067601Y-58242000D01*
X68067601Y-58242000D01*
X68067601Y-58242000D01*
X68067601Y-58242000D01*
X68067600Y-58242000D01*
X68067600Y-58242000D02*
X68067601Y-58242000D01*
X68067601Y-58242000D01*
X68067601Y-58242000D01*
X68067601Y-58242000D01*
X68067601Y-58242000D01*
X68067601Y-58242000D01*
X68067601Y-58242001D01*
X68067601Y-58242001D01*
X68067601Y-58242001D01*
X68067601Y-58242001D01*
X68067601Y-58242001D01*
X68067601Y-58242001D01*
X68067601Y-58242001D01*
X68067600Y-58242001D01*
X68067600Y-58242001D01*
X68067600Y-58242001D01*
X68067600Y-58242001D01*
X68067600Y-58242001D01*
X68067600Y-58242001D01*
X68067600Y-58242001D01*
X68067600Y-58242001D01*
X68067600Y-58242001D01*
X68067600Y-58242001D01*
X68067600Y-58242001D01*
X68067600Y-58242001D01*
X68067599Y-58242001D01*
X68067599Y-58242001D01*
X68067599Y-58242001D01*
X68067599Y-58242001D01*
X68067599Y-58242001D01*
X68067599Y-58242001D01*
X68067599Y-58242000D01*
X68067599Y-58242000D01*
X68067599Y-58242000D01*
X68067599Y-58242000D01*
X68067599Y-58242000D01*
X68067599Y-58242000D01*
X68067600Y-58242000D01*
D14*
X68067600Y-58242000D02*
X68372400Y-58242000D01*
D13*
X68067600Y-64338000D02*
X68067599Y-64338000D01*
X68067599Y-64338000D01*
X68067599Y-64338000D01*
X68067599Y-64338000D01*
X68067599Y-64338000D01*
X68067599Y-64338000D01*
X68067599Y-64338000D01*
X68067599Y-64337999D01*
X68067599Y-64337999D01*
X68067599Y-64337999D01*
X68067599Y-64337999D01*
X68067599Y-64337999D01*
X68067600Y-64337999D01*
X68067600Y-64337999D01*
X68067600Y-64337999D01*
X68067600Y-64337999D01*
X68067600Y-64337999D01*
X68067600Y-64337999D01*
X68067600Y-64337999D01*
X68067600Y-64337999D01*
X68067600Y-64337999D01*
X68067600Y-64337999D01*
X68067600Y-64337999D01*
X68067600Y-64337999D01*
X68067601Y-64337999D01*
X68067601Y-64337999D01*
X68067601Y-64337999D01*
X68067601Y-64337999D01*
X68067601Y-64337999D01*
X68067601Y-64337999D01*
X68067601Y-64338000D01*
X68067601Y-64338000D01*
X68067601Y-64338000D01*
X68067601Y-64338000D01*
X68067601Y-64338000D01*
X68067601Y-64338000D01*
X68067601Y-64338000D01*
X68067600Y-64338000D01*
X68067600Y-64338000D02*
X68067601Y-64338000D01*
X68067601Y-64338000D01*
X68067601Y-64338000D01*
X68067601Y-64338000D01*
X68067601Y-64338000D01*
X68067601Y-64338000D01*
X68067601Y-64338001D01*
X68067601Y-64338001D01*
X68067601Y-64338001D01*
X68067601Y-64338001D01*
X68067601Y-64338001D01*
X68067601Y-64338001D01*
X68067601Y-64338001D01*
X68067600Y-64338001D01*
X68067600Y-64338001D01*
X68067600Y-64338001D01*
X68067600Y-64338001D01*
X68067600Y-64338001D01*
X68067600Y-64338001D01*
X68067600Y-64338001D01*
X68067600Y-64338001D01*
X68067600Y-64338001D01*
X68067600Y-64338001D01*
X68067600Y-64338001D01*
X68067600Y-64338001D01*
X68067599Y-64338001D01*
X68067599Y-64338001D01*
X68067599Y-64338001D01*
X68067599Y-64338001D01*
X68067599Y-64338001D01*
X68067599Y-64338001D01*
X68067599Y-64338000D01*
X68067599Y-64338000D01*
X68067599Y-64338000D01*
X68067599Y-64338000D01*
X68067599Y-64338000D01*
X68067599Y-64338000D01*
X68067600Y-64338000D01*
D14*
X68067600Y-64338000D02*
X68372400Y-64338000D01*
X68372400Y-58242000D02*
X68067600Y-58242000D01*
D13*
X68372400Y-58242000D02*
X68372399Y-58242000D01*
X68372399Y-58242000D01*
X68372399Y-58242000D01*
X68372399Y-58242000D01*
X68372399Y-58242000D01*
X68372399Y-58242000D01*
X68372399Y-58242000D01*
X68372399Y-58241999D01*
X68372399Y-58241999D01*
X68372399Y-58241999D01*
X68372399Y-58241999D01*
X68372399Y-58241999D01*
X68372400Y-58241999D01*
X68372400Y-58241999D01*
X68372400Y-58241999D01*
X68372400Y-58241999D01*
X68372400Y-58241999D01*
X68372400Y-58241999D01*
X68372400Y-58241999D01*
X68372400Y-58241999D01*
X68372400Y-58241999D01*
X68372400Y-58241999D01*
X68372400Y-58241999D01*
X68372400Y-58241999D01*
X68372401Y-58241999D01*
X68372401Y-58241999D01*
X68372401Y-58241999D01*
X68372401Y-58241999D01*
X68372401Y-58241999D01*
X68372401Y-58241999D01*
X68372401Y-58242000D01*
X68372401Y-58242000D01*
X68372401Y-58242000D01*
X68372401Y-58242000D01*
X68372401Y-58242000D01*
X68372401Y-58242000D01*
X68372401Y-58242000D01*
X68372400Y-58242000D01*
X68372400Y-58242000D02*
X68372401Y-58242000D01*
X68372401Y-58242000D01*
X68372401Y-58242000D01*
X68372401Y-58242000D01*
X68372401Y-58242000D01*
X68372401Y-58242000D01*
X68372401Y-58242001D01*
X68372401Y-58242001D01*
X68372401Y-58242001D01*
X68372401Y-58242001D01*
X68372401Y-58242001D01*
X68372401Y-58242001D01*
X68372401Y-58242001D01*
X68372400Y-58242001D01*
X68372400Y-58242001D01*
X68372400Y-58242001D01*
X68372400Y-58242001D01*
X68372400Y-58242001D01*
X68372400Y-58242001D01*
X68372400Y-58242001D01*
X68372400Y-58242001D01*
X68372400Y-58242001D01*
X68372400Y-58242001D01*
X68372400Y-58242001D01*
X68372400Y-58242001D01*
X68372399Y-58242001D01*
X68372399Y-58242001D01*
X68372399Y-58242001D01*
X68372399Y-58242001D01*
X68372399Y-58242001D01*
X68372399Y-58242001D01*
X68372399Y-58242000D01*
X68372399Y-58242000D01*
X68372399Y-58242000D01*
X68372399Y-58242000D01*
X68372399Y-58242000D01*
X68372399Y-58242000D01*
X68372400Y-58242000D01*
D14*
X68372400Y-64338000D02*
X68067600Y-64338000D01*
D13*
X68372400Y-64338000D02*
X68372399Y-64338000D01*
X68372399Y-64338000D01*
X68372399Y-64338000D01*
X68372399Y-64338000D01*
X68372399Y-64338000D01*
X68372399Y-64338000D01*
X68372399Y-64338000D01*
X68372399Y-64337999D01*
X68372399Y-64337999D01*
X68372399Y-64337999D01*
X68372399Y-64337999D01*
X68372399Y-64337999D01*
X68372400Y-64337999D01*
X68372400Y-64337999D01*
X68372400Y-64337999D01*
X68372400Y-64337999D01*
X68372400Y-64337999D01*
X68372400Y-64337999D01*
X68372400Y-64337999D01*
X68372400Y-64337999D01*
X68372400Y-64337999D01*
X68372400Y-64337999D01*
X68372400Y-64337999D01*
X68372400Y-64337999D01*
X68372401Y-64337999D01*
X68372401Y-64337999D01*
X68372401Y-64337999D01*
X68372401Y-64337999D01*
X68372401Y-64337999D01*
X68372401Y-64337999D01*
X68372401Y-64338000D01*
X68372401Y-64338000D01*
X68372401Y-64338000D01*
X68372401Y-64338000D01*
X68372401Y-64338000D01*
X68372401Y-64338000D01*
X68372401Y-64338000D01*
X68372400Y-64338000D01*
X68372400Y-64338000D02*
X68372401Y-64338000D01*
X68372401Y-64338000D01*
X68372401Y-64338000D01*
X68372401Y-64338000D01*
X68372401Y-64338000D01*
X68372401Y-64338000D01*
X68372401Y-64338001D01*
X68372401Y-64338001D01*
X68372401Y-64338001D01*
X68372401Y-64338001D01*
X68372401Y-64338001D01*
X68372401Y-64338001D01*
X68372401Y-64338001D01*
X68372400Y-64338001D01*
X68372400Y-64338001D01*
X68372400Y-64338001D01*
X68372400Y-64338001D01*
X68372400Y-64338001D01*
X68372400Y-64338001D01*
X68372400Y-64338001D01*
X68372400Y-64338001D01*
X68372400Y-64338001D01*
X68372400Y-64338001D01*
X68372400Y-64338001D01*
X68372400Y-64338001D01*
X68372399Y-64338001D01*
X68372399Y-64338001D01*
X68372399Y-64338001D01*
X68372399Y-64338001D01*
X68372399Y-64338001D01*
X68372399Y-64338001D01*
X68372399Y-64338000D01*
X68372399Y-64338000D01*
X68372399Y-64338000D01*
X68372399Y-64338000D01*
X68372399Y-64338000D01*
X68372399Y-64338000D01*
X68372400Y-64338000D01*
D14*
X69268000Y-58242000D02*
X63172000Y-58242000D01*
D13*
X69268000Y-58242000D02*
X69267999Y-58242000D01*
X69267999Y-58242000D01*
X69267999Y-58242000D01*
X69267999Y-58242000D01*
X69267999Y-58242000D01*
X69267999Y-58242000D01*
X69267999Y-58242000D01*
X69267999Y-58241999D01*
X69267999Y-58241999D01*
X69267999Y-58241999D01*
X69267999Y-58241999D01*
X69267999Y-58241999D01*
X69268000Y-58241999D01*
X69268000Y-58241999D01*
X69268000Y-58241999D01*
X69268000Y-58241999D01*
X69268000Y-58241999D01*
X69268000Y-58241999D01*
X69268000Y-58241999D01*
X69268000Y-58241999D01*
X69268000Y-58241999D01*
X69268000Y-58241999D01*
X69268000Y-58241999D01*
X69268000Y-58241999D01*
X69268001Y-58241999D01*
X69268001Y-58241999D01*
X69268001Y-58241999D01*
X69268001Y-58241999D01*
X69268001Y-58241999D01*
X69268001Y-58241999D01*
X69268001Y-58242000D01*
X69268001Y-58242000D01*
X69268001Y-58242000D01*
X69268001Y-58242000D01*
X69268001Y-58242000D01*
X69268001Y-58242000D01*
X69268001Y-58242000D01*
X69268000Y-58242000D01*
X69268000Y-58242000D02*
X69268001Y-58242000D01*
X69268001Y-58242000D01*
X69268001Y-58242000D01*
X69268001Y-58242000D01*
X69268001Y-58242000D01*
X69268001Y-58242000D01*
X69268001Y-58242001D01*
X69268001Y-58242001D01*
X69268001Y-58242001D01*
X69268001Y-58242001D01*
X69268001Y-58242001D01*
X69268001Y-58242001D01*
X69268001Y-58242001D01*
X69268000Y-58242001D01*
X69268000Y-58242001D01*
X69268000Y-58242001D01*
X69268000Y-58242001D01*
X69268000Y-58242001D01*
X69268000Y-58242001D01*
X69268000Y-58242001D01*
X69268000Y-58242001D01*
X69268000Y-58242001D01*
X69268000Y-58242001D01*
X69268000Y-58242001D01*
X69268000Y-58242001D01*
X69267999Y-58242001D01*
X69267999Y-58242001D01*
X69267999Y-58242001D01*
X69267999Y-58242001D01*
X69267999Y-58242001D01*
X69267999Y-58242001D01*
X69267999Y-58242000D01*
X69267999Y-58242000D01*
X69267999Y-58242000D01*
X69267999Y-58242000D01*
X69267999Y-58242000D01*
X69267999Y-58242000D01*
X69268000Y-58242000D01*
D14*
D13*
X69268000Y-59137600D02*
X69267999Y-59137600D01*
X69267999Y-59137600D01*
X69267999Y-59137600D01*
X69267999Y-59137600D01*
X69267999Y-59137600D01*
X69267999Y-59137600D01*
X69267999Y-59137600D01*
X69267999Y-59137599D01*
X69267999Y-59137599D01*
X69267999Y-59137599D01*
X69267999Y-59137599D01*
X69267999Y-59137599D01*
X69268000Y-59137599D01*
X69268000Y-59137599D01*
X69268000Y-59137599D01*
X69268000Y-59137599D01*
X69268000Y-59137599D01*
X69268000Y-59137599D01*
X69268000Y-59137599D01*
X69268000Y-59137599D01*
X69268000Y-59137599D01*
X69268000Y-59137599D01*
X69268000Y-59137599D01*
X69268000Y-59137599D01*
X69268001Y-59137599D01*
X69268001Y-59137599D01*
X69268001Y-59137599D01*
X69268001Y-59137599D01*
X69268001Y-59137599D01*
X69268001Y-59137599D01*
X69268001Y-59137600D01*
X69268001Y-59137600D01*
X69268001Y-59137600D01*
X69268001Y-59137600D01*
X69268001Y-59137600D01*
X69268001Y-59137600D01*
X69268001Y-59137600D01*
X69268000Y-59137600D01*
X69268000Y-59137600D02*
X69268001Y-59137600D01*
X69268001Y-59137600D01*
X69268001Y-59137600D01*
X69268001Y-59137600D01*
X69268001Y-59137600D01*
X69268001Y-59137600D01*
X69268001Y-59137601D01*
X69268001Y-59137601D01*
X69268001Y-59137601D01*
X69268001Y-59137601D01*
X69268001Y-59137601D01*
X69268001Y-59137601D01*
X69268001Y-59137601D01*
X69268000Y-59137601D01*
X69268000Y-59137601D01*
X69268000Y-59137601D01*
X69268000Y-59137601D01*
X69268000Y-59137601D01*
X69268000Y-59137601D01*
X69268000Y-59137601D01*
X69268000Y-59137601D01*
X69268000Y-59137601D01*
X69268000Y-59137601D01*
X69268000Y-59137601D01*
X69268000Y-59137601D01*
X69267999Y-59137601D01*
X69267999Y-59137601D01*
X69267999Y-59137601D01*
X69267999Y-59137601D01*
X69267999Y-59137601D01*
X69267999Y-59137601D01*
X69267999Y-59137600D01*
X69267999Y-59137600D01*
X69267999Y-59137600D01*
X69267999Y-59137600D01*
X69267999Y-59137600D01*
X69267999Y-59137600D01*
X69268000Y-59137600D01*
D14*
X69268000Y-59137600D02*
X69268000Y-59442400D01*
X69268000Y-59442400D02*
X69268000Y-59137600D01*
D13*
X69268000Y-59442400D02*
X69267999Y-59442400D01*
X69267999Y-59442400D01*
X69267999Y-59442400D01*
X69267999Y-59442400D01*
X69267999Y-59442400D01*
X69267999Y-59442400D01*
X69267999Y-59442400D01*
X69267999Y-59442399D01*
X69267999Y-59442399D01*
X69267999Y-59442399D01*
X69267999Y-59442399D01*
X69267999Y-59442399D01*
X69268000Y-59442399D01*
X69268000Y-59442399D01*
X69268000Y-59442399D01*
X69268000Y-59442399D01*
X69268000Y-59442399D01*
X69268000Y-59442399D01*
X69268000Y-59442399D01*
X69268000Y-59442399D01*
X69268000Y-59442399D01*
X69268000Y-59442399D01*
X69268000Y-59442399D01*
X69268000Y-59442399D01*
X69268001Y-59442399D01*
X69268001Y-59442399D01*
X69268001Y-59442399D01*
X69268001Y-59442399D01*
X69268001Y-59442399D01*
X69268001Y-59442399D01*
X69268001Y-59442400D01*
X69268001Y-59442400D01*
X69268001Y-59442400D01*
X69268001Y-59442400D01*
X69268001Y-59442400D01*
X69268001Y-59442400D01*
X69268001Y-59442400D01*
X69268000Y-59442400D01*
X69268000Y-59442400D02*
X69268001Y-59442400D01*
X69268001Y-59442400D01*
X69268001Y-59442400D01*
X69268001Y-59442400D01*
X69268001Y-59442400D01*
X69268001Y-59442400D01*
X69268001Y-59442401D01*
X69268001Y-59442401D01*
X69268001Y-59442401D01*
X69268001Y-59442401D01*
X69268001Y-59442401D01*
X69268001Y-59442401D01*
X69268001Y-59442401D01*
X69268000Y-59442401D01*
X69268000Y-59442401D01*
X69268000Y-59442401D01*
X69268000Y-59442401D01*
X69268000Y-59442401D01*
X69268000Y-59442401D01*
X69268000Y-59442401D01*
X69268000Y-59442401D01*
X69268000Y-59442401D01*
X69268000Y-59442401D01*
X69268000Y-59442401D01*
X69268000Y-59442401D01*
X69267999Y-59442401D01*
X69267999Y-59442401D01*
X69267999Y-59442401D01*
X69267999Y-59442401D01*
X69267999Y-59442401D01*
X69267999Y-59442401D01*
X69267999Y-59442400D01*
X69267999Y-59442400D01*
X69267999Y-59442400D01*
X69267999Y-59442400D01*
X69267999Y-59442400D01*
X69267999Y-59442400D01*
X69268000Y-59442400D01*
D14*
D13*
X69268000Y-59637600D02*
X69267999Y-59637600D01*
X69267999Y-59637600D01*
X69267999Y-59637600D01*
X69267999Y-59637600D01*
X69267999Y-59637600D01*
X69267999Y-59637600D01*
X69267999Y-59637600D01*
X69267999Y-59637599D01*
X69267999Y-59637599D01*
X69267999Y-59637599D01*
X69267999Y-59637599D01*
X69267999Y-59637599D01*
X69268000Y-59637599D01*
X69268000Y-59637599D01*
X69268000Y-59637599D01*
X69268000Y-59637599D01*
X69268000Y-59637599D01*
X69268000Y-59637599D01*
X69268000Y-59637599D01*
X69268000Y-59637599D01*
X69268000Y-59637599D01*
X69268000Y-59637599D01*
X69268000Y-59637599D01*
X69268000Y-59637599D01*
X69268001Y-59637599D01*
X69268001Y-59637599D01*
X69268001Y-59637599D01*
X69268001Y-59637599D01*
X69268001Y-59637599D01*
X69268001Y-59637599D01*
X69268001Y-59637600D01*
X69268001Y-59637600D01*
X69268001Y-59637600D01*
X69268001Y-59637600D01*
X69268001Y-59637600D01*
X69268001Y-59637600D01*
X69268001Y-59637600D01*
X69268000Y-59637600D01*
X69268000Y-59637600D02*
X69268001Y-59637600D01*
X69268001Y-59637600D01*
X69268001Y-59637600D01*
X69268001Y-59637600D01*
X69268001Y-59637600D01*
X69268001Y-59637600D01*
X69268001Y-59637601D01*
X69268001Y-59637601D01*
X69268001Y-59637601D01*
X69268001Y-59637601D01*
X69268001Y-59637601D01*
X69268001Y-59637601D01*
X69268001Y-59637601D01*
X69268000Y-59637601D01*
X69268000Y-59637601D01*
X69268000Y-59637601D01*
X69268000Y-59637601D01*
X69268000Y-59637601D01*
X69268000Y-59637601D01*
X69268000Y-59637601D01*
X69268000Y-59637601D01*
X69268000Y-59637601D01*
X69268000Y-59637601D01*
X69268000Y-59637601D01*
X69268000Y-59637601D01*
X69267999Y-59637601D01*
X69267999Y-59637601D01*
X69267999Y-59637601D01*
X69267999Y-59637601D01*
X69267999Y-59637601D01*
X69267999Y-59637601D01*
X69267999Y-59637600D01*
X69267999Y-59637600D01*
X69267999Y-59637600D01*
X69267999Y-59637600D01*
X69267999Y-59637600D01*
X69267999Y-59637600D01*
X69268000Y-59637600D01*
D14*
X69268000Y-59637600D02*
X69268000Y-59942400D01*
X69268000Y-59942400D02*
X69268000Y-59637600D01*
D13*
X69268000Y-59942400D02*
X69267999Y-59942400D01*
X69267999Y-59942400D01*
X69267999Y-59942400D01*
X69267999Y-59942400D01*
X69267999Y-59942400D01*
X69267999Y-59942400D01*
X69267999Y-59942400D01*
X69267999Y-59942399D01*
X69267999Y-59942399D01*
X69267999Y-59942399D01*
X69267999Y-59942399D01*
X69267999Y-59942399D01*
X69268000Y-59942399D01*
X69268000Y-59942399D01*
X69268000Y-59942399D01*
X69268000Y-59942399D01*
X69268000Y-59942399D01*
X69268000Y-59942399D01*
X69268000Y-59942399D01*
X69268000Y-59942399D01*
X69268000Y-59942399D01*
X69268000Y-59942399D01*
X69268000Y-59942399D01*
X69268000Y-59942399D01*
X69268001Y-59942399D01*
X69268001Y-59942399D01*
X69268001Y-59942399D01*
X69268001Y-59942399D01*
X69268001Y-59942399D01*
X69268001Y-59942399D01*
X69268001Y-59942400D01*
X69268001Y-59942400D01*
X69268001Y-59942400D01*
X69268001Y-59942400D01*
X69268001Y-59942400D01*
X69268001Y-59942400D01*
X69268001Y-59942400D01*
X69268000Y-59942400D01*
X69268000Y-59942400D02*
X69268001Y-59942400D01*
X69268001Y-59942400D01*
X69268001Y-59942400D01*
X69268001Y-59942400D01*
X69268001Y-59942400D01*
X69268001Y-59942400D01*
X69268001Y-59942401D01*
X69268001Y-59942401D01*
X69268001Y-59942401D01*
X69268001Y-59942401D01*
X69268001Y-59942401D01*
X69268001Y-59942401D01*
X69268001Y-59942401D01*
X69268000Y-59942401D01*
X69268000Y-59942401D01*
X69268000Y-59942401D01*
X69268000Y-59942401D01*
X69268000Y-59942401D01*
X69268000Y-59942401D01*
X69268000Y-59942401D01*
X69268000Y-59942401D01*
X69268000Y-59942401D01*
X69268000Y-59942401D01*
X69268000Y-59942401D01*
X69268000Y-59942401D01*
X69267999Y-59942401D01*
X69267999Y-59942401D01*
X69267999Y-59942401D01*
X69267999Y-59942401D01*
X69267999Y-59942401D01*
X69267999Y-59942401D01*
X69267999Y-59942400D01*
X69267999Y-59942400D01*
X69267999Y-59942400D01*
X69267999Y-59942400D01*
X69267999Y-59942400D01*
X69267999Y-59942400D01*
X69268000Y-59942400D01*
D14*
D13*
X69268000Y-60137600D02*
X69267999Y-60137600D01*
X69267999Y-60137600D01*
X69267999Y-60137600D01*
X69267999Y-60137600D01*
X69267999Y-60137600D01*
X69267999Y-60137600D01*
X69267999Y-60137600D01*
X69267999Y-60137599D01*
X69267999Y-60137599D01*
X69267999Y-60137599D01*
X69267999Y-60137599D01*
X69267999Y-60137599D01*
X69268000Y-60137599D01*
X69268000Y-60137599D01*
X69268000Y-60137599D01*
X69268000Y-60137599D01*
X69268000Y-60137599D01*
X69268000Y-60137599D01*
X69268000Y-60137599D01*
X69268000Y-60137599D01*
X69268000Y-60137599D01*
X69268000Y-60137599D01*
X69268000Y-60137599D01*
X69268000Y-60137599D01*
X69268001Y-60137599D01*
X69268001Y-60137599D01*
X69268001Y-60137599D01*
X69268001Y-60137599D01*
X69268001Y-60137599D01*
X69268001Y-60137599D01*
X69268001Y-60137600D01*
X69268001Y-60137600D01*
X69268001Y-60137600D01*
X69268001Y-60137600D01*
X69268001Y-60137600D01*
X69268001Y-60137600D01*
X69268001Y-60137600D01*
X69268000Y-60137600D01*
X69268000Y-60137600D02*
X69268001Y-60137600D01*
X69268001Y-60137600D01*
X69268001Y-60137600D01*
X69268001Y-60137600D01*
X69268001Y-60137600D01*
X69268001Y-60137600D01*
X69268001Y-60137601D01*
X69268001Y-60137601D01*
X69268001Y-60137601D01*
X69268001Y-60137601D01*
X69268001Y-60137601D01*
X69268001Y-60137601D01*
X69268001Y-60137601D01*
X69268000Y-60137601D01*
X69268000Y-60137601D01*
X69268000Y-60137601D01*
X69268000Y-60137601D01*
X69268000Y-60137601D01*
X69268000Y-60137601D01*
X69268000Y-60137601D01*
X69268000Y-60137601D01*
X69268000Y-60137601D01*
X69268000Y-60137601D01*
X69268000Y-60137601D01*
X69268000Y-60137601D01*
X69267999Y-60137601D01*
X69267999Y-60137601D01*
X69267999Y-60137601D01*
X69267999Y-60137601D01*
X69267999Y-60137601D01*
X69267999Y-60137601D01*
X69267999Y-60137600D01*
X69267999Y-60137600D01*
X69267999Y-60137600D01*
X69267999Y-60137600D01*
X69267999Y-60137600D01*
X69267999Y-60137600D01*
X69268000Y-60137600D01*
D14*
X69268000Y-60137600D02*
X69268000Y-60442400D01*
X69268000Y-60442400D02*
X69268000Y-60137600D01*
D13*
X69268000Y-60442400D02*
X69267999Y-60442400D01*
X69267999Y-60442400D01*
X69267999Y-60442400D01*
X69267999Y-60442400D01*
X69267999Y-60442400D01*
X69267999Y-60442400D01*
X69267999Y-60442400D01*
X69267999Y-60442399D01*
X69267999Y-60442399D01*
X69267999Y-60442399D01*
X69267999Y-60442399D01*
X69267999Y-60442399D01*
X69268000Y-60442399D01*
X69268000Y-60442399D01*
X69268000Y-60442399D01*
X69268000Y-60442399D01*
X69268000Y-60442399D01*
X69268000Y-60442399D01*
X69268000Y-60442399D01*
X69268000Y-60442399D01*
X69268000Y-60442399D01*
X69268000Y-60442399D01*
X69268000Y-60442399D01*
X69268000Y-60442399D01*
X69268001Y-60442399D01*
X69268001Y-60442399D01*
X69268001Y-60442399D01*
X69268001Y-60442399D01*
X69268001Y-60442399D01*
X69268001Y-60442399D01*
X69268001Y-60442400D01*
X69268001Y-60442400D01*
X69268001Y-60442400D01*
X69268001Y-60442400D01*
X69268001Y-60442400D01*
X69268001Y-60442400D01*
X69268001Y-60442400D01*
X69268000Y-60442400D01*
X69268000Y-60442400D02*
X69268001Y-60442400D01*
X69268001Y-60442400D01*
X69268001Y-60442400D01*
X69268001Y-60442400D01*
X69268001Y-60442400D01*
X69268001Y-60442400D01*
X69268001Y-60442401D01*
X69268001Y-60442401D01*
X69268001Y-60442401D01*
X69268001Y-60442401D01*
X69268001Y-60442401D01*
X69268001Y-60442401D01*
X69268001Y-60442401D01*
X69268000Y-60442401D01*
X69268000Y-60442401D01*
X69268000Y-60442401D01*
X69268000Y-60442401D01*
X69268000Y-60442401D01*
X69268000Y-60442401D01*
X69268000Y-60442401D01*
X69268000Y-60442401D01*
X69268000Y-60442401D01*
X69268000Y-60442401D01*
X69268000Y-60442401D01*
X69268000Y-60442401D01*
X69267999Y-60442401D01*
X69267999Y-60442401D01*
X69267999Y-60442401D01*
X69267999Y-60442401D01*
X69267999Y-60442401D01*
X69267999Y-60442401D01*
X69267999Y-60442400D01*
X69267999Y-60442400D01*
X69267999Y-60442400D01*
X69267999Y-60442400D01*
X69267999Y-60442400D01*
X69267999Y-60442400D01*
X69268000Y-60442400D01*
D14*
D13*
X69268000Y-60637600D02*
X69267999Y-60637600D01*
X69267999Y-60637600D01*
X69267999Y-60637600D01*
X69267999Y-60637600D01*
X69267999Y-60637600D01*
X69267999Y-60637600D01*
X69267999Y-60637600D01*
X69267999Y-60637599D01*
X69267999Y-60637599D01*
X69267999Y-60637599D01*
X69267999Y-60637599D01*
X69267999Y-60637599D01*
X69268000Y-60637599D01*
X69268000Y-60637599D01*
X69268000Y-60637599D01*
X69268000Y-60637599D01*
X69268000Y-60637599D01*
X69268000Y-60637599D01*
X69268000Y-60637599D01*
X69268000Y-60637599D01*
X69268000Y-60637599D01*
X69268000Y-60637599D01*
X69268000Y-60637599D01*
X69268000Y-60637599D01*
X69268001Y-60637599D01*
X69268001Y-60637599D01*
X69268001Y-60637599D01*
X69268001Y-60637599D01*
X69268001Y-60637599D01*
X69268001Y-60637599D01*
X69268001Y-60637600D01*
X69268001Y-60637600D01*
X69268001Y-60637600D01*
X69268001Y-60637600D01*
X69268001Y-60637600D01*
X69268001Y-60637600D01*
X69268001Y-60637600D01*
X69268000Y-60637600D01*
X69268000Y-60637600D02*
X69268001Y-60637600D01*
X69268001Y-60637600D01*
X69268001Y-60637600D01*
X69268001Y-60637600D01*
X69268001Y-60637600D01*
X69268001Y-60637600D01*
X69268001Y-60637601D01*
X69268001Y-60637601D01*
X69268001Y-60637601D01*
X69268001Y-60637601D01*
X69268001Y-60637601D01*
X69268001Y-60637601D01*
X69268001Y-60637601D01*
X69268000Y-60637601D01*
X69268000Y-60637601D01*
X69268000Y-60637601D01*
X69268000Y-60637601D01*
X69268000Y-60637601D01*
X69268000Y-60637601D01*
X69268000Y-60637601D01*
X69268000Y-60637601D01*
X69268000Y-60637601D01*
X69268000Y-60637601D01*
X69268000Y-60637601D01*
X69268000Y-60637601D01*
X69267999Y-60637601D01*
X69267999Y-60637601D01*
X69267999Y-60637601D01*
X69267999Y-60637601D01*
X69267999Y-60637601D01*
X69267999Y-60637601D01*
X69267999Y-60637600D01*
X69267999Y-60637600D01*
X69267999Y-60637600D01*
X69267999Y-60637600D01*
X69267999Y-60637600D01*
X69267999Y-60637600D01*
X69268000Y-60637600D01*
D14*
X69268000Y-60637600D02*
X69268000Y-60942400D01*
X69268000Y-60942400D02*
X69268000Y-60637600D01*
D13*
X69268000Y-60942400D02*
X69267999Y-60942400D01*
X69267999Y-60942400D01*
X69267999Y-60942400D01*
X69267999Y-60942400D01*
X69267999Y-60942400D01*
X69267999Y-60942400D01*
X69267999Y-60942400D01*
X69267999Y-60942399D01*
X69267999Y-60942399D01*
X69267999Y-60942399D01*
X69267999Y-60942399D01*
X69267999Y-60942399D01*
X69268000Y-60942399D01*
X69268000Y-60942399D01*
X69268000Y-60942399D01*
X69268000Y-60942399D01*
X69268000Y-60942399D01*
X69268000Y-60942399D01*
X69268000Y-60942399D01*
X69268000Y-60942399D01*
X69268000Y-60942399D01*
X69268000Y-60942399D01*
X69268000Y-60942399D01*
X69268000Y-60942399D01*
X69268001Y-60942399D01*
X69268001Y-60942399D01*
X69268001Y-60942399D01*
X69268001Y-60942399D01*
X69268001Y-60942399D01*
X69268001Y-60942399D01*
X69268001Y-60942400D01*
X69268001Y-60942400D01*
X69268001Y-60942400D01*
X69268001Y-60942400D01*
X69268001Y-60942400D01*
X69268001Y-60942400D01*
X69268001Y-60942400D01*
X69268000Y-60942400D01*
X69268000Y-60942400D02*
X69268001Y-60942400D01*
X69268001Y-60942400D01*
X69268001Y-60942400D01*
X69268001Y-60942400D01*
X69268001Y-60942400D01*
X69268001Y-60942400D01*
X69268001Y-60942401D01*
X69268001Y-60942401D01*
X69268001Y-60942401D01*
X69268001Y-60942401D01*
X69268001Y-60942401D01*
X69268001Y-60942401D01*
X69268001Y-60942401D01*
X69268000Y-60942401D01*
X69268000Y-60942401D01*
X69268000Y-60942401D01*
X69268000Y-60942401D01*
X69268000Y-60942401D01*
X69268000Y-60942401D01*
X69268000Y-60942401D01*
X69268000Y-60942401D01*
X69268000Y-60942401D01*
X69268000Y-60942401D01*
X69268000Y-60942401D01*
X69268000Y-60942401D01*
X69267999Y-60942401D01*
X69267999Y-60942401D01*
X69267999Y-60942401D01*
X69267999Y-60942401D01*
X69267999Y-60942401D01*
X69267999Y-60942401D01*
X69267999Y-60942400D01*
X69267999Y-60942400D01*
X69267999Y-60942400D01*
X69267999Y-60942400D01*
X69267999Y-60942400D01*
X69267999Y-60942400D01*
X69268000Y-60942400D01*
D14*
D13*
X69268000Y-61137600D02*
X69267999Y-61137600D01*
X69267999Y-61137600D01*
X69267999Y-61137600D01*
X69267999Y-61137600D01*
X69267999Y-61137600D01*
X69267999Y-61137600D01*
X69267999Y-61137600D01*
X69267999Y-61137599D01*
X69267999Y-61137599D01*
X69267999Y-61137599D01*
X69267999Y-61137599D01*
X69267999Y-61137599D01*
X69268000Y-61137599D01*
X69268000Y-61137599D01*
X69268000Y-61137599D01*
X69268000Y-61137599D01*
X69268000Y-61137599D01*
X69268000Y-61137599D01*
X69268000Y-61137599D01*
X69268000Y-61137599D01*
X69268000Y-61137599D01*
X69268000Y-61137599D01*
X69268000Y-61137599D01*
X69268000Y-61137599D01*
X69268001Y-61137599D01*
X69268001Y-61137599D01*
X69268001Y-61137599D01*
X69268001Y-61137599D01*
X69268001Y-61137599D01*
X69268001Y-61137599D01*
X69268001Y-61137600D01*
X69268001Y-61137600D01*
X69268001Y-61137600D01*
X69268001Y-61137600D01*
X69268001Y-61137600D01*
X69268001Y-61137600D01*
X69268001Y-61137600D01*
X69268000Y-61137600D01*
X69268000Y-61137600D02*
X69268001Y-61137600D01*
X69268001Y-61137600D01*
X69268001Y-61137600D01*
X69268001Y-61137600D01*
X69268001Y-61137600D01*
X69268001Y-61137600D01*
X69268001Y-61137601D01*
X69268001Y-61137601D01*
X69268001Y-61137601D01*
X69268001Y-61137601D01*
X69268001Y-61137601D01*
X69268001Y-61137601D01*
X69268001Y-61137601D01*
X69268000Y-61137601D01*
X69268000Y-61137601D01*
X69268000Y-61137601D01*
X69268000Y-61137601D01*
X69268000Y-61137601D01*
X69268000Y-61137601D01*
X69268000Y-61137601D01*
X69268000Y-61137601D01*
X69268000Y-61137601D01*
X69268000Y-61137601D01*
X69268000Y-61137601D01*
X69268000Y-61137601D01*
X69267999Y-61137601D01*
X69267999Y-61137601D01*
X69267999Y-61137601D01*
X69267999Y-61137601D01*
X69267999Y-61137601D01*
X69267999Y-61137601D01*
X69267999Y-61137600D01*
X69267999Y-61137600D01*
X69267999Y-61137600D01*
X69267999Y-61137600D01*
X69267999Y-61137600D01*
X69267999Y-61137600D01*
X69268000Y-61137600D01*
D14*
X69268000Y-61137600D02*
X69268000Y-61442400D01*
X69268000Y-61442400D02*
X69268000Y-61137600D01*
D13*
X69268000Y-61442400D02*
X69267999Y-61442400D01*
X69267999Y-61442400D01*
X69267999Y-61442400D01*
X69267999Y-61442400D01*
X69267999Y-61442400D01*
X69267999Y-61442400D01*
X69267999Y-61442400D01*
X69267999Y-61442399D01*
X69267999Y-61442399D01*
X69267999Y-61442399D01*
X69267999Y-61442399D01*
X69267999Y-61442399D01*
X69268000Y-61442399D01*
X69268000Y-61442399D01*
X69268000Y-61442399D01*
X69268000Y-61442399D01*
X69268000Y-61442399D01*
X69268000Y-61442399D01*
X69268000Y-61442399D01*
X69268000Y-61442399D01*
X69268000Y-61442399D01*
X69268000Y-61442399D01*
X69268000Y-61442399D01*
X69268000Y-61442399D01*
X69268001Y-61442399D01*
X69268001Y-61442399D01*
X69268001Y-61442399D01*
X69268001Y-61442399D01*
X69268001Y-61442399D01*
X69268001Y-61442399D01*
X69268001Y-61442400D01*
X69268001Y-61442400D01*
X69268001Y-61442400D01*
X69268001Y-61442400D01*
X69268001Y-61442400D01*
X69268001Y-61442400D01*
X69268001Y-61442400D01*
X69268000Y-61442400D01*
X69268000Y-61442400D02*
X69268001Y-61442400D01*
X69268001Y-61442400D01*
X69268001Y-61442400D01*
X69268001Y-61442400D01*
X69268001Y-61442400D01*
X69268001Y-61442400D01*
X69268001Y-61442401D01*
X69268001Y-61442401D01*
X69268001Y-61442401D01*
X69268001Y-61442401D01*
X69268001Y-61442401D01*
X69268001Y-61442401D01*
X69268001Y-61442401D01*
X69268000Y-61442401D01*
X69268000Y-61442401D01*
X69268000Y-61442401D01*
X69268000Y-61442401D01*
X69268000Y-61442401D01*
X69268000Y-61442401D01*
X69268000Y-61442401D01*
X69268000Y-61442401D01*
X69268000Y-61442401D01*
X69268000Y-61442401D01*
X69268000Y-61442401D01*
X69268000Y-61442401D01*
X69267999Y-61442401D01*
X69267999Y-61442401D01*
X69267999Y-61442401D01*
X69267999Y-61442401D01*
X69267999Y-61442401D01*
X69267999Y-61442401D01*
X69267999Y-61442400D01*
X69267999Y-61442400D01*
X69267999Y-61442400D01*
X69267999Y-61442400D01*
X69267999Y-61442400D01*
X69267999Y-61442400D01*
X69268000Y-61442400D01*
D14*
D13*
X69268000Y-61637600D02*
X69267999Y-61637600D01*
X69267999Y-61637600D01*
X69267999Y-61637600D01*
X69267999Y-61637600D01*
X69267999Y-61637600D01*
X69267999Y-61637600D01*
X69267999Y-61637600D01*
X69267999Y-61637599D01*
X69267999Y-61637599D01*
X69267999Y-61637599D01*
X69267999Y-61637599D01*
X69267999Y-61637599D01*
X69268000Y-61637599D01*
X69268000Y-61637599D01*
X69268000Y-61637599D01*
X69268000Y-61637599D01*
X69268000Y-61637599D01*
X69268000Y-61637599D01*
X69268000Y-61637599D01*
X69268000Y-61637599D01*
X69268000Y-61637599D01*
X69268000Y-61637599D01*
X69268000Y-61637599D01*
X69268000Y-61637599D01*
X69268001Y-61637599D01*
X69268001Y-61637599D01*
X69268001Y-61637599D01*
X69268001Y-61637599D01*
X69268001Y-61637599D01*
X69268001Y-61637599D01*
X69268001Y-61637600D01*
X69268001Y-61637600D01*
X69268001Y-61637600D01*
X69268001Y-61637600D01*
X69268001Y-61637600D01*
X69268001Y-61637600D01*
X69268001Y-61637600D01*
X69268000Y-61637600D01*
X69268000Y-61637600D02*
X69268001Y-61637600D01*
X69268001Y-61637600D01*
X69268001Y-61637600D01*
X69268001Y-61637600D01*
X69268001Y-61637600D01*
X69268001Y-61637600D01*
X69268001Y-61637601D01*
X69268001Y-61637601D01*
X69268001Y-61637601D01*
X69268001Y-61637601D01*
X69268001Y-61637601D01*
X69268001Y-61637601D01*
X69268001Y-61637601D01*
X69268000Y-61637601D01*
X69268000Y-61637601D01*
X69268000Y-61637601D01*
X69268000Y-61637601D01*
X69268000Y-61637601D01*
X69268000Y-61637601D01*
X69268000Y-61637601D01*
X69268000Y-61637601D01*
X69268000Y-61637601D01*
X69268000Y-61637601D01*
X69268000Y-61637601D01*
X69268000Y-61637601D01*
X69267999Y-61637601D01*
X69267999Y-61637601D01*
X69267999Y-61637601D01*
X69267999Y-61637601D01*
X69267999Y-61637601D01*
X69267999Y-61637601D01*
X69267999Y-61637600D01*
X69267999Y-61637600D01*
X69267999Y-61637600D01*
X69267999Y-61637600D01*
X69267999Y-61637600D01*
X69267999Y-61637600D01*
X69268000Y-61637600D01*
D14*
X69268000Y-61637600D02*
X69268000Y-61942400D01*
X69268000Y-61942400D02*
X69268000Y-61637600D01*
D13*
X69268000Y-61942400D02*
X69267999Y-61942400D01*
X69267999Y-61942400D01*
X69267999Y-61942400D01*
X69267999Y-61942400D01*
X69267999Y-61942400D01*
X69267999Y-61942400D01*
X69267999Y-61942400D01*
X69267999Y-61942399D01*
X69267999Y-61942399D01*
X69267999Y-61942399D01*
X69267999Y-61942399D01*
X69267999Y-61942399D01*
X69268000Y-61942399D01*
X69268000Y-61942399D01*
X69268000Y-61942399D01*
X69268000Y-61942399D01*
X69268000Y-61942399D01*
X69268000Y-61942399D01*
X69268000Y-61942399D01*
X69268000Y-61942399D01*
X69268000Y-61942399D01*
X69268000Y-61942399D01*
X69268000Y-61942399D01*
X69268000Y-61942399D01*
X69268001Y-61942399D01*
X69268001Y-61942399D01*
X69268001Y-61942399D01*
X69268001Y-61942399D01*
X69268001Y-61942399D01*
X69268001Y-61942399D01*
X69268001Y-61942400D01*
X69268001Y-61942400D01*
X69268001Y-61942400D01*
X69268001Y-61942400D01*
X69268001Y-61942400D01*
X69268001Y-61942400D01*
X69268001Y-61942400D01*
X69268000Y-61942400D01*
X69268000Y-61942400D02*
X69268001Y-61942400D01*
X69268001Y-61942400D01*
X69268001Y-61942400D01*
X69268001Y-61942400D01*
X69268001Y-61942400D01*
X69268001Y-61942400D01*
X69268001Y-61942401D01*
X69268001Y-61942401D01*
X69268001Y-61942401D01*
X69268001Y-61942401D01*
X69268001Y-61942401D01*
X69268001Y-61942401D01*
X69268001Y-61942401D01*
X69268000Y-61942401D01*
X69268000Y-61942401D01*
X69268000Y-61942401D01*
X69268000Y-61942401D01*
X69268000Y-61942401D01*
X69268000Y-61942401D01*
X69268000Y-61942401D01*
X69268000Y-61942401D01*
X69268000Y-61942401D01*
X69268000Y-61942401D01*
X69268000Y-61942401D01*
X69268000Y-61942401D01*
X69267999Y-61942401D01*
X69267999Y-61942401D01*
X69267999Y-61942401D01*
X69267999Y-61942401D01*
X69267999Y-61942401D01*
X69267999Y-61942401D01*
X69267999Y-61942400D01*
X69267999Y-61942400D01*
X69267999Y-61942400D01*
X69267999Y-61942400D01*
X69267999Y-61942400D01*
X69267999Y-61942400D01*
X69268000Y-61942400D01*
D14*
D13*
X69268000Y-62137600D02*
X69267999Y-62137600D01*
X69267999Y-62137600D01*
X69267999Y-62137600D01*
X69267999Y-62137600D01*
X69267999Y-62137600D01*
X69267999Y-62137600D01*
X69267999Y-62137600D01*
X69267999Y-62137599D01*
X69267999Y-62137599D01*
X69267999Y-62137599D01*
X69267999Y-62137599D01*
X69267999Y-62137599D01*
X69268000Y-62137599D01*
X69268000Y-62137599D01*
X69268000Y-62137599D01*
X69268000Y-62137599D01*
X69268000Y-62137599D01*
X69268000Y-62137599D01*
X69268000Y-62137599D01*
X69268000Y-62137599D01*
X69268000Y-62137599D01*
X69268000Y-62137599D01*
X69268000Y-62137599D01*
X69268000Y-62137599D01*
X69268001Y-62137599D01*
X69268001Y-62137599D01*
X69268001Y-62137599D01*
X69268001Y-62137599D01*
X69268001Y-62137599D01*
X69268001Y-62137599D01*
X69268001Y-62137600D01*
X69268001Y-62137600D01*
X69268001Y-62137600D01*
X69268001Y-62137600D01*
X69268001Y-62137600D01*
X69268001Y-62137600D01*
X69268001Y-62137600D01*
X69268000Y-62137600D01*
X69268000Y-62137600D02*
X69268001Y-62137600D01*
X69268001Y-62137600D01*
X69268001Y-62137600D01*
X69268001Y-62137600D01*
X69268001Y-62137600D01*
X69268001Y-62137600D01*
X69268001Y-62137601D01*
X69268001Y-62137601D01*
X69268001Y-62137601D01*
X69268001Y-62137601D01*
X69268001Y-62137601D01*
X69268001Y-62137601D01*
X69268001Y-62137601D01*
X69268000Y-62137601D01*
X69268000Y-62137601D01*
X69268000Y-62137601D01*
X69268000Y-62137601D01*
X69268000Y-62137601D01*
X69268000Y-62137601D01*
X69268000Y-62137601D01*
X69268000Y-62137601D01*
X69268000Y-62137601D01*
X69268000Y-62137601D01*
X69268000Y-62137601D01*
X69268000Y-62137601D01*
X69267999Y-62137601D01*
X69267999Y-62137601D01*
X69267999Y-62137601D01*
X69267999Y-62137601D01*
X69267999Y-62137601D01*
X69267999Y-62137601D01*
X69267999Y-62137600D01*
X69267999Y-62137600D01*
X69267999Y-62137600D01*
X69267999Y-62137600D01*
X69267999Y-62137600D01*
X69267999Y-62137600D01*
X69268000Y-62137600D01*
D14*
X69268000Y-62137600D02*
X69268000Y-62442400D01*
X69268000Y-62442400D02*
X69268000Y-62137600D01*
D13*
X69268000Y-62442400D02*
X69267999Y-62442400D01*
X69267999Y-62442400D01*
X69267999Y-62442400D01*
X69267999Y-62442400D01*
X69267999Y-62442400D01*
X69267999Y-62442400D01*
X69267999Y-62442400D01*
X69267999Y-62442399D01*
X69267999Y-62442399D01*
X69267999Y-62442399D01*
X69267999Y-62442399D01*
X69267999Y-62442399D01*
X69268000Y-62442399D01*
X69268000Y-62442399D01*
X69268000Y-62442399D01*
X69268000Y-62442399D01*
X69268000Y-62442399D01*
X69268000Y-62442399D01*
X69268000Y-62442399D01*
X69268000Y-62442399D01*
X69268000Y-62442399D01*
X69268000Y-62442399D01*
X69268000Y-62442399D01*
X69268000Y-62442399D01*
X69268001Y-62442399D01*
X69268001Y-62442399D01*
X69268001Y-62442399D01*
X69268001Y-62442399D01*
X69268001Y-62442399D01*
X69268001Y-62442399D01*
X69268001Y-62442400D01*
X69268001Y-62442400D01*
X69268001Y-62442400D01*
X69268001Y-62442400D01*
X69268001Y-62442400D01*
X69268001Y-62442400D01*
X69268001Y-62442400D01*
X69268000Y-62442400D01*
X69268000Y-62442400D02*
X69268001Y-62442400D01*
X69268001Y-62442400D01*
X69268001Y-62442400D01*
X69268001Y-62442400D01*
X69268001Y-62442400D01*
X69268001Y-62442400D01*
X69268001Y-62442401D01*
X69268001Y-62442401D01*
X69268001Y-62442401D01*
X69268001Y-62442401D01*
X69268001Y-62442401D01*
X69268001Y-62442401D01*
X69268001Y-62442401D01*
X69268000Y-62442401D01*
X69268000Y-62442401D01*
X69268000Y-62442401D01*
X69268000Y-62442401D01*
X69268000Y-62442401D01*
X69268000Y-62442401D01*
X69268000Y-62442401D01*
X69268000Y-62442401D01*
X69268000Y-62442401D01*
X69268000Y-62442401D01*
X69268000Y-62442401D01*
X69268000Y-62442401D01*
X69267999Y-62442401D01*
X69267999Y-62442401D01*
X69267999Y-62442401D01*
X69267999Y-62442401D01*
X69267999Y-62442401D01*
X69267999Y-62442401D01*
X69267999Y-62442400D01*
X69267999Y-62442400D01*
X69267999Y-62442400D01*
X69267999Y-62442400D01*
X69267999Y-62442400D01*
X69267999Y-62442400D01*
X69268000Y-62442400D01*
D14*
D13*
X69268000Y-62637600D02*
X69267999Y-62637600D01*
X69267999Y-62637600D01*
X69267999Y-62637600D01*
X69267999Y-62637600D01*
X69267999Y-62637600D01*
X69267999Y-62637600D01*
X69267999Y-62637600D01*
X69267999Y-62637599D01*
X69267999Y-62637599D01*
X69267999Y-62637599D01*
X69267999Y-62637599D01*
X69267999Y-62637599D01*
X69268000Y-62637599D01*
X69268000Y-62637599D01*
X69268000Y-62637599D01*
X69268000Y-62637599D01*
X69268000Y-62637599D01*
X69268000Y-62637599D01*
X69268000Y-62637599D01*
X69268000Y-62637599D01*
X69268000Y-62637599D01*
X69268000Y-62637599D01*
X69268000Y-62637599D01*
X69268000Y-62637599D01*
X69268001Y-62637599D01*
X69268001Y-62637599D01*
X69268001Y-62637599D01*
X69268001Y-62637599D01*
X69268001Y-62637599D01*
X69268001Y-62637599D01*
X69268001Y-62637600D01*
X69268001Y-62637600D01*
X69268001Y-62637600D01*
X69268001Y-62637600D01*
X69268001Y-62637600D01*
X69268001Y-62637600D01*
X69268001Y-62637600D01*
X69268000Y-62637600D01*
X69268000Y-62637600D02*
X69268001Y-62637600D01*
X69268001Y-62637600D01*
X69268001Y-62637600D01*
X69268001Y-62637600D01*
X69268001Y-62637600D01*
X69268001Y-62637600D01*
X69268001Y-62637601D01*
X69268001Y-62637601D01*
X69268001Y-62637601D01*
X69268001Y-62637601D01*
X69268001Y-62637601D01*
X69268001Y-62637601D01*
X69268001Y-62637601D01*
X69268000Y-62637601D01*
X69268000Y-62637601D01*
X69268000Y-62637601D01*
X69268000Y-62637601D01*
X69268000Y-62637601D01*
X69268000Y-62637601D01*
X69268000Y-62637601D01*
X69268000Y-62637601D01*
X69268000Y-62637601D01*
X69268000Y-62637601D01*
X69268000Y-62637601D01*
X69268000Y-62637601D01*
X69267999Y-62637601D01*
X69267999Y-62637601D01*
X69267999Y-62637601D01*
X69267999Y-62637601D01*
X69267999Y-62637601D01*
X69267999Y-62637601D01*
X69267999Y-62637600D01*
X69267999Y-62637600D01*
X69267999Y-62637600D01*
X69267999Y-62637600D01*
X69267999Y-62637600D01*
X69267999Y-62637600D01*
X69268000Y-62637600D01*
D14*
X69268000Y-62637600D02*
X69268000Y-62942400D01*
X69268000Y-62942400D02*
X69268000Y-62637600D01*
D13*
X69268000Y-62942400D02*
X69267999Y-62942400D01*
X69267999Y-62942400D01*
X69267999Y-62942400D01*
X69267999Y-62942400D01*
X69267999Y-62942400D01*
X69267999Y-62942400D01*
X69267999Y-62942400D01*
X69267999Y-62942399D01*
X69267999Y-62942399D01*
X69267999Y-62942399D01*
X69267999Y-62942399D01*
X69267999Y-62942399D01*
X69268000Y-62942399D01*
X69268000Y-62942399D01*
X69268000Y-62942399D01*
X69268000Y-62942399D01*
X69268000Y-62942399D01*
X69268000Y-62942399D01*
X69268000Y-62942399D01*
X69268000Y-62942399D01*
X69268000Y-62942399D01*
X69268000Y-62942399D01*
X69268000Y-62942399D01*
X69268000Y-62942399D01*
X69268001Y-62942399D01*
X69268001Y-62942399D01*
X69268001Y-62942399D01*
X69268001Y-62942399D01*
X69268001Y-62942399D01*
X69268001Y-62942399D01*
X69268001Y-62942400D01*
X69268001Y-62942400D01*
X69268001Y-62942400D01*
X69268001Y-62942400D01*
X69268001Y-62942400D01*
X69268001Y-62942400D01*
X69268001Y-62942400D01*
X69268000Y-62942400D01*
X69268000Y-62942400D02*
X69268001Y-62942400D01*
X69268001Y-62942400D01*
X69268001Y-62942400D01*
X69268001Y-62942400D01*
X69268001Y-62942400D01*
X69268001Y-62942400D01*
X69268001Y-62942401D01*
X69268001Y-62942401D01*
X69268001Y-62942401D01*
X69268001Y-62942401D01*
X69268001Y-62942401D01*
X69268001Y-62942401D01*
X69268001Y-62942401D01*
X69268000Y-62942401D01*
X69268000Y-62942401D01*
X69268000Y-62942401D01*
X69268000Y-62942401D01*
X69268000Y-62942401D01*
X69268000Y-62942401D01*
X69268000Y-62942401D01*
X69268000Y-62942401D01*
X69268000Y-62942401D01*
X69268000Y-62942401D01*
X69268000Y-62942401D01*
X69268000Y-62942401D01*
X69267999Y-62942401D01*
X69267999Y-62942401D01*
X69267999Y-62942401D01*
X69267999Y-62942401D01*
X69267999Y-62942401D01*
X69267999Y-62942401D01*
X69267999Y-62942400D01*
X69267999Y-62942400D01*
X69267999Y-62942400D01*
X69267999Y-62942400D01*
X69267999Y-62942400D01*
X69267999Y-62942400D01*
X69268000Y-62942400D01*
D14*
D13*
X69268000Y-63137600D02*
X69267999Y-63137600D01*
X69267999Y-63137600D01*
X69267999Y-63137600D01*
X69267999Y-63137600D01*
X69267999Y-63137600D01*
X69267999Y-63137600D01*
X69267999Y-63137600D01*
X69267999Y-63137599D01*
X69267999Y-63137599D01*
X69267999Y-63137599D01*
X69267999Y-63137599D01*
X69267999Y-63137599D01*
X69268000Y-63137599D01*
X69268000Y-63137599D01*
X69268000Y-63137599D01*
X69268000Y-63137599D01*
X69268000Y-63137599D01*
X69268000Y-63137599D01*
X69268000Y-63137599D01*
X69268000Y-63137599D01*
X69268000Y-63137599D01*
X69268000Y-63137599D01*
X69268000Y-63137599D01*
X69268000Y-63137599D01*
X69268001Y-63137599D01*
X69268001Y-63137599D01*
X69268001Y-63137599D01*
X69268001Y-63137599D01*
X69268001Y-63137599D01*
X69268001Y-63137599D01*
X69268001Y-63137600D01*
X69268001Y-63137600D01*
X69268001Y-63137600D01*
X69268001Y-63137600D01*
X69268001Y-63137600D01*
X69268001Y-63137600D01*
X69268001Y-63137600D01*
X69268000Y-63137600D01*
X69268000Y-63137600D02*
X69268001Y-63137600D01*
X69268001Y-63137600D01*
X69268001Y-63137600D01*
X69268001Y-63137600D01*
X69268001Y-63137600D01*
X69268001Y-63137600D01*
X69268001Y-63137601D01*
X69268001Y-63137601D01*
X69268001Y-63137601D01*
X69268001Y-63137601D01*
X69268001Y-63137601D01*
X69268001Y-63137601D01*
X69268001Y-63137601D01*
X69268000Y-63137601D01*
X69268000Y-63137601D01*
X69268000Y-63137601D01*
X69268000Y-63137601D01*
X69268000Y-63137601D01*
X69268000Y-63137601D01*
X69268000Y-63137601D01*
X69268000Y-63137601D01*
X69268000Y-63137601D01*
X69268000Y-63137601D01*
X69268000Y-63137601D01*
X69268000Y-63137601D01*
X69267999Y-63137601D01*
X69267999Y-63137601D01*
X69267999Y-63137601D01*
X69267999Y-63137601D01*
X69267999Y-63137601D01*
X69267999Y-63137601D01*
X69267999Y-63137600D01*
X69267999Y-63137600D01*
X69267999Y-63137600D01*
X69267999Y-63137600D01*
X69267999Y-63137600D01*
X69267999Y-63137600D01*
X69268000Y-63137600D01*
D14*
X69268000Y-63137600D02*
X69268000Y-63442400D01*
X69268000Y-63442400D02*
X69268000Y-63137600D01*
D13*
X69268000Y-63442400D02*
X69267999Y-63442400D01*
X69267999Y-63442400D01*
X69267999Y-63442400D01*
X69267999Y-63442400D01*
X69267999Y-63442400D01*
X69267999Y-63442400D01*
X69267999Y-63442400D01*
X69267999Y-63442399D01*
X69267999Y-63442399D01*
X69267999Y-63442399D01*
X69267999Y-63442399D01*
X69267999Y-63442399D01*
X69268000Y-63442399D01*
X69268000Y-63442399D01*
X69268000Y-63442399D01*
X69268000Y-63442399D01*
X69268000Y-63442399D01*
X69268000Y-63442399D01*
X69268000Y-63442399D01*
X69268000Y-63442399D01*
X69268000Y-63442399D01*
X69268000Y-63442399D01*
X69268000Y-63442399D01*
X69268000Y-63442399D01*
X69268001Y-63442399D01*
X69268001Y-63442399D01*
X69268001Y-63442399D01*
X69268001Y-63442399D01*
X69268001Y-63442399D01*
X69268001Y-63442399D01*
X69268001Y-63442400D01*
X69268001Y-63442400D01*
X69268001Y-63442400D01*
X69268001Y-63442400D01*
X69268001Y-63442400D01*
X69268001Y-63442400D01*
X69268001Y-63442400D01*
X69268000Y-63442400D01*
X69268000Y-63442400D02*
X69268001Y-63442400D01*
X69268001Y-63442400D01*
X69268001Y-63442400D01*
X69268001Y-63442400D01*
X69268001Y-63442400D01*
X69268001Y-63442400D01*
X69268001Y-63442401D01*
X69268001Y-63442401D01*
X69268001Y-63442401D01*
X69268001Y-63442401D01*
X69268001Y-63442401D01*
X69268001Y-63442401D01*
X69268001Y-63442401D01*
X69268000Y-63442401D01*
X69268000Y-63442401D01*
X69268000Y-63442401D01*
X69268000Y-63442401D01*
X69268000Y-63442401D01*
X69268000Y-63442401D01*
X69268000Y-63442401D01*
X69268000Y-63442401D01*
X69268000Y-63442401D01*
X69268000Y-63442401D01*
X69268000Y-63442401D01*
X69268000Y-63442401D01*
X69267999Y-63442401D01*
X69267999Y-63442401D01*
X69267999Y-63442401D01*
X69267999Y-63442401D01*
X69267999Y-63442401D01*
X69267999Y-63442401D01*
X69267999Y-63442400D01*
X69267999Y-63442400D01*
X69267999Y-63442400D01*
X69267999Y-63442400D01*
X69267999Y-63442400D01*
X69267999Y-63442400D01*
X69268000Y-63442400D01*
D14*
X69268000Y-64338000D02*
X69268000Y-58242000D01*
D13*
X69268000Y-64338000D02*
X69267999Y-64338000D01*
X69267999Y-64338000D01*
X69267999Y-64338000D01*
X69267999Y-64338000D01*
X69267999Y-64338000D01*
X69267999Y-64338000D01*
X69267999Y-64338000D01*
X69267999Y-64337999D01*
X69267999Y-64337999D01*
X69267999Y-64337999D01*
X69267999Y-64337999D01*
X69267999Y-64337999D01*
X69268000Y-64337999D01*
X69268000Y-64337999D01*
X69268000Y-64337999D01*
X69268000Y-64337999D01*
X69268000Y-64337999D01*
X69268000Y-64337999D01*
X69268000Y-64337999D01*
X69268000Y-64337999D01*
X69268000Y-64337999D01*
X69268000Y-64337999D01*
X69268000Y-64337999D01*
X69268000Y-64337999D01*
X69268001Y-64337999D01*
X69268001Y-64337999D01*
X69268001Y-64337999D01*
X69268001Y-64337999D01*
X69268001Y-64337999D01*
X69268001Y-64337999D01*
X69268001Y-64338000D01*
X69268001Y-64338000D01*
X69268001Y-64338000D01*
X69268001Y-64338000D01*
X69268001Y-64338000D01*
X69268001Y-64338000D01*
X69268001Y-64338000D01*
X69268000Y-64338000D01*
X69268000Y-64338000D02*
X69268001Y-64338000D01*
X69268001Y-64338000D01*
X69268001Y-64338000D01*
X69268001Y-64338000D01*
X69268001Y-64338000D01*
X69268001Y-64338000D01*
X69268001Y-64338001D01*
X69268001Y-64338001D01*
X69268001Y-64338001D01*
X69268001Y-64338001D01*
X69268001Y-64338001D01*
X69268001Y-64338001D01*
X69268001Y-64338001D01*
X69268000Y-64338001D01*
X69268000Y-64338001D01*
X69268000Y-64338001D01*
X69268000Y-64338001D01*
X69268000Y-64338001D01*
X69268000Y-64338001D01*
X69268000Y-64338001D01*
X69268000Y-64338001D01*
X69268000Y-64338001D01*
X69268000Y-64338001D01*
X69268000Y-64338001D01*
X69268000Y-64338001D01*
X69267999Y-64338001D01*
X69267999Y-64338001D01*
X69267999Y-64338001D01*
X69267999Y-64338001D01*
X69267999Y-64338001D01*
X69267999Y-64338001D01*
X69267999Y-64338000D01*
X69267999Y-64338000D01*
X69267999Y-64338000D01*
X69267999Y-64338000D01*
X69267999Y-64338000D01*
X69267999Y-64338000D01*
X69268000Y-64338000D01*
%TO.C,SW7*%
D12*
X72420000Y-115500000D02*
X76320000Y-115500001D01*
X72420000Y-120500000D02*
X72420000Y-115500000D01*
X76320000Y-120499999D02*
X72420000Y-120500000D01*
X80120000Y-115500001D02*
X84020000Y-115500000D01*
X84020000Y-115500000D02*
X84020000Y-120500000D01*
X84020000Y-120500000D02*
X80120000Y-120499999D01*
X75020000Y-111700000D02*
X80020000Y-111700000D01*
X80020000Y-113950000D01*
X75020000Y-113950000D01*
X75020000Y-111700000D01*
X70720000Y-110500000D02*
X85720000Y-110500000D01*
X85720000Y-125500000D01*
X70720000Y-125500000D01*
X70720000Y-110500000D01*
X76320000Y-115500001D02*
G75*
G02*
X80120000Y-115500001I1900000J-2499998D01*
G01*
X80120000Y-120499999D02*
G75*
G02*
X76320000Y-120499999I-1900000J2499998D01*
G01*
X81095000Y-118000000D02*
G75*
G02*
X75345000Y-118000000I-2875000J0D01*
G01*
X75345000Y-118000000D02*
G75*
G02*
X81095000Y-118000000I2875000J0D01*
G01*
D13*
G36*
X78720000Y-117360000D02*
G01*
X80170000Y-117360000D01*
X80170000Y-118640000D01*
X78720000Y-118640000D01*
X78720000Y-120000000D01*
X77620000Y-120000000D01*
X77620000Y-118640000D01*
X76170000Y-118640000D01*
X76170000Y-117360000D01*
X77620000Y-117360000D01*
X77620000Y-116000000D01*
X78720000Y-116000000D01*
X78720000Y-117360000D01*
G37*
%TO.C,J4*%
D12*
X120240000Y-67640000D02*
X134845000Y-67640000D01*
X120240000Y-70180000D02*
X120240000Y-67640000D01*
X134845000Y-67640000D02*
X135480000Y-68275000D01*
X135480000Y-68275000D02*
X135480000Y-70180000D01*
X135480000Y-70180000D02*
X120240000Y-70180000D01*
%TO.C,TEMT6000*%
X109150000Y-57230000D02*
X116770000Y-57230000D01*
X109150000Y-59135000D02*
X109150000Y-57230000D01*
X109785000Y-59770000D02*
X109150000Y-59135000D01*
X116770000Y-57230000D02*
X116770000Y-59770000D01*
X116770000Y-59770000D02*
X109785000Y-59770000D01*
%TO.C,SW0*%
X63465000Y-151750000D02*
X67365000Y-151750001D01*
X63465000Y-156750000D02*
X63465000Y-151750000D01*
X67365000Y-156749999D02*
X63465000Y-156750000D01*
X71165000Y-151750001D02*
X75065000Y-151750000D01*
X75065000Y-151750000D02*
X75065000Y-156750000D01*
X75065000Y-156750000D02*
X71165000Y-156749999D01*
X66065000Y-147950000D02*
X71065000Y-147950000D01*
X71065000Y-150200000D01*
X66065000Y-150200000D01*
X66065000Y-147950000D01*
X61765000Y-146750000D02*
X76765000Y-146750000D01*
X76765000Y-161750000D01*
X61765000Y-161750000D01*
X61765000Y-146750000D01*
X67365000Y-151750001D02*
G75*
G02*
X71165000Y-151750001I1900000J-2499998D01*
G01*
X71165000Y-156749999D02*
G75*
G02*
X67365000Y-156749999I-1900000J2499998D01*
G01*
X72140000Y-154250000D02*
G75*
G02*
X66390000Y-154250000I-2875000J0D01*
G01*
X66390000Y-154250000D02*
G75*
G02*
X72140000Y-154250000I2875000J0D01*
G01*
D13*
G36*
X69765000Y-153610000D02*
G01*
X71215000Y-153610000D01*
X71215000Y-154890000D01*
X69765000Y-154890000D01*
X69765000Y-156250000D01*
X68665000Y-156250000D01*
X68665000Y-154890000D01*
X67215000Y-154890000D01*
X67215000Y-153610000D01*
X68665000Y-153610000D01*
X68665000Y-152250000D01*
X69765000Y-152250000D01*
X69765000Y-153610000D01*
G37*
%TO.C,C2*%
D12*
X83400000Y-51840000D02*
X88000000Y-51840000D01*
X88000000Y-53840000D01*
X83400000Y-53840000D01*
X83400000Y-51840000D01*
%TO.C,SW3*%
X72420000Y-133510000D02*
X76320000Y-133510001D01*
X72420000Y-138510000D02*
X72420000Y-133510000D01*
X76320000Y-138509999D02*
X72420000Y-138510000D01*
X80120000Y-133510001D02*
X84020000Y-133510000D01*
X84020000Y-133510000D02*
X84020000Y-138510000D01*
X84020000Y-138510000D02*
X80120000Y-138509999D01*
X75020000Y-129710000D02*
X80020000Y-129710000D01*
X80020000Y-131960000D01*
X75020000Y-131960000D01*
X75020000Y-129710000D01*
X70720000Y-128510000D02*
X85720000Y-128510000D01*
X85720000Y-143510000D01*
X70720000Y-143510000D01*
X70720000Y-128510000D01*
X76320000Y-133510001D02*
G75*
G02*
X80120000Y-133510001I1900000J-2499998D01*
G01*
X80120000Y-138509999D02*
G75*
G02*
X76320000Y-138509999I-1900000J2499998D01*
G01*
X81095000Y-136010000D02*
G75*
G02*
X75345000Y-136010000I-2875000J0D01*
G01*
X75345000Y-136010000D02*
G75*
G02*
X81095000Y-136010000I2875000J0D01*
G01*
D13*
G36*
X78720000Y-135370000D02*
G01*
X80170000Y-135370000D01*
X80170000Y-136650000D01*
X78720000Y-136650000D01*
X78720000Y-138010000D01*
X77620000Y-138010000D01*
X77620000Y-136650000D01*
X76170000Y-136650000D01*
X76170000Y-135370000D01*
X77620000Y-135370000D01*
X77620000Y-134010000D01*
X78720000Y-134010000D01*
X78720000Y-135370000D01*
G37*
%TO.C,SW16*%
D12*
X111675000Y-77300000D02*
X115575000Y-77300001D01*
X111675000Y-82300000D02*
X111675000Y-77300000D01*
X115575000Y-82299999D02*
X111675000Y-82300000D01*
X119375000Y-77300001D02*
X123275000Y-77300000D01*
X123275000Y-77300000D02*
X123275000Y-82300000D01*
X123275000Y-82300000D02*
X119375000Y-82299999D01*
X114275000Y-73500000D02*
X119275000Y-73500000D01*
X119275000Y-75750000D01*
X114275000Y-75750000D01*
X114275000Y-73500000D01*
X109975000Y-72300000D02*
X124975000Y-72300000D01*
X124975000Y-87300000D01*
X109975000Y-87300000D01*
X109975000Y-72300000D01*
X115575000Y-77300001D02*
G75*
G02*
X119375000Y-77300001I1900000J-2499998D01*
G01*
X119375000Y-82299999D02*
G75*
G02*
X115575000Y-82299999I-1900000J2499998D01*
G01*
X120350000Y-79800000D02*
G75*
G02*
X114600000Y-79800000I-2875000J0D01*
G01*
X114600000Y-79800000D02*
G75*
G02*
X120350000Y-79800000I2875000J0D01*
G01*
D13*
G36*
X117975000Y-79160000D02*
G01*
X119425000Y-79160000D01*
X119425000Y-80440000D01*
X117975000Y-80440000D01*
X117975000Y-81800000D01*
X116875000Y-81800000D01*
X116875000Y-80440000D01*
X115425000Y-80440000D01*
X115425000Y-79160000D01*
X116875000Y-79160000D01*
X116875000Y-77800000D01*
X117975000Y-77800000D01*
X117975000Y-79160000D01*
G37*
%TO.C,SW5*%
D12*
X112050000Y-144550000D02*
X115950000Y-144550001D01*
X112050000Y-149550000D02*
X112050000Y-144550000D01*
X115950000Y-149549999D02*
X112050000Y-149550000D01*
X119750000Y-144550001D02*
X123650000Y-144550000D01*
X123650000Y-144550000D02*
X123650000Y-149550000D01*
X123650000Y-149550000D02*
X119750000Y-149549999D01*
X114650000Y-140750000D02*
X119650000Y-140750000D01*
X119650000Y-143000000D01*
X114650000Y-143000000D01*
X114650000Y-140750000D01*
X110350000Y-139550000D02*
X125350000Y-139550000D01*
X125350000Y-154550000D01*
X110350000Y-154550000D01*
X110350000Y-139550000D01*
X115950000Y-144550001D02*
G75*
G02*
X119750000Y-144550001I1900000J-2499998D01*
G01*
X119750000Y-149549999D02*
G75*
G02*
X115950000Y-149549999I-1900000J2499998D01*
G01*
X120725000Y-147050000D02*
G75*
G02*
X114975000Y-147050000I-2875000J0D01*
G01*
X114975000Y-147050000D02*
G75*
G02*
X120725000Y-147050000I2875000J0D01*
G01*
D13*
G36*
X118350000Y-146410000D02*
G01*
X119800000Y-146410000D01*
X119800000Y-147690000D01*
X118350000Y-147690000D01*
X118350000Y-149050000D01*
X117250000Y-149050000D01*
X117250000Y-147690000D01*
X115800000Y-147690000D01*
X115800000Y-146410000D01*
X117250000Y-146410000D01*
X117250000Y-145050000D01*
X118350000Y-145050000D01*
X118350000Y-146410000D01*
G37*
%TO.C,J3*%
D12*
X101660000Y-46465000D02*
X102295000Y-45830000D01*
X101660000Y-66150000D02*
X101660000Y-46465000D01*
X102295000Y-45830000D02*
X104200000Y-45830000D01*
X104200000Y-45830000D02*
X104200000Y-66150000D01*
X104200000Y-66150000D02*
X101660000Y-66150000D01*
%TO.C,R2*%
X73700000Y-63810000D02*
X75710000Y-63810000D01*
X81320000Y-63810000D02*
X79310000Y-63810000D01*
X75710000Y-63010000D02*
X79310000Y-63010000D01*
X79310000Y-64610000D01*
X75710000Y-64610000D01*
X75710000Y-63010000D01*
%TO.C,SW11*%
X92200000Y-96920000D02*
X96100000Y-96920001D01*
X92200000Y-101920000D02*
X92200000Y-96920000D01*
X96100000Y-101919999D02*
X92200000Y-101920000D01*
X99900000Y-96920001D02*
X103800000Y-96920000D01*
X103800000Y-96920000D02*
X103800000Y-101920000D01*
X103800000Y-101920000D02*
X99900000Y-101919999D01*
X94800000Y-93120000D02*
X99800000Y-93120000D01*
X99800000Y-95370000D01*
X94800000Y-95370000D01*
X94800000Y-93120000D01*
X90500000Y-91920000D02*
X105500000Y-91920000D01*
X105500000Y-106920000D01*
X90500000Y-106920000D01*
X90500000Y-91920000D01*
X96100000Y-96920001D02*
G75*
G02*
X99900000Y-96920001I1900000J-2499998D01*
G01*
X99900000Y-101919999D02*
G75*
G02*
X96100000Y-101919999I-1900000J2499998D01*
G01*
X100875000Y-99420000D02*
G75*
G02*
X95125000Y-99420000I-2875000J0D01*
G01*
X95125000Y-99420000D02*
G75*
G02*
X100875000Y-99420000I2875000J0D01*
G01*
D13*
G36*
X98500000Y-98780000D02*
G01*
X99950000Y-98780000D01*
X99950000Y-100060000D01*
X98500000Y-100060000D01*
X98500000Y-101420000D01*
X97400000Y-101420000D01*
X97400000Y-100060000D01*
X95950000Y-100060000D01*
X95950000Y-98780000D01*
X97400000Y-98780000D01*
X97400000Y-97420000D01*
X98500000Y-97420000D01*
X98500000Y-98780000D01*
G37*
%TO.C,U1*%
D15*
X127710000Y-98390000D02*
X127710000Y-91390000D01*
X134710000Y-91390000D02*
X127710000Y-91390000D01*
X134710000Y-98390000D02*
X127710000Y-98390000D01*
X134710000Y-98390000D02*
X134710000Y-91390000D01*
D16*
X125470000Y-92090000D02*
G75*
G02*
X125270000Y-92090000I-100000J0D01*
G01*
X125270000Y-92090000D02*
G75*
G02*
X125470000Y-92090000I100000J0D01*
G01*
%TO.C,SW6*%
D12*
X52480000Y-115500000D02*
X56380000Y-115500001D01*
X52480000Y-120500000D02*
X52480000Y-115500000D01*
X56380000Y-120499999D02*
X52480000Y-120500000D01*
X60180000Y-115500001D02*
X64080000Y-115500000D01*
X64080000Y-115500000D02*
X64080000Y-120500000D01*
X64080000Y-120500000D02*
X60180000Y-120499999D01*
X55080000Y-111700000D02*
X60080000Y-111700000D01*
X60080000Y-113950000D01*
X55080000Y-113950000D01*
X55080000Y-111700000D01*
X50780000Y-110500000D02*
X65780000Y-110500000D01*
X65780000Y-125500000D01*
X50780000Y-125500000D01*
X50780000Y-110500000D01*
X56380000Y-115500001D02*
G75*
G02*
X60180000Y-115500001I1900000J-2499998D01*
G01*
X60180000Y-120499999D02*
G75*
G02*
X56380000Y-120499999I-1900000J2499998D01*
G01*
X61155000Y-118000000D02*
G75*
G02*
X55405000Y-118000000I-2875000J0D01*
G01*
X55405000Y-118000000D02*
G75*
G02*
X61155000Y-118000000I2875000J0D01*
G01*
D13*
G36*
X58780000Y-117360000D02*
G01*
X60230000Y-117360000D01*
X60230000Y-118640000D01*
X58780000Y-118640000D01*
X58780000Y-120000000D01*
X57680000Y-120000000D01*
X57680000Y-118640000D01*
X56230000Y-118640000D01*
X56230000Y-117360000D01*
X57680000Y-117360000D01*
X57680000Y-116000000D01*
X58780000Y-116000000D01*
X58780000Y-117360000D01*
G37*
%TO.C,J2*%
D12*
X123480000Y-41950000D02*
X135545000Y-41950000D01*
X123480000Y-44490000D02*
X123480000Y-41950000D01*
X135545000Y-41950000D02*
X136180000Y-42585000D01*
X136180000Y-42585000D02*
X136180000Y-44490000D01*
X136180000Y-44490000D02*
X123480000Y-44490000D01*
%TO.C,Y1*%
X65665000Y-50895000D02*
X71915000Y-50895000D01*
X71915000Y-55545000D02*
X65665000Y-55545000D01*
X65665000Y-55545000D02*
G75*
G02*
X65665000Y-50895000I0J2325000D01*
G01*
X71915000Y-50895000D02*
G75*
G02*
X71915000Y-55545000I0J-2325000D01*
G01*
%TO.C,SW1*%
X92200000Y-152700000D02*
X96100000Y-152700001D01*
X92200000Y-157700000D02*
X92200000Y-152700000D01*
X96100000Y-157699999D02*
X92200000Y-157700000D01*
X99900000Y-152700001D02*
X103800000Y-152700000D01*
X103800000Y-152700000D02*
X103800000Y-157700000D01*
X103800000Y-157700000D02*
X99900000Y-157699999D01*
X94800000Y-148900000D02*
X99800000Y-148900000D01*
X99800000Y-151150000D01*
X94800000Y-151150000D01*
X94800000Y-148900000D01*
X90500000Y-147700000D02*
X105500000Y-147700000D01*
X105500000Y-162700000D01*
X90500000Y-162700000D01*
X90500000Y-147700000D01*
X96100000Y-152700001D02*
G75*
G02*
X99900000Y-152700001I1900000J-2499998D01*
G01*
X99900000Y-157699999D02*
G75*
G02*
X96100000Y-157699999I-1900000J2499998D01*
G01*
X100875000Y-155200000D02*
G75*
G02*
X95125000Y-155200000I-2875000J0D01*
G01*
X95125000Y-155200000D02*
G75*
G02*
X100875000Y-155200000I2875000J0D01*
G01*
D13*
G36*
X98500000Y-154560000D02*
G01*
X99950000Y-154560000D01*
X99950000Y-155840000D01*
X98500000Y-155840000D01*
X98500000Y-157200000D01*
X97400000Y-157200000D01*
X97400000Y-155840000D01*
X95950000Y-155840000D01*
X95950000Y-154560000D01*
X97400000Y-154560000D01*
X97400000Y-153200000D01*
X98500000Y-153200000D01*
X98500000Y-154560000D01*
G37*
%TO.C,SW8*%
D12*
X92200000Y-115500000D02*
X96100000Y-115500001D01*
X92200000Y-120500000D02*
X92200000Y-115500000D01*
X96100000Y-120499999D02*
X92200000Y-120500000D01*
X99900000Y-115500001D02*
X103800000Y-115500000D01*
X103800000Y-115500000D02*
X103800000Y-120500000D01*
X103800000Y-120500000D02*
X99900000Y-120499999D01*
X94800000Y-111700000D02*
X99800000Y-111700000D01*
X99800000Y-113950000D01*
X94800000Y-113950000D01*
X94800000Y-111700000D01*
X90500000Y-110500000D02*
X105500000Y-110500000D01*
X105500000Y-125500000D01*
X90500000Y-125500000D01*
X90500000Y-110500000D01*
X96100000Y-115500001D02*
G75*
G02*
X99900000Y-115500001I1900000J-2499998D01*
G01*
X99900000Y-120499999D02*
G75*
G02*
X96100000Y-120499999I-1900000J2499998D01*
G01*
X100875000Y-118000000D02*
G75*
G02*
X95125000Y-118000000I-2875000J0D01*
G01*
X95125000Y-118000000D02*
G75*
G02*
X100875000Y-118000000I2875000J0D01*
G01*
D13*
G36*
X98500000Y-117360000D02*
G01*
X99950000Y-117360000D01*
X99950000Y-118640000D01*
X98500000Y-118640000D01*
X98500000Y-120000000D01*
X97400000Y-120000000D01*
X97400000Y-118640000D01*
X95950000Y-118640000D01*
X95950000Y-117360000D01*
X97400000Y-117360000D01*
X97400000Y-116000000D01*
X98500000Y-116000000D01*
X98500000Y-117360000D01*
G37*
%TO.C,5V1*%
D12*
X124610000Y-52040000D02*
X129690000Y-52040000D01*
X124610000Y-53945000D02*
X124610000Y-52040000D01*
X125245000Y-54580000D02*
X124610000Y-53945000D01*
X129690000Y-52040000D02*
X129690000Y-54580000D01*
X129690000Y-54580000D02*
X125245000Y-54580000D01*
%TO.C,SW4*%
X92200000Y-133510000D02*
X96100000Y-133510001D01*
X92200000Y-138510000D02*
X92200000Y-133510000D01*
X96100000Y-138509999D02*
X92200000Y-138510000D01*
X99900000Y-133510001D02*
X103800000Y-133510000D01*
X103800000Y-133510000D02*
X103800000Y-138510000D01*
X103800000Y-138510000D02*
X99900000Y-138509999D01*
X94800000Y-129710000D02*
X99800000Y-129710000D01*
X99800000Y-131960000D01*
X94800000Y-131960000D01*
X94800000Y-129710000D01*
X90500000Y-128510000D02*
X105500000Y-128510000D01*
X105500000Y-143510000D01*
X90500000Y-143510000D01*
X90500000Y-128510000D01*
X96100000Y-133510001D02*
G75*
G02*
X99900000Y-133510001I1900000J-2499998D01*
G01*
X99900000Y-138509999D02*
G75*
G02*
X96100000Y-138509999I-1900000J2499998D01*
G01*
X100875000Y-136010000D02*
G75*
G02*
X95125000Y-136010000I-2875000J0D01*
G01*
X95125000Y-136010000D02*
G75*
G02*
X100875000Y-136010000I2875000J0D01*
G01*
D13*
G36*
X98500000Y-135370000D02*
G01*
X99950000Y-135370000D01*
X99950000Y-136650000D01*
X98500000Y-136650000D01*
X98500000Y-138010000D01*
X97400000Y-138010000D01*
X97400000Y-136650000D01*
X95950000Y-136650000D01*
X95950000Y-135370000D01*
X97400000Y-135370000D01*
X97400000Y-134010000D01*
X98500000Y-134010000D01*
X98500000Y-135370000D01*
G37*
%TO.C,SW9*%
D12*
X52480000Y-96920000D02*
X56380000Y-96920001D01*
X52480000Y-101920000D02*
X52480000Y-96920000D01*
X56380000Y-101919999D02*
X52480000Y-101920000D01*
X60180000Y-96920001D02*
X64080000Y-96920000D01*
X64080000Y-96920000D02*
X64080000Y-101920000D01*
X64080000Y-101920000D02*
X60180000Y-101919999D01*
X55080000Y-93120000D02*
X60080000Y-93120000D01*
X60080000Y-95370000D01*
X55080000Y-95370000D01*
X55080000Y-93120000D01*
X50780000Y-91920000D02*
X65780000Y-91920000D01*
X65780000Y-106920000D01*
X50780000Y-106920000D01*
X50780000Y-91920000D01*
X56380000Y-96920001D02*
G75*
G02*
X60180000Y-96920001I1900000J-2499998D01*
G01*
X60180000Y-101919999D02*
G75*
G02*
X56380000Y-101919999I-1900000J2499998D01*
G01*
X61155000Y-99420000D02*
G75*
G02*
X55405000Y-99420000I-2875000J0D01*
G01*
X55405000Y-99420000D02*
G75*
G02*
X61155000Y-99420000I2875000J0D01*
G01*
D13*
G36*
X58780000Y-98780000D02*
G01*
X60230000Y-98780000D01*
X60230000Y-100060000D01*
X58780000Y-100060000D01*
X58780000Y-101420000D01*
X57680000Y-101420000D01*
X57680000Y-100060000D01*
X56230000Y-100060000D01*
X56230000Y-98780000D01*
X57680000Y-98780000D01*
X57680000Y-97420000D01*
X58780000Y-97420000D01*
X58780000Y-98780000D01*
G37*
%TO.C,SW12*%
D12*
X112200000Y-105900000D02*
X116100000Y-105900001D01*
X112200000Y-110900000D02*
X112200000Y-105900000D01*
X116100000Y-110899999D02*
X112200000Y-110900000D01*
X119900000Y-105900001D02*
X123800000Y-105900000D01*
X123800000Y-105900000D02*
X123800000Y-110900000D01*
X123800000Y-110900000D02*
X119900000Y-110899999D01*
X114800000Y-102100000D02*
X119800000Y-102100000D01*
X119800000Y-104350000D01*
X114800000Y-104350000D01*
X114800000Y-102100000D01*
X110500000Y-100900000D02*
X125500000Y-100900000D01*
X125500000Y-115900000D01*
X110500000Y-115900000D01*
X110500000Y-100900000D01*
X116100000Y-105900001D02*
G75*
G02*
X119900000Y-105900001I1900000J-2499998D01*
G01*
X119900000Y-110899999D02*
G75*
G02*
X116100000Y-110899999I-1900000J2499998D01*
G01*
X120875000Y-108400000D02*
G75*
G02*
X115125000Y-108400000I-2875000J0D01*
G01*
X115125000Y-108400000D02*
G75*
G02*
X120875000Y-108400000I2875000J0D01*
G01*
D13*
G36*
X118500000Y-107760000D02*
G01*
X119950000Y-107760000D01*
X119950000Y-109040000D01*
X118500000Y-109040000D01*
X118500000Y-110400000D01*
X117400000Y-110400000D01*
X117400000Y-109040000D01*
X115950000Y-109040000D01*
X115950000Y-107760000D01*
X117400000Y-107760000D01*
X117400000Y-106400000D01*
X118500000Y-106400000D01*
X118500000Y-107760000D01*
G37*
%TO.C,SW10*%
D12*
X72420000Y-96920000D02*
X76320000Y-96920001D01*
X72420000Y-101920000D02*
X72420000Y-96920000D01*
X76320000Y-101919999D02*
X72420000Y-101920000D01*
X80120000Y-96920001D02*
X84020000Y-96920000D01*
X84020000Y-96920000D02*
X84020000Y-101920000D01*
X84020000Y-101920000D02*
X80120000Y-101919999D01*
X75020000Y-93120000D02*
X80020000Y-93120000D01*
X80020000Y-95370000D01*
X75020000Y-95370000D01*
X75020000Y-93120000D01*
X70720000Y-91920000D02*
X85720000Y-91920000D01*
X85720000Y-106920000D01*
X70720000Y-106920000D01*
X70720000Y-91920000D01*
X76320000Y-96920001D02*
G75*
G02*
X80120000Y-96920001I1900000J-2499998D01*
G01*
X80120000Y-101919999D02*
G75*
G02*
X76320000Y-101919999I-1900000J2499998D01*
G01*
X81095000Y-99420000D02*
G75*
G02*
X75345000Y-99420000I-2875000J0D01*
G01*
X75345000Y-99420000D02*
G75*
G02*
X81095000Y-99420000I2875000J0D01*
G01*
D13*
G36*
X78720000Y-98780000D02*
G01*
X80170000Y-98780000D01*
X80170000Y-100060000D01*
X78720000Y-100060000D01*
X78720000Y-101420000D01*
X77620000Y-101420000D01*
X77620000Y-100060000D01*
X76170000Y-100060000D01*
X76170000Y-98780000D01*
X77620000Y-98780000D01*
X77620000Y-97420000D01*
X78720000Y-97420000D01*
X78720000Y-98780000D01*
G37*
%TD*%
M02*
