M48
; DRILL file KiCad 10.0.0 date 2026-04-15T14:16:53
; FORMAT={-:-/ absolute / metric / decimal}
; #@! TF.CreationDate,2026-04-15T14:16:53-04:00
; #@! TF.GenerationSoftware,Kicad,Pcbnew,10.0.0
; #@! TF.FileFunction,Plated,1,2,PTH
FMAT,2
METRIC
; #@! TA.AperFunction,Plated,PTH,ViaDrill
T1C0.300
; #@! TA.AperFunction,Plated,PTH,ComponentDrill
T2C0.700
; #@! TA.AperFunction,Plated,PTH,ComponentDrill
T3C0.800
; #@! TA.AperFunction,Plated,PTH,ComponentDrill
T4C0.900
; #@! TA.AperFunction,Plated,PTH,ComponentDrill
T5C0.920
; #@! TA.AperFunction,Plated,PTH,ComponentDrill
T6C1.000
; #@! TA.AperFunction,Plated,PTH,ComponentDrill
T7C1.020
; #@! TA.AperFunction,Plated,PTH,ComponentDrill
T8C2.300
; #@! TA.AperFunction,Plated,PTH,ComponentDrill
T9C3.000
%
G90
G05
T1
X44.93Y-59.025
X45.457Y-62.232
X51.575Y-163.05
X52.149Y-47.001
X52.899Y-46.601
X54.05Y-77.425
X54.425Y-56.32
X54.475Y-110.925
X54.55Y-57.32
X54.55Y-113.6
X54.7Y-131.6
X56.05Y-47.83
X58.074Y-60.876
X58.475Y-87.975
X58.9Y-44.575
X59.14Y-59.77
X60.55Y-130.14
X60.6Y-112.1
X60.6Y-131.64
X60.61Y-73.95
X60.61Y-75.45
X60.65Y-113.57
X60.85Y-93.575
X61.35Y-62.45
X61.35Y-64.57
X62.22Y-57.09
X62.225Y-61.8
X62.575Y-95.15
X62.775Y-57.825
X63.03Y-76.5
X63.66Y-128.84
X64.2Y-65.075
X64.35Y-113.575
X64.513Y-115.062
X64.9Y-94.425
X64.9Y-112.2
X64.9Y-130.15
X65.26Y-138.87
X65.275Y-100.75
X65.5Y-93.3
X66.22Y-61.29
X67.74Y-72.02
X68.075Y-65.15
X68.86Y-56.17
X69.88Y-56.27
X70.225Y-61.325
X71.3Y-114.875
X71.475Y-94.4
X71.55Y-100.2
X71.65Y-112.525
X71.7Y-113.325
X71.75Y-129.225
X71.775Y-130.14
X71.83Y-148.4
X71.83Y-149.9
X72.875Y-74.625
X74.2Y-92.025
X74.3Y-131.6
X74.35Y-113.56
X75.075Y-95.225
X75.61Y-82.18
X75.65Y-74.01
X78.1Y-71.4
X79.2Y-91.35
X79.738Y-71.526
X80.01Y-49.46
X80.25Y-130.05
X80.275Y-93.725
X80.3Y-131.57
X80.4Y-113.56
X80.45Y-112.05
X80.84Y-74.03
X80.85Y-75.51
X84.26Y-72.83
X84.5Y-129.275
X84.7Y-130.4
X84.75Y-138.72
X84.875Y-112.225
X84.875Y-114.85
X85.0Y-113.57
X85.234Y-93.439
X85.325Y-146.26
X85.487Y-100.162
X85.95Y-145.44
X86.02Y-75.45
X86.29Y-76.7
X90.51Y-50.35
X90.55Y-82.15
X91.2Y-99.325
X91.24Y-95.72
X91.5Y-113.57
X91.575Y-112.6
X92.525Y-148.8
X92.6Y-150.735
X93.075Y-128.8
X93.74Y-56.63
X94.35Y-113.57
X94.55Y-95.025
X94.575Y-64.28
X95.13Y-150.8
X97.45Y-45.15
X97.75Y-54.95
X99.35Y-45.59
X99.48Y-44.4
X99.525Y-69.925
X99.63Y-53.45
X100.05Y-130.01
X100.15Y-131.5
X100.175Y-67.875
X100.25Y-73.98
X100.25Y-75.48
X100.33Y-149.3
X100.33Y-150.8
X100.4Y-113.57
X100.55Y-110.93
X100.65Y-93.525
X100.65Y-95.025
X100.92Y-44.68
X104.675Y-137.3
X104.675Y-139.41
X104.81Y-57.14
X104.975Y-136.3
X106.55Y-64.075
X106.6Y-45.78
X107.947Y-103.182
X108.28Y-59.72
X108.45Y-130.625
X108.71Y-61.63
X108.875Y-115.925
X109.762Y-62.713
X111.36Y-53.84
X111.99Y-49.95
X112.4Y-142.24
X112.57Y-147.09
X112.625Y-140.2
X114.155Y-70.72
X114.34Y-142.45
X114.47Y-75.68
X117.19Y-68.01
X117.44Y-53.48
X117.975Y-112.125
X118.8Y-46.94
X119.67Y-75.68
X120.25Y-140.875
X120.25Y-142.375
X120.325Y-102.525
X120.325Y-104.025
X121.53Y-56.93
X122.7Y-73.425
X125.3Y-150.45
X125.55Y-101.16
X125.775Y-141.15
X127.04Y-93.69
X127.04Y-95.29
X127.58Y-118.01
X129.21Y-90.72
X130.0Y-91.04
X130.29Y-101.26
X131.62Y-98.86
X131.69Y-125.425
X131.722Y-127.197
X131.79Y-72.041
X131.95Y-94.37
X132.19Y-100.39
X132.34Y-96.75
X132.58Y-92.66
X133.52Y-117.87
X133.706Y-71.55
X133.97Y-95.09
X134.01Y-99.06
X134.45Y-83.55
X135.35Y-88.42
X135.38Y-94.49
X135.38Y-97.69
X136.45Y-128.05
T2
X73.64Y-58.54
X73.7Y-63.81
X76.39Y-52.89
X78.89Y-52.89
X81.26Y-58.54
X81.32Y-63.81
X84.45Y-52.84
X86.95Y-52.84
T3
X66.35Y-53.22
X71.23Y-53.22
T4
X133.8Y-51.907
X133.8Y-54.407
X133.8Y-56.907
T5
X110.205Y-54.99
X112.705Y-54.99
X114.705Y-54.99
X117.205Y-54.99
T6
X52.225Y-53.235
X52.225Y-55.775
X52.225Y-58.315
X52.225Y-60.855
X102.93Y-47.1
X102.93Y-49.64
X102.93Y-52.18
X102.93Y-54.72
X102.93Y-57.26
X102.93Y-59.8
X102.93Y-62.34
X102.93Y-64.88
X110.42Y-58.5
X110.475Y-44.125
X110.475Y-48.625
X112.96Y-58.5
X115.5Y-58.5
X116.975Y-44.125
X116.975Y-48.625
X121.51Y-68.91
X124.05Y-68.91
X124.75Y-43.22
X125.76Y-57.21
X125.88Y-53.31
X126.59Y-68.91
X127.29Y-43.22
X128.0Y-120.54
X128.0Y-123.08
X128.0Y-125.62
X128.0Y-128.16
X128.0Y-130.7
X128.0Y-133.24
X128.0Y-135.78
X128.0Y-138.32
X128.3Y-57.21
X128.42Y-53.31
X129.13Y-68.91
X129.83Y-43.22
X131.67Y-68.91
X132.37Y-43.22
X134.21Y-68.91
X134.91Y-43.22
T7
X43.62Y-43.0
X43.65Y-68.15
X46.16Y-43.0
X46.19Y-68.15
X48.7Y-43.0
X48.73Y-68.15
X51.24Y-43.0
X51.27Y-68.15
X53.78Y-43.0
X53.81Y-68.15
X56.32Y-43.0
X56.35Y-68.15
X58.86Y-43.0
X58.89Y-68.15
X61.4Y-43.0
X61.43Y-68.15
X63.94Y-43.0
X63.97Y-68.15
X66.48Y-43.0
X66.51Y-68.15
X69.02Y-43.0
X69.05Y-68.15
X71.56Y-43.0
X71.59Y-68.15
X74.1Y-43.0
X74.13Y-68.15
X76.64Y-43.0
X76.67Y-68.15
X79.18Y-43.0
X79.21Y-68.15
X81.72Y-43.0
X81.75Y-68.15
X84.26Y-43.0
X84.29Y-68.15
X86.8Y-43.0
X86.83Y-68.15
X89.34Y-43.0
X89.37Y-68.15
X91.88Y-43.0
X91.91Y-68.15
X94.42Y-43.0
X94.45Y-68.15
X96.96Y-43.0
X96.99Y-68.15
T8
X107.03Y-52.28
X120.38Y-52.28
T9
X53.88Y-84.5
X53.88Y-104.12
X53.88Y-122.7
X53.88Y-140.71
X60.88Y-85.55
X60.88Y-105.17
X60.88Y-123.75
X60.88Y-141.76
X64.865Y-158.95
X71.865Y-160.0
X73.82Y-84.5
X73.82Y-104.12
X73.82Y-122.7
X73.82Y-140.71
X80.82Y-85.55
X80.82Y-105.17
X80.82Y-123.75
X80.82Y-141.76
X93.6Y-84.5
X93.6Y-104.12
X93.6Y-122.7
X93.6Y-140.71
X93.6Y-159.9
X100.6Y-85.55
X100.6Y-105.17
X100.6Y-123.75
X100.6Y-141.76
X100.6Y-160.95
X113.075Y-84.5
X113.45Y-151.75
X113.6Y-113.1
X120.075Y-85.55
X120.45Y-152.8
X120.6Y-114.15
M30
