%TF.GenerationSoftware,KiCad,Pcbnew,10.0.0*%
%TF.CreationDate,2026-04-15T14:16:50-04:00*%
%TF.ProjectId,numberpad,6e756d62-6572-4706-9164-2e6b69636164,rev?*%
%TF.SameCoordinates,Original*%
%TF.FileFunction,Other,User*%
%FSLAX46Y46*%
G04 Gerber Fmt 4.6, Leading zero omitted, Abs format (unit mm)*
G04 Created by KiCad (PCBNEW 10.0.0) date 2026-04-15 14:16:50*
%MOMM*%
%LPD*%
G01*
G04 APERTURE LIST*
%ADD10C,0.050000*%
G04 APERTURE END LIST*
%TO.C,D23*%
D10*
X53740000Y-111070000D02*
X61240000Y-111070000D01*
X53740000Y-114570000D02*
X53740000Y-111070000D01*
X61240000Y-111070000D02*
X61240000Y-114570000D01*
X61240000Y-114570000D02*
X53740000Y-114570000D01*
%TO.C,D17*%
X65480000Y-147400000D02*
X72980000Y-147400000D01*
X65480000Y-150900000D02*
X65480000Y-147400000D01*
X72980000Y-147400000D02*
X72980000Y-150900000D01*
X72980000Y-150900000D02*
X65480000Y-150900000D01*
%TO.C,D13*%
X64090000Y-70920000D02*
X64090000Y-73120000D01*
X64090000Y-73120000D02*
X68590000Y-73120000D01*
X68590000Y-70920000D02*
X64090000Y-70920000D01*
X68590000Y-70920000D02*
X68590000Y-73120000D01*
%TO.C,D1*%
X103780000Y-144890000D02*
X103780000Y-147090000D01*
X103780000Y-147090000D02*
X108280000Y-147090000D01*
X108280000Y-144890000D02*
X103780000Y-144890000D01*
X108280000Y-144890000D02*
X108280000Y-147090000D01*
%TO.C,D24*%
X73580000Y-111060000D02*
X81080000Y-111060000D01*
X73580000Y-114560000D02*
X73580000Y-111060000D01*
X81080000Y-111060000D02*
X81080000Y-114560000D01*
X81080000Y-114560000D02*
X73580000Y-114560000D01*
%TO.C,D2*%
X66170000Y-140490000D02*
X66170000Y-144990000D01*
X66170000Y-140490000D02*
X68370000Y-140490000D01*
X66170000Y-144990000D02*
X68370000Y-144990000D01*
X68370000Y-144990000D02*
X68370000Y-140490000D01*
%TO.C,D6*%
X62070000Y-108160000D02*
X62070000Y-110360000D01*
X62070000Y-110360000D02*
X66570000Y-110360000D01*
X66570000Y-108160000D02*
X62070000Y-108160000D01*
X66570000Y-108160000D02*
X66570000Y-110360000D01*
%TO.C,D3*%
X85950000Y-140580000D02*
X85950000Y-145080000D01*
X85950000Y-140580000D02*
X88150000Y-140580000D01*
X85950000Y-145080000D02*
X88150000Y-145080000D01*
X88150000Y-145080000D02*
X88150000Y-140580000D01*
%TO.C,D11*%
X100690000Y-89710000D02*
X100690000Y-91910000D01*
X100690000Y-91910000D02*
X105190000Y-91910000D01*
X105190000Y-89710000D02*
X100690000Y-89710000D01*
X105190000Y-89710000D02*
X105190000Y-91910000D01*
%TO.C,SW17*%
X109375000Y-49725000D02*
X109375000Y-43025000D01*
X118075000Y-43025000D02*
X109375000Y-43025000D01*
X118075000Y-43025000D02*
X118075000Y-49725000D01*
X118075000Y-49725000D02*
X109375000Y-49725000D01*
%TO.C,D8*%
X100770000Y-108060000D02*
X100770000Y-110260000D01*
X100770000Y-110260000D02*
X105270000Y-110260000D01*
X105270000Y-108060000D02*
X100770000Y-108060000D01*
X105270000Y-108060000D02*
X105270000Y-110260000D01*
%TO.C,D25*%
X93640000Y-111070000D02*
X101140000Y-111070000D01*
X93640000Y-114570000D02*
X93640000Y-111070000D01*
X101140000Y-111070000D02*
X101140000Y-114570000D01*
X101140000Y-114570000D02*
X93640000Y-114570000D01*
%TO.C,D12*%
X108527500Y-103070000D02*
X108527500Y-105270000D01*
X108527500Y-105270000D02*
X113027500Y-105270000D01*
X113027500Y-103070000D02*
X108527500Y-103070000D01*
X113027500Y-103070000D02*
X113027500Y-105270000D01*
%TO.C,D28*%
X93750000Y-92475000D02*
X101250000Y-92475000D01*
X93750000Y-95975000D02*
X93750000Y-92475000D01*
X101250000Y-92475000D02*
X101250000Y-95975000D01*
X101250000Y-95975000D02*
X93750000Y-95975000D01*
%TO.C,D31*%
X74500000Y-73010000D02*
X82000000Y-73010000D01*
X74500000Y-76510000D02*
X74500000Y-73010000D01*
X82000000Y-73010000D02*
X82000000Y-76510000D01*
X82000000Y-76510000D02*
X74500000Y-76510000D01*
%TO.C,D10*%
X81050000Y-89570000D02*
X81050000Y-91770000D01*
X81050000Y-91770000D02*
X85550000Y-91770000D01*
X85550000Y-89570000D02*
X81050000Y-89570000D01*
X85550000Y-89570000D02*
X85550000Y-91770000D01*
%TO.C,D30*%
X54260000Y-72950000D02*
X61760000Y-72950000D01*
X54260000Y-76450000D02*
X54260000Y-72950000D01*
X61760000Y-72950000D02*
X61760000Y-76450000D01*
X61760000Y-76450000D02*
X54260000Y-76450000D01*
%TO.C,D5*%
X127650000Y-150700000D02*
X127650000Y-155200000D01*
X127650000Y-150700000D02*
X129850000Y-150700000D01*
X127650000Y-155200000D02*
X129850000Y-155200000D01*
X129850000Y-155200000D02*
X129850000Y-150700000D01*
%TO.C,D18*%
X93980000Y-148300000D02*
X101480000Y-148300000D01*
X93980000Y-151800000D02*
X93980000Y-148300000D01*
X101480000Y-148300000D02*
X101480000Y-151800000D01*
X101480000Y-151800000D02*
X93980000Y-151800000D01*
%TO.C,D4*%
X105340000Y-128620000D02*
X105340000Y-133120000D01*
X105340000Y-128620000D02*
X107540000Y-128620000D01*
X105340000Y-133120000D02*
X107540000Y-133120000D01*
X107540000Y-133120000D02*
X107540000Y-128620000D01*
%TO.C,D19*%
X54040000Y-129140000D02*
X61540000Y-129140000D01*
X54040000Y-132640000D02*
X54040000Y-129140000D01*
X61540000Y-129140000D02*
X61540000Y-132640000D01*
X61540000Y-132640000D02*
X54040000Y-132640000D01*
%TO.C,D20*%
X73590000Y-129070000D02*
X81090000Y-129070000D01*
X73590000Y-132570000D02*
X73590000Y-129070000D01*
X81090000Y-129070000D02*
X81090000Y-132570000D01*
X81090000Y-132570000D02*
X73590000Y-132570000D01*
%TO.C,D32*%
X93900000Y-72980000D02*
X101400000Y-72980000D01*
X93900000Y-76480000D02*
X93900000Y-72980000D01*
X101400000Y-72980000D02*
X101400000Y-76480000D01*
X101400000Y-76480000D02*
X93900000Y-76480000D01*
%TO.C,D14*%
X80600000Y-70550000D02*
X80600000Y-72750000D01*
X80600000Y-72750000D02*
X85100000Y-72750000D01*
X85100000Y-70550000D02*
X80600000Y-70550000D01*
X85100000Y-70550000D02*
X85100000Y-72750000D01*
%TO.C,D26*%
X54225000Y-92575000D02*
X61725000Y-92575000D01*
X54225000Y-96075000D02*
X54225000Y-92575000D01*
X61725000Y-92575000D02*
X61725000Y-96075000D01*
X61725000Y-96075000D02*
X54225000Y-96075000D01*
%TO.C,D21*%
X93590000Y-129010000D02*
X101090000Y-129010000D01*
X93590000Y-132510000D02*
X93590000Y-129010000D01*
X101090000Y-129010000D02*
X101090000Y-132510000D01*
X101090000Y-132510000D02*
X93590000Y-132510000D01*
%TO.C,U2*%
X41240000Y-41650000D02*
X99405000Y-41655000D01*
X41240000Y-69400003D02*
X41240000Y-41650000D01*
X99405000Y-41655000D02*
X99415000Y-69405000D01*
X99415000Y-69405000D02*
X41240000Y-69400003D01*
%TO.C,D29*%
X113975000Y-101525000D02*
X121475000Y-101525000D01*
X113975000Y-105025000D02*
X113975000Y-101525000D01*
X121475000Y-101525000D02*
X121475000Y-105025000D01*
X121475000Y-105025000D02*
X113975000Y-105025000D01*
%TO.C,D33*%
X113290000Y-73120000D02*
X120790000Y-73120000D01*
X113290000Y-76620000D02*
X113290000Y-73120000D01*
X120790000Y-73120000D02*
X120790000Y-76620000D01*
X120790000Y-76620000D02*
X113290000Y-76620000D01*
%TO.C,D22*%
X113975000Y-139875000D02*
X121475000Y-139875000D01*
X113975000Y-143375000D02*
X113975000Y-139875000D01*
X121475000Y-139875000D02*
X121475000Y-143375000D01*
X121475000Y-143375000D02*
X113975000Y-143375000D01*
%TO.C,S1*%
X131550000Y-48357500D02*
X136050000Y-48357500D01*
X131550000Y-60457500D02*
X131550000Y-48357500D01*
X136050000Y-48357500D02*
X136050000Y-60457500D01*
X136050000Y-60457500D02*
X131550000Y-60457500D01*
%TO.C,D16*%
X118697500Y-70820000D02*
X118697500Y-73020000D01*
X118697500Y-73020000D02*
X123197500Y-73020000D01*
X123197500Y-70820000D02*
X118697500Y-70820000D01*
X123197500Y-70820000D02*
X123197500Y-73020000D01*
%TO.C,D27*%
X73925000Y-92725000D02*
X81425000Y-92725000D01*
X73925000Y-96225000D02*
X73925000Y-92725000D01*
X81425000Y-92725000D02*
X81425000Y-96225000D01*
X81425000Y-96225000D02*
X73925000Y-96225000D01*
%TO.C,D9*%
X62080000Y-89600000D02*
X62080000Y-91800000D01*
X62080000Y-91800000D02*
X66580000Y-91800000D01*
X66580000Y-89600000D02*
X62080000Y-89600000D01*
X66580000Y-89600000D02*
X66580000Y-91800000D01*
%TO.C,D15*%
X99950000Y-70660000D02*
X99950000Y-72860000D01*
X99950000Y-72860000D02*
X104450000Y-72860000D01*
X104450000Y-70660000D02*
X99950000Y-70660000D01*
X104450000Y-70660000D02*
X104450000Y-72860000D01*
%TO.C,J6*%
X126250000Y-118740000D02*
X138550000Y-118740000D01*
X126250000Y-140090000D02*
X126250000Y-118740000D01*
X138550000Y-118740000D02*
X138550000Y-140090000D01*
X138550000Y-140090000D02*
X126250000Y-140090000D01*
%TO.C,D7*%
X81570000Y-108190000D02*
X81570000Y-110390000D01*
X81570000Y-110390000D02*
X86070000Y-110390000D01*
X86070000Y-108190000D02*
X81570000Y-108190000D01*
X86070000Y-108190000D02*
X86070000Y-110390000D01*
%TO.C,D0*%
X74680000Y-145460000D02*
X74680000Y-147660000D01*
X74680000Y-147660000D02*
X79180000Y-147660000D01*
X79180000Y-145460000D02*
X74680000Y-145460000D01*
X79180000Y-145460000D02*
X79180000Y-147660000D01*
%TD*%
M02*
