%TF.GenerationSoftware,KiCad,Pcbnew,10.0.0*%
%TF.CreationDate,2026-04-15T14:16:50-04:00*%
%TF.ProjectId,numberpad,6e756d62-6572-4706-9164-2e6b69636164,rev?*%
%TF.SameCoordinates,Original*%
%TF.FileFunction,Legend,Top*%
%TF.FilePolarity,Positive*%
%FSLAX46Y46*%
G04 Gerber Fmt 4.6, Leading zero omitted, Abs format (unit mm)*
G04 Created by KiCad (PCBNEW 10.0.0) date 2026-04-15 14:16:50*
%MOMM*%
%LPD*%
G01*
G04 APERTURE LIST*
%ADD10C,0.100000*%
%ADD11C,0.150000*%
%ADD12C,0.200000*%
%ADD13C,0.120000*%
%ADD14C,0.140000*%
%ADD15C,0.152400*%
%ADD16C,0.000000*%
%ADD17C,0.127000*%
G04 APERTURE END LIST*
D10*
X64232455Y-112195752D02*
X64232455Y-112862419D01*
X63994360Y-111814800D02*
X63756265Y-112529085D01*
X63756265Y-112529085D02*
X64375312Y-112529085D01*
X64377693Y-130792419D02*
X63806265Y-130792419D01*
X64091979Y-130792419D02*
X64091979Y-129792419D01*
X64091979Y-129792419D02*
X63996741Y-129935276D01*
X63996741Y-129935276D02*
X63901503Y-130030514D01*
X63901503Y-130030514D02*
X63806265Y-130078133D01*
X63778646Y-93162419D02*
X64445312Y-93162419D01*
X64445312Y-93162419D02*
X64016741Y-94162419D01*
X84368169Y-73614800D02*
X83511027Y-74900514D01*
X84280074Y-111752419D02*
X83803884Y-111752419D01*
X83803884Y-111752419D02*
X83756265Y-112228609D01*
X83756265Y-112228609D02*
X83803884Y-112180990D01*
X83803884Y-112180990D02*
X83899122Y-112133371D01*
X83899122Y-112133371D02*
X84137217Y-112133371D01*
X84137217Y-112133371D02*
X84232455Y-112180990D01*
X84232455Y-112180990D02*
X84280074Y-112228609D01*
X84280074Y-112228609D02*
X84327693Y-112323847D01*
X84327693Y-112323847D02*
X84327693Y-112561942D01*
X84327693Y-112561942D02*
X84280074Y-112657180D01*
X84280074Y-112657180D02*
X84232455Y-112704800D01*
X84232455Y-112704800D02*
X84137217Y-112752419D01*
X84137217Y-112752419D02*
X83899122Y-112752419D01*
X83899122Y-112752419D02*
X83803884Y-112704800D01*
X83803884Y-112704800D02*
X83756265Y-112657180D01*
X83956741Y-93590990D02*
X83861503Y-93543371D01*
X83861503Y-93543371D02*
X83813884Y-93495752D01*
X83813884Y-93495752D02*
X83766265Y-93400514D01*
X83766265Y-93400514D02*
X83766265Y-93352895D01*
X83766265Y-93352895D02*
X83813884Y-93257657D01*
X83813884Y-93257657D02*
X83861503Y-93210038D01*
X83861503Y-93210038D02*
X83956741Y-93162419D01*
X83956741Y-93162419D02*
X84147217Y-93162419D01*
X84147217Y-93162419D02*
X84242455Y-93210038D01*
X84242455Y-93210038D02*
X84290074Y-93257657D01*
X84290074Y-93257657D02*
X84337693Y-93352895D01*
X84337693Y-93352895D02*
X84337693Y-93400514D01*
X84337693Y-93400514D02*
X84290074Y-93495752D01*
X84290074Y-93495752D02*
X84242455Y-93543371D01*
X84242455Y-93543371D02*
X84147217Y-93590990D01*
X84147217Y-93590990D02*
X83956741Y-93590990D01*
X83956741Y-93590990D02*
X83861503Y-93638609D01*
X83861503Y-93638609D02*
X83813884Y-93686228D01*
X83813884Y-93686228D02*
X83766265Y-93781466D01*
X83766265Y-93781466D02*
X83766265Y-93971942D01*
X83766265Y-93971942D02*
X83813884Y-94067180D01*
X83813884Y-94067180D02*
X83861503Y-94114800D01*
X83861503Y-94114800D02*
X83956741Y-94162419D01*
X83956741Y-94162419D02*
X84147217Y-94162419D01*
X84147217Y-94162419D02*
X84242455Y-94114800D01*
X84242455Y-94114800D02*
X84290074Y-94067180D01*
X84290074Y-94067180D02*
X84337693Y-93971942D01*
X84337693Y-93971942D02*
X84337693Y-93781466D01*
X84337693Y-93781466D02*
X84290074Y-93686228D01*
X84290074Y-93686228D02*
X84242455Y-93638609D01*
X84242455Y-93638609D02*
X84147217Y-93590990D01*
X83776265Y-129877657D02*
X83823884Y-129830038D01*
X83823884Y-129830038D02*
X83919122Y-129782419D01*
X83919122Y-129782419D02*
X84157217Y-129782419D01*
X84157217Y-129782419D02*
X84252455Y-129830038D01*
X84252455Y-129830038D02*
X84300074Y-129877657D01*
X84300074Y-129877657D02*
X84347693Y-129972895D01*
X84347693Y-129972895D02*
X84347693Y-130068133D01*
X84347693Y-130068133D02*
X84300074Y-130210990D01*
X84300074Y-130210990D02*
X83728646Y-130782419D01*
X83728646Y-130782419D02*
X84347693Y-130782419D01*
X103259598Y-150405752D02*
X103021503Y-150405752D01*
X103021503Y-150405752D02*
X103021503Y-148977180D01*
X103021503Y-148977180D02*
X103259598Y-148977180D01*
X103640551Y-149977180D02*
X103688170Y-150024800D01*
X103688170Y-150024800D02*
X103640551Y-150072419D01*
X103640551Y-150072419D02*
X103592932Y-150024800D01*
X103592932Y-150024800D02*
X103640551Y-149977180D01*
X103640551Y-149977180D02*
X103640551Y-150072419D01*
X104021503Y-150405752D02*
X104259598Y-150405752D01*
X104259598Y-150405752D02*
X104259598Y-148977180D01*
X104259598Y-148977180D02*
X104021503Y-148977180D01*
X103862455Y-111852419D02*
X103671979Y-111852419D01*
X103671979Y-111852419D02*
X103576741Y-111900038D01*
X103576741Y-111900038D02*
X103529122Y-111947657D01*
X103529122Y-111947657D02*
X103433884Y-112090514D01*
X103433884Y-112090514D02*
X103386265Y-112280990D01*
X103386265Y-112280990D02*
X103386265Y-112661942D01*
X103386265Y-112661942D02*
X103433884Y-112757180D01*
X103433884Y-112757180D02*
X103481503Y-112804800D01*
X103481503Y-112804800D02*
X103576741Y-112852419D01*
X103576741Y-112852419D02*
X103767217Y-112852419D01*
X103767217Y-112852419D02*
X103862455Y-112804800D01*
X103862455Y-112804800D02*
X103910074Y-112757180D01*
X103910074Y-112757180D02*
X103957693Y-112661942D01*
X103957693Y-112661942D02*
X103957693Y-112423847D01*
X103957693Y-112423847D02*
X103910074Y-112328609D01*
X103910074Y-112328609D02*
X103862455Y-112280990D01*
X103862455Y-112280990D02*
X103767217Y-112233371D01*
X103767217Y-112233371D02*
X103576741Y-112233371D01*
X103576741Y-112233371D02*
X103481503Y-112280990D01*
X103481503Y-112280990D02*
X103433884Y-112328609D01*
X103433884Y-112328609D02*
X103386265Y-112423847D01*
X103531503Y-94162419D02*
X103721979Y-94162419D01*
X103721979Y-94162419D02*
X103817217Y-94114800D01*
X103817217Y-94114800D02*
X103864836Y-94067180D01*
X103864836Y-94067180D02*
X103960074Y-93924323D01*
X103960074Y-93924323D02*
X104007693Y-93733847D01*
X104007693Y-93733847D02*
X104007693Y-93352895D01*
X104007693Y-93352895D02*
X103960074Y-93257657D01*
X103960074Y-93257657D02*
X103912455Y-93210038D01*
X103912455Y-93210038D02*
X103817217Y-93162419D01*
X103817217Y-93162419D02*
X103626741Y-93162419D01*
X103626741Y-93162419D02*
X103531503Y-93210038D01*
X103531503Y-93210038D02*
X103483884Y-93257657D01*
X103483884Y-93257657D02*
X103436265Y-93352895D01*
X103436265Y-93352895D02*
X103436265Y-93590990D01*
X103436265Y-93590990D02*
X103483884Y-93686228D01*
X103483884Y-93686228D02*
X103531503Y-93733847D01*
X103531503Y-93733847D02*
X103626741Y-93781466D01*
X103626741Y-93781466D02*
X103817217Y-93781466D01*
X103817217Y-93781466D02*
X103912455Y-93733847D01*
X103912455Y-93733847D02*
X103960074Y-93686228D01*
X103960074Y-93686228D02*
X104007693Y-93590990D01*
X103716741Y-73822419D02*
X103716741Y-74060514D01*
X103478646Y-73965276D02*
X103716741Y-74060514D01*
X103716741Y-74060514D02*
X103954836Y-73965276D01*
X103573884Y-74250990D02*
X103716741Y-74060514D01*
X103716741Y-74060514D02*
X103859598Y-74250990D01*
X103638646Y-129782419D02*
X104257693Y-129782419D01*
X104257693Y-129782419D02*
X103924360Y-130163371D01*
X103924360Y-130163371D02*
X104067217Y-130163371D01*
X104067217Y-130163371D02*
X104162455Y-130210990D01*
X104162455Y-130210990D02*
X104210074Y-130258609D01*
X104210074Y-130258609D02*
X104257693Y-130353847D01*
X104257693Y-130353847D02*
X104257693Y-130591942D01*
X104257693Y-130591942D02*
X104210074Y-130687180D01*
X104210074Y-130687180D02*
X104162455Y-130734800D01*
X104162455Y-130734800D02*
X104067217Y-130782419D01*
X104067217Y-130782419D02*
X103781503Y-130782419D01*
X103781503Y-130782419D02*
X103686265Y-130734800D01*
X103686265Y-130734800D02*
X103638646Y-130687180D01*
X110133884Y-154648609D02*
X110467217Y-154648609D01*
X110610074Y-155172419D02*
X110133884Y-155172419D01*
X110133884Y-155172419D02*
X110133884Y-154172419D01*
X110133884Y-154172419D02*
X110610074Y-154172419D01*
X111038646Y-154505752D02*
X111038646Y-155172419D01*
X111038646Y-154600990D02*
X111086265Y-154553371D01*
X111086265Y-154553371D02*
X111181503Y-154505752D01*
X111181503Y-154505752D02*
X111324360Y-154505752D01*
X111324360Y-154505752D02*
X111419598Y-154553371D01*
X111419598Y-154553371D02*
X111467217Y-154648609D01*
X111467217Y-154648609D02*
X111467217Y-155172419D01*
X111800551Y-154505752D02*
X112181503Y-154505752D01*
X111943408Y-154172419D02*
X111943408Y-155029561D01*
X111943408Y-155029561D02*
X111991027Y-155124800D01*
X111991027Y-155124800D02*
X112086265Y-155172419D01*
X112086265Y-155172419D02*
X112181503Y-155172419D01*
X112895789Y-155124800D02*
X112800551Y-155172419D01*
X112800551Y-155172419D02*
X112610075Y-155172419D01*
X112610075Y-155172419D02*
X112514837Y-155124800D01*
X112514837Y-155124800D02*
X112467218Y-155029561D01*
X112467218Y-155029561D02*
X112467218Y-154648609D01*
X112467218Y-154648609D02*
X112514837Y-154553371D01*
X112514837Y-154553371D02*
X112610075Y-154505752D01*
X112610075Y-154505752D02*
X112800551Y-154505752D01*
X112800551Y-154505752D02*
X112895789Y-154553371D01*
X112895789Y-154553371D02*
X112943408Y-154648609D01*
X112943408Y-154648609D02*
X112943408Y-154743847D01*
X112943408Y-154743847D02*
X112467218Y-154839085D01*
X113371980Y-155172419D02*
X113371980Y-154505752D01*
X113371980Y-154696228D02*
X113419599Y-154600990D01*
X113419599Y-154600990D02*
X113467218Y-154553371D01*
X113467218Y-154553371D02*
X113562456Y-154505752D01*
X113562456Y-154505752D02*
X113657694Y-154505752D01*
X115467218Y-154124800D02*
X114610076Y-155410514D01*
X116562457Y-154648609D02*
X117324362Y-154648609D01*
X117324362Y-154934323D02*
X116562457Y-154934323D01*
X122653884Y-74441466D02*
X123415789Y-74441466D01*
X123373884Y-102541466D02*
X124135789Y-102541466D01*
X123754836Y-102922419D02*
X123754836Y-102160514D01*
X52952419Y-81286115D02*
X51952419Y-81286115D01*
X51952419Y-81286115D02*
X51952419Y-80905163D01*
X51952419Y-80905163D02*
X52000038Y-80809925D01*
X52000038Y-80809925D02*
X52047657Y-80762306D01*
X52047657Y-80762306D02*
X52142895Y-80714687D01*
X52142895Y-80714687D02*
X52285752Y-80714687D01*
X52285752Y-80714687D02*
X52380990Y-80762306D01*
X52380990Y-80762306D02*
X52428609Y-80809925D01*
X52428609Y-80809925D02*
X52476228Y-80905163D01*
X52476228Y-80905163D02*
X52476228Y-81286115D01*
X52952419Y-80286115D02*
X52285752Y-80286115D01*
X52476228Y-80286115D02*
X52380990Y-80238496D01*
X52380990Y-80238496D02*
X52333371Y-80190877D01*
X52333371Y-80190877D02*
X52285752Y-80095639D01*
X52285752Y-80095639D02*
X52285752Y-80000401D01*
X52952419Y-79524210D02*
X52904800Y-79619448D01*
X52904800Y-79619448D02*
X52857180Y-79667067D01*
X52857180Y-79667067D02*
X52761942Y-79714686D01*
X52761942Y-79714686D02*
X52476228Y-79714686D01*
X52476228Y-79714686D02*
X52380990Y-79667067D01*
X52380990Y-79667067D02*
X52333371Y-79619448D01*
X52333371Y-79619448D02*
X52285752Y-79524210D01*
X52285752Y-79524210D02*
X52285752Y-79381353D01*
X52285752Y-79381353D02*
X52333371Y-79286115D01*
X52333371Y-79286115D02*
X52380990Y-79238496D01*
X52380990Y-79238496D02*
X52476228Y-79190877D01*
X52476228Y-79190877D02*
X52761942Y-79190877D01*
X52761942Y-79190877D02*
X52857180Y-79238496D01*
X52857180Y-79238496D02*
X52904800Y-79286115D01*
X52904800Y-79286115D02*
X52952419Y-79381353D01*
X52952419Y-79381353D02*
X52952419Y-79524210D01*
X52285752Y-78905162D02*
X52285752Y-78524210D01*
X52952419Y-78762305D02*
X52095276Y-78762305D01*
X52095276Y-78762305D02*
X52000038Y-78714686D01*
X52000038Y-78714686D02*
X51952419Y-78619448D01*
X51952419Y-78619448D02*
X51952419Y-78524210D01*
X52952419Y-78190876D02*
X52285752Y-78190876D01*
X51952419Y-78190876D02*
X52000038Y-78238495D01*
X52000038Y-78238495D02*
X52047657Y-78190876D01*
X52047657Y-78190876D02*
X52000038Y-78143257D01*
X52000038Y-78143257D02*
X51952419Y-78190876D01*
X51952419Y-78190876D02*
X52047657Y-78190876D01*
X52952419Y-77571829D02*
X52904800Y-77667067D01*
X52904800Y-77667067D02*
X52809561Y-77714686D01*
X52809561Y-77714686D02*
X51952419Y-77714686D01*
X52904800Y-76809924D02*
X52952419Y-76905162D01*
X52952419Y-76905162D02*
X52952419Y-77095638D01*
X52952419Y-77095638D02*
X52904800Y-77190876D01*
X52904800Y-77190876D02*
X52809561Y-77238495D01*
X52809561Y-77238495D02*
X52428609Y-77238495D01*
X52428609Y-77238495D02*
X52333371Y-77190876D01*
X52333371Y-77190876D02*
X52285752Y-77095638D01*
X52285752Y-77095638D02*
X52285752Y-76905162D01*
X52285752Y-76905162D02*
X52333371Y-76809924D01*
X52333371Y-76809924D02*
X52428609Y-76762305D01*
X52428609Y-76762305D02*
X52523847Y-76762305D01*
X52523847Y-76762305D02*
X52619085Y-77238495D01*
D11*
X75107255Y-148069819D02*
X75202493Y-148069819D01*
X75202493Y-148069819D02*
X75297731Y-148117438D01*
X75297731Y-148117438D02*
X75345350Y-148165057D01*
X75345350Y-148165057D02*
X75392969Y-148260295D01*
X75392969Y-148260295D02*
X75440588Y-148450771D01*
X75440588Y-148450771D02*
X75440588Y-148688866D01*
X75440588Y-148688866D02*
X75392969Y-148879342D01*
X75392969Y-148879342D02*
X75345350Y-148974580D01*
X75345350Y-148974580D02*
X75297731Y-149022200D01*
X75297731Y-149022200D02*
X75202493Y-149069819D01*
X75202493Y-149069819D02*
X75107255Y-149069819D01*
X75107255Y-149069819D02*
X75012017Y-149022200D01*
X75012017Y-149022200D02*
X74964398Y-148974580D01*
X74964398Y-148974580D02*
X74916779Y-148879342D01*
X74916779Y-148879342D02*
X74869160Y-148688866D01*
X74869160Y-148688866D02*
X74869160Y-148450771D01*
X74869160Y-148450771D02*
X74916779Y-148260295D01*
X74916779Y-148260295D02*
X74964398Y-148165057D01*
X74964398Y-148165057D02*
X75012017Y-148117438D01*
X75012017Y-148117438D02*
X75107255Y-148069819D01*
X125841541Y-59359819D02*
X126460588Y-59359819D01*
X126460588Y-59359819D02*
X126127255Y-59740771D01*
X126127255Y-59740771D02*
X126270112Y-59740771D01*
X126270112Y-59740771D02*
X126365350Y-59788390D01*
X126365350Y-59788390D02*
X126412969Y-59836009D01*
X126412969Y-59836009D02*
X126460588Y-59931247D01*
X126460588Y-59931247D02*
X126460588Y-60169342D01*
X126460588Y-60169342D02*
X126412969Y-60264580D01*
X126412969Y-60264580D02*
X126365350Y-60312200D01*
X126365350Y-60312200D02*
X126270112Y-60359819D01*
X126270112Y-60359819D02*
X125984398Y-60359819D01*
X125984398Y-60359819D02*
X125889160Y-60312200D01*
X125889160Y-60312200D02*
X125841541Y-60264580D01*
X126746303Y-59359819D02*
X127079636Y-60359819D01*
X127079636Y-60359819D02*
X127412969Y-59359819D01*
X127651065Y-59359819D02*
X128270112Y-59359819D01*
X128270112Y-59359819D02*
X127936779Y-59740771D01*
X127936779Y-59740771D02*
X128079636Y-59740771D01*
X128079636Y-59740771D02*
X128174874Y-59788390D01*
X128174874Y-59788390D02*
X128222493Y-59836009D01*
X128222493Y-59836009D02*
X128270112Y-59931247D01*
X128270112Y-59931247D02*
X128270112Y-60169342D01*
X128270112Y-60169342D02*
X128222493Y-60264580D01*
X128222493Y-60264580D02*
X128174874Y-60312200D01*
X128174874Y-60312200D02*
X128079636Y-60359819D01*
X128079636Y-60359819D02*
X127793922Y-60359819D01*
X127793922Y-60359819D02*
X127698684Y-60312200D01*
X127698684Y-60312200D02*
X127651065Y-60264580D01*
X126273922Y-45209819D02*
X126607255Y-46209819D01*
X126607255Y-46209819D02*
X126940588Y-45209819D01*
X127416779Y-46209819D02*
X127321541Y-46162200D01*
X127321541Y-46162200D02*
X127273922Y-46114580D01*
X127273922Y-46114580D02*
X127226303Y-46019342D01*
X127226303Y-46019342D02*
X127226303Y-45733628D01*
X127226303Y-45733628D02*
X127273922Y-45638390D01*
X127273922Y-45638390D02*
X127321541Y-45590771D01*
X127321541Y-45590771D02*
X127416779Y-45543152D01*
X127416779Y-45543152D02*
X127559636Y-45543152D01*
X127559636Y-45543152D02*
X127654874Y-45590771D01*
X127654874Y-45590771D02*
X127702493Y-45638390D01*
X127702493Y-45638390D02*
X127750112Y-45733628D01*
X127750112Y-45733628D02*
X127750112Y-46019342D01*
X127750112Y-46019342D02*
X127702493Y-46114580D01*
X127702493Y-46114580D02*
X127654874Y-46162200D01*
X127654874Y-46162200D02*
X127559636Y-46209819D01*
X127559636Y-46209819D02*
X127416779Y-46209819D01*
X128321541Y-46209819D02*
X128226303Y-46162200D01*
X128226303Y-46162200D02*
X128178684Y-46066961D01*
X128178684Y-46066961D02*
X128178684Y-45209819D01*
X128464399Y-46305057D02*
X129226303Y-46305057D01*
X129464399Y-46209819D02*
X129464399Y-45209819D01*
X129464399Y-45209819D02*
X129845351Y-45209819D01*
X129845351Y-45209819D02*
X129940589Y-45257438D01*
X129940589Y-45257438D02*
X129988208Y-45305057D01*
X129988208Y-45305057D02*
X130035827Y-45400295D01*
X130035827Y-45400295D02*
X130035827Y-45543152D01*
X130035827Y-45543152D02*
X129988208Y-45638390D01*
X129988208Y-45638390D02*
X129940589Y-45686009D01*
X129940589Y-45686009D02*
X129845351Y-45733628D01*
X129845351Y-45733628D02*
X129464399Y-45733628D01*
X130607256Y-46209819D02*
X130512018Y-46162200D01*
X130512018Y-46162200D02*
X130464399Y-46114580D01*
X130464399Y-46114580D02*
X130416780Y-46019342D01*
X130416780Y-46019342D02*
X130416780Y-45733628D01*
X130416780Y-45733628D02*
X130464399Y-45638390D01*
X130464399Y-45638390D02*
X130512018Y-45590771D01*
X130512018Y-45590771D02*
X130607256Y-45543152D01*
X130607256Y-45543152D02*
X130750113Y-45543152D01*
X130750113Y-45543152D02*
X130845351Y-45590771D01*
X130845351Y-45590771D02*
X130892970Y-45638390D01*
X130892970Y-45638390D02*
X130940589Y-45733628D01*
X130940589Y-45733628D02*
X130940589Y-46019342D01*
X130940589Y-46019342D02*
X130892970Y-46114580D01*
X130892970Y-46114580D02*
X130845351Y-46162200D01*
X130845351Y-46162200D02*
X130750113Y-46209819D01*
X130750113Y-46209819D02*
X130607256Y-46209819D01*
X131226304Y-45543152D02*
X131607256Y-45543152D01*
X131369161Y-45209819D02*
X131369161Y-46066961D01*
X131369161Y-46066961D02*
X131416780Y-46162200D01*
X131416780Y-46162200D02*
X131512018Y-46209819D01*
X131512018Y-46209819D02*
X131607256Y-46209819D01*
X127802969Y-49959819D02*
X127326779Y-49959819D01*
X127326779Y-49959819D02*
X127279160Y-50436009D01*
X127279160Y-50436009D02*
X127326779Y-50388390D01*
X127326779Y-50388390D02*
X127422017Y-50340771D01*
X127422017Y-50340771D02*
X127660112Y-50340771D01*
X127660112Y-50340771D02*
X127755350Y-50388390D01*
X127755350Y-50388390D02*
X127802969Y-50436009D01*
X127802969Y-50436009D02*
X127850588Y-50531247D01*
X127850588Y-50531247D02*
X127850588Y-50769342D01*
X127850588Y-50769342D02*
X127802969Y-50864580D01*
X127802969Y-50864580D02*
X127755350Y-50912200D01*
X127755350Y-50912200D02*
X127660112Y-50959819D01*
X127660112Y-50959819D02*
X127422017Y-50959819D01*
X127422017Y-50959819D02*
X127326779Y-50912200D01*
X127326779Y-50912200D02*
X127279160Y-50864580D01*
X128136303Y-49959819D02*
X128469636Y-50959819D01*
X128469636Y-50959819D02*
X128802969Y-49959819D01*
X100912200Y-58880839D02*
X100959819Y-58737982D01*
X100959819Y-58737982D02*
X100959819Y-58499887D01*
X100959819Y-58499887D02*
X100912200Y-58404649D01*
X100912200Y-58404649D02*
X100864580Y-58357030D01*
X100864580Y-58357030D02*
X100769342Y-58309411D01*
X100769342Y-58309411D02*
X100674104Y-58309411D01*
X100674104Y-58309411D02*
X100578866Y-58357030D01*
X100578866Y-58357030D02*
X100531247Y-58404649D01*
X100531247Y-58404649D02*
X100483628Y-58499887D01*
X100483628Y-58499887D02*
X100436009Y-58690363D01*
X100436009Y-58690363D02*
X100388390Y-58785601D01*
X100388390Y-58785601D02*
X100340771Y-58833220D01*
X100340771Y-58833220D02*
X100245533Y-58880839D01*
X100245533Y-58880839D02*
X100150295Y-58880839D01*
X100150295Y-58880839D02*
X100055057Y-58833220D01*
X100055057Y-58833220D02*
X100007438Y-58785601D01*
X100007438Y-58785601D02*
X99959819Y-58690363D01*
X99959819Y-58690363D02*
X99959819Y-58452268D01*
X99959819Y-58452268D02*
X100007438Y-58309411D01*
X100912200Y-57452268D02*
X100959819Y-57547506D01*
X100959819Y-57547506D02*
X100959819Y-57737982D01*
X100959819Y-57737982D02*
X100912200Y-57833220D01*
X100912200Y-57833220D02*
X100864580Y-57880839D01*
X100864580Y-57880839D02*
X100769342Y-57928458D01*
X100769342Y-57928458D02*
X100483628Y-57928458D01*
X100483628Y-57928458D02*
X100388390Y-57880839D01*
X100388390Y-57880839D02*
X100340771Y-57833220D01*
X100340771Y-57833220D02*
X100293152Y-57737982D01*
X100293152Y-57737982D02*
X100293152Y-57547506D01*
X100293152Y-57547506D02*
X100340771Y-57452268D01*
X100959819Y-57023696D02*
X100293152Y-57023696D01*
X100483628Y-57023696D02*
X100388390Y-56976077D01*
X100388390Y-56976077D02*
X100340771Y-56928458D01*
X100340771Y-56928458D02*
X100293152Y-56833220D01*
X100293152Y-56833220D02*
X100293152Y-56737982D01*
X100912200Y-56023696D02*
X100959819Y-56118934D01*
X100959819Y-56118934D02*
X100959819Y-56309410D01*
X100959819Y-56309410D02*
X100912200Y-56404648D01*
X100912200Y-56404648D02*
X100816961Y-56452267D01*
X100816961Y-56452267D02*
X100436009Y-56452267D01*
X100436009Y-56452267D02*
X100340771Y-56404648D01*
X100340771Y-56404648D02*
X100293152Y-56309410D01*
X100293152Y-56309410D02*
X100293152Y-56118934D01*
X100293152Y-56118934D02*
X100340771Y-56023696D01*
X100340771Y-56023696D02*
X100436009Y-55976077D01*
X100436009Y-55976077D02*
X100531247Y-55976077D01*
X100531247Y-55976077D02*
X100626485Y-56452267D01*
X100912200Y-55166553D02*
X100959819Y-55261791D01*
X100959819Y-55261791D02*
X100959819Y-55452267D01*
X100959819Y-55452267D02*
X100912200Y-55547505D01*
X100912200Y-55547505D02*
X100816961Y-55595124D01*
X100816961Y-55595124D02*
X100436009Y-55595124D01*
X100436009Y-55595124D02*
X100340771Y-55547505D01*
X100340771Y-55547505D02*
X100293152Y-55452267D01*
X100293152Y-55452267D02*
X100293152Y-55261791D01*
X100293152Y-55261791D02*
X100340771Y-55166553D01*
X100340771Y-55166553D02*
X100436009Y-55118934D01*
X100436009Y-55118934D02*
X100531247Y-55118934D01*
X100531247Y-55118934D02*
X100626485Y-55595124D01*
X100293152Y-54690362D02*
X100959819Y-54690362D01*
X100388390Y-54690362D02*
X100340771Y-54642743D01*
X100340771Y-54642743D02*
X100293152Y-54547505D01*
X100293152Y-54547505D02*
X100293152Y-54404648D01*
X100293152Y-54404648D02*
X100340771Y-54309410D01*
X100340771Y-54309410D02*
X100436009Y-54261791D01*
X100436009Y-54261791D02*
X100959819Y-54261791D01*
X130629819Y-138903220D02*
X129629819Y-138903220D01*
X129629819Y-138903220D02*
X129629819Y-138522268D01*
X129629819Y-138522268D02*
X129677438Y-138427030D01*
X129677438Y-138427030D02*
X129725057Y-138379411D01*
X129725057Y-138379411D02*
X129820295Y-138331792D01*
X129820295Y-138331792D02*
X129963152Y-138331792D01*
X129963152Y-138331792D02*
X130058390Y-138379411D01*
X130058390Y-138379411D02*
X130106009Y-138427030D01*
X130106009Y-138427030D02*
X130153628Y-138522268D01*
X130153628Y-138522268D02*
X130153628Y-138903220D01*
X130629819Y-137903220D02*
X129963152Y-137903220D01*
X130153628Y-137903220D02*
X130058390Y-137855601D01*
X130058390Y-137855601D02*
X130010771Y-137807982D01*
X130010771Y-137807982D02*
X129963152Y-137712744D01*
X129963152Y-137712744D02*
X129963152Y-137617506D01*
X130629819Y-137141315D02*
X130582200Y-137236553D01*
X130582200Y-137236553D02*
X130534580Y-137284172D01*
X130534580Y-137284172D02*
X130439342Y-137331791D01*
X130439342Y-137331791D02*
X130153628Y-137331791D01*
X130153628Y-137331791D02*
X130058390Y-137284172D01*
X130058390Y-137284172D02*
X130010771Y-137236553D01*
X130010771Y-137236553D02*
X129963152Y-137141315D01*
X129963152Y-137141315D02*
X129963152Y-136998458D01*
X129963152Y-136998458D02*
X130010771Y-136903220D01*
X130010771Y-136903220D02*
X130058390Y-136855601D01*
X130058390Y-136855601D02*
X130153628Y-136807982D01*
X130153628Y-136807982D02*
X130439342Y-136807982D01*
X130439342Y-136807982D02*
X130534580Y-136855601D01*
X130534580Y-136855601D02*
X130582200Y-136903220D01*
X130582200Y-136903220D02*
X130629819Y-136998458D01*
X130629819Y-136998458D02*
X130629819Y-137141315D01*
X129963152Y-135950839D02*
X130772676Y-135950839D01*
X130772676Y-135950839D02*
X130867914Y-135998458D01*
X130867914Y-135998458D02*
X130915533Y-136046077D01*
X130915533Y-136046077D02*
X130963152Y-136141315D01*
X130963152Y-136141315D02*
X130963152Y-136284172D01*
X130963152Y-136284172D02*
X130915533Y-136379410D01*
X130582200Y-135950839D02*
X130629819Y-136046077D01*
X130629819Y-136046077D02*
X130629819Y-136236553D01*
X130629819Y-136236553D02*
X130582200Y-136331791D01*
X130582200Y-136331791D02*
X130534580Y-136379410D01*
X130534580Y-136379410D02*
X130439342Y-136427029D01*
X130439342Y-136427029D02*
X130153628Y-136427029D01*
X130153628Y-136427029D02*
X130058390Y-136379410D01*
X130058390Y-136379410D02*
X130010771Y-136331791D01*
X130010771Y-136331791D02*
X129963152Y-136236553D01*
X129963152Y-136236553D02*
X129963152Y-136046077D01*
X129963152Y-136046077D02*
X130010771Y-135950839D01*
X130629819Y-135474648D02*
X129963152Y-135474648D01*
X130153628Y-135474648D02*
X130058390Y-135427029D01*
X130058390Y-135427029D02*
X130010771Y-135379410D01*
X130010771Y-135379410D02*
X129963152Y-135284172D01*
X129963152Y-135284172D02*
X129963152Y-135188934D01*
X130629819Y-134427029D02*
X130106009Y-134427029D01*
X130106009Y-134427029D02*
X130010771Y-134474648D01*
X130010771Y-134474648D02*
X129963152Y-134569886D01*
X129963152Y-134569886D02*
X129963152Y-134760362D01*
X129963152Y-134760362D02*
X130010771Y-134855600D01*
X130582200Y-134427029D02*
X130629819Y-134522267D01*
X130629819Y-134522267D02*
X130629819Y-134760362D01*
X130629819Y-134760362D02*
X130582200Y-134855600D01*
X130582200Y-134855600D02*
X130486961Y-134903219D01*
X130486961Y-134903219D02*
X130391723Y-134903219D01*
X130391723Y-134903219D02*
X130296485Y-134855600D01*
X130296485Y-134855600D02*
X130248866Y-134760362D01*
X130248866Y-134760362D02*
X130248866Y-134522267D01*
X130248866Y-134522267D02*
X130201247Y-134427029D01*
X130629819Y-133950838D02*
X129963152Y-133950838D01*
X130058390Y-133950838D02*
X130010771Y-133903219D01*
X130010771Y-133903219D02*
X129963152Y-133807981D01*
X129963152Y-133807981D02*
X129963152Y-133665124D01*
X129963152Y-133665124D02*
X130010771Y-133569886D01*
X130010771Y-133569886D02*
X130106009Y-133522267D01*
X130106009Y-133522267D02*
X130629819Y-133522267D01*
X130106009Y-133522267D02*
X130010771Y-133474648D01*
X130010771Y-133474648D02*
X129963152Y-133379410D01*
X129963152Y-133379410D02*
X129963152Y-133236553D01*
X129963152Y-133236553D02*
X130010771Y-133141314D01*
X130010771Y-133141314D02*
X130106009Y-133093695D01*
X130106009Y-133093695D02*
X130629819Y-133093695D01*
X130629819Y-132617505D02*
X129963152Y-132617505D01*
X130058390Y-132617505D02*
X130010771Y-132569886D01*
X130010771Y-132569886D02*
X129963152Y-132474648D01*
X129963152Y-132474648D02*
X129963152Y-132331791D01*
X129963152Y-132331791D02*
X130010771Y-132236553D01*
X130010771Y-132236553D02*
X130106009Y-132188934D01*
X130106009Y-132188934D02*
X130629819Y-132188934D01*
X130106009Y-132188934D02*
X130010771Y-132141315D01*
X130010771Y-132141315D02*
X129963152Y-132046077D01*
X129963152Y-132046077D02*
X129963152Y-131903220D01*
X129963152Y-131903220D02*
X130010771Y-131807981D01*
X130010771Y-131807981D02*
X130106009Y-131760362D01*
X130106009Y-131760362D02*
X130629819Y-131760362D01*
X130582200Y-130903220D02*
X130629819Y-130998458D01*
X130629819Y-130998458D02*
X130629819Y-131188934D01*
X130629819Y-131188934D02*
X130582200Y-131284172D01*
X130582200Y-131284172D02*
X130486961Y-131331791D01*
X130486961Y-131331791D02*
X130106009Y-131331791D01*
X130106009Y-131331791D02*
X130010771Y-131284172D01*
X130010771Y-131284172D02*
X129963152Y-131188934D01*
X129963152Y-131188934D02*
X129963152Y-130998458D01*
X129963152Y-130998458D02*
X130010771Y-130903220D01*
X130010771Y-130903220D02*
X130106009Y-130855601D01*
X130106009Y-130855601D02*
X130201247Y-130855601D01*
X130201247Y-130855601D02*
X130296485Y-131331791D01*
X130629819Y-130427029D02*
X129963152Y-130427029D01*
X130153628Y-130427029D02*
X130058390Y-130379410D01*
X130058390Y-130379410D02*
X130010771Y-130331791D01*
X130010771Y-130331791D02*
X129963152Y-130236553D01*
X129963152Y-130236553D02*
X129963152Y-130141315D01*
D12*
G36*
X43667695Y-153107058D02*
G01*
X43667695Y-153260748D01*
X43138176Y-153260748D01*
X43021550Y-153251222D01*
X43566089Y-153389159D01*
X43566089Y-153470491D01*
X43021550Y-153609160D01*
X43138176Y-153599574D01*
X43667695Y-153599574D01*
X43667695Y-153753264D01*
X42596934Y-153753264D01*
X42596934Y-153602322D01*
X43186475Y-153434282D01*
X43234835Y-153430191D01*
X43186475Y-153426100D01*
X42596934Y-153258000D01*
X42596934Y-153107058D01*
X43667695Y-153107058D01*
G37*
G36*
X43667695Y-152692639D02*
G01*
X43644247Y-152692639D01*
X43661100Y-152799190D01*
X43671602Y-152905069D01*
X43665791Y-152943933D01*
X43650375Y-152969147D01*
X43625351Y-152984617D01*
X43586911Y-152990432D01*
X43334242Y-152990432D01*
X43296038Y-152984516D01*
X43271000Y-152968690D01*
X43255446Y-152942681D01*
X43249551Y-152902322D01*
X43249551Y-152840833D01*
X43355064Y-152840833D01*
X43550458Y-152840833D01*
X43544596Y-152691235D01*
X43355064Y-152691235D01*
X43355064Y-152840833D01*
X43249551Y-152840833D01*
X43249551Y-152691235D01*
X43093235Y-152691235D01*
X43093235Y-152840833D01*
X43187025Y-152840833D01*
X43187025Y-152982250D01*
X43060690Y-152982250D01*
X43022486Y-152976334D01*
X42997448Y-152960508D01*
X42981894Y-152934499D01*
X42975999Y-152894139D01*
X42975999Y-152629747D01*
X42981851Y-152590152D01*
X42997335Y-152564550D01*
X43022366Y-152548905D01*
X43060690Y-152543040D01*
X43667695Y-152543040D01*
X43667695Y-152692639D01*
G37*
G36*
X43667695Y-152133018D02*
G01*
X43667695Y-152306491D01*
X43661840Y-152346118D01*
X43646353Y-152371739D01*
X43621322Y-152387391D01*
X43583003Y-152393258D01*
X43108867Y-152393258D01*
X43108867Y-152467081D01*
X42975999Y-152467081D01*
X42975999Y-152393258D01*
X42788420Y-152393258D01*
X42788420Y-152237554D01*
X42975999Y-152237554D01*
X42975999Y-152137109D01*
X43108867Y-152137109D01*
X43108867Y-152237554D01*
X43534826Y-152237554D01*
X43534826Y-152133018D01*
X43667695Y-152133018D01*
G37*
G36*
X43667695Y-151586463D02*
G01*
X43667695Y-151743572D01*
X43108867Y-151743572D01*
X43113752Y-151890484D01*
X43667695Y-151890484D01*
X43667695Y-152046922D01*
X42596934Y-152046922D01*
X42596934Y-151890484D01*
X43004331Y-151890484D01*
X42987051Y-151781186D01*
X42978393Y-151715620D01*
X42975999Y-151671887D01*
X42981812Y-151632990D01*
X42997231Y-151607759D01*
X43022255Y-151592281D01*
X43060690Y-151586463D01*
X43667695Y-151586463D01*
G37*
G36*
X42878302Y-151315232D02*
G01*
X42878302Y-151471669D01*
X42718078Y-151471669D01*
X42718078Y-151315232D01*
X42878302Y-151315232D01*
G37*
G36*
X43667695Y-151316575D02*
G01*
X43667695Y-151470265D01*
X42975999Y-151470265D01*
X42975999Y-151316575D01*
X43667695Y-151316575D01*
G37*
G36*
X43358972Y-150797803D02*
G01*
X43358972Y-151051266D01*
X43554366Y-151051266D01*
X43554366Y-150904354D01*
X43437129Y-150904354D01*
X43437129Y-150754755D01*
X43583003Y-150754755D01*
X43621207Y-150760671D01*
X43646246Y-150776498D01*
X43661799Y-150802506D01*
X43667695Y-150842866D01*
X43667695Y-151112693D01*
X43661798Y-151153086D01*
X43646241Y-151179112D01*
X43621202Y-151194947D01*
X43583003Y-151200865D01*
X43060690Y-151200865D01*
X43022492Y-151194947D01*
X42997452Y-151179112D01*
X42981896Y-151153086D01*
X42975999Y-151112693D01*
X42975999Y-151051266D01*
X43089327Y-151051266D01*
X43256206Y-151051266D01*
X43256206Y-150904354D01*
X43089327Y-150904354D01*
X43089327Y-151051266D01*
X42975999Y-151051266D01*
X42975999Y-150842866D01*
X42981894Y-150802506D01*
X42997448Y-150776498D01*
X43022486Y-150760671D01*
X43060690Y-150754755D01*
X43315985Y-150754755D01*
X43358972Y-150797803D01*
G37*
G36*
X43667695Y-150182006D02*
G01*
X43667695Y-150337711D01*
X43644247Y-150337711D01*
X43661588Y-150446338D01*
X43669373Y-150509846D01*
X43671602Y-150555636D01*
X43665789Y-150594533D01*
X43650370Y-150619765D01*
X43625346Y-150635243D01*
X43586911Y-150641060D01*
X42975999Y-150641060D01*
X42975999Y-150485966D01*
X43538734Y-150485966D01*
X43534826Y-150337711D01*
X42975999Y-150337711D01*
X42975999Y-150182006D01*
X43667695Y-150182006D01*
G37*
G36*
X43583003Y-149243381D02*
G01*
X43620430Y-149249632D01*
X43645518Y-149266673D01*
X43661522Y-149295449D01*
X43667695Y-149341078D01*
X43667695Y-149677156D01*
X43661599Y-149721266D01*
X43645720Y-149749250D01*
X43620646Y-149765948D01*
X43583003Y-149772105D01*
X42681625Y-149772105D01*
X42644141Y-149765879D01*
X42619057Y-149748929D01*
X42603086Y-149720364D01*
X42596934Y-149675141D01*
X42596934Y-149341078D01*
X42603106Y-149295449D01*
X42619111Y-149266673D01*
X42644198Y-149249632D01*
X42681625Y-149243381D01*
X42925196Y-149243381D01*
X42925196Y-149403909D01*
X42733710Y-149403909D01*
X42733710Y-149612248D01*
X43530919Y-149612248D01*
X43530919Y-149403909D01*
X43230011Y-149403909D01*
X43230011Y-149522794D01*
X43093235Y-149522794D01*
X43093235Y-149243381D01*
X43583003Y-149243381D01*
G37*
G36*
X43621322Y-148674727D02*
G01*
X43646353Y-148690380D01*
X43661840Y-148716000D01*
X43667695Y-148755628D01*
X43667695Y-149035652D01*
X43661798Y-149076045D01*
X43646241Y-149102071D01*
X43621202Y-149117906D01*
X43583003Y-149123824D01*
X43060690Y-149123824D01*
X43022492Y-149117906D01*
X42997452Y-149102071D01*
X42981896Y-149076045D01*
X42975999Y-149035652D01*
X42975999Y-148970073D01*
X43104959Y-148970073D01*
X43538734Y-148970073D01*
X43538734Y-148821878D01*
X43104959Y-148821878D01*
X43104959Y-148970073D01*
X42975999Y-148970073D01*
X42975999Y-148755628D01*
X42981853Y-148716000D01*
X42997340Y-148690380D01*
X43022372Y-148674727D01*
X43060690Y-148668860D01*
X43583003Y-148668860D01*
X43621322Y-148674727D01*
G37*
G36*
X43667695Y-148097149D02*
G01*
X43667695Y-148252854D01*
X43644247Y-148252854D01*
X43661588Y-148361481D01*
X43669373Y-148424989D01*
X43671602Y-148470779D01*
X43665789Y-148509676D01*
X43650370Y-148534908D01*
X43625346Y-148550386D01*
X43586911Y-148556203D01*
X42975999Y-148556203D01*
X42975999Y-148401109D01*
X43538734Y-148401109D01*
X43534826Y-148252854D01*
X42975999Y-148252854D01*
X42975999Y-148097149D01*
X43667695Y-148097149D01*
G37*
G36*
X43667695Y-147825856D02*
G01*
X43667695Y-147979546D01*
X42596934Y-147979546D01*
X42596934Y-147825856D01*
X43667695Y-147825856D01*
G37*
G36*
X43358972Y-147307084D02*
G01*
X43358972Y-147560547D01*
X43554366Y-147560547D01*
X43554366Y-147413635D01*
X43437129Y-147413635D01*
X43437129Y-147264036D01*
X43583003Y-147264036D01*
X43621207Y-147269952D01*
X43646246Y-147285779D01*
X43661799Y-147311788D01*
X43667695Y-147352147D01*
X43667695Y-147621974D01*
X43661798Y-147662367D01*
X43646241Y-147688394D01*
X43621202Y-147704228D01*
X43583003Y-147710146D01*
X43060690Y-147710146D01*
X43022492Y-147704228D01*
X42997452Y-147688394D01*
X42981896Y-147662367D01*
X42975999Y-147621974D01*
X42975999Y-147560547D01*
X43089327Y-147560547D01*
X43256206Y-147560547D01*
X43256206Y-147413635D01*
X43089327Y-147413635D01*
X43089327Y-147560547D01*
X42975999Y-147560547D01*
X42975999Y-147352147D01*
X42981894Y-147311788D01*
X42997448Y-147285779D01*
X43022486Y-147269952D01*
X43060690Y-147264036D01*
X43315985Y-147264036D01*
X43358972Y-147307084D01*
G37*
G36*
X43667695Y-146852487D02*
G01*
X43667695Y-147025961D01*
X43661840Y-147065588D01*
X43646353Y-147091208D01*
X43621322Y-147106861D01*
X43583003Y-147112728D01*
X43108867Y-147112728D01*
X43108867Y-147186550D01*
X42975999Y-147186550D01*
X42975999Y-147112728D01*
X42788420Y-147112728D01*
X42788420Y-146957023D01*
X42975999Y-146957023D01*
X42975999Y-146856578D01*
X43108867Y-146856578D01*
X43108867Y-146957023D01*
X43534826Y-146957023D01*
X43534826Y-146852487D01*
X43667695Y-146852487D01*
G37*
G36*
X45347695Y-153211594D02*
G01*
X45347695Y-153351606D01*
X44673767Y-153607756D01*
X44720580Y-153599743D01*
X44751070Y-153597559D01*
X45347695Y-153597559D01*
X45347695Y-153753264D01*
X44276934Y-153753264D01*
X44276934Y-153613251D01*
X44937183Y-153357102D01*
X44890371Y-153365115D01*
X44859880Y-153367299D01*
X44276934Y-153367299D01*
X44276934Y-153211594D01*
X45347695Y-153211594D01*
G37*
G36*
X45301322Y-152642208D02*
G01*
X45326353Y-152657861D01*
X45341840Y-152683481D01*
X45347695Y-152723108D01*
X45347695Y-153003133D01*
X45341798Y-153043526D01*
X45326241Y-153069552D01*
X45301202Y-153085386D01*
X45263003Y-153091304D01*
X44740690Y-153091304D01*
X44702492Y-153085386D01*
X44677452Y-153069552D01*
X44661896Y-153043526D01*
X44655999Y-153003133D01*
X44655999Y-152937554D01*
X44784959Y-152937554D01*
X45218734Y-152937554D01*
X45218734Y-152789359D01*
X44784959Y-152789359D01*
X44784959Y-152937554D01*
X44655999Y-152937554D01*
X44655999Y-152723108D01*
X44661853Y-152683481D01*
X44677340Y-152657861D01*
X44702372Y-152642208D01*
X44740690Y-152636341D01*
X45263003Y-152636341D01*
X45301322Y-152642208D01*
G37*
G36*
X45347695Y-151762684D02*
G01*
X45347695Y-151917718D01*
X44784959Y-151917718D01*
X44789355Y-152064630D01*
X45347695Y-152064630D01*
X45347695Y-152220334D01*
X44784959Y-152220334D01*
X44789355Y-152367247D01*
X45347695Y-152367247D01*
X45347695Y-152523684D01*
X44655999Y-152523684D01*
X44655999Y-152367247D01*
X44682377Y-152367247D01*
X44663143Y-152258620D01*
X44654557Y-152194984D01*
X44652091Y-152148649D01*
X44656414Y-152114579D01*
X44667651Y-152092555D01*
X44685064Y-152078979D01*
X44665280Y-151964185D01*
X44654878Y-151892606D01*
X44652091Y-151848047D01*
X44657902Y-151809184D01*
X44673319Y-151783970D01*
X44698342Y-151768500D01*
X44736782Y-151762684D01*
X45347695Y-151762684D01*
G37*
G36*
X45347695Y-151060120D02*
G01*
X45321316Y-151060120D01*
X45351602Y-151237684D01*
X45347438Y-151275396D01*
X45335777Y-151305585D01*
X45316981Y-151329947D01*
X45291980Y-151348067D01*
X45261087Y-151359368D01*
X45222642Y-151363408D01*
X44736782Y-151363408D01*
X44707402Y-151357104D01*
X44684535Y-151338293D01*
X44666807Y-151303325D01*
X44656426Y-151253912D01*
X44652091Y-151170762D01*
X44652580Y-151156413D01*
X44784959Y-151156413D01*
X44791060Y-151185860D01*
X44807458Y-151202217D01*
X44837044Y-151208314D01*
X45168054Y-151208314D01*
X45196971Y-151202474D01*
X45212865Y-151186923D01*
X45218734Y-151159160D01*
X45211895Y-151060120D01*
X44784959Y-151060120D01*
X44784959Y-151156413D01*
X44652580Y-151156413D01*
X44654045Y-151113426D01*
X44655999Y-151060120D01*
X44276934Y-151060120D01*
X44276934Y-150904354D01*
X45347695Y-150904354D01*
X45347695Y-151060120D01*
G37*
G36*
X45347695Y-150332459D02*
G01*
X45347695Y-150488164D01*
X45324247Y-150488164D01*
X45341588Y-150596791D01*
X45349373Y-150660299D01*
X45351602Y-150706090D01*
X45345789Y-150744987D01*
X45330370Y-150770218D01*
X45305346Y-150785696D01*
X45266911Y-150791514D01*
X44655999Y-150791514D01*
X44655999Y-150636420D01*
X45218734Y-150636420D01*
X45214826Y-150488164D01*
X44655999Y-150488164D01*
X44655999Y-150332459D01*
X45347695Y-150332459D01*
G37*
G36*
X44913554Y-149412417D02*
G01*
X44938641Y-149429451D01*
X44954644Y-149458210D01*
X44960814Y-149503804D01*
X44960814Y-149762702D01*
X45347695Y-149762702D01*
X45347695Y-149922559D01*
X44276934Y-149922559D01*
X44276934Y-149762702D01*
X44413710Y-149762702D01*
X44824038Y-149762702D01*
X44824038Y-149567369D01*
X44413710Y-149567369D01*
X44413710Y-149762702D01*
X44276934Y-149762702D01*
X44276934Y-149503804D01*
X44283104Y-149458210D01*
X44299106Y-149429451D01*
X44324194Y-149412417D01*
X44361625Y-149406168D01*
X44876123Y-149406168D01*
X44913554Y-149412417D01*
G37*
G36*
X44945182Y-148865476D02*
G01*
X44945182Y-149020570D01*
X44784959Y-149020570D01*
X44790821Y-149144218D01*
X45347695Y-149144218D01*
X45347695Y-149300655D01*
X44655999Y-149300655D01*
X44655999Y-149144218D01*
X44681400Y-149144218D01*
X44662838Y-149047925D01*
X44654495Y-148992028D01*
X44652091Y-148950900D01*
X44657904Y-148912003D01*
X44673324Y-148886771D01*
X44698347Y-148871293D01*
X44736782Y-148865476D01*
X44945182Y-148865476D01*
G37*
G36*
X45301322Y-148327902D02*
G01*
X45326353Y-148343555D01*
X45341840Y-148369175D01*
X45347695Y-148408803D01*
X45347695Y-148688827D01*
X45341798Y-148729220D01*
X45326241Y-148755246D01*
X45301202Y-148771081D01*
X45263003Y-148776999D01*
X44740690Y-148776999D01*
X44702492Y-148771081D01*
X44677452Y-148755246D01*
X44661896Y-148729220D01*
X44655999Y-148688827D01*
X44655999Y-148623248D01*
X44784959Y-148623248D01*
X45218734Y-148623248D01*
X45218734Y-148475054D01*
X44784959Y-148475054D01*
X44784959Y-148623248D01*
X44655999Y-148623248D01*
X44655999Y-148408803D01*
X44661853Y-148369175D01*
X44677340Y-148343555D01*
X44702372Y-148327902D01*
X44740690Y-148322035D01*
X45263003Y-148322035D01*
X45301322Y-148327902D01*
G37*
G36*
X44558302Y-148050193D02*
G01*
X44558302Y-148206631D01*
X44398078Y-148206631D01*
X44398078Y-148050193D01*
X44558302Y-148050193D01*
G37*
G36*
X45517016Y-148051536D02*
G01*
X45555334Y-148057403D01*
X45580366Y-148073056D01*
X45595853Y-148098676D01*
X45601707Y-148138304D01*
X45601707Y-148304328D01*
X45472747Y-148304328D01*
X45472747Y-148205226D01*
X44655999Y-148205226D01*
X44655999Y-148051536D01*
X45517016Y-148051536D01*
G37*
G36*
X45038972Y-147532765D02*
G01*
X45038972Y-147786228D01*
X45234366Y-147786228D01*
X45234366Y-147639316D01*
X45117129Y-147639316D01*
X45117129Y-147489717D01*
X45263003Y-147489717D01*
X45301207Y-147495633D01*
X45326246Y-147511459D01*
X45341799Y-147537468D01*
X45347695Y-147577827D01*
X45347695Y-147847655D01*
X45341798Y-147888048D01*
X45326241Y-147914074D01*
X45301202Y-147929908D01*
X45263003Y-147935826D01*
X44740690Y-147935826D01*
X44702492Y-147929908D01*
X44677452Y-147914074D01*
X44661896Y-147888048D01*
X44655999Y-147847655D01*
X44655999Y-147786228D01*
X44769327Y-147786228D01*
X44936206Y-147786228D01*
X44936206Y-147639316D01*
X44769327Y-147639316D01*
X44769327Y-147786228D01*
X44655999Y-147786228D01*
X44655999Y-147577827D01*
X44661894Y-147537468D01*
X44677448Y-147511459D01*
X44702486Y-147495633D01*
X44740690Y-147489717D01*
X44995985Y-147489717D01*
X45038972Y-147532765D01*
G37*
G36*
X45347695Y-147078168D02*
G01*
X45347695Y-147251641D01*
X45341840Y-147291268D01*
X45326353Y-147316889D01*
X45301322Y-147332541D01*
X45263003Y-147338408D01*
X44788867Y-147338408D01*
X44788867Y-147412231D01*
X44655999Y-147412231D01*
X44655999Y-147338408D01*
X44468420Y-147338408D01*
X44468420Y-147182704D01*
X44655999Y-147182704D01*
X44655999Y-147082259D01*
X44788867Y-147082259D01*
X44788867Y-147182704D01*
X45214826Y-147182704D01*
X45214826Y-147078168D01*
X45347695Y-147078168D01*
G37*
G36*
X44913919Y-146554267D02*
G01*
X44913919Y-146707957D01*
X44745880Y-146707957D01*
X44745880Y-146554267D01*
X44913919Y-146554267D01*
G37*
G36*
X45347695Y-146554267D02*
G01*
X45347695Y-146707957D01*
X45183563Y-146707957D01*
X45183563Y-146554267D01*
X45347695Y-146554267D01*
G37*
G36*
X46593554Y-153243122D02*
G01*
X46618641Y-153260156D01*
X46634644Y-153288915D01*
X46640814Y-153334509D01*
X46640814Y-153593407D01*
X47027695Y-153593407D01*
X47027695Y-153753264D01*
X45956934Y-153753264D01*
X45956934Y-153593407D01*
X46093710Y-153593407D01*
X46504038Y-153593407D01*
X46504038Y-153398073D01*
X46093710Y-153398073D01*
X46093710Y-153593407D01*
X45956934Y-153593407D01*
X45956934Y-153334509D01*
X45963104Y-153288915D01*
X45979106Y-153260156D01*
X46004194Y-153243122D01*
X46041625Y-153236873D01*
X46556123Y-153236873D01*
X46593554Y-153243122D01*
G37*
G36*
X47027695Y-152836254D02*
G01*
X47004247Y-152836254D01*
X47021100Y-152942805D01*
X47031602Y-153048684D01*
X47025791Y-153087548D01*
X47010375Y-153112762D01*
X46985351Y-153128232D01*
X46946911Y-153134047D01*
X46694242Y-153134047D01*
X46656038Y-153128131D01*
X46631000Y-153112305D01*
X46615446Y-153086296D01*
X46609551Y-153045936D01*
X46609551Y-152984448D01*
X46715064Y-152984448D01*
X46910458Y-152984448D01*
X46904596Y-152834849D01*
X46715064Y-152834849D01*
X46715064Y-152984448D01*
X46609551Y-152984448D01*
X46609551Y-152834849D01*
X46453235Y-152834849D01*
X46453235Y-152984448D01*
X46547025Y-152984448D01*
X46547025Y-153125865D01*
X46420690Y-153125865D01*
X46382486Y-153119949D01*
X46357448Y-153104122D01*
X46341894Y-153078114D01*
X46335999Y-153037754D01*
X46335999Y-152773361D01*
X46341851Y-152733767D01*
X46357335Y-152708165D01*
X46382366Y-152692520D01*
X46420690Y-152686655D01*
X47027695Y-152686655D01*
X47027695Y-152836254D01*
G37*
G36*
X46335999Y-152107189D02*
G01*
X47027695Y-152283471D01*
X47027695Y-152433070D01*
X46335999Y-152609291D01*
X46335999Y-152448763D01*
X46793221Y-152357904D01*
X46335999Y-152267046D01*
X46335999Y-152107189D01*
G37*
G36*
X46718972Y-151627252D02*
G01*
X46718972Y-151880715D01*
X46914366Y-151880715D01*
X46914366Y-151733803D01*
X46797129Y-151733803D01*
X46797129Y-151584204D01*
X46943003Y-151584204D01*
X46981207Y-151590120D01*
X47006246Y-151605946D01*
X47021799Y-151631955D01*
X47027695Y-151672315D01*
X47027695Y-151942142D01*
X47021798Y-151982535D01*
X47006241Y-152008561D01*
X46981202Y-152024395D01*
X46943003Y-152030314D01*
X46420690Y-152030314D01*
X46382492Y-152024395D01*
X46357452Y-152008561D01*
X46341896Y-151982535D01*
X46335999Y-151942142D01*
X46335999Y-151880715D01*
X46449327Y-151880715D01*
X46616206Y-151880715D01*
X46616206Y-151733803D01*
X46449327Y-151733803D01*
X46449327Y-151880715D01*
X46335999Y-151880715D01*
X46335999Y-151672315D01*
X46341894Y-151631955D01*
X46357448Y-151605946D01*
X46382486Y-151590120D01*
X46420690Y-151584204D01*
X46675985Y-151584204D01*
X46718972Y-151627252D01*
G37*
G36*
X46293012Y-151804816D02*
G01*
X46293012Y-151919610D01*
X46287517Y-151919610D01*
X46105434Y-151802130D01*
X46105434Y-151606064D01*
X46111601Y-151606064D01*
X46293012Y-151804816D01*
G37*
G36*
X47027695Y-150632390D02*
G01*
X47027695Y-150772402D01*
X46353767Y-151028551D01*
X46400580Y-151020538D01*
X46431070Y-151018354D01*
X47027695Y-151018354D01*
X47027695Y-151174059D01*
X45956934Y-151174059D01*
X45956934Y-151034047D01*
X46617183Y-150777897D01*
X46570371Y-150785911D01*
X46539880Y-150788094D01*
X45956934Y-150788094D01*
X45956934Y-150632390D01*
X47027695Y-150632390D01*
G37*
G36*
X47027695Y-150053046D02*
G01*
X47027695Y-150208750D01*
X47004247Y-150208750D01*
X47021588Y-150317377D01*
X47029373Y-150380886D01*
X47031602Y-150426676D01*
X47025789Y-150465573D01*
X47010370Y-150490804D01*
X46985346Y-150506282D01*
X46946911Y-150512100D01*
X46335999Y-150512100D01*
X46335999Y-150357006D01*
X46898734Y-150357006D01*
X46894826Y-150208750D01*
X46335999Y-150208750D01*
X46335999Y-150053046D01*
X47027695Y-150053046D01*
G37*
G36*
X47027695Y-149178595D02*
G01*
X47027695Y-149333628D01*
X46464959Y-149333628D01*
X46469355Y-149480540D01*
X47027695Y-149480540D01*
X47027695Y-149636245D01*
X46464959Y-149636245D01*
X46469355Y-149783157D01*
X47027695Y-149783157D01*
X47027695Y-149939595D01*
X46335999Y-149939595D01*
X46335999Y-149783157D01*
X46362377Y-149783157D01*
X46343143Y-149674530D01*
X46334557Y-149610895D01*
X46332091Y-149564560D01*
X46336414Y-149530490D01*
X46347651Y-149508466D01*
X46365064Y-149494890D01*
X46345280Y-149380095D01*
X46334878Y-149308517D01*
X46332091Y-149263958D01*
X46337902Y-149225094D01*
X46353319Y-149199881D01*
X46378342Y-149184410D01*
X46416782Y-149178595D01*
X47027695Y-149178595D01*
G37*
G36*
X46718972Y-148663121D02*
G01*
X46718972Y-148916584D01*
X46914366Y-148916584D01*
X46914366Y-148769672D01*
X46797129Y-148769672D01*
X46797129Y-148620073D01*
X46943003Y-148620073D01*
X46981207Y-148625989D01*
X47006246Y-148641815D01*
X47021799Y-148667824D01*
X47027695Y-148708183D01*
X47027695Y-148978011D01*
X47021798Y-149018403D01*
X47006241Y-149044430D01*
X46981202Y-149060264D01*
X46943003Y-149066182D01*
X46420690Y-149066182D01*
X46382492Y-149060264D01*
X46357452Y-149044430D01*
X46341896Y-149018403D01*
X46335999Y-148978011D01*
X46335999Y-148916584D01*
X46449327Y-148916584D01*
X46616206Y-148916584D01*
X46616206Y-148769672D01*
X46449327Y-148769672D01*
X46449327Y-148916584D01*
X46335999Y-148916584D01*
X46335999Y-148708183D01*
X46341894Y-148667824D01*
X46357448Y-148641815D01*
X46382486Y-148625989D01*
X46420690Y-148620073D01*
X46675985Y-148620073D01*
X46718972Y-148663121D01*
G37*
G36*
X46293012Y-148840685D02*
G01*
X46293012Y-148955479D01*
X46287517Y-148955479D01*
X46105434Y-148837998D01*
X46105434Y-148641933D01*
X46111601Y-148641933D01*
X46293012Y-148840685D01*
G37*
G36*
X46625182Y-148071198D02*
G01*
X46625182Y-148226292D01*
X46464959Y-148226292D01*
X46470821Y-148349940D01*
X47027695Y-148349940D01*
X47027695Y-148506378D01*
X46335999Y-148506378D01*
X46335999Y-148349940D01*
X46361400Y-148349940D01*
X46342838Y-148253647D01*
X46334495Y-148197751D01*
X46332091Y-148156622D01*
X46337904Y-148117725D01*
X46353324Y-148092494D01*
X46378347Y-148077016D01*
X46416782Y-148071198D01*
X46625182Y-148071198D01*
G37*
G36*
X46238302Y-147823536D02*
G01*
X46238302Y-147979973D01*
X46078078Y-147979973D01*
X46078078Y-147823536D01*
X46238302Y-147823536D01*
G37*
G36*
X47027695Y-147824879D02*
G01*
X47027695Y-147978569D01*
X46335999Y-147978569D01*
X46335999Y-147824879D01*
X47027695Y-147824879D01*
G37*
G36*
X47281707Y-147407224D02*
G01*
X47027695Y-147407224D01*
X47027695Y-147567752D01*
X47023304Y-147610054D01*
X47011012Y-147644183D01*
X46991302Y-147671922D01*
X46964773Y-147692906D01*
X46931931Y-147705884D01*
X46890919Y-147710512D01*
X46461051Y-147710512D01*
X46422363Y-147706458D01*
X46391449Y-147695146D01*
X46366590Y-147677051D01*
X46347866Y-147652699D01*
X46336243Y-147622510D01*
X46332091Y-147584788D01*
X46336569Y-147541570D01*
X46342581Y-147506264D01*
X46461051Y-147506264D01*
X46466908Y-147534043D01*
X46482753Y-147549587D01*
X46511548Y-147555418D01*
X46846161Y-147555418D01*
X46876200Y-147549390D01*
X46892668Y-147533375D01*
X46898734Y-147504860D01*
X46898734Y-147407224D01*
X46468867Y-147407224D01*
X46461051Y-147506264D01*
X46342581Y-147506264D01*
X46359446Y-147407224D01*
X46335999Y-147407224D01*
X46335999Y-147251458D01*
X47281707Y-147251458D01*
X47281707Y-147407224D01*
G37*
G36*
X47027695Y-146679563D02*
G01*
X47027695Y-146835268D01*
X47004247Y-146835268D01*
X47021588Y-146943895D01*
X47029373Y-147007403D01*
X47031602Y-147053194D01*
X47025789Y-147092091D01*
X47010370Y-147117322D01*
X46985346Y-147132800D01*
X46946911Y-147138618D01*
X46335999Y-147138618D01*
X46335999Y-146983524D01*
X46898734Y-146983524D01*
X46894826Y-146835268D01*
X46335999Y-146835268D01*
X46335999Y-146679563D01*
X47027695Y-146679563D01*
G37*
G36*
X46718972Y-146163051D02*
G01*
X46718972Y-146416514D01*
X46914366Y-146416514D01*
X46914366Y-146269602D01*
X46797129Y-146269602D01*
X46797129Y-146120003D01*
X46943003Y-146120003D01*
X46981207Y-146125919D01*
X47006246Y-146141745D01*
X47021799Y-146167754D01*
X47027695Y-146208114D01*
X47027695Y-146477941D01*
X47021798Y-146518334D01*
X47006241Y-146544360D01*
X46981202Y-146560194D01*
X46943003Y-146566113D01*
X46420690Y-146566113D01*
X46382492Y-146560194D01*
X46357452Y-146544360D01*
X46341896Y-146518334D01*
X46335999Y-146477941D01*
X46335999Y-146416514D01*
X46449327Y-146416514D01*
X46616206Y-146416514D01*
X46616206Y-146269602D01*
X46449327Y-146269602D01*
X46449327Y-146416514D01*
X46335999Y-146416514D01*
X46335999Y-146208114D01*
X46341894Y-146167754D01*
X46357448Y-146141745D01*
X46382486Y-146125919D01*
X46420690Y-146120003D01*
X46675985Y-146120003D01*
X46718972Y-146163051D01*
G37*
G36*
X46687708Y-145396311D02*
G01*
X46687708Y-145722192D01*
X46543117Y-145722192D01*
X46543117Y-145396311D01*
X46687708Y-145396311D01*
G37*
G36*
X46097618Y-144266139D02*
G01*
X46097618Y-144542744D01*
X46414156Y-144542744D01*
X46414156Y-144306439D01*
X46550932Y-144306439D01*
X46550932Y-144542744D01*
X47027695Y-144542744D01*
X47027695Y-144702601D01*
X45956934Y-144702601D01*
X45956934Y-144266139D01*
X46097618Y-144266139D01*
G37*
G36*
X47027695Y-144025437D02*
G01*
X47027695Y-144179127D01*
X45956934Y-144179127D01*
X45956934Y-144025437D01*
X47027695Y-144025437D01*
G37*
G36*
X46718972Y-143506666D02*
G01*
X46718972Y-143760129D01*
X46914366Y-143760129D01*
X46914366Y-143613217D01*
X46797129Y-143613217D01*
X46797129Y-143463618D01*
X46943003Y-143463618D01*
X46981207Y-143469534D01*
X47006246Y-143485360D01*
X47021799Y-143511369D01*
X47027695Y-143551728D01*
X47027695Y-143821556D01*
X47021798Y-143861948D01*
X47006241Y-143887975D01*
X46981202Y-143903809D01*
X46943003Y-143909727D01*
X46420690Y-143909727D01*
X46382492Y-143903809D01*
X46357452Y-143887975D01*
X46341896Y-143861948D01*
X46335999Y-143821556D01*
X46335999Y-143760129D01*
X46449327Y-143760129D01*
X46616206Y-143760129D01*
X46616206Y-143613217D01*
X46449327Y-143613217D01*
X46449327Y-143760129D01*
X46335999Y-143760129D01*
X46335999Y-143551728D01*
X46341894Y-143511369D01*
X46357448Y-143485360D01*
X46382486Y-143469534D01*
X46420690Y-143463618D01*
X46675985Y-143463618D01*
X46718972Y-143506666D01*
G37*
G36*
X47027695Y-142888121D02*
G01*
X47027695Y-143057503D01*
X46810807Y-143140179D01*
X47027695Y-143225542D01*
X47027695Y-143392238D01*
X47024947Y-143392238D01*
X46672077Y-143225542D01*
X46335999Y-143376545D01*
X46335999Y-143215345D01*
X46536950Y-143140179D01*
X46335999Y-143061594D01*
X46335999Y-142903813D01*
X46338746Y-142903813D01*
X46670123Y-143054816D01*
X47027695Y-142888121D01*
G37*
G36*
X46593554Y-142300066D02*
G01*
X46618641Y-142317100D01*
X46634644Y-142345858D01*
X46640814Y-142391453D01*
X46640814Y-142650350D01*
X47027695Y-142650350D01*
X47027695Y-142810207D01*
X45956934Y-142810207D01*
X45956934Y-142650350D01*
X46093710Y-142650350D01*
X46504038Y-142650350D01*
X46504038Y-142455017D01*
X46093710Y-142455017D01*
X46093710Y-142650350D01*
X45956934Y-142650350D01*
X45956934Y-142391453D01*
X45963104Y-142345858D01*
X45979106Y-142317100D01*
X46004194Y-142300066D01*
X46041625Y-142293817D01*
X46556123Y-142293817D01*
X46593554Y-142300066D01*
G37*
G36*
X47027695Y-141893197D02*
G01*
X47004247Y-141893197D01*
X47021100Y-141999748D01*
X47031602Y-142105628D01*
X47025791Y-142144491D01*
X47010375Y-142169705D01*
X46985351Y-142185175D01*
X46946911Y-142190990D01*
X46694242Y-142190990D01*
X46656038Y-142185075D01*
X46631000Y-142169248D01*
X46615446Y-142143239D01*
X46609551Y-142102880D01*
X46609551Y-142041392D01*
X46715064Y-142041392D01*
X46910458Y-142041392D01*
X46904596Y-141891793D01*
X46715064Y-141891793D01*
X46715064Y-142041392D01*
X46609551Y-142041392D01*
X46609551Y-141891793D01*
X46453235Y-141891793D01*
X46453235Y-142041392D01*
X46547025Y-142041392D01*
X46547025Y-142182808D01*
X46420690Y-142182808D01*
X46382486Y-142176892D01*
X46357448Y-142161066D01*
X46341894Y-142135057D01*
X46335999Y-142094698D01*
X46335999Y-141830305D01*
X46341851Y-141790711D01*
X46357335Y-141765108D01*
X46382366Y-141749463D01*
X46420690Y-141743599D01*
X47027695Y-141743599D01*
X47027695Y-141893197D01*
G37*
G36*
X47027695Y-141329485D02*
G01*
X47001316Y-141329485D01*
X47031602Y-141507049D01*
X47027438Y-141544761D01*
X47015777Y-141574950D01*
X46996981Y-141599312D01*
X46971980Y-141617432D01*
X46941087Y-141628733D01*
X46902642Y-141632773D01*
X46416782Y-141632773D01*
X46387402Y-141626469D01*
X46364535Y-141607658D01*
X46346807Y-141572690D01*
X46336426Y-141523277D01*
X46332091Y-141440127D01*
X46332580Y-141425778D01*
X46464959Y-141425778D01*
X46471060Y-141455225D01*
X46487458Y-141471582D01*
X46517044Y-141477679D01*
X46848054Y-141477679D01*
X46876971Y-141471839D01*
X46892865Y-141456287D01*
X46898734Y-141428525D01*
X46891895Y-141329485D01*
X46464959Y-141329485D01*
X46464959Y-141425778D01*
X46332580Y-141425778D01*
X46334045Y-141382791D01*
X46335999Y-141329485D01*
X45956934Y-141329485D01*
X45956934Y-141173719D01*
X47027695Y-141173719D01*
X47027695Y-141329485D01*
G37*
G36*
X47636934Y-153221120D02*
G01*
X48707695Y-153426100D01*
X48707695Y-153585225D01*
X47636934Y-153789473D01*
X47636934Y-153628944D01*
X48370090Y-153509387D01*
X48461681Y-153505296D01*
X48370090Y-153501205D01*
X47636934Y-153380976D01*
X47636934Y-153221120D01*
G37*
G36*
X48398972Y-152736114D02*
G01*
X48398972Y-152989577D01*
X48594366Y-152989577D01*
X48594366Y-152842665D01*
X48477129Y-152842665D01*
X48477129Y-152693066D01*
X48623003Y-152693066D01*
X48661207Y-152698982D01*
X48686246Y-152714809D01*
X48701799Y-152740818D01*
X48707695Y-152781177D01*
X48707695Y-153051004D01*
X48701798Y-153091397D01*
X48686241Y-153117424D01*
X48661202Y-153133258D01*
X48623003Y-153139176D01*
X48100690Y-153139176D01*
X48062492Y-153133258D01*
X48037452Y-153117424D01*
X48021896Y-153091397D01*
X48015999Y-153051004D01*
X48015999Y-152989577D01*
X48129327Y-152989577D01*
X48296206Y-152989577D01*
X48296206Y-152842665D01*
X48129327Y-152842665D01*
X48129327Y-152989577D01*
X48015999Y-152989577D01*
X48015999Y-152781177D01*
X48021894Y-152740818D01*
X48037448Y-152714809D01*
X48062486Y-152698982D01*
X48100690Y-152693066D01*
X48355985Y-152693066D01*
X48398972Y-152736114D01*
G37*
G36*
X48305182Y-152144192D02*
G01*
X48305182Y-152299286D01*
X48144959Y-152299286D01*
X48150821Y-152422934D01*
X48707695Y-152422934D01*
X48707695Y-152579371D01*
X48015999Y-152579371D01*
X48015999Y-152422934D01*
X48041400Y-152422934D01*
X48022838Y-152326641D01*
X48014495Y-152270744D01*
X48012091Y-152229616D01*
X48017904Y-152190719D01*
X48033324Y-152165487D01*
X48058347Y-152150009D01*
X48096782Y-152144192D01*
X48305182Y-152144192D01*
G37*
G36*
X48623003Y-151621939D02*
G01*
X48661327Y-151627804D01*
X48686358Y-151643449D01*
X48701842Y-151669052D01*
X48707695Y-151708646D01*
X48707695Y-151971695D01*
X48701842Y-152011289D01*
X48686358Y-152036892D01*
X48661327Y-152052537D01*
X48623003Y-152058401D01*
X48477129Y-152058401D01*
X48477129Y-151908803D01*
X48590458Y-151908803D01*
X48590458Y-151771538D01*
X48479083Y-151771538D01*
X48337483Y-152011263D01*
X48315799Y-152038235D01*
X48291132Y-152053339D01*
X48262257Y-152058401D01*
X48100690Y-152058401D01*
X48062486Y-152052486D01*
X48037448Y-152036659D01*
X48021894Y-152010650D01*
X48015999Y-151970291D01*
X48015999Y-151710050D01*
X48021853Y-151670423D01*
X48037340Y-151644803D01*
X48062372Y-151629150D01*
X48100690Y-151623283D01*
X48238748Y-151623283D01*
X48238748Y-151771538D01*
X48133235Y-151771538D01*
X48133235Y-151908803D01*
X48232886Y-151908803D01*
X48373082Y-151669750D01*
X48394477Y-151642532D01*
X48419566Y-151627151D01*
X48449713Y-151621939D01*
X48623003Y-151621939D01*
G37*
G36*
X47918302Y-151353333D02*
G01*
X47918302Y-151509771D01*
X47758078Y-151509771D01*
X47758078Y-151353333D01*
X47918302Y-151353333D01*
G37*
G36*
X48707695Y-151354677D02*
G01*
X48707695Y-151508367D01*
X48015999Y-151508367D01*
X48015999Y-151354677D01*
X48707695Y-151354677D01*
G37*
G36*
X48661322Y-150789870D02*
G01*
X48686353Y-150805523D01*
X48701840Y-150831143D01*
X48707695Y-150870771D01*
X48707695Y-151150795D01*
X48701798Y-151191188D01*
X48686241Y-151217214D01*
X48661202Y-151233049D01*
X48623003Y-151238967D01*
X48100690Y-151238967D01*
X48062492Y-151233049D01*
X48037452Y-151217214D01*
X48021896Y-151191188D01*
X48015999Y-151150795D01*
X48015999Y-151085216D01*
X48144959Y-151085216D01*
X48578734Y-151085216D01*
X48578734Y-150937021D01*
X48144959Y-150937021D01*
X48144959Y-151085216D01*
X48015999Y-151085216D01*
X48015999Y-150870771D01*
X48021853Y-150831143D01*
X48037340Y-150805523D01*
X48062372Y-150789870D01*
X48100690Y-150784003D01*
X48623003Y-150784003D01*
X48661322Y-150789870D01*
G37*
G36*
X48707695Y-150210887D02*
G01*
X48707695Y-150367997D01*
X48144959Y-150367997D01*
X48150821Y-150514909D01*
X48707695Y-150514909D01*
X48707695Y-150671346D01*
X48015999Y-150671346D01*
X48015999Y-150514909D01*
X48041400Y-150514909D01*
X48023509Y-150406282D01*
X48014622Y-150342139D01*
X48012091Y-150296311D01*
X48017904Y-150257415D01*
X48033324Y-150232183D01*
X48058347Y-150216705D01*
X48096782Y-150210887D01*
X48707695Y-150210887D01*
G37*
G36*
X48273919Y-149661036D02*
G01*
X48273919Y-149814726D01*
X48105880Y-149814726D01*
X48105880Y-149661036D01*
X48273919Y-149661036D01*
G37*
G36*
X48707695Y-149661036D02*
G01*
X48707695Y-149814726D01*
X48543563Y-149814726D01*
X48543563Y-149661036D01*
X48707695Y-149661036D01*
G37*
G36*
X48707695Y-149063923D02*
G01*
X48707695Y-149221032D01*
X47949565Y-149221032D01*
X47949565Y-149282520D01*
X47928071Y-149282520D01*
X47636934Y-149199905D01*
X47636934Y-149063923D01*
X48707695Y-149063923D01*
G37*
G36*
X48707695Y-148787623D02*
G01*
X48707695Y-148941313D01*
X48539655Y-148941313D01*
X48539655Y-148787623D01*
X48707695Y-148787623D01*
G37*
G36*
X48707695Y-148478717D02*
G01*
X48707695Y-148635826D01*
X47949565Y-148635826D01*
X47949565Y-148697315D01*
X47928071Y-148697315D01*
X47636934Y-148614699D01*
X47636934Y-148478717D01*
X48707695Y-148478717D01*
G37*
D10*
X41410000Y-127270000D02*
X41430000Y-127270000D01*
X41830000Y-127270000D02*
X41850000Y-127270000D01*
X42250000Y-127270000D02*
X42270000Y-127270000D01*
X42670000Y-127270000D02*
X42690000Y-127270000D01*
X43090000Y-127270000D02*
X43110000Y-127270000D01*
X43510000Y-127270000D02*
X43530000Y-127270000D01*
X43930000Y-127270000D02*
X43950000Y-127270000D01*
X44350000Y-127270000D02*
X44370000Y-127270000D01*
X44770000Y-127270000D02*
X44790000Y-127270000D01*
X45190000Y-127270000D02*
X45210000Y-127270000D01*
X45610000Y-127270000D02*
X45630000Y-127270000D01*
X46030000Y-127270000D02*
X46050000Y-127270000D01*
X46450000Y-127270000D02*
X46470000Y-127270000D01*
X46870000Y-127270000D02*
X46890000Y-127270000D01*
X47290000Y-127270000D02*
X47310000Y-127270000D01*
X47710000Y-127270000D02*
X47730000Y-127270000D01*
X48130000Y-127270000D02*
X48150000Y-127270000D01*
X48550000Y-127270000D02*
X48570000Y-127270000D01*
X48970000Y-127270000D02*
X48990000Y-127270000D01*
X49390000Y-127270000D02*
X49410000Y-127270000D01*
X49810000Y-127270000D02*
X49830000Y-127270000D01*
X50135390Y-127270000D02*
X50135390Y-127290000D01*
X50135390Y-127690000D02*
X50135390Y-127710000D01*
X50135390Y-128110000D02*
X50135390Y-128130000D01*
X50135390Y-128530000D02*
X50135390Y-128550000D01*
X50135390Y-128950000D02*
X50135390Y-128970000D01*
X50135390Y-129370000D02*
X50135390Y-129390000D01*
X50135390Y-129790000D02*
X50135390Y-129810000D01*
X50135390Y-130210000D02*
X50135390Y-130230000D01*
X50135390Y-130630000D02*
X50135390Y-130650000D01*
X50135390Y-131050000D02*
X50135390Y-131070000D01*
X50135390Y-131470000D02*
X50135390Y-131490000D01*
X50135390Y-131890000D02*
X50135390Y-131910000D01*
X50135390Y-132310000D02*
X50135390Y-132330000D01*
X50135390Y-132730000D02*
X50135390Y-132750000D01*
X50135390Y-133150000D02*
X50135390Y-133170000D01*
X50135390Y-133570000D02*
X50135390Y-133590000D01*
X50135390Y-133990000D02*
X50135390Y-134010000D01*
X50135390Y-134410000D02*
X50135390Y-134430000D01*
X50135390Y-134830000D02*
X50135390Y-134850000D01*
X50135390Y-135250000D02*
X50135390Y-135270000D01*
X50135390Y-135670000D02*
X50135390Y-135690000D01*
X50135390Y-136090000D02*
X50135390Y-136110000D01*
X50135390Y-136510000D02*
X50135390Y-136530000D01*
X50135390Y-136930000D02*
X50135390Y-136950000D01*
X50135390Y-137350000D02*
X50135390Y-137370000D01*
X50135390Y-137770000D02*
X50135390Y-137790000D01*
X50135390Y-138190000D02*
X50135390Y-138210000D01*
X50135390Y-138610000D02*
X50135390Y-138630000D01*
X50135390Y-139030000D02*
X50135390Y-139050000D01*
X50135390Y-139450000D02*
X50135390Y-139470000D01*
X50135390Y-139870000D02*
X50135390Y-139890000D01*
X50135390Y-140290000D02*
X50135390Y-140310000D01*
X50135390Y-140710000D02*
X50135390Y-140730000D01*
X50135390Y-141130000D02*
X50135390Y-141150000D01*
X50135390Y-141550000D02*
X50135390Y-141570000D01*
X50135390Y-141970000D02*
X50135390Y-141990000D01*
X50135390Y-142390000D02*
X50135390Y-142410000D01*
X50135390Y-142810000D02*
X50135390Y-142830000D01*
X50135390Y-143230000D02*
X50135390Y-143250000D01*
X50135390Y-143650000D02*
X50135390Y-143670000D01*
X50135390Y-144070000D02*
X50135390Y-144090000D01*
X50135390Y-144490000D02*
X50135390Y-144510000D01*
X50135390Y-144910000D02*
X50135390Y-144930000D01*
X50135390Y-145330000D02*
X50135390Y-145350000D01*
X50135390Y-145750000D02*
X50135390Y-145770000D01*
X50135390Y-146170000D02*
X50135390Y-146190000D01*
X50135390Y-146590000D02*
X50135390Y-146610000D01*
X50135390Y-147010000D02*
X50135390Y-147030000D01*
X50135390Y-147430000D02*
X50135390Y-147450000D01*
X50135390Y-147850000D02*
X50135390Y-147870000D01*
X50135390Y-148270000D02*
X50135390Y-148290000D01*
X50135390Y-148690000D02*
X50135390Y-148710000D01*
X50135390Y-149110000D02*
X50135390Y-149130000D01*
X50135390Y-149530000D02*
X50135390Y-149550000D01*
X50135390Y-149950000D02*
X50135390Y-149970000D01*
X50135390Y-150370000D02*
X50135390Y-150390000D01*
X50135390Y-150790000D02*
X50135390Y-150810000D01*
X50135390Y-151210000D02*
X50135390Y-151230000D01*
X50135390Y-151630000D02*
X50135390Y-151650000D01*
X50135390Y-152050000D02*
X50135390Y-152070000D01*
X50135390Y-152470000D02*
X50135390Y-152490000D01*
X50135390Y-152890000D02*
X50135390Y-152910000D01*
X50135390Y-153310000D02*
X50135390Y-153330000D01*
X50135390Y-153730000D02*
X50135390Y-153750000D01*
X50135390Y-154150000D02*
X50135390Y-154170000D01*
X50135390Y-154570000D02*
X50135390Y-154590000D01*
X50135390Y-154770000D02*
X50115390Y-154770000D01*
X49715390Y-154770000D02*
X49695390Y-154770000D01*
X49295390Y-154770000D02*
X49275390Y-154770000D01*
X48875390Y-154770000D02*
X48855390Y-154770000D01*
X48455390Y-154770000D02*
X48435390Y-154770000D01*
X48035390Y-154770000D02*
X48015390Y-154770000D01*
X47615390Y-154770000D02*
X47595390Y-154770000D01*
X47195390Y-154770000D02*
X47175390Y-154770000D01*
X46775390Y-154770000D02*
X46755390Y-154770000D01*
X46355390Y-154770000D02*
X46335390Y-154770000D01*
X45935390Y-154770000D02*
X45915390Y-154770000D01*
X45515390Y-154770000D02*
X45495390Y-154770000D01*
X45095390Y-154770000D02*
X45075390Y-154770000D01*
X44675390Y-154770000D02*
X44655390Y-154770000D01*
X44255390Y-154770000D02*
X44235390Y-154770000D01*
X43835390Y-154770000D02*
X43815390Y-154770000D01*
X43415390Y-154770000D02*
X43395390Y-154770000D01*
X42995390Y-154770000D02*
X42975390Y-154770000D01*
X42575390Y-154770000D02*
X42555390Y-154770000D01*
X42155390Y-154770000D02*
X42135390Y-154770000D01*
X41735390Y-154770000D02*
X41715390Y-154770000D01*
X41410000Y-154770000D02*
X41410000Y-154750000D01*
X41410000Y-154350000D02*
X41410000Y-154330000D01*
X41410000Y-153930000D02*
X41410000Y-153910000D01*
X41410000Y-153510000D02*
X41410000Y-153490000D01*
X41410000Y-153090000D02*
X41410000Y-153070000D01*
X41410000Y-152670000D02*
X41410000Y-152650000D01*
X41410000Y-152250000D02*
X41410000Y-152230000D01*
X41410000Y-151830000D02*
X41410000Y-151810000D01*
X41410000Y-151410000D02*
X41410000Y-151390000D01*
X41410000Y-150990000D02*
X41410000Y-150970000D01*
X41410000Y-150570000D02*
X41410000Y-150550000D01*
X41410000Y-150150000D02*
X41410000Y-150130000D01*
X41410000Y-149730000D02*
X41410000Y-149710000D01*
X41410000Y-149310000D02*
X41410000Y-149290000D01*
X41410000Y-148890000D02*
X41410000Y-148870000D01*
X41410000Y-148470000D02*
X41410000Y-148450000D01*
X41410000Y-148050000D02*
X41410000Y-148030000D01*
X41410000Y-147630000D02*
X41410000Y-147610000D01*
X41410000Y-147210000D02*
X41410000Y-147190000D01*
X41410000Y-146790000D02*
X41410000Y-146770000D01*
X41410000Y-146370000D02*
X41410000Y-146350000D01*
X41410000Y-145950000D02*
X41410000Y-145930000D01*
X41410000Y-145530000D02*
X41410000Y-145510000D01*
X41410000Y-145110000D02*
X41410000Y-145090000D01*
X41410000Y-144690000D02*
X41410000Y-144670000D01*
X41410000Y-144270000D02*
X41410000Y-144250000D01*
X41410000Y-143850000D02*
X41410000Y-143830000D01*
X41410000Y-143430000D02*
X41410000Y-143410000D01*
X41410000Y-143010000D02*
X41410000Y-142990000D01*
X41410000Y-142590000D02*
X41410000Y-142570000D01*
X41410000Y-142170000D02*
X41410000Y-142150000D01*
X41410000Y-141750000D02*
X41410000Y-141730000D01*
X41410000Y-141330000D02*
X41410000Y-141310000D01*
X41410000Y-140910000D02*
X41410000Y-140890000D01*
X41410000Y-140490000D02*
X41410000Y-140470000D01*
X41410000Y-140070000D02*
X41410000Y-140050000D01*
X41410000Y-139650000D02*
X41410000Y-139630000D01*
X41410000Y-139230000D02*
X41410000Y-139210000D01*
X41410000Y-138810000D02*
X41410000Y-138790000D01*
X41410000Y-138390000D02*
X41410000Y-138370000D01*
X41410000Y-137970000D02*
X41410000Y-137950000D01*
X41410000Y-137550000D02*
X41410000Y-137530000D01*
X41410000Y-137130000D02*
X41410000Y-137110000D01*
X41410000Y-136710000D02*
X41410000Y-136690000D01*
X41410000Y-136290000D02*
X41410000Y-136270000D01*
X41410000Y-135870000D02*
X41410000Y-135850000D01*
X41410000Y-135450000D02*
X41410000Y-135430000D01*
X41410000Y-135030000D02*
X41410000Y-135010000D01*
X41410000Y-134610000D02*
X41410000Y-134590000D01*
X41410000Y-134190000D02*
X41410000Y-134170000D01*
X41410000Y-133770000D02*
X41410000Y-133750000D01*
X41410000Y-133350000D02*
X41410000Y-133330000D01*
X41410000Y-132930000D02*
X41410000Y-132910000D01*
X41410000Y-132510000D02*
X41410000Y-132490000D01*
X41410000Y-132090000D02*
X41410000Y-132070000D01*
X41410000Y-131670000D02*
X41410000Y-131650000D01*
X41410000Y-131250000D02*
X41410000Y-131230000D01*
X41410000Y-130830000D02*
X41410000Y-130810000D01*
X41410000Y-130410000D02*
X41410000Y-130390000D01*
X41410000Y-129990000D02*
X41410000Y-129970000D01*
X41410000Y-129570000D02*
X41410000Y-129550000D01*
X41410000Y-129150000D02*
X41410000Y-129130000D01*
X41410000Y-128730000D02*
X41410000Y-128710000D01*
X41410000Y-128310000D02*
X41410000Y-128290000D01*
X41410000Y-127890000D02*
X41410000Y-127870000D01*
X41410000Y-127470000D02*
X41410000Y-127450000D01*
D11*
X51891666Y-50309819D02*
X51891666Y-51024104D01*
X51891666Y-51024104D02*
X51844047Y-51166961D01*
X51844047Y-51166961D02*
X51748809Y-51262200D01*
X51748809Y-51262200D02*
X51605952Y-51309819D01*
X51605952Y-51309819D02*
X51510714Y-51309819D01*
X52272619Y-50309819D02*
X52939285Y-50309819D01*
X52939285Y-50309819D02*
X52510714Y-51309819D01*
X108624762Y-60924819D02*
X109196190Y-60924819D01*
X108910476Y-61924819D02*
X108910476Y-60924819D01*
X109529524Y-61401009D02*
X109862857Y-61401009D01*
X110005714Y-61924819D02*
X109529524Y-61924819D01*
X109529524Y-61924819D02*
X109529524Y-60924819D01*
X109529524Y-60924819D02*
X110005714Y-60924819D01*
X110434286Y-61924819D02*
X110434286Y-60924819D01*
X110434286Y-60924819D02*
X110767619Y-61639104D01*
X110767619Y-61639104D02*
X111100952Y-60924819D01*
X111100952Y-60924819D02*
X111100952Y-61924819D01*
X111434286Y-60924819D02*
X112005714Y-60924819D01*
X111720000Y-61924819D02*
X111720000Y-60924819D01*
X112767619Y-60924819D02*
X112577143Y-60924819D01*
X112577143Y-60924819D02*
X112481905Y-60972438D01*
X112481905Y-60972438D02*
X112434286Y-61020057D01*
X112434286Y-61020057D02*
X112339048Y-61162914D01*
X112339048Y-61162914D02*
X112291429Y-61353390D01*
X112291429Y-61353390D02*
X112291429Y-61734342D01*
X112291429Y-61734342D02*
X112339048Y-61829580D01*
X112339048Y-61829580D02*
X112386667Y-61877200D01*
X112386667Y-61877200D02*
X112481905Y-61924819D01*
X112481905Y-61924819D02*
X112672381Y-61924819D01*
X112672381Y-61924819D02*
X112767619Y-61877200D01*
X112767619Y-61877200D02*
X112815238Y-61829580D01*
X112815238Y-61829580D02*
X112862857Y-61734342D01*
X112862857Y-61734342D02*
X112862857Y-61496247D01*
X112862857Y-61496247D02*
X112815238Y-61401009D01*
X112815238Y-61401009D02*
X112767619Y-61353390D01*
X112767619Y-61353390D02*
X112672381Y-61305771D01*
X112672381Y-61305771D02*
X112481905Y-61305771D01*
X112481905Y-61305771D02*
X112386667Y-61353390D01*
X112386667Y-61353390D02*
X112339048Y-61401009D01*
X112339048Y-61401009D02*
X112291429Y-61496247D01*
X113481905Y-60924819D02*
X113577143Y-60924819D01*
X113577143Y-60924819D02*
X113672381Y-60972438D01*
X113672381Y-60972438D02*
X113720000Y-61020057D01*
X113720000Y-61020057D02*
X113767619Y-61115295D01*
X113767619Y-61115295D02*
X113815238Y-61305771D01*
X113815238Y-61305771D02*
X113815238Y-61543866D01*
X113815238Y-61543866D02*
X113767619Y-61734342D01*
X113767619Y-61734342D02*
X113720000Y-61829580D01*
X113720000Y-61829580D02*
X113672381Y-61877200D01*
X113672381Y-61877200D02*
X113577143Y-61924819D01*
X113577143Y-61924819D02*
X113481905Y-61924819D01*
X113481905Y-61924819D02*
X113386667Y-61877200D01*
X113386667Y-61877200D02*
X113339048Y-61829580D01*
X113339048Y-61829580D02*
X113291429Y-61734342D01*
X113291429Y-61734342D02*
X113243810Y-61543866D01*
X113243810Y-61543866D02*
X113243810Y-61305771D01*
X113243810Y-61305771D02*
X113291429Y-61115295D01*
X113291429Y-61115295D02*
X113339048Y-61020057D01*
X113339048Y-61020057D02*
X113386667Y-60972438D01*
X113386667Y-60972438D02*
X113481905Y-60924819D01*
X114434286Y-60924819D02*
X114529524Y-60924819D01*
X114529524Y-60924819D02*
X114624762Y-60972438D01*
X114624762Y-60972438D02*
X114672381Y-61020057D01*
X114672381Y-61020057D02*
X114720000Y-61115295D01*
X114720000Y-61115295D02*
X114767619Y-61305771D01*
X114767619Y-61305771D02*
X114767619Y-61543866D01*
X114767619Y-61543866D02*
X114720000Y-61734342D01*
X114720000Y-61734342D02*
X114672381Y-61829580D01*
X114672381Y-61829580D02*
X114624762Y-61877200D01*
X114624762Y-61877200D02*
X114529524Y-61924819D01*
X114529524Y-61924819D02*
X114434286Y-61924819D01*
X114434286Y-61924819D02*
X114339048Y-61877200D01*
X114339048Y-61877200D02*
X114291429Y-61829580D01*
X114291429Y-61829580D02*
X114243810Y-61734342D01*
X114243810Y-61734342D02*
X114196191Y-61543866D01*
X114196191Y-61543866D02*
X114196191Y-61305771D01*
X114196191Y-61305771D02*
X114243810Y-61115295D01*
X114243810Y-61115295D02*
X114291429Y-61020057D01*
X114291429Y-61020057D02*
X114339048Y-60972438D01*
X114339048Y-60972438D02*
X114434286Y-60924819D01*
X115386667Y-60924819D02*
X115481905Y-60924819D01*
X115481905Y-60924819D02*
X115577143Y-60972438D01*
X115577143Y-60972438D02*
X115624762Y-61020057D01*
X115624762Y-61020057D02*
X115672381Y-61115295D01*
X115672381Y-61115295D02*
X115720000Y-61305771D01*
X115720000Y-61305771D02*
X115720000Y-61543866D01*
X115720000Y-61543866D02*
X115672381Y-61734342D01*
X115672381Y-61734342D02*
X115624762Y-61829580D01*
X115624762Y-61829580D02*
X115577143Y-61877200D01*
X115577143Y-61877200D02*
X115481905Y-61924819D01*
X115481905Y-61924819D02*
X115386667Y-61924819D01*
X115386667Y-61924819D02*
X115291429Y-61877200D01*
X115291429Y-61877200D02*
X115243810Y-61829580D01*
X115243810Y-61829580D02*
X115196191Y-61734342D01*
X115196191Y-61734342D02*
X115148572Y-61543866D01*
X115148572Y-61543866D02*
X115148572Y-61305771D01*
X115148572Y-61305771D02*
X115196191Y-61115295D01*
X115196191Y-61115295D02*
X115243810Y-61020057D01*
X115243810Y-61020057D02*
X115291429Y-60972438D01*
X115291429Y-60972438D02*
X115386667Y-60924819D01*
X123798571Y-88829104D02*
X124274761Y-88829104D01*
X123703333Y-89114819D02*
X124036666Y-88114819D01*
X124036666Y-88114819D02*
X124369999Y-89114819D01*
X124560476Y-88114819D02*
X125131904Y-88114819D01*
X124846190Y-89114819D02*
X124846190Y-88114819D01*
X125465238Y-89114819D02*
X125465238Y-88114819D01*
X125465238Y-88114819D02*
X125798571Y-88829104D01*
X125798571Y-88829104D02*
X126131904Y-88114819D01*
X126131904Y-88114819D02*
X126131904Y-89114819D01*
X126608095Y-88591009D02*
X126941428Y-88591009D01*
X127084285Y-89114819D02*
X126608095Y-89114819D01*
X126608095Y-89114819D02*
X126608095Y-88114819D01*
X126608095Y-88114819D02*
X127084285Y-88114819D01*
X128036666Y-88162438D02*
X127941428Y-88114819D01*
X127941428Y-88114819D02*
X127798571Y-88114819D01*
X127798571Y-88114819D02*
X127655714Y-88162438D01*
X127655714Y-88162438D02*
X127560476Y-88257676D01*
X127560476Y-88257676D02*
X127512857Y-88352914D01*
X127512857Y-88352914D02*
X127465238Y-88543390D01*
X127465238Y-88543390D02*
X127465238Y-88686247D01*
X127465238Y-88686247D02*
X127512857Y-88876723D01*
X127512857Y-88876723D02*
X127560476Y-88971961D01*
X127560476Y-88971961D02*
X127655714Y-89067200D01*
X127655714Y-89067200D02*
X127798571Y-89114819D01*
X127798571Y-89114819D02*
X127893809Y-89114819D01*
X127893809Y-89114819D02*
X128036666Y-89067200D01*
X128036666Y-89067200D02*
X128084285Y-89019580D01*
X128084285Y-89019580D02*
X128084285Y-88686247D01*
X128084285Y-88686247D02*
X127893809Y-88686247D01*
X128465238Y-88829104D02*
X128941428Y-88829104D01*
X128370000Y-89114819D02*
X128703333Y-88114819D01*
X128703333Y-88114819D02*
X129036666Y-89114819D01*
X129274762Y-88114819D02*
X129893809Y-88114819D01*
X129893809Y-88114819D02*
X129560476Y-88495771D01*
X129560476Y-88495771D02*
X129703333Y-88495771D01*
X129703333Y-88495771D02*
X129798571Y-88543390D01*
X129798571Y-88543390D02*
X129846190Y-88591009D01*
X129846190Y-88591009D02*
X129893809Y-88686247D01*
X129893809Y-88686247D02*
X129893809Y-88924342D01*
X129893809Y-88924342D02*
X129846190Y-89019580D01*
X129846190Y-89019580D02*
X129798571Y-89067200D01*
X129798571Y-89067200D02*
X129703333Y-89114819D01*
X129703333Y-89114819D02*
X129417619Y-89114819D01*
X129417619Y-89114819D02*
X129322381Y-89067200D01*
X129322381Y-89067200D02*
X129274762Y-89019580D01*
X130274762Y-88210057D02*
X130322381Y-88162438D01*
X130322381Y-88162438D02*
X130417619Y-88114819D01*
X130417619Y-88114819D02*
X130655714Y-88114819D01*
X130655714Y-88114819D02*
X130750952Y-88162438D01*
X130750952Y-88162438D02*
X130798571Y-88210057D01*
X130798571Y-88210057D02*
X130846190Y-88305295D01*
X130846190Y-88305295D02*
X130846190Y-88400533D01*
X130846190Y-88400533D02*
X130798571Y-88543390D01*
X130798571Y-88543390D02*
X130227143Y-89114819D01*
X130227143Y-89114819D02*
X130846190Y-89114819D01*
X131417619Y-88543390D02*
X131322381Y-88495771D01*
X131322381Y-88495771D02*
X131274762Y-88448152D01*
X131274762Y-88448152D02*
X131227143Y-88352914D01*
X131227143Y-88352914D02*
X131227143Y-88305295D01*
X131227143Y-88305295D02*
X131274762Y-88210057D01*
X131274762Y-88210057D02*
X131322381Y-88162438D01*
X131322381Y-88162438D02*
X131417619Y-88114819D01*
X131417619Y-88114819D02*
X131608095Y-88114819D01*
X131608095Y-88114819D02*
X131703333Y-88162438D01*
X131703333Y-88162438D02*
X131750952Y-88210057D01*
X131750952Y-88210057D02*
X131798571Y-88305295D01*
X131798571Y-88305295D02*
X131798571Y-88352914D01*
X131798571Y-88352914D02*
X131750952Y-88448152D01*
X131750952Y-88448152D02*
X131703333Y-88495771D01*
X131703333Y-88495771D02*
X131608095Y-88543390D01*
X131608095Y-88543390D02*
X131417619Y-88543390D01*
X131417619Y-88543390D02*
X131322381Y-88591009D01*
X131322381Y-88591009D02*
X131274762Y-88638628D01*
X131274762Y-88638628D02*
X131227143Y-88733866D01*
X131227143Y-88733866D02*
X131227143Y-88924342D01*
X131227143Y-88924342D02*
X131274762Y-89019580D01*
X131274762Y-89019580D02*
X131322381Y-89067200D01*
X131322381Y-89067200D02*
X131417619Y-89114819D01*
X131417619Y-89114819D02*
X131608095Y-89114819D01*
X131608095Y-89114819D02*
X131703333Y-89067200D01*
X131703333Y-89067200D02*
X131750952Y-89019580D01*
X131750952Y-89019580D02*
X131798571Y-88924342D01*
X131798571Y-88924342D02*
X131798571Y-88733866D01*
X131798571Y-88733866D02*
X131750952Y-88638628D01*
X131750952Y-88638628D02*
X131703333Y-88591009D01*
X131703333Y-88591009D02*
X131608095Y-88543390D01*
X132227143Y-89114819D02*
X132227143Y-88114819D01*
X132227143Y-88114819D02*
X132608095Y-88114819D01*
X132608095Y-88114819D02*
X132703333Y-88162438D01*
X132703333Y-88162438D02*
X132750952Y-88210057D01*
X132750952Y-88210057D02*
X132798571Y-88305295D01*
X132798571Y-88305295D02*
X132798571Y-88448152D01*
X132798571Y-88448152D02*
X132750952Y-88543390D01*
X132750952Y-88543390D02*
X132703333Y-88591009D01*
X132703333Y-88591009D02*
X132608095Y-88638628D01*
X132608095Y-88638628D02*
X132227143Y-88638628D01*
X133227143Y-88733866D02*
X133989048Y-88733866D01*
X134417619Y-88829104D02*
X134893809Y-88829104D01*
X134322381Y-89114819D02*
X134655714Y-88114819D01*
X134655714Y-88114819D02*
X134989047Y-89114819D01*
X135322381Y-88114819D02*
X135322381Y-88924342D01*
X135322381Y-88924342D02*
X135370000Y-89019580D01*
X135370000Y-89019580D02*
X135417619Y-89067200D01*
X135417619Y-89067200D02*
X135512857Y-89114819D01*
X135512857Y-89114819D02*
X135703333Y-89114819D01*
X135703333Y-89114819D02*
X135798571Y-89067200D01*
X135798571Y-89067200D02*
X135846190Y-89019580D01*
X135846190Y-89019580D02*
X135893809Y-88924342D01*
X135893809Y-88924342D02*
X135893809Y-88114819D01*
%TO.C,J5*%
D13*
X106345000Y-50430000D02*
X106345000Y-41890000D01*
X106345000Y-54130000D02*
X106345000Y-56110000D01*
X116705000Y-56990000D02*
X117705000Y-56990000D01*
X117205000Y-56490000D02*
X116705000Y-56990000D01*
X117705000Y-56990000D02*
X117205000Y-56490000D01*
X121065000Y-41890000D02*
X106345000Y-41890000D01*
X121065000Y-50430000D02*
X121065000Y-41890000D01*
X121065000Y-56110000D02*
X106345000Y-56110000D01*
X121065000Y-56110000D02*
X121065000Y-54130000D01*
%TO.C,SW13*%
D14*
X51780000Y-74300000D02*
X51780000Y-73300000D01*
X51780000Y-86300000D02*
X51780000Y-85300000D01*
X51780000Y-86300000D02*
X52780000Y-86300000D01*
X52780000Y-73300000D02*
X51780000Y-73300000D01*
X63780000Y-86300000D02*
X64780000Y-86300000D01*
X64780000Y-73300000D02*
X63780000Y-73300000D01*
X64780000Y-73300000D02*
X64780000Y-74300000D01*
X64780000Y-85300000D02*
X64780000Y-86300000D01*
%TO.C,J7*%
D13*
X50845000Y-51855000D02*
X52225000Y-51855000D01*
X50845000Y-53235000D02*
X50845000Y-51855000D01*
X50845000Y-54505000D02*
X50845000Y-62235000D01*
X50845000Y-54505000D02*
X53605000Y-54505000D01*
X50845000Y-62235000D02*
X53605000Y-62235000D01*
X53605000Y-54505000D02*
X53605000Y-62235000D01*
%TO.C,SW14*%
D14*
X71720000Y-74300000D02*
X71720000Y-73300000D01*
X71720000Y-86300000D02*
X71720000Y-85300000D01*
X71720000Y-86300000D02*
X72720000Y-86300000D01*
X72720000Y-73300000D02*
X71720000Y-73300000D01*
X83720000Y-86300000D02*
X84720000Y-86300000D01*
X84720000Y-73300000D02*
X83720000Y-73300000D01*
X84720000Y-73300000D02*
X84720000Y-74300000D01*
X84720000Y-85300000D02*
X84720000Y-86300000D01*
%TO.C,3V3*%
D13*
X124380000Y-58590000D02*
X124380000Y-57210000D01*
X125760000Y-58590000D02*
X124380000Y-58590000D01*
X127030000Y-55830000D02*
X129680000Y-55830000D01*
X127030000Y-58590000D02*
X127030000Y-55830000D01*
X127030000Y-58590000D02*
X129680000Y-58590000D01*
X129680000Y-58590000D02*
X129680000Y-55830000D01*
%TO.C,R1*%
X74580000Y-58540000D02*
X75530000Y-58540000D01*
X80320000Y-58540000D02*
X79370000Y-58540000D01*
X75530000Y-57620000D02*
X79370000Y-57620000D01*
X79370000Y-59460000D01*
X75530000Y-59460000D01*
X75530000Y-57620000D01*
%TO.C,C1*%
X75220000Y-51770000D02*
X80060000Y-51770000D01*
X75220000Y-54010000D02*
X75220000Y-51770000D01*
X80060000Y-51770000D02*
X80060000Y-54010000D01*
X80060000Y-54010000D02*
X75220000Y-54010000D01*
%TO.C,SW15*%
D14*
X91500000Y-74300000D02*
X91500000Y-73300000D01*
X91500000Y-86300000D02*
X91500000Y-85300000D01*
X91500000Y-86300000D02*
X92500000Y-86300000D01*
X92500000Y-73300000D02*
X91500000Y-73300000D01*
X103500000Y-86300000D02*
X104500000Y-86300000D01*
X104500000Y-73300000D02*
X103500000Y-73300000D01*
X104500000Y-73300000D02*
X104500000Y-74300000D01*
X104500000Y-85300000D02*
X104500000Y-86300000D01*
%TO.C,SW2*%
X51780000Y-130510000D02*
X51780000Y-129510000D01*
X51780000Y-142510000D02*
X51780000Y-141510000D01*
X51780000Y-142510000D02*
X52780000Y-142510000D01*
X52780000Y-129510000D02*
X51780000Y-129510000D01*
X63780000Y-142510000D02*
X64780000Y-142510000D01*
X64780000Y-129510000D02*
X63780000Y-129510000D01*
X64780000Y-129510000D02*
X64780000Y-130510000D01*
X64780000Y-141510000D02*
X64780000Y-142510000D01*
%TO.C,U3*%
D15*
X63045000Y-58115000D02*
X63045000Y-58830259D01*
X63045000Y-63749741D02*
X63045000Y-64465000D01*
X63045000Y-64465000D02*
X63760259Y-64465000D01*
X63760259Y-58115000D02*
X63045000Y-58115000D01*
X68679741Y-64465000D02*
X69395000Y-64465000D01*
X69395000Y-58115000D02*
X68679741Y-58115000D01*
X69395000Y-58830259D02*
X69395000Y-58115000D01*
X69395000Y-64465000D02*
X69395000Y-63749741D01*
D16*
G36*
X64410499Y-65150800D02*
G01*
X64029499Y-65150800D01*
X64029499Y-64896800D01*
X64410499Y-64896800D01*
X64410499Y-65150800D01*
G37*
G36*
X67410501Y-57683200D02*
G01*
X67029501Y-57683200D01*
X67029501Y-57429200D01*
X67410501Y-57429200D01*
X67410501Y-57683200D01*
G37*
G36*
X70080800Y-62980500D02*
G01*
X69826800Y-62980500D01*
X69826800Y-62599500D01*
X70080800Y-62599500D01*
X70080800Y-62980500D01*
G37*
%TO.C,SW7*%
D14*
X71720000Y-112500000D02*
X71720000Y-111500000D01*
X71720000Y-124500000D02*
X71720000Y-123500000D01*
X71720000Y-124500000D02*
X72720000Y-124500000D01*
X72720000Y-111500000D02*
X71720000Y-111500000D01*
X83720000Y-124500000D02*
X84720000Y-124500000D01*
X84720000Y-111500000D02*
X83720000Y-111500000D01*
X84720000Y-111500000D02*
X84720000Y-112500000D01*
X84720000Y-123500000D02*
X84720000Y-124500000D01*
%TO.C,J4*%
D13*
X120130000Y-67530000D02*
X120130000Y-70290000D01*
X132940000Y-67530000D02*
X120130000Y-67530000D01*
X132940000Y-67530000D02*
X132940000Y-70290000D01*
X132940000Y-70290000D02*
X120130000Y-70290000D01*
X134210000Y-67530000D02*
X135590000Y-67530000D01*
X135590000Y-67530000D02*
X135590000Y-68910000D01*
%TO.C,TEMT6000*%
X109040000Y-59880000D02*
X109040000Y-58500000D01*
X110420000Y-59880000D02*
X109040000Y-59880000D01*
X111690000Y-57120000D02*
X116880000Y-57120000D01*
X111690000Y-59880000D02*
X111690000Y-57120000D01*
X111690000Y-59880000D02*
X116880000Y-59880000D01*
X116880000Y-59880000D02*
X116880000Y-57120000D01*
%TO.C,SW0*%
D14*
X62765000Y-148750000D02*
X62765000Y-147750000D01*
X62765000Y-160750000D02*
X62765000Y-159750000D01*
X62765000Y-160750000D02*
X63765000Y-160750000D01*
X63765000Y-147750000D02*
X62765000Y-147750000D01*
X74765000Y-160750000D02*
X75765000Y-160750000D01*
X75765000Y-147750000D02*
X74765000Y-147750000D01*
X75765000Y-147750000D02*
X75765000Y-148750000D01*
X75765000Y-159750000D02*
X75765000Y-160750000D01*
%TO.C,C2*%
D13*
X83280000Y-51720000D02*
X88120000Y-51720000D01*
X83280000Y-53960000D02*
X83280000Y-51720000D01*
X88120000Y-51720000D02*
X88120000Y-53960000D01*
X88120000Y-53960000D02*
X83280000Y-53960000D01*
%TO.C,SW3*%
D14*
X71720000Y-130510000D02*
X71720000Y-129510000D01*
X71720000Y-142510000D02*
X71720000Y-141510000D01*
X71720000Y-142510000D02*
X72720000Y-142510000D01*
X72720000Y-129510000D02*
X71720000Y-129510000D01*
X83720000Y-142510000D02*
X84720000Y-142510000D01*
X84720000Y-129510000D02*
X83720000Y-129510000D01*
X84720000Y-129510000D02*
X84720000Y-130510000D01*
X84720000Y-141510000D02*
X84720000Y-142510000D01*
%TO.C,SW16*%
X110975000Y-74300000D02*
X110975000Y-73300000D01*
X110975000Y-86300000D02*
X110975000Y-85300000D01*
X110975000Y-86300000D02*
X111975000Y-86300000D01*
X111975000Y-73300000D02*
X110975000Y-73300000D01*
X122975000Y-86300000D02*
X123975000Y-86300000D01*
X123975000Y-73300000D02*
X122975000Y-73300000D01*
X123975000Y-73300000D02*
X123975000Y-74300000D01*
X123975000Y-85300000D02*
X123975000Y-86300000D01*
%TO.C,SW5*%
X111350000Y-141550000D02*
X111350000Y-140550000D01*
X111350000Y-153550000D02*
X111350000Y-152550000D01*
X111350000Y-153550000D02*
X112350000Y-153550000D01*
X112350000Y-140550000D02*
X111350000Y-140550000D01*
X123350000Y-153550000D02*
X124350000Y-153550000D01*
X124350000Y-140550000D02*
X123350000Y-140550000D01*
X124350000Y-140550000D02*
X124350000Y-141550000D01*
X124350000Y-152550000D02*
X124350000Y-153550000D01*
%TO.C,J3*%
D13*
X101550000Y-45720000D02*
X102930000Y-45720000D01*
X101550000Y-47100000D02*
X101550000Y-45720000D01*
X101550000Y-48370000D02*
X101550000Y-66260000D01*
X101550000Y-48370000D02*
X104310000Y-48370000D01*
X101550000Y-66260000D02*
X104310000Y-66260000D01*
X104310000Y-48370000D02*
X104310000Y-66260000D01*
%TO.C,R2*%
X74640000Y-63810000D02*
X75590000Y-63810000D01*
X80380000Y-63810000D02*
X79430000Y-63810000D01*
X75590000Y-62890000D02*
X79430000Y-62890000D01*
X79430000Y-64730000D01*
X75590000Y-64730000D01*
X75590000Y-62890000D01*
%TO.C,SW11*%
D14*
X91500000Y-93920000D02*
X91500000Y-92920000D01*
X91500000Y-105920000D02*
X91500000Y-104920000D01*
X91500000Y-105920000D02*
X92500000Y-105920000D01*
X92500000Y-92920000D02*
X91500000Y-92920000D01*
X103500000Y-105920000D02*
X104500000Y-105920000D01*
X104500000Y-92920000D02*
X103500000Y-92920000D01*
X104500000Y-92920000D02*
X104500000Y-93920000D01*
X104500000Y-104920000D02*
X104500000Y-105920000D01*
%TO.C,U1*%
D17*
X127710000Y-91390000D02*
X127710000Y-91495000D01*
X127710000Y-91390000D02*
X127815000Y-91390000D01*
X127710000Y-98390000D02*
X127710000Y-98285000D01*
X127710000Y-98390000D02*
X127815000Y-98390000D01*
X134710000Y-91390000D02*
X134605000Y-91390000D01*
X134710000Y-91390000D02*
X134710000Y-91495000D01*
X134710000Y-98390000D02*
X134605000Y-98390000D01*
X134710000Y-98390000D02*
X134710000Y-98285000D01*
D12*
X125470000Y-92090000D02*
G75*
G02*
X125270000Y-92090000I-100000J0D01*
G01*
X125270000Y-92090000D02*
G75*
G02*
X125470000Y-92090000I100000J0D01*
G01*
%TO.C,SW6*%
D14*
X51780000Y-112500000D02*
X51780000Y-111500000D01*
X51780000Y-124500000D02*
X51780000Y-123500000D01*
X51780000Y-124500000D02*
X52780000Y-124500000D01*
X52780000Y-111500000D02*
X51780000Y-111500000D01*
X63780000Y-124500000D02*
X64780000Y-124500000D01*
X64780000Y-111500000D02*
X63780000Y-111500000D01*
X64780000Y-111500000D02*
X64780000Y-112500000D01*
X64780000Y-123500000D02*
X64780000Y-124500000D01*
%TO.C,J2*%
D13*
X123370000Y-41840000D02*
X123370000Y-44600000D01*
X133640000Y-41840000D02*
X123370000Y-41840000D01*
X133640000Y-41840000D02*
X133640000Y-44600000D01*
X133640000Y-44600000D02*
X123370000Y-44600000D01*
X134910000Y-41840000D02*
X136290000Y-41840000D01*
X136290000Y-41840000D02*
X136290000Y-43220000D01*
%TO.C,Y1*%
X65665000Y-50785000D02*
X71915000Y-50785000D01*
X71915000Y-55655000D02*
X65665000Y-55655000D01*
X65665000Y-55655000D02*
G75*
G02*
X65665000Y-50785000I0J2435000D01*
G01*
X71915000Y-50785000D02*
G75*
G02*
X71915000Y-55655000I0J-2435000D01*
G01*
%TO.C,SW1*%
D14*
X91500000Y-149700000D02*
X91500000Y-148700000D01*
X91500000Y-161700000D02*
X91500000Y-160700000D01*
X91500000Y-161700000D02*
X92500000Y-161700000D01*
X92500000Y-148700000D02*
X91500000Y-148700000D01*
X103500000Y-161700000D02*
X104500000Y-161700000D01*
X104500000Y-148700000D02*
X103500000Y-148700000D01*
X104500000Y-148700000D02*
X104500000Y-149700000D01*
X104500000Y-160700000D02*
X104500000Y-161700000D01*
%TO.C,SW8*%
X91500000Y-112500000D02*
X91500000Y-111500000D01*
X91500000Y-124500000D02*
X91500000Y-123500000D01*
X91500000Y-124500000D02*
X92500000Y-124500000D01*
X92500000Y-111500000D02*
X91500000Y-111500000D01*
X103500000Y-124500000D02*
X104500000Y-124500000D01*
X104500000Y-111500000D02*
X103500000Y-111500000D01*
X104500000Y-111500000D02*
X104500000Y-112500000D01*
X104500000Y-123500000D02*
X104500000Y-124500000D01*
%TO.C,5V1*%
D13*
X124500000Y-54690000D02*
X124500000Y-53310000D01*
X125880000Y-54690000D02*
X124500000Y-54690000D01*
X127150000Y-51930000D02*
X129800000Y-51930000D01*
X127150000Y-54690000D02*
X127150000Y-51930000D01*
X127150000Y-54690000D02*
X129800000Y-54690000D01*
X129800000Y-54690000D02*
X129800000Y-51930000D01*
%TO.C,SW4*%
D14*
X91500000Y-130510000D02*
X91500000Y-129510000D01*
X91500000Y-142510000D02*
X91500000Y-141510000D01*
X91500000Y-142510000D02*
X92500000Y-142510000D01*
X92500000Y-129510000D02*
X91500000Y-129510000D01*
X103500000Y-142510000D02*
X104500000Y-142510000D01*
X104500000Y-129510000D02*
X103500000Y-129510000D01*
X104500000Y-129510000D02*
X104500000Y-130510000D01*
X104500000Y-141510000D02*
X104500000Y-142510000D01*
%TO.C,SW9*%
X51780000Y-93920000D02*
X51780000Y-92920000D01*
X51780000Y-105920000D02*
X51780000Y-104920000D01*
X51780000Y-105920000D02*
X52780000Y-105920000D01*
X52780000Y-92920000D02*
X51780000Y-92920000D01*
X63780000Y-105920000D02*
X64780000Y-105920000D01*
X64780000Y-92920000D02*
X63780000Y-92920000D01*
X64780000Y-92920000D02*
X64780000Y-93920000D01*
X64780000Y-104920000D02*
X64780000Y-105920000D01*
%TO.C,SW12*%
X111500000Y-102900000D02*
X111500000Y-101900000D01*
X111500000Y-114900000D02*
X111500000Y-113900000D01*
X111500000Y-114900000D02*
X112500000Y-114900000D01*
X112500000Y-101900000D02*
X111500000Y-101900000D01*
X123500000Y-114900000D02*
X124500000Y-114900000D01*
X124500000Y-101900000D02*
X123500000Y-101900000D01*
X124500000Y-101900000D02*
X124500000Y-102900000D01*
X124500000Y-113900000D02*
X124500000Y-114900000D01*
%TO.C,SW10*%
X71720000Y-93920000D02*
X71720000Y-92920000D01*
X71720000Y-105920000D02*
X71720000Y-104920000D01*
X71720000Y-105920000D02*
X72720000Y-105920000D01*
X72720000Y-92920000D02*
X71720000Y-92920000D01*
X83720000Y-105920000D02*
X84720000Y-105920000D01*
X84720000Y-92920000D02*
X83720000Y-92920000D01*
X84720000Y-92920000D02*
X84720000Y-93920000D01*
X84720000Y-104920000D02*
X84720000Y-105920000D01*
%TD*%
M02*
