%TF.GenerationSoftware,KiCad,Pcbnew,10.0.0*%
%TF.CreationDate,2026-04-15T14:14:36-04:00*%
%TF.ProjectId,numberpad,6e756d62-6572-4706-9164-2e6b69636164,rev?*%
%TF.SameCoordinates,Original*%
%TF.FileFunction,Profile,NP*%
%FSLAX46Y46*%
G04 Gerber Fmt 4.6, Leading zero omitted, Abs format (unit mm)*
G04 Created by KiCad (PCBNEW 10.0.0) date 2026-04-15 14:14:36*
%MOMM*%
%LPD*%
G01*
G04 APERTURE LIST*
%TA.AperFunction,Profile*%
%ADD10C,0.050000*%
%TD*%
%TA.AperFunction,Profile*%
%ADD11C,0.120000*%
%TD*%
%TA.AperFunction,Profile*%
%ADD12C,0.010000*%
%TD*%
G04 APERTURE END LIST*
D10*
X40190000Y-40870000D02*
X137190000Y-40870000D01*
X137190000Y-168090000D01*
X40190000Y-168090000D01*
X40190000Y-40870000D01*
X46806974Y-158760000D02*
G75*
G02*
X42613026Y-158760000I-2096974J0D01*
G01*
X42613026Y-158760000D02*
G75*
G02*
X46806974Y-158760000I2096974J0D01*
G01*
X46272012Y-75797988D02*
G75*
G02*
X43287988Y-75797988I-1492012J0D01*
G01*
X43287988Y-75797988D02*
G75*
G02*
X46272012Y-75797988I1492012J0D01*
G01*
X132060000Y-158760000D02*
G75*
G02*
X128360000Y-158760000I-1850000J0D01*
G01*
X128360000Y-158760000D02*
G75*
G02*
X132060000Y-158760000I1850000J0D01*
G01*
X132000000Y-78000000D02*
G75*
G02*
X129000000Y-78000000I-1500000J0D01*
G01*
X129000000Y-78000000D02*
G75*
G02*
X132000000Y-78000000I1500000J0D01*
G01*
%TO.C,REF\u002A\u002A*%
D11*
X108175000Y-132150000D02*
X124175000Y-132150000D01*
X124175000Y-138650000D01*
X108175000Y-138650000D01*
X108175000Y-132150000D01*
X108175000Y-156150000D02*
X124175000Y-156150000D01*
X124175000Y-162650000D01*
X108175000Y-162650000D01*
X108175000Y-156150000D01*
X108200000Y-93150000D02*
X124200000Y-93150000D01*
X124200000Y-99650000D01*
X108200000Y-99650000D01*
X108200000Y-93150000D01*
X108200000Y-117150000D02*
X124200000Y-117150000D01*
X124200000Y-123650000D01*
X108200000Y-123650000D01*
X108200000Y-117150000D01*
X53250000Y-148205000D02*
X59750000Y-148205000D01*
X59750000Y-164205000D01*
X53250000Y-164205000D01*
X53250000Y-148205000D01*
X77250000Y-148205000D02*
X83750000Y-148205000D01*
X83750000Y-164205000D01*
X77250000Y-164205000D01*
X77250000Y-148205000D01*
%TO.C,D23*%
D12*
X55790000Y-111320000D02*
X55790000Y-114320000D01*
X55790000Y-114320000D02*
X59190000Y-114320000D01*
X59190000Y-111320000D02*
X55790000Y-111320000D01*
X59190000Y-114320000D02*
X59190000Y-111320000D01*
%TO.C,D17*%
X67530000Y-147650000D02*
X67530000Y-150650000D01*
X67530000Y-150650000D02*
X70930000Y-150650000D01*
X70930000Y-147650000D02*
X67530000Y-147650000D01*
X70930000Y-150650000D02*
X70930000Y-147650000D01*
%TO.C,D24*%
X75630000Y-111310000D02*
X75630000Y-114310000D01*
X75630000Y-114310000D02*
X79030000Y-114310000D01*
X79030000Y-111310000D02*
X75630000Y-111310000D01*
X79030000Y-114310000D02*
X79030000Y-111310000D01*
%TO.C,D25*%
X95690000Y-111320000D02*
X95690000Y-114320000D01*
X95690000Y-114320000D02*
X99090000Y-114320000D01*
X99090000Y-111320000D02*
X95690000Y-111320000D01*
X99090000Y-114320000D02*
X99090000Y-111320000D01*
%TO.C,D28*%
X95800000Y-92725000D02*
X95800000Y-95725000D01*
X95800000Y-95725000D02*
X99200000Y-95725000D01*
X99200000Y-92725000D02*
X95800000Y-92725000D01*
X99200000Y-95725000D02*
X99200000Y-92725000D01*
%TO.C,D31*%
X76550000Y-73260000D02*
X76550000Y-76260000D01*
X76550000Y-76260000D02*
X79950000Y-76260000D01*
X79950000Y-73260000D02*
X76550000Y-73260000D01*
X79950000Y-76260000D02*
X79950000Y-73260000D01*
%TO.C,D30*%
X56310000Y-73200000D02*
X56310000Y-76200000D01*
X56310000Y-76200000D02*
X59710000Y-76200000D01*
X59710000Y-73200000D02*
X56310000Y-73200000D01*
X59710000Y-76200000D02*
X59710000Y-73200000D01*
%TO.C,D18*%
X96030000Y-148550000D02*
X96030000Y-151550000D01*
X96030000Y-151550000D02*
X99430000Y-151550000D01*
X99430000Y-148550000D02*
X96030000Y-148550000D01*
X99430000Y-151550000D02*
X99430000Y-148550000D01*
%TO.C,D19*%
X56090000Y-129390000D02*
X56090000Y-132390000D01*
X56090000Y-132390000D02*
X59490000Y-132390000D01*
X59490000Y-129390000D02*
X56090000Y-129390000D01*
X59490000Y-132390000D02*
X59490000Y-129390000D01*
%TO.C,D20*%
X75640000Y-129320000D02*
X75640000Y-132320000D01*
X75640000Y-132320000D02*
X79040000Y-132320000D01*
X79040000Y-129320000D02*
X75640000Y-129320000D01*
X79040000Y-132320000D02*
X79040000Y-129320000D01*
%TO.C,D32*%
X95950000Y-73230000D02*
X95950000Y-76230000D01*
X95950000Y-76230000D02*
X99350000Y-76230000D01*
X99350000Y-73230000D02*
X95950000Y-73230000D01*
X99350000Y-76230000D02*
X99350000Y-73230000D01*
%TO.C,D26*%
X56275000Y-92825000D02*
X56275000Y-95825000D01*
X56275000Y-95825000D02*
X59675000Y-95825000D01*
X59675000Y-92825000D02*
X56275000Y-92825000D01*
X59675000Y-95825000D02*
X59675000Y-92825000D01*
%TO.C,D21*%
X95640000Y-129260000D02*
X95640000Y-132260000D01*
X95640000Y-132260000D02*
X99040000Y-132260000D01*
X99040000Y-129260000D02*
X95640000Y-129260000D01*
X99040000Y-132260000D02*
X99040000Y-129260000D01*
%TO.C,D29*%
X116025000Y-101775000D02*
X116025000Y-104775000D01*
X116025000Y-104775000D02*
X119425000Y-104775000D01*
X119425000Y-101775000D02*
X116025000Y-101775000D01*
X119425000Y-104775000D02*
X119425000Y-101775000D01*
%TO.C,D33*%
X115340000Y-73370000D02*
X115340000Y-76370000D01*
X115340000Y-76370000D02*
X118740000Y-76370000D01*
X118740000Y-73370000D02*
X115340000Y-73370000D01*
X118740000Y-76370000D02*
X118740000Y-73370000D01*
%TO.C,D22*%
X116025000Y-140125000D02*
X116025000Y-143125000D01*
X116025000Y-143125000D02*
X119425000Y-143125000D01*
X119425000Y-140125000D02*
X116025000Y-140125000D01*
X119425000Y-143125000D02*
X119425000Y-140125000D01*
%TO.C,D27*%
X75975000Y-92975000D02*
X75975000Y-95975000D01*
X75975000Y-95975000D02*
X79375000Y-95975000D01*
X79375000Y-92975000D02*
X75975000Y-92975000D01*
X79375000Y-95975000D02*
X79375000Y-92975000D01*
%TD*%
M02*
