%TF.GenerationSoftware,KiCad,Pcbnew,9.0.6*%
%TF.CreationDate,2026-03-08T21:19:32-04:00*%
%TF.ProjectId,numberpad,6e756d62-6572-4706-9164-2e6b69636164,rev?*%
%TF.SameCoordinates,Original*%
%TF.FileFunction,Profile,NP*%
%FSLAX46Y46*%
G04 Gerber Fmt 4.6, Leading zero omitted, Abs format (unit mm)*
G04 Created by KiCad (PCBNEW 9.0.6) date 2026-03-08 21:19:32*
%MOMM*%
%LPD*%
G01*
G04 APERTURE LIST*
%TA.AperFunction,Profile*%
%ADD10C,0.050000*%
%TD*%
%TA.AperFunction,Profile*%
%ADD11C,0.120000*%
%TD*%
%TA.AperFunction,Profile*%
%ADD12C,0.010000*%
%TD*%
G04 APERTURE END LIST*
D10*
X40190000Y-40870000D02*
X137190000Y-40870000D01*
X137190000Y-165740000D01*
X40190000Y-165740000D01*
X40190000Y-40870000D01*
X135850000Y-62950000D02*
G75*
G02*
X132850000Y-62950000I-1500000J0D01*
G01*
X132850000Y-62950000D02*
G75*
G02*
X135850000Y-62950000I1500000J0D01*
G01*
X46272012Y-75797988D02*
G75*
G02*
X43287988Y-75797988I-1492012J0D01*
G01*
X43287988Y-75797988D02*
G75*
G02*
X46272012Y-75797988I1492012J0D01*
G01*
X46806974Y-158760000D02*
G75*
G02*
X42613026Y-158760000I-2096974J0D01*
G01*
X42613026Y-158760000D02*
G75*
G02*
X46806974Y-158760000I2096974J0D01*
G01*
X132060000Y-158760000D02*
G75*
G02*
X128360000Y-158760000I-1850000J0D01*
G01*
X128360000Y-158760000D02*
G75*
G02*
X132060000Y-158760000I1850000J0D01*
G01*
%TO.C,REF\u002A\u002A*%
D11*
X124590000Y-137860000D02*
X108590000Y-137860000D01*
X108590000Y-131360000D01*
X124590000Y-131360000D01*
X124590000Y-137860000D01*
X124590000Y-155360000D02*
X108590000Y-155360000D01*
X108590000Y-161860000D01*
X124590000Y-161860000D01*
X124590000Y-155360000D01*
X123920000Y-99630000D02*
X107920000Y-99630000D01*
X107920000Y-93130000D01*
X123920000Y-93130000D01*
X123920000Y-99630000D01*
X123920000Y-117130000D02*
X107920000Y-117130000D01*
X107920000Y-123630000D01*
X123920000Y-123630000D01*
X123920000Y-117130000D01*
X60260000Y-163780000D02*
X53760000Y-163780000D01*
X53760000Y-147780000D01*
X60260000Y-147780000D01*
X60260000Y-163780000D01*
X77760000Y-163780000D02*
X84260000Y-163780000D01*
X84260000Y-147780000D01*
X77760000Y-147780000D01*
X77760000Y-163780000D01*
D12*
%TO.C,D23*%
X56790000Y-111640000D02*
X56790000Y-114640000D01*
X56790000Y-114640000D02*
X60190000Y-114640000D01*
X60190000Y-111640000D02*
X56790000Y-111640000D01*
X60190000Y-114640000D02*
X60190000Y-111640000D01*
%TO.C,D17*%
X67490000Y-148900000D02*
X67490000Y-151900000D01*
X67490000Y-151900000D02*
X70890000Y-151900000D01*
X70890000Y-148900000D02*
X67490000Y-148900000D01*
X70890000Y-151900000D02*
X70890000Y-148900000D01*
%TO.C,D24*%
X76630000Y-111630000D02*
X76630000Y-114630000D01*
X76630000Y-114630000D02*
X80030000Y-114630000D01*
X80030000Y-111630000D02*
X76630000Y-111630000D01*
X80030000Y-114630000D02*
X80030000Y-111630000D01*
%TO.C,D25*%
X96690000Y-111640000D02*
X96690000Y-114640000D01*
X96690000Y-114640000D02*
X100090000Y-114640000D01*
X100090000Y-111640000D02*
X96690000Y-111640000D01*
X100090000Y-114640000D02*
X100090000Y-111640000D01*
%TO.C,D28*%
X97250000Y-93215000D02*
X97250000Y-96215000D01*
X97250000Y-96215000D02*
X100650000Y-96215000D01*
X100650000Y-93215000D02*
X97250000Y-93215000D01*
X100650000Y-96215000D02*
X100650000Y-93215000D01*
%TO.C,D31*%
X76610000Y-74450000D02*
X76610000Y-77450000D01*
X76610000Y-77450000D02*
X80010000Y-77450000D01*
X80010000Y-74450000D02*
X76610000Y-74450000D01*
X80010000Y-77450000D02*
X80010000Y-74450000D01*
%TO.C,D30*%
X56800000Y-74490000D02*
X56800000Y-77490000D01*
X56800000Y-77490000D02*
X60200000Y-77490000D01*
X60200000Y-74490000D02*
X56800000Y-74490000D01*
X60200000Y-77490000D02*
X60200000Y-74490000D01*
%TO.C,D18*%
X96710000Y-148920000D02*
X96710000Y-151920000D01*
X96710000Y-151920000D02*
X100110000Y-151920000D01*
X100110000Y-148920000D02*
X96710000Y-148920000D01*
X100110000Y-151920000D02*
X100110000Y-148920000D01*
%TO.C,D19*%
X57210000Y-129630000D02*
X57210000Y-132630000D01*
X57210000Y-132630000D02*
X60610000Y-132630000D01*
X60610000Y-129630000D02*
X57210000Y-129630000D01*
X60610000Y-132630000D02*
X60610000Y-129630000D01*
%TO.C,D20*%
X76760000Y-129560000D02*
X76760000Y-132560000D01*
X76760000Y-132560000D02*
X80160000Y-132560000D01*
X80160000Y-129560000D02*
X76760000Y-129560000D01*
X80160000Y-132560000D02*
X80160000Y-129560000D01*
%TO.C,D32*%
X96550000Y-74460000D02*
X96550000Y-77460000D01*
X96550000Y-77460000D02*
X99950000Y-77460000D01*
X99950000Y-74460000D02*
X96550000Y-74460000D01*
X99950000Y-77460000D02*
X99950000Y-74460000D01*
%TO.C,D26*%
X57650000Y-93285000D02*
X57650000Y-96285000D01*
X57650000Y-96285000D02*
X61050000Y-96285000D01*
X61050000Y-93285000D02*
X57650000Y-93285000D01*
X61050000Y-96285000D02*
X61050000Y-93285000D01*
%TO.C,D21*%
X96760000Y-129500000D02*
X96760000Y-132500000D01*
X96760000Y-132500000D02*
X100160000Y-132500000D01*
X100160000Y-129500000D02*
X96760000Y-129500000D01*
X100160000Y-132500000D02*
X100160000Y-129500000D01*
%TO.C,D29*%
X114820000Y-101960000D02*
X114820000Y-104960000D01*
X114820000Y-104960000D02*
X118220000Y-104960000D01*
X118220000Y-101960000D02*
X114820000Y-101960000D01*
X118220000Y-104960000D02*
X118220000Y-101960000D01*
%TO.C,D33*%
X115220000Y-74460000D02*
X115220000Y-77460000D01*
X115220000Y-77460000D02*
X118620000Y-77460000D01*
X118620000Y-74460000D02*
X115220000Y-74460000D01*
X118620000Y-77460000D02*
X118620000Y-74460000D01*
%TO.C,D22*%
X114770000Y-140060000D02*
X114770000Y-143060000D01*
X114770000Y-143060000D02*
X118170000Y-143060000D01*
X118170000Y-140060000D02*
X114770000Y-140060000D01*
X118170000Y-143060000D02*
X118170000Y-140060000D01*
%TO.C,D27*%
X77370000Y-93120000D02*
X77370000Y-96120000D01*
X77370000Y-96120000D02*
X80770000Y-96120000D01*
X80770000Y-93120000D02*
X77370000Y-93120000D01*
X80770000Y-96120000D02*
X80770000Y-93120000D01*
%TD*%
M02*
