M48
; DRILL file {KiCad 9.0.6} date 2026-03-08T21:19:42-0400
; FORMAT={-:-/ absolute / metric / decimal}
; #@! TF.CreationDate,2026-03-08T21:19:42-04:00
; #@! TF.GenerationSoftware,Kicad,Pcbnew,9.0.6
; #@! TF.FileFunction,Plated,1,2,PTH
FMAT,2
METRIC
; #@! TA.AperFunction,Plated,PTH,ViaDrill
T1C0.300
; #@! TA.AperFunction,Plated,PTH,ComponentDrill
T2C0.700
; #@! TA.AperFunction,Plated,PTH,ComponentDrill
T3C0.800
; #@! TA.AperFunction,Plated,PTH,ComponentDrill
T4C0.900
; #@! TA.AperFunction,Plated,PTH,ComponentDrill
T5C0.920
; #@! TA.AperFunction,Plated,PTH,ComponentDrill
T6C1.000
; #@! TA.AperFunction,Plated,PTH,ComponentDrill
T7C1.020
; #@! TA.AperFunction,Plated,PTH,ComponentDrill
T8C2.300
; #@! TA.AperFunction,Plated,PTH,ComponentDrill
T9C3.000
%
G90
G05
T1
X44.47Y-61.52
X50.39Y-57.3
X50.575Y-56.335
X52.825Y-161.95
X55.54Y-109.36
X55.89Y-113.89
X55.9Y-75.24
X56.1Y-50.18
X56.31Y-131.88
X56.8Y-51.12
X56.91Y-54.12
X57.75Y-52.62
X58.57Y-88.64
X58.98Y-60.88
X59.08Y-46.1
X59.63Y-60.38
X61.09Y-112.39
X61.09Y-113.89
X61.1Y-76.74
X61.12Y-73.96
X61.51Y-130.38
X61.51Y-131.88
X61.95Y-94.035
X61.95Y-95.535
X62.22Y-57.09
X63.03Y-76.5
X66.22Y-61.29
X68.63Y-90.19
X68.81Y-71.33
X68.86Y-56.17
X69.88Y-56.27
X70.27Y-67.44
X71.79Y-149.65
X71.79Y-151.15
X72.0Y-76.46
X73.835Y-74.635
X74.285Y-90.885
X75.61Y-82.18
X75.71Y-75.2
X75.73Y-113.88
X75.86Y-131.81
X76.47Y-95.37
X78.34Y-72.32
X79.2Y-90.19
X80.1Y-72.39
X80.91Y-75.2
X80.91Y-76.7
X80.93Y-112.38
X80.93Y-113.88
X81.06Y-130.31
X81.06Y-131.81
X81.67Y-93.87
X81.67Y-95.37
X85.47Y-72.34
X86.02Y-75.45
X89.03Y-83.19
X90.55Y-83.09
X95.79Y-113.89
X95.81Y-151.17
X95.86Y-131.75
X96.35Y-95.465
X97.45Y-45.15
X99.27Y-109.73
X99.48Y-44.4
X99.58Y-47.23
X100.85Y-75.21
X100.85Y-76.71
X100.92Y-44.68
X100.99Y-113.89
X101.01Y-149.67
X101.01Y-151.17
X101.06Y-130.25
X101.06Y-131.75
X101.09Y-67.63
X101.55Y-93.965
X101.55Y-95.465
X104.81Y-57.28
X104.96Y-72.16
X106.6Y-45.78
X106.755Y-64.875
X108.28Y-59.72
X108.47Y-126.31
X108.71Y-61.63
X111.477Y-104.17
X112.29Y-65.03
X113.87Y-142.31
X113.92Y-104.21
X114.32Y-76.71
X114.36Y-71.38
X116.63Y-67.62
X117.44Y-53.48
X118.805Y-48.325
X119.07Y-140.81
X119.07Y-142.31
X119.12Y-102.71
X119.12Y-104.21
X119.52Y-76.71
X121.53Y-56.93
X122.71Y-74.1
X123.46Y-102.84
X125.55Y-101.16
X127.58Y-118.01
X129.42Y-91.07
X129.43Y-101.57
X131.04Y-146.63
X131.12Y-127.8
X131.4Y-72.47
X131.69Y-124.76
X132.9Y-72.11
X133.28Y-93.43
X133.29Y-92.51
X133.41Y-101.94
X133.65Y-83.65
X133.65Y-86.58
X134.12Y-89.39
X134.79Y-94.04
X135.04Y-101.24
X135.39Y-91.6
X135.41Y-88.23
X136.15Y-88.6
T2
X73.64Y-58.54
X73.7Y-63.81
X76.39Y-52.89
X78.89Y-52.89
X81.26Y-58.54
X81.32Y-63.81
X84.45Y-52.84
X86.95Y-52.84
T3
X66.35Y-53.22
X71.25Y-53.22
T4
X134.36Y-51.93
X134.36Y-54.43
X134.36Y-56.93
T5
X110.205Y-54.99
X112.705Y-54.99
X114.705Y-54.99
X117.205Y-54.99
T6
X43.18Y-52.59
X43.18Y-55.13
X43.18Y-57.67
X43.18Y-60.21
X102.93Y-47.1
X102.93Y-49.64
X102.93Y-52.18
X102.93Y-54.72
X102.93Y-57.26
X102.93Y-59.8
X102.93Y-62.34
X102.93Y-64.88
X110.41Y-58.53
X112.95Y-58.53
X115.49Y-58.53
X121.51Y-68.91
X124.05Y-68.91
X124.75Y-43.22
X125.76Y-57.21
X125.88Y-53.31
X126.59Y-68.91
X126.73Y-120.54
X126.73Y-123.08
X126.73Y-125.62
X126.73Y-128.16
X126.73Y-130.7
X126.73Y-133.24
X126.73Y-135.78
X126.73Y-138.32
X127.29Y-43.22
X128.3Y-57.21
X128.42Y-53.31
X129.13Y-68.91
X129.83Y-43.22
X131.67Y-68.91
X132.37Y-43.22
X134.21Y-68.91
X134.91Y-43.22
T7
X43.62Y-43.02
X43.65Y-69.45
X46.16Y-43.02
X46.19Y-69.45
X48.7Y-43.02
X48.73Y-69.45
X51.24Y-43.02
X51.27Y-69.45
X53.78Y-43.02
X53.81Y-69.45
X56.32Y-43.02
X56.35Y-69.45
X58.86Y-43.02
X58.89Y-69.45
X61.4Y-43.02
X61.43Y-69.45
X63.94Y-43.02
X63.97Y-69.45
X66.48Y-43.02
X66.51Y-69.45
X69.02Y-43.02
X69.05Y-69.45
X71.56Y-43.02
X71.59Y-69.45
X74.1Y-43.02
X74.13Y-69.45
X76.64Y-43.02
X76.67Y-69.45
X79.18Y-43.02
X79.21Y-69.45
X81.72Y-43.02
X81.75Y-69.45
X84.26Y-43.02
X84.29Y-69.45
X86.8Y-43.02
X86.83Y-69.45
X89.34Y-43.02
X89.37Y-69.45
X91.88Y-43.02
X91.91Y-69.45
X94.42Y-43.02
X94.45Y-69.45
X96.96Y-43.02
X96.99Y-69.45
T8
X107.03Y-52.28
X120.38Y-52.28
T9
X55.0Y-85.84
X55.0Y-104.64
X55.0Y-123.02
X55.0Y-140.95
X62.0Y-86.89
X62.0Y-105.69
X62.0Y-124.07
X62.0Y-142.0
X65.46Y-160.13
X72.46Y-161.18
X74.72Y-85.83
X74.72Y-104.42
X74.72Y-123.01
X74.72Y-140.94
X81.72Y-86.88
X81.72Y-105.47
X81.72Y-124.06
X81.72Y-141.99
X94.6Y-85.84
X94.6Y-104.56
X94.6Y-123.02
X94.6Y-140.95
X94.6Y-160.31
X101.6Y-86.89
X101.6Y-105.61
X101.6Y-124.07
X101.6Y-142.0
X101.6Y-161.36
X112.57Y-85.88
X112.57Y-151.32
X112.645Y-113.33
X119.57Y-86.93
X119.57Y-152.37
X119.645Y-114.38
M30
