%TF.GenerationSoftware,KiCad,Pcbnew,9.0.6*%
%TF.CreationDate,2026-03-08T21:19:32-04:00*%
%TF.ProjectId,numberpad,6e756d62-6572-4706-9164-2e6b69636164,rev?*%
%TF.SameCoordinates,Original*%
%TF.FileFunction,Soldermask,Bot*%
%TF.FilePolarity,Negative*%
%FSLAX46Y46*%
G04 Gerber Fmt 4.6, Leading zero omitted, Abs format (unit mm)*
G04 Created by KiCad (PCBNEW 9.0.6) date 2026-03-08 21:19:32*
%MOMM*%
%LPD*%
G01*
G04 APERTURE LIST*
G04 Aperture macros list*
%AMRoundRect*
0 Rectangle with rounded corners*
0 $1 Rounding radius*
0 $2 $3 $4 $5 $6 $7 $8 $9 X,Y pos of 4 corners*
0 Add a 4 corners polygon primitive as box body*
4,1,4,$2,$3,$4,$5,$6,$7,$8,$9,$2,$3,0*
0 Add four circle primitives for the rounded corners*
1,1,$1+$1,$2,$3*
1,1,$1+$1,$4,$5*
1,1,$1+$1,$6,$7*
1,1,$1+$1,$8,$9*
0 Add four rect primitives between the rounded corners*
20,1,$1+$1,$2,$3,$4,$5,0*
20,1,$1+$1,$4,$5,$6,$7,0*
20,1,$1+$1,$6,$7,$8,$9,0*
20,1,$1+$1,$8,$9,$2,$3,0*%
G04 Aperture macros list end*
%ADD10R,1.524000X1.524000*%
%ADD11C,1.524000*%
%ADD12C,3.500000*%
%ADD13C,5.250000*%
%ADD14RoundRect,0.500000X-0.750000X-0.775000X0.750000X-0.775000X0.750000X0.775000X-0.750000X0.775000X0*%
%ADD15C,4.000000*%
%ADD16R,1.700000X1.700000*%
%ADD17C,1.700000*%
%ADD18C,1.400000*%
%ADD19C,1.500000*%
%ADD20RoundRect,0.102000X-0.900000X-0.410000X0.900000X-0.410000X0.900000X0.410000X-0.900000X0.410000X0*%
%ADD21RoundRect,0.150000X-0.150000X-0.200000X0.150000X-0.200000X0.150000X0.200000X-0.150000X0.200000X0*%
%ADD22RoundRect,0.150000X0.200000X-0.150000X0.200000X0.150000X-0.200000X0.150000X-0.200000X-0.150000X0*%
%ADD23RoundRect,0.102000X0.765000X-0.765000X0.765000X0.765000X-0.765000X0.765000X-0.765000X-0.765000X0*%
%ADD24C,1.734000*%
%ADD25RoundRect,0.102000X0.704000X-0.704000X0.704000X0.704000X-0.704000X0.704000X-0.704000X-0.704000X0*%
%ADD26C,1.612000*%
G04 APERTURE END LIST*
D10*
%TO.C,J5*%
X117205000Y-54990000D03*
D11*
X114705000Y-54990000D03*
X112705000Y-54990000D03*
X110205000Y-54990000D03*
D12*
X120380000Y-52280000D03*
X107030000Y-52280000D03*
%TD*%
D13*
%TO.C,SW13*%
X59400000Y-81140000D03*
D14*
X51325000Y-85840000D03*
D15*
X55000000Y-85840000D03*
X62000000Y-86890000D03*
D14*
X65675000Y-86890000D03*
%TD*%
D16*
%TO.C,J7*%
X43180000Y-52590000D03*
D17*
X43180000Y-55130000D03*
X43180000Y-57670000D03*
X43180000Y-60210000D03*
%TD*%
D13*
%TO.C,SW14*%
X79120000Y-81130000D03*
D14*
X71045000Y-85830000D03*
D15*
X74720000Y-85830000D03*
X81720000Y-86880000D03*
D14*
X85395000Y-86880000D03*
%TD*%
D16*
%TO.C,3V3*%
X125760000Y-57210000D03*
D17*
X128300000Y-57210000D03*
%TD*%
D18*
%TO.C,R1*%
X73640000Y-58540000D03*
X81260000Y-58540000D03*
%TD*%
%TO.C,C1*%
X76390000Y-52890000D03*
X78890000Y-52890000D03*
%TD*%
D13*
%TO.C,SW15*%
X99000000Y-81140000D03*
D14*
X90925000Y-85840000D03*
D15*
X94600000Y-85840000D03*
X101600000Y-86890000D03*
D14*
X105275000Y-86890000D03*
%TD*%
D13*
%TO.C,SW2*%
X59400000Y-136250000D03*
D14*
X51325000Y-140950000D03*
D15*
X55000000Y-140950000D03*
X62000000Y-142000000D03*
D14*
X65675000Y-142000000D03*
%TD*%
D13*
%TO.C,SW7*%
X79120000Y-118310000D03*
D14*
X71045000Y-123010000D03*
D15*
X74720000Y-123010000D03*
X81720000Y-124060000D03*
D14*
X85395000Y-124060000D03*
%TD*%
D16*
%TO.C,J4*%
X134210000Y-68910000D03*
D17*
X131670000Y-68910000D03*
X129130000Y-68910000D03*
X126590000Y-68910000D03*
X124050000Y-68910000D03*
X121510000Y-68910000D03*
%TD*%
D16*
%TO.C,J1*%
X110410000Y-58530000D03*
D17*
X112950000Y-58530000D03*
X115490000Y-58530000D03*
%TD*%
D13*
%TO.C,SW0*%
X69860000Y-155430000D03*
D14*
X61785000Y-160130000D03*
D15*
X65460000Y-160130000D03*
X72460000Y-161180000D03*
D14*
X76135000Y-161180000D03*
%TD*%
D18*
%TO.C,C2*%
X84450000Y-52840000D03*
X86950000Y-52840000D03*
%TD*%
D13*
%TO.C,SW3*%
X79120000Y-136240000D03*
D14*
X71045000Y-140940000D03*
D15*
X74720000Y-140940000D03*
X81720000Y-141990000D03*
D14*
X85395000Y-141990000D03*
%TD*%
D13*
%TO.C,SW16*%
X116970000Y-81180000D03*
D14*
X108895000Y-85880000D03*
D15*
X112570000Y-85880000D03*
X119570000Y-86930000D03*
D14*
X123245000Y-86930000D03*
%TD*%
D13*
%TO.C,SW5*%
X116970000Y-146620000D03*
D14*
X108895000Y-151320000D03*
D15*
X112570000Y-151320000D03*
X119570000Y-152370000D03*
D14*
X123245000Y-152370000D03*
%TD*%
D16*
%TO.C,J3*%
X102930000Y-47100000D03*
D17*
X102930000Y-49640000D03*
X102930000Y-52180000D03*
X102930000Y-54720000D03*
X102930000Y-57260000D03*
X102930000Y-59800000D03*
X102930000Y-62340000D03*
X102930000Y-64880000D03*
%TD*%
D18*
%TO.C,R2*%
X73700000Y-63810000D03*
X81320000Y-63810000D03*
%TD*%
D13*
%TO.C,SW11*%
X99000000Y-99860000D03*
D14*
X90925000Y-104560000D03*
D15*
X94600000Y-104560000D03*
X101600000Y-105610000D03*
D14*
X105275000Y-105610000D03*
%TD*%
D13*
%TO.C,SW6*%
X59400000Y-118320000D03*
D14*
X51325000Y-123020000D03*
D15*
X55000000Y-123020000D03*
X62000000Y-124070000D03*
D14*
X65675000Y-124070000D03*
%TD*%
D16*
%TO.C,J2*%
X134910000Y-43220000D03*
D17*
X132370000Y-43220000D03*
X129830000Y-43220000D03*
X127290000Y-43220000D03*
X124750000Y-43220000D03*
%TD*%
D19*
%TO.C,Y1*%
X66350000Y-53220000D03*
X71250000Y-53220000D03*
%TD*%
D13*
%TO.C,SW1*%
X99000000Y-155610000D03*
D14*
X90925000Y-160310000D03*
D15*
X94600000Y-160310000D03*
X101600000Y-161360000D03*
D14*
X105275000Y-161360000D03*
%TD*%
D13*
%TO.C,SW8*%
X99000000Y-118320000D03*
D14*
X90925000Y-123020000D03*
D15*
X94600000Y-123020000D03*
X101600000Y-124070000D03*
D14*
X105275000Y-124070000D03*
%TD*%
D16*
%TO.C,5V1*%
X125880000Y-53310000D03*
D17*
X128420000Y-53310000D03*
%TD*%
D13*
%TO.C,SW4*%
X99000000Y-136250000D03*
D14*
X90925000Y-140950000D03*
D15*
X94600000Y-140950000D03*
X101600000Y-142000000D03*
D14*
X105275000Y-142000000D03*
%TD*%
D13*
%TO.C,SW9*%
X59400000Y-99940000D03*
D14*
X51325000Y-104640000D03*
D15*
X55000000Y-104640000D03*
X62000000Y-105690000D03*
D14*
X65675000Y-105690000D03*
%TD*%
D13*
%TO.C,SW12*%
X117045000Y-108630000D03*
D14*
X108970000Y-113330000D03*
D15*
X112645000Y-113330000D03*
X119645000Y-114380000D03*
D14*
X123320000Y-114380000D03*
%TD*%
D13*
%TO.C,SW10*%
X79120000Y-99720000D03*
D14*
X71045000Y-104420000D03*
D15*
X74720000Y-104420000D03*
X81720000Y-105470000D03*
D14*
X85395000Y-105470000D03*
%TD*%
D20*
%TO.C,D23*%
X61090000Y-113890000D03*
X61090000Y-112390000D03*
X55890000Y-112390000D03*
X55890000Y-113890000D03*
%TD*%
%TO.C,D17*%
X71790000Y-151150000D03*
X71790000Y-149650000D03*
X66590000Y-149650000D03*
X66590000Y-151150000D03*
%TD*%
D21*
%TO.C,D13*%
X67040000Y-72020000D03*
X65640000Y-72020000D03*
%TD*%
%TO.C,D1*%
X106730000Y-145990000D03*
X105330000Y-145990000D03*
%TD*%
D20*
%TO.C,D24*%
X80930000Y-113880000D03*
X80930000Y-112380000D03*
X75730000Y-112380000D03*
X75730000Y-113880000D03*
%TD*%
D22*
%TO.C,D2*%
X68390000Y-142280000D03*
X68390000Y-143680000D03*
%TD*%
D21*
%TO.C,D6*%
X65020000Y-109260000D03*
X63620000Y-109260000D03*
%TD*%
D22*
%TO.C,D3*%
X88170000Y-142370000D03*
X88170000Y-143770000D03*
%TD*%
D21*
%TO.C,D11*%
X103640000Y-90810000D03*
X102240000Y-90810000D03*
%TD*%
%TO.C,D8*%
X103720000Y-109160000D03*
X102320000Y-109160000D03*
%TD*%
D20*
%TO.C,D25*%
X100990000Y-113890000D03*
X100990000Y-112390000D03*
X95790000Y-112390000D03*
X95790000Y-113890000D03*
%TD*%
D21*
%TO.C,D12*%
X111477500Y-104170000D03*
X110077500Y-104170000D03*
%TD*%
D20*
%TO.C,D28*%
X101550000Y-95465000D03*
X101550000Y-93965000D03*
X96350000Y-93965000D03*
X96350000Y-95465000D03*
%TD*%
%TO.C,D31*%
X80910000Y-76700000D03*
X80910000Y-75200000D03*
X75710000Y-75200000D03*
X75710000Y-76700000D03*
%TD*%
D21*
%TO.C,D10*%
X84000000Y-90670000D03*
X82600000Y-90670000D03*
%TD*%
D20*
%TO.C,D30*%
X61100000Y-76740000D03*
X61100000Y-75240000D03*
X55900000Y-75240000D03*
X55900000Y-76740000D03*
%TD*%
D22*
%TO.C,D5*%
X126110000Y-152770000D03*
X126110000Y-154170000D03*
%TD*%
D20*
%TO.C,D18*%
X101010000Y-151170000D03*
X101010000Y-149670000D03*
X95810000Y-149670000D03*
X95810000Y-151170000D03*
%TD*%
D22*
%TO.C,D4*%
X106440000Y-130170000D03*
X106440000Y-131570000D03*
%TD*%
D20*
%TO.C,D19*%
X61510000Y-131880000D03*
X61510000Y-130380000D03*
X56310000Y-130380000D03*
X56310000Y-131880000D03*
%TD*%
%TO.C,D20*%
X81060000Y-131810000D03*
X81060000Y-130310000D03*
X75860000Y-130310000D03*
X75860000Y-131810000D03*
%TD*%
%TO.C,D32*%
X100850000Y-76710000D03*
X100850000Y-75210000D03*
X95650000Y-75210000D03*
X95650000Y-76710000D03*
%TD*%
D21*
%TO.C,D14*%
X83660000Y-72190000D03*
X82260000Y-72190000D03*
%TD*%
D20*
%TO.C,D26*%
X61950000Y-95535000D03*
X61950000Y-94035000D03*
X56750000Y-94035000D03*
X56750000Y-95535000D03*
%TD*%
%TO.C,D21*%
X101060000Y-131750000D03*
X101060000Y-130250000D03*
X95860000Y-130250000D03*
X95860000Y-131750000D03*
%TD*%
D23*
%TO.C,U2*%
X96990000Y-69450000D03*
D24*
X94450000Y-69450000D03*
X91910000Y-69450000D03*
X89370000Y-69450000D03*
X86830000Y-69450000D03*
X84290000Y-69450000D03*
X81750000Y-69450000D03*
X79210000Y-69450000D03*
X76670000Y-69450000D03*
X74130000Y-69450000D03*
X71590000Y-69450000D03*
X69050000Y-69450000D03*
X66510000Y-69450000D03*
X63970000Y-69450000D03*
X61430000Y-69450000D03*
X58890000Y-69450000D03*
X56350000Y-69450000D03*
X53810000Y-69450000D03*
X51270000Y-69450000D03*
X48730000Y-69450000D03*
X46190000Y-69450000D03*
X43650000Y-69450000D03*
X96960000Y-43020000D03*
X94420000Y-43020000D03*
X91880000Y-43020000D03*
X89340000Y-43020000D03*
X86800000Y-43020000D03*
X84260000Y-43020000D03*
X81720000Y-43020000D03*
X79180000Y-43020000D03*
X76640000Y-43020000D03*
X74100000Y-43020000D03*
X71560000Y-43020000D03*
X69020000Y-43020000D03*
X66480000Y-43020000D03*
X63940000Y-43020000D03*
X61400000Y-43020000D03*
X58860000Y-43020000D03*
X56320000Y-43020000D03*
X53780000Y-43020000D03*
X51240000Y-43020000D03*
X48700000Y-43020000D03*
X46160000Y-43020000D03*
X43620000Y-43020000D03*
%TD*%
D20*
%TO.C,D29*%
X119120000Y-104210000D03*
X119120000Y-102710000D03*
X113920000Y-102710000D03*
X113920000Y-104210000D03*
%TD*%
%TO.C,D33*%
X119520000Y-76710000D03*
X119520000Y-75210000D03*
X114320000Y-75210000D03*
X114320000Y-76710000D03*
%TD*%
%TO.C,D22*%
X119070000Y-142310000D03*
X119070000Y-140810000D03*
X113870000Y-140810000D03*
X113870000Y-142310000D03*
%TD*%
D25*
%TO.C,S1*%
X134360000Y-56930000D03*
D26*
X134360000Y-54430000D03*
X134360000Y-51930000D03*
%TD*%
D21*
%TO.C,D16*%
X121640000Y-72000000D03*
X120240000Y-72000000D03*
%TD*%
D20*
%TO.C,D27*%
X81670000Y-95370000D03*
X81670000Y-93870000D03*
X76470000Y-93870000D03*
X76470000Y-95370000D03*
%TD*%
D21*
%TO.C,D9*%
X65030000Y-90700000D03*
X63630000Y-90700000D03*
%TD*%
%TO.C,D15*%
X102670000Y-72050000D03*
X101270000Y-72050000D03*
%TD*%
D16*
%TO.C,J6*%
X126730000Y-120540000D03*
D17*
X126730000Y-123080000D03*
X126730000Y-125620000D03*
X126730000Y-128160000D03*
X126730000Y-130700000D03*
X126730000Y-133240000D03*
X126730000Y-135780000D03*
X126730000Y-138320000D03*
%TD*%
D21*
%TO.C,D7*%
X84520000Y-109290000D03*
X83120000Y-109290000D03*
%TD*%
%TO.C,D0*%
X77630000Y-146560000D03*
X76230000Y-146560000D03*
%TD*%
M02*
