%TF.GenerationSoftware,KiCad,Pcbnew,9.0.6*%
%TF.CreationDate,2026-03-08T21:19:32-04:00*%
%TF.ProjectId,numberpad,6e756d62-6572-4706-9164-2e6b69636164,rev?*%
%TF.SameCoordinates,Original*%
%TF.FileFunction,Paste,Bot*%
%TF.FilePolarity,Positive*%
%FSLAX46Y46*%
G04 Gerber Fmt 4.6, Leading zero omitted, Abs format (unit mm)*
G04 Created by KiCad (PCBNEW 9.0.6) date 2026-03-08 21:19:32*
%MOMM*%
%LPD*%
G01*
G04 APERTURE LIST*
G04 Aperture macros list*
%AMRoundRect*
0 Rectangle with rounded corners*
0 $1 Rounding radius*
0 $2 $3 $4 $5 $6 $7 $8 $9 X,Y pos of 4 corners*
0 Add a 4 corners polygon primitive as box body*
4,1,4,$2,$3,$4,$5,$6,$7,$8,$9,$2,$3,0*
0 Add four circle primitives for the rounded corners*
1,1,$1+$1,$2,$3*
1,1,$1+$1,$4,$5*
1,1,$1+$1,$6,$7*
1,1,$1+$1,$8,$9*
0 Add four rect primitives between the rounded corners*
20,1,$1+$1,$2,$3,$4,$5,0*
20,1,$1+$1,$4,$5,$6,$7,0*
20,1,$1+$1,$6,$7,$8,$9,0*
20,1,$1+$1,$8,$9,$2,$3,0*%
G04 Aperture macros list end*
%ADD10RoundRect,0.500000X-0.750000X-0.775000X0.750000X-0.775000X0.750000X0.775000X-0.750000X0.775000X0*%
%ADD11R,1.800000X0.820000*%
%ADD12RoundRect,0.150000X-0.150000X-0.200000X0.150000X-0.200000X0.150000X0.200000X-0.150000X0.200000X0*%
%ADD13RoundRect,0.150000X0.200000X-0.150000X0.200000X0.150000X-0.200000X0.150000X-0.200000X-0.150000X0*%
G04 APERTURE END LIST*
D10*
%TO.C,SW13*%
X51325000Y-85840000D03*
X65675000Y-86890000D03*
%TD*%
%TO.C,SW14*%
X71045000Y-85830000D03*
X85395000Y-86880000D03*
%TD*%
%TO.C,SW15*%
X90925000Y-85840000D03*
X105275000Y-86890000D03*
%TD*%
%TO.C,SW2*%
X51325000Y-140950000D03*
X65675000Y-142000000D03*
%TD*%
%TO.C,SW7*%
X71045000Y-123010000D03*
X85395000Y-124060000D03*
%TD*%
%TO.C,SW0*%
X61785000Y-160130000D03*
X76135000Y-161180000D03*
%TD*%
%TO.C,SW3*%
X71045000Y-140940000D03*
X85395000Y-141990000D03*
%TD*%
%TO.C,SW16*%
X108895000Y-85880000D03*
X123245000Y-86930000D03*
%TD*%
%TO.C,SW5*%
X108895000Y-151320000D03*
X123245000Y-152370000D03*
%TD*%
%TO.C,SW11*%
X90925000Y-104560000D03*
X105275000Y-105610000D03*
%TD*%
%TO.C,SW6*%
X51325000Y-123020000D03*
X65675000Y-124070000D03*
%TD*%
%TO.C,SW1*%
X90925000Y-160310000D03*
X105275000Y-161360000D03*
%TD*%
%TO.C,SW8*%
X90925000Y-123020000D03*
X105275000Y-124070000D03*
%TD*%
%TO.C,SW4*%
X90925000Y-140950000D03*
X105275000Y-142000000D03*
%TD*%
%TO.C,SW9*%
X51325000Y-104640000D03*
X65675000Y-105690000D03*
%TD*%
%TO.C,SW12*%
X108970000Y-113330000D03*
X123320000Y-114380000D03*
%TD*%
%TO.C,SW10*%
X71045000Y-104420000D03*
X85395000Y-105470000D03*
%TD*%
D11*
%TO.C,D23*%
X61090000Y-113890000D03*
X61090000Y-112390000D03*
X55890000Y-112390000D03*
X55890000Y-113890000D03*
%TD*%
%TO.C,D17*%
X71790000Y-151150000D03*
X71790000Y-149650000D03*
X66590000Y-149650000D03*
X66590000Y-151150000D03*
%TD*%
D12*
%TO.C,D13*%
X67040000Y-72020000D03*
X65640000Y-72020000D03*
%TD*%
%TO.C,D1*%
X106730000Y-145990000D03*
X105330000Y-145990000D03*
%TD*%
D11*
%TO.C,D24*%
X80930000Y-113880000D03*
X80930000Y-112380000D03*
X75730000Y-112380000D03*
X75730000Y-113880000D03*
%TD*%
D13*
%TO.C,D2*%
X68390000Y-142280000D03*
X68390000Y-143680000D03*
%TD*%
D12*
%TO.C,D6*%
X65020000Y-109260000D03*
X63620000Y-109260000D03*
%TD*%
D13*
%TO.C,D3*%
X88170000Y-142370000D03*
X88170000Y-143770000D03*
%TD*%
D12*
%TO.C,D11*%
X103640000Y-90810000D03*
X102240000Y-90810000D03*
%TD*%
%TO.C,D8*%
X103720000Y-109160000D03*
X102320000Y-109160000D03*
%TD*%
D11*
%TO.C,D25*%
X100990000Y-113890000D03*
X100990000Y-112390000D03*
X95790000Y-112390000D03*
X95790000Y-113890000D03*
%TD*%
D12*
%TO.C,D12*%
X111477500Y-104170000D03*
X110077500Y-104170000D03*
%TD*%
D11*
%TO.C,D28*%
X101550000Y-95465000D03*
X101550000Y-93965000D03*
X96350000Y-93965000D03*
X96350000Y-95465000D03*
%TD*%
%TO.C,D31*%
X80910000Y-76700000D03*
X80910000Y-75200000D03*
X75710000Y-75200000D03*
X75710000Y-76700000D03*
%TD*%
D12*
%TO.C,D10*%
X84000000Y-90670000D03*
X82600000Y-90670000D03*
%TD*%
D11*
%TO.C,D30*%
X61100000Y-76740000D03*
X61100000Y-75240000D03*
X55900000Y-75240000D03*
X55900000Y-76740000D03*
%TD*%
D13*
%TO.C,D5*%
X126110000Y-152770000D03*
X126110000Y-154170000D03*
%TD*%
D11*
%TO.C,D18*%
X101010000Y-151170000D03*
X101010000Y-149670000D03*
X95810000Y-149670000D03*
X95810000Y-151170000D03*
%TD*%
D13*
%TO.C,D4*%
X106440000Y-130170000D03*
X106440000Y-131570000D03*
%TD*%
D11*
%TO.C,D19*%
X61510000Y-131880000D03*
X61510000Y-130380000D03*
X56310000Y-130380000D03*
X56310000Y-131880000D03*
%TD*%
%TO.C,D20*%
X81060000Y-131810000D03*
X81060000Y-130310000D03*
X75860000Y-130310000D03*
X75860000Y-131810000D03*
%TD*%
%TO.C,D32*%
X100850000Y-76710000D03*
X100850000Y-75210000D03*
X95650000Y-75210000D03*
X95650000Y-76710000D03*
%TD*%
D12*
%TO.C,D14*%
X83660000Y-72190000D03*
X82260000Y-72190000D03*
%TD*%
D11*
%TO.C,D26*%
X61950000Y-95535000D03*
X61950000Y-94035000D03*
X56750000Y-94035000D03*
X56750000Y-95535000D03*
%TD*%
%TO.C,D21*%
X101060000Y-131750000D03*
X101060000Y-130250000D03*
X95860000Y-130250000D03*
X95860000Y-131750000D03*
%TD*%
%TO.C,D29*%
X119120000Y-104210000D03*
X119120000Y-102710000D03*
X113920000Y-102710000D03*
X113920000Y-104210000D03*
%TD*%
%TO.C,D33*%
X119520000Y-76710000D03*
X119520000Y-75210000D03*
X114320000Y-75210000D03*
X114320000Y-76710000D03*
%TD*%
%TO.C,D22*%
X119070000Y-142310000D03*
X119070000Y-140810000D03*
X113870000Y-140810000D03*
X113870000Y-142310000D03*
%TD*%
D12*
%TO.C,D16*%
X121640000Y-72000000D03*
X120240000Y-72000000D03*
%TD*%
D11*
%TO.C,D27*%
X81670000Y-95370000D03*
X81670000Y-93870000D03*
X76470000Y-93870000D03*
X76470000Y-95370000D03*
%TD*%
D12*
%TO.C,D9*%
X65030000Y-90700000D03*
X63630000Y-90700000D03*
%TD*%
%TO.C,D15*%
X102670000Y-72050000D03*
X101270000Y-72050000D03*
%TD*%
%TO.C,D7*%
X84520000Y-109290000D03*
X83120000Y-109290000D03*
%TD*%
%TO.C,D0*%
X77630000Y-146560000D03*
X76230000Y-146560000D03*
%TD*%
M02*
