%TF.GenerationSoftware,KiCad,Pcbnew,9.0.6*%
%TF.CreationDate,2026-03-08T21:19:32-04:00*%
%TF.ProjectId,numberpad,6e756d62-6572-4706-9164-2e6b69636164,rev?*%
%TF.SameCoordinates,Original*%
%TF.FileFunction,Soldermask,Top*%
%TF.FilePolarity,Negative*%
%FSLAX46Y46*%
G04 Gerber Fmt 4.6, Leading zero omitted, Abs format (unit mm)*
G04 Created by KiCad (PCBNEW 9.0.6) date 2026-03-08 21:19:32*
%MOMM*%
%LPD*%
G01*
G04 APERTURE LIST*
G04 Aperture macros list*
%AMRoundRect*
0 Rectangle with rounded corners*
0 $1 Rounding radius*
0 $2 $3 $4 $5 $6 $7 $8 $9 X,Y pos of 4 corners*
0 Add a 4 corners polygon primitive as box body*
4,1,4,$2,$3,$4,$5,$6,$7,$8,$9,$2,$3,0*
0 Add four circle primitives for the rounded corners*
1,1,$1+$1,$2,$3*
1,1,$1+$1,$4,$5*
1,1,$1+$1,$6,$7*
1,1,$1+$1,$8,$9*
0 Add four rect primitives between the rounded corners*
20,1,$1+$1,$2,$3,$4,$5,0*
20,1,$1+$1,$4,$5,$6,$7,0*
20,1,$1+$1,$6,$7,$8,$9,0*
20,1,$1+$1,$8,$9,$2,$3,0*%
G04 Aperture macros list end*
%ADD10R,1.524000X1.524000*%
%ADD11C,1.524000*%
%ADD12C,3.500000*%
%ADD13C,5.250000*%
%ADD14R,1.700000X1.700000*%
%ADD15C,1.700000*%
%ADD16C,1.400000*%
%ADD17RoundRect,0.062500X-0.350000X-0.062500X0.350000X-0.062500X0.350000X0.062500X-0.350000X0.062500X0*%
%ADD18RoundRect,0.062500X-0.062500X-0.350000X0.062500X-0.350000X0.062500X0.350000X-0.062500X0.350000X0*%
%ADD19R,3.700000X3.700000*%
%ADD20RoundRect,0.094250X0.282750X-0.742750X0.282750X0.742750X-0.282750X0.742750X-0.282750X-0.742750X0*%
%ADD21RoundRect,0.094250X0.742750X-0.282750X0.742750X0.282750X-0.742750X0.282750X-0.742750X-0.282750X0*%
%ADD22C,1.500000*%
%ADD23RoundRect,0.102000X0.765000X-0.765000X0.765000X0.765000X-0.765000X0.765000X-0.765000X-0.765000X0*%
%ADD24C,1.734000*%
%ADD25RoundRect,0.102000X0.704000X-0.704000X0.704000X0.704000X-0.704000X0.704000X-0.704000X-0.704000X0*%
%ADD26C,1.612000*%
G04 APERTURE END LIST*
D10*
%TO.C,J5*%
X117205000Y-54990000D03*
D11*
X114705000Y-54990000D03*
X112705000Y-54990000D03*
X110205000Y-54990000D03*
D12*
X120380000Y-52280000D03*
X107030000Y-52280000D03*
%TD*%
D13*
%TO.C,SW13*%
X59400000Y-81140000D03*
%TD*%
D14*
%TO.C,J7*%
X43180000Y-52590000D03*
D15*
X43180000Y-55130000D03*
X43180000Y-57670000D03*
X43180000Y-60210000D03*
%TD*%
D13*
%TO.C,SW14*%
X79120000Y-81130000D03*
%TD*%
D14*
%TO.C,3V3*%
X125760000Y-57210000D03*
D15*
X128300000Y-57210000D03*
%TD*%
D16*
%TO.C,R1*%
X73640000Y-58540000D03*
X81260000Y-58540000D03*
%TD*%
%TO.C,C1*%
X76390000Y-52890000D03*
X78890000Y-52890000D03*
%TD*%
D13*
%TO.C,SW15*%
X99000000Y-81140000D03*
%TD*%
%TO.C,SW2*%
X59400000Y-136250000D03*
%TD*%
D17*
%TO.C,U3*%
X63282500Y-59290000D03*
X63282500Y-59790000D03*
X63282500Y-60290000D03*
X63282500Y-60790000D03*
X63282500Y-61290000D03*
X63282500Y-61790000D03*
X63282500Y-62290000D03*
X63282500Y-62790000D03*
X63282500Y-63290000D03*
D18*
X64220000Y-64227500D03*
X64720000Y-64227500D03*
X65220000Y-64227500D03*
X65720000Y-64227500D03*
X66220000Y-64227500D03*
X66720000Y-64227500D03*
X67220000Y-64227500D03*
X67720000Y-64227500D03*
X68220000Y-64227500D03*
D17*
X69157500Y-63290000D03*
X69157500Y-62790000D03*
X69157500Y-62290000D03*
X69157500Y-61790000D03*
X69157500Y-61290000D03*
X69157500Y-60790000D03*
X69157500Y-60290000D03*
X69157500Y-59790000D03*
X69157500Y-59290000D03*
D18*
X68220000Y-58352500D03*
X67720000Y-58352500D03*
X67220000Y-58352500D03*
X66720000Y-58352500D03*
X66220000Y-58352500D03*
X65720000Y-58352500D03*
X65220000Y-58352500D03*
X64720000Y-58352500D03*
X64220000Y-58352500D03*
D19*
X66220000Y-61290000D03*
%TD*%
D13*
%TO.C,SW7*%
X79120000Y-118310000D03*
%TD*%
D14*
%TO.C,J4*%
X134210000Y-68910000D03*
D15*
X131670000Y-68910000D03*
X129130000Y-68910000D03*
X126590000Y-68910000D03*
X124050000Y-68910000D03*
X121510000Y-68910000D03*
%TD*%
D14*
%TO.C,J1*%
X110410000Y-58530000D03*
D15*
X112950000Y-58530000D03*
X115490000Y-58530000D03*
%TD*%
D13*
%TO.C,SW0*%
X69860000Y-155430000D03*
%TD*%
D16*
%TO.C,C2*%
X84450000Y-52840000D03*
X86950000Y-52840000D03*
%TD*%
D13*
%TO.C,SW3*%
X79120000Y-136240000D03*
%TD*%
%TO.C,SW16*%
X116970000Y-81180000D03*
%TD*%
%TO.C,SW5*%
X116970000Y-146620000D03*
%TD*%
D14*
%TO.C,J3*%
X102930000Y-47100000D03*
D15*
X102930000Y-49640000D03*
X102930000Y-52180000D03*
X102930000Y-54720000D03*
X102930000Y-57260000D03*
X102930000Y-59800000D03*
X102930000Y-62340000D03*
X102930000Y-64880000D03*
%TD*%
D16*
%TO.C,R2*%
X73700000Y-63810000D03*
X81320000Y-63810000D03*
%TD*%
D20*
%TO.C,U1*%
X127820000Y-99410000D03*
X128620000Y-99410000D03*
X129420000Y-99410000D03*
X130220000Y-99410000D03*
X131020000Y-99410000D03*
X131820000Y-99410000D03*
X132620000Y-99410000D03*
X133420000Y-99410000D03*
D21*
X134790000Y-98040000D03*
X134790000Y-97240000D03*
X134790000Y-96440000D03*
X134790000Y-95640000D03*
X134790000Y-94840000D03*
X134790000Y-94040000D03*
X134790000Y-93240000D03*
X134790000Y-92440000D03*
D20*
X133420000Y-91070000D03*
X132620000Y-91070000D03*
X131820000Y-91070000D03*
X131020000Y-91070000D03*
X130220000Y-91070000D03*
X129420000Y-91070000D03*
X128620000Y-91070000D03*
X127820000Y-91070000D03*
D21*
X126450000Y-92440000D03*
X126450000Y-93240000D03*
X126450000Y-94040000D03*
X126450000Y-94840000D03*
X126450000Y-95640000D03*
X126450000Y-96440000D03*
X126450000Y-97240000D03*
X126450000Y-98040000D03*
%TD*%
D13*
%TO.C,SW11*%
X99000000Y-99860000D03*
%TD*%
%TO.C,SW6*%
X59400000Y-118320000D03*
%TD*%
D14*
%TO.C,J2*%
X134910000Y-43220000D03*
D15*
X132370000Y-43220000D03*
X129830000Y-43220000D03*
X127290000Y-43220000D03*
X124750000Y-43220000D03*
%TD*%
D22*
%TO.C,Y1*%
X66350000Y-53220000D03*
X71250000Y-53220000D03*
%TD*%
D13*
%TO.C,SW1*%
X99000000Y-155610000D03*
%TD*%
%TO.C,SW8*%
X99000000Y-118320000D03*
%TD*%
D14*
%TO.C,5V1*%
X125880000Y-53310000D03*
D15*
X128420000Y-53310000D03*
%TD*%
D13*
%TO.C,SW4*%
X99000000Y-136250000D03*
%TD*%
%TO.C,SW9*%
X59400000Y-99940000D03*
%TD*%
%TO.C,SW12*%
X117045000Y-108630000D03*
%TD*%
%TO.C,SW10*%
X79120000Y-99720000D03*
%TD*%
D23*
%TO.C,U2*%
X96990000Y-69450000D03*
D24*
X94450000Y-69450000D03*
X91910000Y-69450000D03*
X89370000Y-69450000D03*
X86830000Y-69450000D03*
X84290000Y-69450000D03*
X81750000Y-69450000D03*
X79210000Y-69450000D03*
X76670000Y-69450000D03*
X74130000Y-69450000D03*
X71590000Y-69450000D03*
X69050000Y-69450000D03*
X66510000Y-69450000D03*
X63970000Y-69450000D03*
X61430000Y-69450000D03*
X58890000Y-69450000D03*
X56350000Y-69450000D03*
X53810000Y-69450000D03*
X51270000Y-69450000D03*
X48730000Y-69450000D03*
X46190000Y-69450000D03*
X43650000Y-69450000D03*
X96960000Y-43020000D03*
X94420000Y-43020000D03*
X91880000Y-43020000D03*
X89340000Y-43020000D03*
X86800000Y-43020000D03*
X84260000Y-43020000D03*
X81720000Y-43020000D03*
X79180000Y-43020000D03*
X76640000Y-43020000D03*
X74100000Y-43020000D03*
X71560000Y-43020000D03*
X69020000Y-43020000D03*
X66480000Y-43020000D03*
X63940000Y-43020000D03*
X61400000Y-43020000D03*
X58860000Y-43020000D03*
X56320000Y-43020000D03*
X53780000Y-43020000D03*
X51240000Y-43020000D03*
X48700000Y-43020000D03*
X46160000Y-43020000D03*
X43620000Y-43020000D03*
%TD*%
D25*
%TO.C,S1*%
X134360000Y-56930000D03*
D26*
X134360000Y-54430000D03*
X134360000Y-51930000D03*
%TD*%
D14*
%TO.C,J6*%
X126730000Y-120540000D03*
D15*
X126730000Y-123080000D03*
X126730000Y-125620000D03*
X126730000Y-128160000D03*
X126730000Y-130700000D03*
X126730000Y-133240000D03*
X126730000Y-135780000D03*
X126730000Y-138320000D03*
%TD*%
M02*
